<svg width="178" height="201" viewBox="0 0 178 201" fill="none" xmlns="http://www.w3.org/2000/svg">
<path d="M23.178 81.5816H28.2204L30.2374 80.5731L41.3308 73.5137V69.4797L30.2374 76.5392L23.178 78.5562V81.5816Z" fill="url(#paint0_linear_2321_2451)"/>
<path d="M96.7979 78.2286C88.73 75.6835 78.6451 77.6984 74.6111 79.0239V75.5305C78.3089 74.1858 87.7215 72.1016 95.7894 74.522L96.7979 78.2286Z" fill="#B4DBFF"/>
<g filter="url(#filter0_i_2321_2451)">
<path d="M77.3875 130.998L60.2431 116.879C53.1837 120.913 33.0139 157.219 45.1158 157.219C54.7973 157.219 70.6642 139.738 77.3875 130.998Z" fill="url(#paint1_linear_2321_2451)"/>
</g>
<g filter="url(#filter1_ii_2321_2451)">
<path d="M41.7652 79.2964C42.774 116.611 53.8674 110.56 76.054 131.738C91.1813 166.027 52.8586 169.052 40.7567 156.95C60.9266 125.687 34.7058 106.526 36.7228 111.568C39.1431 115.602 32.6888 133.083 28.6548 140.814C23.6124 131.738 10.502 118.628 5.45955 104.509C-9.66784 140.814 17.5614 155.942 28.6549 159.976C98.2408 233.596 147.657 190.231 166.818 157.959C171.846 149.491 178.92 110.56 177.912 88.3728C177.912 27.8633 134.547 -10.7276 88.1559 2.651C41.7652 16.0296 35.7144 57.1096 41.7652 79.2964Z" fill="url(#paint2_linear_2321_2451)"/>
</g>
<path d="M127.563 39.4492C121.021 37.3111 118.947 39.1915 113.927 40.3202C113.813 40.346 113.698 40.2625 113.69 40.1454C113.267 34.3187 125.719 34.1596 127.805 39.207C127.867 39.3573 127.718 39.4998 127.563 39.4492Z" fill="#55A4DD"/>
<g filter="url(#filter2_ii_2321_2451)">
<path d="M151.85 125.17C142.774 115.085 133.697 125.17 136.723 132.229C141.429 148.029 152.859 180.435 160.927 183.663C171.011 187.696 164.96 142.314 151.85 125.17Z" fill="url(#paint3_linear_2321_2451)"/>
</g>
<path d="M69.5684 95.0087C73.6023 95.0087 82.6788 109.819 107.891 90.658C101.84 107.802 81.6703 115.87 69.5684 95.0087Z" fill="url(#paint4_linear_2321_2451)"/>
<path d="M76.807 84.965C61.2649 96.88 83.0241 115.745 107.891 90.9225C102.711 84.965 89.2406 75.4329 76.807 84.965Z" fill="url(#paint5_linear_2321_2451)"/>
<path fill-rule="evenodd" clip-rule="evenodd" d="M123.019 95.7004C138.614 95.7004 151.257 83.9609 151.257 69.4796C151.257 54.9982 138.614 43.2588 123.019 43.2588C107.423 43.2588 94.781 54.9982 94.781 69.4796C94.781 83.9609 107.423 95.7004 123.019 95.7004ZM123.019 93.6834C137.5 93.6834 149.24 82.8469 149.24 69.4795C149.24 56.1122 137.5 45.2757 123.019 45.2757C108.538 45.2757 96.7983 56.1122 96.7983 69.4795C96.7983 82.8469 108.538 93.6834 123.019 93.6834Z" fill="url(#paint6_linear_2321_2451)"/>
<path fill-rule="evenodd" clip-rule="evenodd" d="M51.4158 103.768C64.2262 103.768 74.6111 92.029 74.6111 77.5477C74.6111 63.0664 64.2262 51.3269 51.4158 51.3269C38.6054 51.3269 28.2205 63.0664 28.2205 77.5477C28.2205 92.029 38.6054 103.768 51.4158 103.768ZM51.4155 101.752C63.112 101.752 72.5938 90.9152 72.5938 77.5478C72.5938 64.1804 63.112 53.344 51.4155 53.344C39.719 53.344 30.2372 64.1804 30.2372 77.5478C30.2372 90.9152 39.719 101.752 51.4155 101.752Z" fill="url(#paint7_linear_2321_2451)"/>
<path d="M147.222 64.4371H149.239L155.29 63.4286L165.375 42.2502H167.392L169.409 46.2842H166.384L157.307 67.4625C157.307 67.4625 149.239 69.4795 147.222 68.471C145.206 67.4625 146.214 64.4371 147.222 64.4371Z" fill="url(#paint8_linear_2321_2451)"/>
<path d="M97.8063 79.7524C89.005 77.949 78.0032 79.3767 73.6025 80.316V77.8406C77.6365 76.8878 89.005 75.3369 97.8063 77.0519V79.7524Z" fill="url(#paint9_linear_2321_2451)"/>
<path d="M58.487 44.6067C56.5387 42.1144 53.0784 42.8181 51.855 43.7188C51.745 43.7997 51.5788 43.7673 51.5326 43.6389C50.1676 39.8479 61.2671 38.0623 58.8446 44.5545C58.7891 44.7033 58.5848 44.7318 58.487 44.6067Z" fill="#55A4DD"/>
<g filter="url(#filter3_f_2321_2451)">
<path d="M49.8394 168.362C42.4753 163.128 36.6678 157.043 33.1358 152.742C31.9885 151.345 29.9501 151.967 30.493 153.691C34.5873 166.699 61.1647 176.41 49.8394 168.362Z" fill="white" fill-opacity="0.5"/>
</g>
<g filter="url(#filter4_f_2321_2451)">
<path d="M73.7147 91.7799C74.8142 87.8126 77.8378 86.8208 79.2121 86.8208C83.3351 85.581 86.771 90.5401 85.3967 92.3998C84.0223 94.2595 72.3404 96.7391 73.7147 91.7799Z" fill="white" fill-opacity="0.5"/>
</g>
<g filter="url(#filter5_f_2321_2451)">
<path d="M140.163 124.947C143.641 130.91 148.361 143.73 150.597 151.78C152.953 160.266 155.068 127.63 140.163 124.947Z" fill="white" fill-opacity="0.5"/>
</g>
<g filter="url(#filter6_f_2321_2451)">
<path d="M43.3479 92.3346C45.598 89.945 54.6919 78.6241 65.2864 88.7503C67.5365 90.901 54.0359 103.088 43.3479 92.3346Z" fill="#E0F3FF" fill-opacity="0.5"/>
</g>
<path d="M143.408 58.9291C142.399 63.9715 139.71 65.9885 138.365 65.9885L136.348 61.9545C139.814 65.4456 144.416 53.8866 143.408 58.9291Z" fill="#173F66"/>
<path d="M137.357 54.8951C136.348 56.9121 134.331 58.5929 133.323 58.9291L136.348 60.946C140.382 57.9206 138.783 52.0426 137.357 54.8951Z" fill="#173F66"/>
<path d="M132.314 52.8781C131.306 54.8951 129.289 56.5759 128.28 56.9121L132.314 57.9206C134.331 54.8951 133.323 50.8611 132.314 52.8781Z" fill="#173F66"/>
<path d="M140.373 65.1711C139.312 88.2051 121.228 79.7579 111.09 81.3397C110.47 81.4365 109.869 80.9757 109.844 80.3484C108.652 50.5345 136.131 53.0146 140.321 64.8061C140.362 64.9206 140.379 65.0498 140.373 65.1711Z" fill="url(#paint10_linear_2321_2451)"/>
<path d="M136.348 70.0226C136.348 77.2632 132.314 81.116 124.246 81.116C116.178 81.116 114.161 77.2632 114.161 70.0226C114.161 62.7819 119.128 57.9207 125.255 57.9207C131.382 57.9207 136.348 62.7819 136.348 70.0226Z" fill="url(#paint11_linear_2321_2451)"/>
<path d="M136.348 70.0008C136.348 76.9266 132.314 80.6119 124.246 80.6119C116.178 80.6119 114.161 76.9266 114.161 70.0008C114.161 63.0749 119.128 58.425 125.255 58.425C131.382 58.425 136.348 63.0749 136.348 70.0008Z" fill="url(#paint12_linear_2321_2451)"/>
<path d="M134.331 69.9129C134.331 75.5796 131.031 78.5947 124.43 78.5947C117.828 78.5947 116.178 75.5796 116.178 69.9129C116.178 64.2463 120.242 60.4419 125.255 60.4419C130.267 60.4419 134.331 64.2463 134.331 69.9129Z" fill="url(#paint13_linear_2321_2451)"/>
<path d="M130.078 69.7868C130.078 74.1942 129.437 76.4282 125.036 76.4282C120.635 76.4282 119.535 74.083 119.535 69.6757C119.535 65.2683 120.685 62.4204 124.027 62.4204C127.369 62.4204 130.078 65.3794 130.078 69.7868Z" fill="#142C57"/>
<path d="M109.908 78.5561C108.9 65.4457 121.001 48.3013 140.163 63.4287C132.095 47.2928 103.857 56.3692 109.908 78.5561Z" fill="#173F66"/>
<path d="M136.129 60.4033C137.138 61.4118 140.327 64.4373 139.155 72.5052C143.189 63.4288 138.815 61.4118 136.129 60.4033Z" fill="#173F66"/>
<ellipse cx="129.07" cy="75.5226" rx="1.00649" ry="0.998498" transform="rotate(-0.11512 129.07 75.5226)" fill="white"/>
<path d="M135.12 64.437C135.122 65.2006 133.7 64.9207 133.034 64.9221C132.369 64.9234 132.097 64.1921 132.095 63.4285C132.094 62.6649 132.438 61.4129 133.103 61.4115C133.769 61.4102 135.119 63.6734 135.12 64.437Z" fill="#EEF8FF"/>
<path d="M121.002 60.6857C124.027 59.6772 124.027 61.4118 124.027 61.4118L122.01 68.4713L115.959 68.7537C115.959 68.7537 117.976 61.6942 121.002 60.6857Z" fill="#F0F8FF"/>
<g filter="url(#filter7_f_2321_2451)">
<path d="M5.02485 116.879C4.01636 123.938 6.18929 139.687 20.1522 150.159C36.2882 162.261 10.0675 136.04 5.02485 116.879Z" fill="#99E7F7" fill-opacity="0.5"/>
</g>
<path d="M115.959 81.5815C120.666 80.2368 124.311 79.7624 133.104 79.5645C138.146 79.4511 130.078 82.59 115.959 81.5815Z" fill="#5BB5F4"/>
<g filter="url(#filter8_f_2321_2451)">
<path d="M108.618 86.3863C111.891 83.9967 125.119 72.6758 140.529 82.802C143.802 84.9527 124.164 97.1395 108.618 86.3863Z" fill="#E0F3FF" fill-opacity="0.5"/>
</g>
<path d="M67.5518 82.59C67.4905 84.1845 47.382 94.6919 45.3647 71.4966C46.3735 57.3777 68.5603 56.3693 67.5518 82.59Z" fill="url(#paint14_linear_2321_2451)"/>
<path d="M45.3649 72.5051C46.3734 69.8158 48.9101 62.8707 55.4498 63.4287C62.5551 64.0348 43.3478 58.3862 45.3649 72.5051Z" fill="#173F66"/>
<path d="M67.5519 76.0709C66.2913 83.4211 63.0367 84.4711 57.467 84.4711C52.4245 85.5212 47.3821 80.3499 47.3821 73.9708C47.3821 67.5917 50.6366 62.4204 56.2064 62.4204C61.7761 62.4204 67.5519 67.6706 67.5519 76.0709Z" fill="url(#paint15_linear_2321_2451)"/>
<path d="M65.5347 73.589C64.6522 79.6028 62.374 80.4619 58.4752 80.4619C54.9455 81.321 51.4158 77.09 51.4158 71.8707C51.4158 66.6515 53.694 62.4204 57.5928 62.4204C61.4916 62.4204 65.5347 66.716 65.5347 73.589Z" fill="url(#paint16_linear_2321_2451)"/>
<path d="M63.5176 71.883C63.0134 75.8922 61.7116 76.4649 59.4837 76.4649C57.4667 77.0377 55.4497 74.217 55.4497 70.7375C55.4497 67.258 56.7515 64.4373 58.9794 64.4373C61.2073 64.4373 63.5176 67.301 63.5176 71.883Z" fill="#142C57"/>
<path d="M41.3308 64.4373C43.7512 66.8577 45.7009 67.4628 46.3733 67.4628C45.3648 66.4543 43.3478 63.4288 43.3478 59.3949C44.9614 61.8152 48.3903 64.1012 49.3987 64.4373C49.3987 63.4288 46.3733 60.4034 46.3733 56.3694C47.9869 59.5966 49.7349 60.4034 50.4072 60.4034C52.4242 59.731 58.4752 60.4034 62.5091 64.4373C62.5091 64.4373 58.2338 63.3641 55.4497 63.4288C53.0547 63.4845 49.3987 64.4373 49.3987 64.4373L46.3733 67.4628L45.2635 72.4343C44.2146 71.6657 42.1116 69.1219 41.3308 64.4373Z" fill="#173F66"/>
<path d="M67.5518 78.5561C66.5433 68.4712 64.5263 66.4542 62.5093 64.4372L58.4753 63.4287C61.5008 65.1095 66.5433 68.4712 67.5518 78.5561Z" fill="#173F66"/>
<path d="M46.3734 76.5392C46.3734 76.5392 45.3649 71.4967 46.3734 69.4797C46.0372 69.8159 44.9615 71.0933 43.3479 69.4797C45.3649 75.5307 46.3734 76.5392 46.3734 76.5392Z" fill="#173F66"/>
<path d="M50.4075 84.6069C52.4245 83.5984 57.4669 84.6069 65.5349 84.6069C58.6502 88.6658 51.416 85.6154 50.4075 84.6069Z" fill="#82C9F7"/>
<path d="M63.5177 67.4625C63.839 68.6024 61.1325 69.2803 60.3531 69.2803C59.3511 69.5627 58.6357 68.585 58.3145 67.445C57.9932 66.3051 57.9894 64.2898 58.9914 64.0074C59.9503 64.0074 62.5093 66.454 63.5177 67.4625Z" fill="#EEF8FF"/>
<path d="M57.4666 65.4457C57.4666 64.8887 57.0151 64.4372 56.4581 64.4372C55.9012 64.4372 54.4412 64.8887 54.4412 65.4457C54.4412 66.0026 54.4412 67.4626 56.4581 67.4626C57.0151 67.4626 57.4666 66.0026 57.4666 65.4457Z" fill="#EEF8FF"/>
<ellipse cx="55.0689" cy="80.3704" rx="1.03265" ry="1.5009" transform="rotate(-29.3703 55.0689 80.3704)" fill="#EEF8FF"/>
<ellipse cx="52.5285" cy="67.6504" rx="1.01221" ry="1.10472" transform="rotate(-5.46049 52.5285 67.6504)" fill="#EEF8FF"/>
<defs>
<filter id="filter0_i_2321_2451" x="41.3308" y="116.879" width="36.0566" height="42.3396" filterUnits="userSpaceOnUse" color-interpolation-filters="sRGB">
<feFlood flood-opacity="0" result="BackgroundImageFix"/>
<feBlend mode="normal" in="SourceGraphic" in2="BackgroundImageFix" result="shape"/>
<feColorMatrix in="SourceAlpha" type="matrix" values="0 0 0 0 0 0 0 0 0 0 0 0 0 0 0 0 0 0 127 0" result="hardAlpha"/>
<feOffset dy="2"/>
<feGaussianBlur stdDeviation="2"/>
<feComposite in2="hardAlpha" operator="arithmetic" k2="-1" k3="1"/>
<feColorMatrix type="matrix" values="0 0 0 0 0.0425347 0 0 0 0 0.549444 0 0 0 0 0.729167 0 0 0 0.5 0"/>
<feBlend mode="normal" in2="shape" result="effect1_innerShadow_2321_2451"/>
</filter>
<filter id="filter1_ii_2321_2451" x="0.991211" y="-2" width="177.018" height="207.367" filterUnits="userSpaceOnUse" color-interpolation-filters="sRGB">
<feFlood flood-opacity="0" result="BackgroundImageFix"/>
<feBlend mode="normal" in="SourceGraphic" in2="BackgroundImageFix" result="shape"/>
<feColorMatrix in="SourceAlpha" type="matrix" values="0 0 0 0 0 0 0 0 0 0 0 0 0 0 0 0 0 0 127 0" result="hardAlpha"/>
<feOffset dy="5"/>
<feGaussianBlur stdDeviation="3"/>
<feComposite in2="hardAlpha" operator="arithmetic" k2="-1" k3="1"/>
<feColorMatrix type="matrix" values="0 0 0 0 0.34902 0 0 0 0 0.729412 0 0 0 0 1 0 0 0 0.47 0"/>
<feBlend mode="normal" in2="shape" result="effect1_innerShadow_2321_2451"/>
<feColorMatrix in="SourceAlpha" type="matrix" values="0 0 0 0 0 0 0 0 0 0 0 0 0 0 0 0 0 0 127 0" result="hardAlpha"/>
<feOffset dy="-2"/>
<feGaussianBlur stdDeviation="4"/>
<feComposite in2="hardAlpha" operator="arithmetic" k2="-1" k3="1"/>
<feColorMatrix type="matrix" values="0 0 0 0 0.168906 0 0 0 0 0.800316 0 0 0 0 0.8625 0 0 0 0.5 0"/>
<feBlend mode="normal" in2="effect1_innerShadow_2321_2451" result="effect2_innerShadow_2321_2451"/>
</filter>
<filter id="filter2_ii_2321_2451" x="136.129" y="118.913" width="31.8462" height="65.0022" filterUnits="userSpaceOnUse" color-interpolation-filters="sRGB">
<feFlood flood-opacity="0" result="BackgroundImageFix"/>
<feBlend mode="normal" in="SourceGraphic" in2="BackgroundImageFix" result="shape"/>
<feColorMatrix in="SourceAlpha" type="matrix" values="0 0 0 0 0 0 0 0 0 0 0 0 0 0 0 0 0 0 127 0" result="hardAlpha"/>
<feOffset dy="-2"/>
<feGaussianBlur stdDeviation="4"/>
<feComposite in2="hardAlpha" operator="arithmetic" k2="-1" k3="1"/>
<feColorMatrix type="matrix" values="0 0 0 0 0.218698 0 0 0 0 0.714874 0 0 0 0 0.920833 0 0 0 0.5 0"/>
<feBlend mode="normal" in2="shape" result="effect1_innerShadow_2321_2451"/>
<feColorMatrix in="SourceAlpha" type="matrix" values="0 0 0 0 0 0 0 0 0 0 0 0 0 0 0 0 0 0 127 0" result="hardAlpha"/>
<feOffset dx="2"/>
<feGaussianBlur stdDeviation="2"/>
<feComposite in2="hardAlpha" operator="arithmetic" k2="-1" k3="1"/>
<feColorMatrix type="matrix" values="0 0 0 0 0.388235 0 0 0 0 0.905882 0 0 0 0 0.964706 0 0 0 1 0"/>
<feBlend mode="normal" in2="effect1_innerShadow_2321_2451" result="effect2_innerShadow_2321_2451"/>
</filter>
<filter id="filter3_f_2321_2451" x="26.4028" y="147.973" width="30.2239" height="27.3208" filterUnits="userSpaceOnUse" color-interpolation-filters="sRGB">
<feFlood flood-opacity="0" result="BackgroundImageFix"/>
<feBlend mode="normal" in="SourceGraphic" in2="BackgroundImageFix" result="shape"/>
<feGaussianBlur stdDeviation="2" result="effect1_foregroundBlur_2321_2451"/>
</filter>
<filter id="filter4_f_2321_2451" x="68.6025" y="81.6243" width="22.1018" height="18.0679" filterUnits="userSpaceOnUse" color-interpolation-filters="sRGB">
<feFlood flood-opacity="0" result="BackgroundImageFix"/>
<feBlend mode="normal" in="SourceGraphic" in2="BackgroundImageFix" result="shape"/>
<feGaussianBlur stdDeviation="2.5" result="effect1_foregroundBlur_2321_2451"/>
</filter>
<filter id="filter5_f_2321_2451" x="135.163" y="119.947" width="22.1018" height="38.2378" filterUnits="userSpaceOnUse" color-interpolation-filters="sRGB">
<feFlood flood-opacity="0" result="BackgroundImageFix"/>
<feBlend mode="normal" in="SourceGraphic" in2="BackgroundImageFix" result="shape"/>
<feGaussianBlur stdDeviation="2.5" result="effect1_foregroundBlur_2321_2451"/>
</filter>
<filter id="filter6_f_2321_2451" x="35.3479" y="76.6072" width="38.1868" height="28.1018" filterUnits="userSpaceOnUse" color-interpolation-filters="sRGB">
<feFlood flood-opacity="0" result="BackgroundImageFix"/>
<feBlend mode="normal" in="SourceGraphic" in2="BackgroundImageFix" result="shape"/>
<feGaussianBlur stdDeviation="4" result="effect1_foregroundBlur_2321_2451"/>
</filter>
<filter id="filter7_f_2321_2451" x="0.811523" y="112.879" width="28.5256" height="44.3562" filterUnits="userSpaceOnUse" color-interpolation-filters="sRGB">
<feFlood flood-opacity="0" result="BackgroundImageFix"/>
<feBlend mode="normal" in="SourceGraphic" in2="BackgroundImageFix" result="shape"/>
<feGaussianBlur stdDeviation="2" result="effect1_foregroundBlur_2321_2451"/>
</filter>
<filter id="filter8_f_2321_2451" x="99.6182" y="69.6589" width="50.2717" height="30.1018" filterUnits="userSpaceOnUse" color-interpolation-filters="sRGB">
<feFlood flood-opacity="0" result="BackgroundImageFix"/>
<feBlend mode="normal" in="SourceGraphic" in2="BackgroundImageFix" result="shape"/>
<feGaussianBlur stdDeviation="4.5" result="effect1_foregroundBlur_2321_2451"/>
</filter>
<linearGradient id="paint0_linear_2321_2451" x1="32.2544" y1="69.4797" x2="32.2544" y2="81.5816" gradientUnits="userSpaceOnUse">
<stop stop-color="#10BFCF"/>
<stop offset="1" stop-color="#A7F7FB"/>
</linearGradient>
<linearGradient id="paint1_linear_2321_2451" x1="90.7469" y1="120.913" x2="91.7554" y2="161.253" gradientUnits="userSpaceOnUse">
<stop stop-color="#5FC7F5"/>
<stop offset="1" stop-color="#ACF0FC"/>
</linearGradient>
<linearGradient id="paint2_linear_2321_2451" x1="89.4999" y1="1.91068" x2="89.4999" y2="200.367" gradientUnits="userSpaceOnUse">
<stop offset="0.0292509" stop-color="#EEF8FF"/>
<stop offset="0.396124" stop-color="#5AB4F3"/>
<stop offset="1" stop-color="#68F0F8"/>
</linearGradient>
<linearGradient id="paint3_linear_2321_2451" x1="151.052" y1="120.913" x2="151.052" y2="183.915" gradientUnits="userSpaceOnUse">
<stop stop-color="#60CCF6"/>
<stop offset="1" stop-color="#BEF8FF"/>
</linearGradient>
<linearGradient id="paint4_linear_2321_2451" x1="89.234" y1="91.7456" x2="89.234" y2="107.661" gradientUnits="userSpaceOnUse">
<stop stop-color="#011F44"/>
<stop offset="1" stop-color="#44B5ED"/>
</linearGradient>
<linearGradient id="paint5_linear_2321_2451" x1="89.7385" y1="80.9211" x2="89.7385" y2="103.108" gradientUnits="userSpaceOnUse">
<stop stop-color="#5BB7F4"/>
<stop offset="1" stop-color="#B5E0FF"/>
</linearGradient>
<linearGradient id="paint6_linear_2321_2451" x1="123.019" y1="43.2588" x2="123.019" y2="95.7004" gradientUnits="userSpaceOnUse">
<stop stop-color="#E0F2FF"/>
<stop offset="1" stop-color="#1465E1"/>
</linearGradient>
<linearGradient id="paint7_linear_2321_2451" x1="51.4158" y1="51.3269" x2="51.4158" y2="103.768" gradientUnits="userSpaceOnUse">
<stop stop-color="#E0F2FF"/>
<stop offset="1" stop-color="#1465E1"/>
</linearGradient>
<linearGradient id="paint8_linear_2321_2451" x1="172.435" y1="40.2333" x2="157.734" y2="68.7534" gradientUnits="userSpaceOnUse">
<stop stop-color="#08E5F4"/>
<stop offset="1" stop-color="#94F8FF"/>
</linearGradient>
<linearGradient id="paint9_linear_2321_2451" x1="85.7044" y1="76.282" x2="85.7044" y2="80.316" gradientUnits="userSpaceOnUse">
<stop stop-color="#E0F2FF"/>
<stop offset="1" stop-color="#1465E1"/>
</linearGradient>
<linearGradient id="paint10_linear_2321_2451" x1="125.145" y1="56.7093" x2="117.976" y2="81.5816" gradientUnits="userSpaceOnUse">
<stop stop-color="#173F66"/>
<stop offset="0.693722" stop-color="white"/>
</linearGradient>
<linearGradient id="paint11_linear_2321_2451" x1="125.255" y1="57.9207" x2="126.044" y2="75.5306" gradientUnits="userSpaceOnUse">
<stop stop-color="#054878"/>
<stop offset="1" stop-color="#A3C9ED"/>
</linearGradient>
<linearGradient id="paint12_linear_2321_2451" x1="125.255" y1="58.425" x2="125.977" y2="75.2722" gradientUnits="userSpaceOnUse">
<stop stop-color="#054878"/>
<stop offset="1" stop-color="#B4DBFF"/>
</linearGradient>
<linearGradient id="paint13_linear_2321_2451" x1="125.255" y1="60.4419" x2="125.255" y2="78.5947" gradientUnits="userSpaceOnUse">
<stop stop-color="#0F6FB3"/>
<stop offset="1" stop-color="#2A8CD2"/>
</linearGradient>
<linearGradient id="paint14_linear_2321_2451" x1="57.4669" y1="63.4287" x2="47.7949" y2="84.7262" gradientUnits="userSpaceOnUse">
<stop stop-color="#173F66"/>
<stop offset="0.693722" stop-color="white"/>
</linearGradient>
<linearGradient id="paint15_linear_2321_2451" x1="57.467" y1="62.4204" x2="58.2615" y2="79.2611" gradientUnits="userSpaceOnUse">
<stop stop-color="#054878"/>
<stop offset="1" stop-color="#B4DBFF"/>
</linearGradient>
<linearGradient id="paint16_linear_2321_2451" x1="58.4752" y1="62.4204" x2="58.4752" y2="80.5733" gradientUnits="userSpaceOnUse">
<stop stop-color="#173F66"/>
<stop offset="1" stop-color="#2A8CD2"/>
</linearGradient>
</defs>
</svg>
