<svg width="187" height="212" viewBox="0 0 187 212" fill="none" xmlns="http://www.w3.org/2000/svg">
<path d="M23.4377 86.1821H28.7646L30.8953 85.1167L42.6143 77.6592V73.3977L30.8953 80.8553L23.4377 82.986V86.1821Z" fill="url(#paint0_linear_2343_1104)"/>
<path d="M101.21 82.64C92.6868 79.9514 82.0332 82.0799 77.7717 83.4802V79.7898C81.6781 78.3693 91.6215 76.1676 100.144 78.7244L101.21 82.64Z" fill="#B4DBFF"/>
<g filter="url(#filter0_i_2343_1104)">
<path d="M80.7045 138.385L62.5934 123.47C55.1358 127.731 33.8285 166.084 46.6129 166.084C56.8404 166.084 73.6021 147.618 80.7045 138.385Z" fill="url(#paint1_linear_2343_1104)"/>
</g>
<g filter="url(#filter1_f_2343_1104)">
<path d="M42.4111 164.112C42.7367 163.498 49.2478 154.278 49.899 140.756C53.8056 152.557 46.5349 161.244 42.4111 164.112Z" fill="#48B7E4"/>
</g>
<path d="M37.8011 117.091C37.8011 126.808 31.9852 141.69 28.8887 148.082L29.508 149.361C32.2948 146.484 42.1037 123.545 37.8011 117.091Z" fill="#42B3E1"/>
<g filter="url(#filter2_ii_2343_1104)">
<path d="M43.0734 83.7682C44.139 123.187 55.858 116.794 79.2958 139.167C95.2762 175.389 54.7924 178.586 42.008 165.801C63.3153 132.775 35.6158 112.533 37.7466 117.86C40.3034 122.121 33.4851 140.588 29.2236 148.755C23.8968 139.167 10.0471 125.317 4.72033 110.402C-11.2601 148.755 17.5046 164.736 29.2237 168.997C102.734 246.769 154.937 200.958 175.179 166.867C180.49 157.921 187.963 116.794 186.898 93.3564C186.898 29.4346 141.087 -11.3325 92.0802 2.8005C43.0734 16.9335 36.6813 60.3302 43.0734 83.7682Z" fill="url(#paint2_linear_2343_1104)"/>
</g>
<path d="M133.73 41.6806C126.797 39.4094 124.61 41.4034 119.293 42.5966C119.178 42.6224 119.064 42.5387 119.055 42.4217C118.589 36.2465 131.794 36.0819 133.974 41.4382C134.035 41.5888 133.885 41.7313 133.73 41.6806Z" fill="#55A4DD"/>
<path d="M72.4446 100.366C76.706 100.366 86.2943 116.012 112.928 95.7703C106.536 113.881 85.2289 122.404 72.4446 100.366Z" fill="url(#paint3_linear_2343_1104)"/>
<path d="M80.0915 89.7562C63.6728 102.343 86.6591 122.273 112.929 96.0497C107.456 89.7562 93.2262 79.6867 80.0915 89.7562Z" fill="url(#paint4_linear_2343_1104)"/>
<g filter="url(#filter3_f_2343_1104)">
<path d="M158.287 74.7349L160.482 74.3522L166.873 72.0813L173.741 46.5915L175.937 46.2088L178.915 50.3168L175.622 50.8908L169.852 76.1893C169.852 76.1893 161.46 79.9656 159.069 79.2256C156.678 78.4857 157.189 74.9263 158.287 74.7349Z" fill="#50BCEA"/>
</g>
<g filter="url(#filter4_f_2343_1104)">
<path d="M102.197 87.6225C93.4034 86.2939 83.1805 87.3167 77.7811 88.2247C76.9691 88.3613 76.217 87.7423 76.217 86.9189C76.217 86.3062 76.6406 85.7752 77.2425 85.6603C82.323 84.6906 93.5243 83.4285 102.717 84.835C103.391 84.938 103.876 85.5237 103.876 86.2047C103.876 87.0892 103.072 87.7546 102.197 87.6225Z" fill="#3BADF4"/>
</g>
<g filter="url(#filter5_f_2343_1104)">
<path fill-rule="evenodd" clip-rule="evenodd" d="M131.863 103.342C148.337 103.342 161.693 90.9403 161.693 75.6423C161.693 60.3443 148.337 47.9429 131.863 47.9429C115.388 47.9429 102.032 60.3443 102.032 75.6423C102.032 90.9403 115.388 103.342 131.863 103.342ZM131.863 101.211C147.161 101.211 159.562 89.7633 159.562 75.6421C159.562 61.5208 147.161 50.0733 131.863 50.0733C116.565 50.0733 104.163 61.5208 104.163 75.6421C104.163 89.7633 116.565 101.211 131.863 101.211Z" fill="#4AB3EF"/>
</g>
<path fill-rule="evenodd" clip-rule="evenodd" d="M128.909 101.097C145.384 101.097 158.739 88.6957 158.739 73.3977C158.739 58.0997 145.384 45.6982 128.909 45.6982C112.434 45.6982 99.0786 58.0997 99.0786 73.3977C99.0786 88.6957 112.434 101.097 128.909 101.097ZM128.909 98.9665C144.207 98.9665 156.609 87.519 156.609 73.3978C156.609 59.2766 144.207 47.8291 128.909 47.8291C113.611 47.8291 101.21 59.2766 101.21 73.3978C101.21 87.519 113.611 98.9665 128.909 98.9665Z" fill="url(#paint5_linear_2343_1104)"/>
<path fill-rule="evenodd" clip-rule="evenodd" d="M53.268 109.62C66.8009 109.62 77.7714 97.2186 77.7714 81.9207C77.7714 66.6227 66.8009 54.2212 53.268 54.2212C39.7352 54.2212 28.7646 66.6227 28.7646 81.9207C28.7646 97.2186 39.7352 109.62 53.268 109.62ZM53.2679 107.49C65.6239 107.49 75.6405 96.042 75.6405 81.9208C75.6405 67.7995 65.6239 56.352 53.2679 56.352C40.9118 56.352 30.8952 67.7995 30.8952 81.9208C30.8952 96.042 40.9118 107.49 53.2679 107.49Z" fill="url(#paint6_linear_2343_1104)"/>
<g filter="url(#filter6_f_2343_1104)">
<path fill-rule="evenodd" clip-rule="evenodd" d="M74.2828 69.9502C76.6103 74.0288 77.8482 78.7794 77.8482 83.633H75.9063C75.9063 83.6329 75.9063 83.6329 75.9063 83.6329C75.9063 70.7651 66.7788 60.3337 55.5194 60.3337C50.3231 60.3337 45.5809 62.5555 41.9804 66.2132L40.782 64.6714C44.0074 61.4678 47.9815 59.3834 52.2281 58.6679C56.4747 57.9524 60.8138 58.6361 64.7254 60.6371C68.637 62.6382 71.9554 65.8717 74.2828 69.9502Z" fill="#4AB3EF"/>
</g>
<path d="M154.478 68.0711H156.609L163.001 67.0057L173.654 44.6331H175.785L177.916 48.8945H174.72L165.131 71.2672C165.131 71.2672 156.608 73.3979 154.478 72.3325C152.347 71.2672 153.413 68.0711 154.478 68.0711Z" fill="url(#paint7_linear_2343_1104)"/>
<path d="M100.333 83.9067C92.4439 82.634 83.3376 83.6138 78.4142 84.5079C77.597 84.6563 76.8318 84.0363 76.8318 83.2058C76.8318 82.605 77.2392 82.0818 77.8273 81.9595C82.4705 80.9945 92.5761 79.7542 100.901 81.1344C101.561 81.2438 102.033 81.8226 102.033 82.492C102.033 83.3833 101.213 84.0486 100.333 83.9067Z" fill="url(#paint8_linear_2343_1104)"/>
<path d="M60.7513 47.1385C58.6886 44.477 55.0028 45.2355 53.7194 46.1935C53.61 46.2751 53.444 46.2421 53.3969 46.1139C51.9202 42.0955 63.7005 40.1965 61.1088 47.0862C61.0529 47.2348 60.8486 47.264 60.7513 47.1385Z" fill="#55A4DD"/>
<g filter="url(#filter7_f_2343_1104)">
<path d="M51.6031 177.856C43.6968 172.237 37.4891 165.69 33.7768 161.135C32.6347 159.733 30.5785 160.351 31.0836 162.087C35.1211 175.964 63.6453 186.414 51.6031 177.856Z" fill="white" fill-opacity="0.6"/>
</g>
<g filter="url(#filter8_f_2343_1104)">
<path d="M76.8246 96.9554C77.986 92.7644 81.1801 91.7166 82.632 91.7166C86.9874 90.4069 90.6171 95.6457 89.1653 97.6103C87.7134 99.5748 75.3727 102.194 76.8246 96.9554Z" fill="white" fill-opacity="0.5"/>
</g>
<g filter="url(#filter9_f_2343_1104)">
<path d="M147.02 131.993C150.694 138.292 155.68 151.836 158.042 160.34C160.531 169.304 162.766 134.828 147.02 131.993Z" fill="white" fill-opacity="0.5"/>
</g>
<g filter="url(#filter10_f_2343_1104)">
<path d="M44.7454 97.5416C47.1224 95.0172 56.7291 83.0579 67.921 93.7552C70.298 96.0271 56.0361 108.901 44.7454 97.5416Z" fill="#E0F3FF" fill-opacity="0.5"/>
</g>
<path d="M150.447 62.2526C149.382 67.5794 146.541 69.7101 145.121 69.7101L142.99 65.4487C146.652 69.1366 151.513 56.9257 150.447 62.2526Z" fill="#173F66"/>
<path d="M144.055 57.9911C142.99 60.1218 140.859 61.8974 139.794 62.2526L142.99 64.3833C147.251 61.1872 145.562 54.9778 144.055 57.9911Z" fill="#173F66"/>
<path d="M138.728 55.8604C137.663 57.9911 135.532 59.7667 134.467 60.1219L138.728 61.1872C140.859 57.9911 139.794 53.7296 138.728 55.8604Z" fill="#173F66"/>
<path d="M147.243 68.8356C146.125 93.2325 126.94 84.2183 116.241 85.9373C115.621 86.0369 115.02 85.5754 114.994 84.9481C113.69 53.3722 142.773 55.9966 147.191 68.4706C147.232 68.5851 147.248 68.7143 147.243 68.8356Z" fill="url(#paint9_linear_2343_1104)"/>
<path d="M142.99 73.9714C142.99 81.6204 138.729 85.6904 130.206 85.6904C121.683 85.6904 119.552 81.6204 119.552 73.9714C119.552 66.3224 124.799 61.187 131.271 61.187C137.743 61.187 142.99 66.3224 142.99 73.9714Z" fill="url(#paint10_linear_2343_1104)"/>
<path d="M142.99 73.9483C142.99 81.2647 138.729 85.1577 130.206 85.1577C121.683 85.1577 119.552 81.2647 119.552 73.9483C119.552 66.6318 124.799 61.7197 131.271 61.7197C137.743 61.7197 142.99 66.6318 142.99 73.9483Z" fill="url(#paint11_linear_2343_1104)"/>
<path d="M140.859 73.8555C140.859 79.8417 137.373 83.0269 130.399 83.0269C123.426 83.0269 121.683 79.8417 121.683 73.8555C121.683 67.8693 125.975 63.8503 131.271 63.8503C136.566 63.8503 140.859 67.8693 140.859 73.8555Z" fill="url(#paint12_linear_2343_1104)"/>
<path d="M136.367 73.722C136.367 78.3779 135.689 80.7379 131.04 80.7379C126.391 80.7379 125.229 78.2605 125.229 73.6046C125.229 68.9487 126.444 65.9402 129.975 65.9402C133.505 65.9402 136.367 69.0661 136.367 73.722Z" fill="#142C57"/>
<path d="M115.059 82.9863C113.994 69.1366 126.778 51.0254 147.02 67.0059C138.497 49.9601 108.667 59.5483 115.059 82.9863Z" fill="#173F66"/>
<path d="M142.759 63.8096C143.824 64.8749 147.193 68.071 145.955 76.5939C150.216 67.0057 145.596 64.8749 142.759 63.8096Z" fill="#173F66"/>
<ellipse cx="135.301" cy="79.7814" rx="1.06325" ry="1.05481" transform="rotate(-0.11512 135.301 79.7814)" fill="white"/>
<path d="M141.693 68.0709C141.695 68.8775 140.192 68.5819 139.489 68.5833C138.786 68.5847 138.499 67.8122 138.497 67.0055C138.496 66.1989 138.86 64.8762 139.562 64.8748C140.265 64.8734 141.692 67.2643 141.693 68.0709Z" fill="#EEF8FF"/>
<path d="M126.778 64.1078C129.974 63.0424 129.974 64.8749 129.974 64.8749L127.844 72.3324L121.451 72.6307C121.451 72.6307 123.582 65.1732 126.778 64.1078Z" fill="#F0F8FF"/>
<g filter="url(#filter11_f_2343_1104)">
<path d="M4.26124 123.47C3.19588 130.927 5.49136 147.564 20.2417 158.627C37.2877 171.411 9.58821 143.712 4.26124 123.47Z" fill="#99E7F7" fill-opacity="0.5"/>
</g>
<path d="M121.451 86.182C126.423 84.7615 130.274 84.2603 139.563 84.0513C144.889 83.9314 136.367 87.2473 121.451 86.182Z" fill="#5BB5F4"/>
<g filter="url(#filter12_f_2343_1104)">
<path d="M113.696 91.2579C117.154 88.7335 131.127 76.7742 147.406 87.4715C150.864 89.7434 130.119 102.617 113.696 91.2579Z" fill="#E0F3FF" fill-opacity="0.5"/>
</g>
<path d="M70.3142 87.2477C70.2495 88.9321 49.007 100.032 46.876 75.5287C47.9416 60.6136 71.3796 59.5483 70.3142 87.2477Z" fill="url(#paint13_linear_2343_1104)"/>
<path d="M46.8763 76.5941C47.9416 73.7531 50.6214 66.4164 57.5299 67.0058C65.0359 67.6462 44.7454 61.679 46.8763 76.5941Z" fill="#173F66"/>
<path d="M70.3144 80.3604C68.9827 88.1252 65.5446 89.2344 59.6607 89.2344C54.3339 90.3437 49.0071 84.8808 49.0071 78.1419C49.0071 71.4031 52.4452 65.9402 58.329 65.9402C64.2129 65.9402 70.3144 71.4864 70.3144 80.3604Z" fill="url(#paint14_linear_2343_1104)"/>
<path d="M68.1832 77.7386C67.251 84.0915 64.8443 84.9991 60.7256 84.9991C56.9968 85.9067 53.2681 81.437 53.2681 75.9234C53.2681 70.4098 55.6747 65.9402 59.7934 65.9402C63.9121 65.9402 68.1832 70.478 68.1832 77.7386Z" fill="url(#paint15_linear_2343_1104)"/>
<path d="M66.0527 75.9366C65.52 80.1719 64.1448 80.777 61.7912 80.777C59.6605 81.382 57.5298 78.4023 57.5298 74.7265C57.5298 71.0508 58.905 68.071 61.2586 68.071C63.6121 68.071 66.0527 71.0963 66.0527 75.9366Z" fill="#142C57"/>
<path d="M42.6145 68.071C45.1714 70.6279 47.2311 71.2671 47.9413 71.2671C46.876 70.2017 44.7452 67.0056 44.7452 62.7442C46.4498 65.3011 50.0721 67.7159 51.1374 68.071C51.1374 67.0056 47.9413 63.8096 47.9413 59.5481C49.6459 62.9573 51.4925 63.8096 52.2028 63.8096C54.3335 63.0993 60.7257 63.8096 64.9871 68.071C64.9871 68.071 60.4707 66.9372 57.5296 67.0056C54.9995 67.0645 51.1374 68.071 51.1374 68.071L47.9413 71.2671L46.7689 76.5189C45.6609 75.707 43.4393 73.0197 42.6145 68.071Z" fill="#173F66"/>
<path d="M70.3143 82.9863C69.249 72.3327 67.1183 70.202 64.9875 68.0712L60.7261 67.0059C63.9222 68.7815 69.249 72.3327 70.3143 82.9863Z" fill="#173F66"/>
<g filter="url(#filter13_f_2343_1104)">
<path d="M175.176 143.829H165.956C166.491 150.307 168.041 162.628 169.965 160.083C171.889 157.539 174.241 148.187 175.176 143.829Z" fill="#56C2EF"/>
</g>
<path d="M47.9415 80.8553C47.9415 80.8553 46.8761 75.5284 47.9415 73.3977C47.5863 73.7528 46.4499 75.1023 44.7454 73.3977C46.8761 79.7899 47.9415 80.8553 47.9415 80.8553Z" fill="#173F66"/>
<path d="M52.2029 89.3783C54.3336 88.3129 59.6604 89.3783 68.1833 89.3783C60.9105 93.666 53.2682 90.4437 52.2029 89.3783Z" fill="#82C9F7"/>
<path d="M66.0526 71.2669C66.3919 72.4711 63.5329 73.1872 62.7095 73.1872C61.651 73.4855 60.8952 72.4527 60.5559 71.2485C60.2165 70.0443 60.2124 67.9152 61.2709 67.617C62.2839 67.617 64.9872 70.2015 66.0526 71.2669Z" fill="#EEF8FF"/>
<path d="M59.6602 69.1364C59.6602 68.548 59.1832 68.071 58.5948 68.071C58.0065 68.071 56.4641 68.548 56.4641 69.1364C56.4641 69.7247 56.4641 71.2671 58.5948 71.2671C59.1832 71.2671 59.6602 69.7247 59.6602 69.1364Z" fill="#EEF8FF"/>
<ellipse cx="57.1272" cy="84.9029" rx="1.09088" ry="1.58554" transform="rotate(-29.3703 57.1272 84.9029)" fill="#EEF8FF"/>
<ellipse cx="54.4438" cy="71.4652" rx="1.06929" ry="1.16702" transform="rotate(-5.46049 54.4438 71.4652)" fill="#EEF8FF"/>
<g filter="url(#filter14_f_2343_1104)">
<path d="M162.268 180.535L156.958 185.742L143.376 131.074L162.268 180.535Z" fill="#48B7E5"/>
</g>
<g filter="url(#filter15_ii_2343_1104)">
<path d="M161.825 126.813C152.237 116.159 142.648 126.813 145.844 134.271C150.816 150.961 162.89 185.195 171.413 188.604C182.067 192.866 175.674 144.924 161.825 126.813Z" fill="url(#paint16_linear_2343_1104)"/>
</g>
<defs>
<filter id="filter0_i_2343_1104" x="42.6145" y="123.47" width="38.0901" height="44.6145" filterUnits="userSpaceOnUse" color-interpolation-filters="sRGB">
<feFlood flood-opacity="0" result="BackgroundImageFix"/>
<feBlend mode="normal" in="SourceGraphic" in2="BackgroundImageFix" result="shape"/>
<feColorMatrix in="SourceAlpha" type="matrix" values="0 0 0 0 0 0 0 0 0 0 0 0 0 0 0 0 0 0 127 0" result="hardAlpha"/>
<feOffset dy="2"/>
<feGaussianBlur stdDeviation="2"/>
<feComposite in2="hardAlpha" operator="arithmetic" k2="-1" k3="1"/>
<feColorMatrix type="matrix" values="0 0 0 0 0.0425347 0 0 0 0 0.549444 0 0 0 0 0.729167 0 0 0 0.5 0"/>
<feBlend mode="normal" in2="shape" result="effect1_innerShadow_2343_1104"/>
</filter>
<filter id="filter1_f_2343_1104" x="32.4111" y="130.756" width="28.6052" height="43.3569" filterUnits="userSpaceOnUse" color-interpolation-filters="sRGB">
<feFlood flood-opacity="0" result="BackgroundImageFix"/>
<feBlend mode="normal" in="SourceGraphic" in2="BackgroundImageFix" result="shape"/>
<feGaussianBlur stdDeviation="5" result="effect1_foregroundBlur_2343_1104"/>
</filter>
<filter id="filter2_ii_2343_1104" x="0" y="-4" width="187" height="221.666" filterUnits="userSpaceOnUse" color-interpolation-filters="sRGB">
<feFlood flood-opacity="0" result="BackgroundImageFix"/>
<feBlend mode="normal" in="SourceGraphic" in2="BackgroundImageFix" result="shape"/>
<feColorMatrix in="SourceAlpha" type="matrix" values="0 0 0 0 0 0 0 0 0 0 0 0 0 0 0 0 0 0 127 0" result="hardAlpha"/>
<feOffset dy="7"/>
<feGaussianBlur stdDeviation="3"/>
<feComposite in2="hardAlpha" operator="arithmetic" k2="-1" k3="1"/>
<feColorMatrix type="matrix" values="0 0 0 0 0.34902 0 0 0 0 0.729412 0 0 0 0 1 0 0 0 0.47 0"/>
<feBlend mode="normal" in2="shape" result="effect1_innerShadow_2343_1104"/>
<feColorMatrix in="SourceAlpha" type="matrix" values="0 0 0 0 0 0 0 0 0 0 0 0 0 0 0 0 0 0 127 0" result="hardAlpha"/>
<feOffset dy="-4"/>
<feGaussianBlur stdDeviation="10"/>
<feComposite in2="hardAlpha" operator="arithmetic" k2="-1" k3="1"/>
<feColorMatrix type="matrix" values="0 0 0 0 0.380392 0 0 0 0 0.745098 0 0 0 0 0.937255 0 0 0 1 0"/>
<feBlend mode="normal" in2="effect1_innerShadow_2343_1104" result="effect2_innerShadow_2343_1104"/>
</filter>
<filter id="filter3_f_2343_1104" x="153.368" y="42.2087" width="29.5474" height="41.113" filterUnits="userSpaceOnUse" color-interpolation-filters="sRGB">
<feFlood flood-opacity="0" result="BackgroundImageFix"/>
<feBlend mode="normal" in="SourceGraphic" in2="BackgroundImageFix" result="shape"/>
<feGaussianBlur stdDeviation="2" result="effect1_foregroundBlur_2343_1104"/>
</filter>
<filter id="filter4_f_2343_1104" x="73.217" y="81.2075" width="33.6594" height="10.0361" filterUnits="userSpaceOnUse" color-interpolation-filters="sRGB">
<feFlood flood-opacity="0" result="BackgroundImageFix"/>
<feBlend mode="normal" in="SourceGraphic" in2="BackgroundImageFix" result="shape"/>
<feGaussianBlur stdDeviation="1.5" result="effect1_foregroundBlur_2343_1104"/>
</filter>
<filter id="filter5_f_2343_1104" x="98.0325" y="43.9429" width="67.6604" height="63.3989" filterUnits="userSpaceOnUse" color-interpolation-filters="sRGB">
<feFlood flood-opacity="0" result="BackgroundImageFix"/>
<feBlend mode="normal" in="SourceGraphic" in2="BackgroundImageFix" result="shape"/>
<feGaussianBlur stdDeviation="2" result="effect1_foregroundBlur_2343_1104"/>
</filter>
<filter id="filter6_f_2343_1104" x="36.782" y="54.3921" width="45.0662" height="33.241" filterUnits="userSpaceOnUse" color-interpolation-filters="sRGB">
<feFlood flood-opacity="0" result="BackgroundImageFix"/>
<feBlend mode="normal" in="SourceGraphic" in2="BackgroundImageFix" result="shape"/>
<feGaussianBlur stdDeviation="2" result="effect1_foregroundBlur_2343_1104"/>
</filter>
<filter id="filter7_f_2343_1104" x="23.0051" y="152.362" width="39.5425" height="36.5916" filterUnits="userSpaceOnUse" color-interpolation-filters="sRGB">
<feFlood flood-opacity="0" result="BackgroundImageFix"/>
<feBlend mode="normal" in="SourceGraphic" in2="BackgroundImageFix" result="shape"/>
<feGaussianBlur stdDeviation="4" result="effect1_foregroundBlur_2343_1104"/>
</filter>
<filter id="filter8_f_2343_1104" x="71.7061" y="86.509" width="22.7844" height="18.5229" filterUnits="userSpaceOnUse" color-interpolation-filters="sRGB">
<feFlood flood-opacity="0" result="BackgroundImageFix"/>
<feBlend mode="normal" in="SourceGraphic" in2="BackgroundImageFix" result="shape"/>
<feGaussianBlur stdDeviation="2.5" result="effect1_foregroundBlur_2343_1104"/>
</filter>
<filter id="filter9_f_2343_1104" x="142.02" y="126.993" width="22.7844" height="39.8301" filterUnits="userSpaceOnUse" color-interpolation-filters="sRGB">
<feFlood flood-opacity="0" result="BackgroundImageFix"/>
<feBlend mode="normal" in="SourceGraphic" in2="BackgroundImageFix" result="shape"/>
<feGaussianBlur stdDeviation="2.5" result="effect1_foregroundBlur_2343_1104"/>
</filter>
<filter id="filter10_f_2343_1104" x="36.7454" y="81.3784" width="39.438" height="28.7844" filterUnits="userSpaceOnUse" color-interpolation-filters="sRGB">
<feFlood flood-opacity="0" result="BackgroundImageFix"/>
<feBlend mode="normal" in="SourceGraphic" in2="BackgroundImageFix" result="shape"/>
<feGaussianBlur stdDeviation="4" result="effect1_foregroundBlur_2343_1104"/>
</filter>
<filter id="filter11_f_2343_1104" x="0.0358887" y="119.47" width="29.6831" height="46.4065" filterUnits="userSpaceOnUse" color-interpolation-filters="sRGB">
<feFlood flood-opacity="0" result="BackgroundImageFix"/>
<feBlend mode="normal" in="SourceGraphic" in2="BackgroundImageFix" result="shape"/>
<feGaussianBlur stdDeviation="2" result="effect1_foregroundBlur_2343_1104"/>
</filter>
<filter id="filter12_f_2343_1104" x="104.696" y="74.0947" width="52.0916" height="30.7844" filterUnits="userSpaceOnUse" color-interpolation-filters="sRGB">
<feFlood flood-opacity="0" result="BackgroundImageFix"/>
<feBlend mode="normal" in="SourceGraphic" in2="BackgroundImageFix" result="shape"/>
<feGaussianBlur stdDeviation="4.5" result="effect1_foregroundBlur_2343_1104"/>
</filter>
<filter id="filter13_f_2343_1104" x="159.956" y="137.829" width="21.2197" height="28.5957" filterUnits="userSpaceOnUse" color-interpolation-filters="sRGB">
<feFlood flood-opacity="0" result="BackgroundImageFix"/>
<feBlend mode="normal" in="SourceGraphic" in2="BackgroundImageFix" result="shape"/>
<feGaussianBlur stdDeviation="3" result="effect1_foregroundBlur_2343_1104"/>
</filter>
<filter id="filter14_f_2343_1104" x="128.376" y="116.074" width="48.8926" height="84.668" filterUnits="userSpaceOnUse" color-interpolation-filters="sRGB">
<feFlood flood-opacity="0" result="BackgroundImageFix"/>
<feBlend mode="normal" in="SourceGraphic" in2="BackgroundImageFix" result="shape"/>
<feGaussianBlur stdDeviation="7.5" result="effect1_foregroundBlur_2343_1104"/>
</filter>
<filter id="filter15_ii_2343_1104" x="145.217" y="120.316" width="33.5293" height="68.5552" filterUnits="userSpaceOnUse" color-interpolation-filters="sRGB">
<feFlood flood-opacity="0" result="BackgroundImageFix"/>
<feBlend mode="normal" in="SourceGraphic" in2="BackgroundImageFix" result="shape"/>
<feColorMatrix in="SourceAlpha" type="matrix" values="0 0 0 0 0 0 0 0 0 0 0 0 0 0 0 0 0 0 127 0" result="hardAlpha"/>
<feOffset dy="-2"/>
<feGaussianBlur stdDeviation="4"/>
<feComposite in2="hardAlpha" operator="arithmetic" k2="-1" k3="1"/>
<feColorMatrix type="matrix" values="0 0 0 0 0.218698 0 0 0 0 0.714874 0 0 0 0 0.920833 0 0 0 0.5 0"/>
<feBlend mode="normal" in2="shape" result="effect1_innerShadow_2343_1104"/>
<feColorMatrix in="SourceAlpha" type="matrix" values="0 0 0 0 0 0 0 0 0 0 0 0 0 0 0 0 0 0 127 0" result="hardAlpha"/>
<feOffset dx="2"/>
<feGaussianBlur stdDeviation="2"/>
<feComposite in2="hardAlpha" operator="arithmetic" k2="-1" k3="1"/>
<feColorMatrix type="matrix" values="0 0 0 0 0.388235 0 0 0 0 0.905882 0 0 0 0 0.964706 0 0 0 1 0"/>
<feBlend mode="normal" in2="effect1_innerShadow_2343_1104" result="effect2_innerShadow_2343_1104"/>
</filter>
<linearGradient id="paint0_linear_2343_1104" x1="33.026" y1="73.3977" x2="33.026" y2="86.1821" gradientUnits="userSpaceOnUse">
<stop stop-color="#10BFCF"/>
<stop offset="1" stop-color="#A7F7FB"/>
</linearGradient>
<linearGradient id="paint1_linear_2343_1104" x1="94.8173" y1="127.731" x2="95.8827" y2="170.346" gradientUnits="userSpaceOnUse">
<stop stop-color="#5FC7F5"/>
<stop offset="1" stop-color="#ACF0FC"/>
</linearGradient>
<linearGradient id="paint2_linear_2343_1104" x1="93.5" y1="2.01843" x2="93.5" y2="211.666" gradientUnits="userSpaceOnUse">
<stop offset="0.0292509" stop-color="#EEF8FF"/>
<stop offset="0.396124" stop-color="#5AB4F3"/>
<stop offset="1" stop-color="#68F0F8"/>
</linearGradient>
<linearGradient id="paint3_linear_2343_1104" x1="93.2192" y1="96.9193" x2="93.2192" y2="113.732" gradientUnits="userSpaceOnUse">
<stop stop-color="#011F44"/>
<stop offset="1" stop-color="#44B5ED"/>
</linearGradient>
<linearGradient id="paint4_linear_2343_1104" x1="93.7522" y1="85.4844" x2="93.7522" y2="108.922" gradientUnits="userSpaceOnUse">
<stop stop-color="#5BB7F4"/>
<stop offset="1" stop-color="#B5E0FF"/>
</linearGradient>
<linearGradient id="paint5_linear_2343_1104" x1="128.909" y1="45.6982" x2="128.909" y2="101.097" gradientUnits="userSpaceOnUse">
<stop stop-color="#E0F2FF"/>
<stop offset="1" stop-color="#1465E1"/>
</linearGradient>
<linearGradient id="paint6_linear_2343_1104" x1="53.268" y1="54.2212" x2="53.268" y2="109.62" gradientUnits="userSpaceOnUse">
<stop stop-color="#E0F2FF"/>
<stop offset="1" stop-color="#1465E1"/>
</linearGradient>
<linearGradient id="paint7_linear_2343_1104" x1="181.112" y1="42.5023" x2="165.582" y2="72.6308" gradientUnits="userSpaceOnUse">
<stop stop-color="#08E5F4"/>
<stop offset="1" stop-color="#94F8FF"/>
</linearGradient>
<linearGradient id="paint8_linear_2343_1104" x1="89.4322" y1="80.5195" x2="89.4322" y2="84.8221" gradientUnits="userSpaceOnUse">
<stop stop-color="#E0F2FF"/>
<stop offset="1" stop-color="#1465E1"/>
</linearGradient>
<linearGradient id="paint9_linear_2343_1104" x1="131.155" y1="59.9074" x2="123.582" y2="86.1823" gradientUnits="userSpaceOnUse">
<stop stop-color="#173F66"/>
<stop offset="0.693722" stop-color="white"/>
</linearGradient>
<linearGradient id="paint10_linear_2343_1104" x1="131.271" y1="61.187" x2="132.105" y2="79.79" gradientUnits="userSpaceOnUse">
<stop stop-color="#054878"/>
<stop offset="1" stop-color="#A3C9ED"/>
</linearGradient>
<linearGradient id="paint11_linear_2343_1104" x1="131.271" y1="61.7197" x2="132.035" y2="79.517" gradientUnits="userSpaceOnUse">
<stop stop-color="#054878"/>
<stop offset="1" stop-color="#B4DBFF"/>
</linearGradient>
<linearGradient id="paint12_linear_2343_1104" x1="131.271" y1="63.8503" x2="131.271" y2="83.0269" gradientUnits="userSpaceOnUse">
<stop stop-color="#0F6FB3"/>
<stop offset="1" stop-color="#2A8CD2"/>
</linearGradient>
<linearGradient id="paint13_linear_2343_1104" x1="59.6606" y1="67.0058" x2="49.4432" y2="89.5044" gradientUnits="userSpaceOnUse">
<stop stop-color="#173F66"/>
<stop offset="0.693722" stop-color="white"/>
</linearGradient>
<linearGradient id="paint14_linear_2343_1104" x1="59.6607" y1="65.9402" x2="60.5" y2="83.7306" gradientUnits="userSpaceOnUse">
<stop stop-color="#054878"/>
<stop offset="1" stop-color="#B4DBFF"/>
</linearGradient>
<linearGradient id="paint15_linear_2343_1104" x1="60.7256" y1="65.9402" x2="60.7256" y2="85.1167" gradientUnits="userSpaceOnUse">
<stop stop-color="#173F66"/>
<stop offset="1" stop-color="#2A8CD2"/>
</linearGradient>
<linearGradient id="paint16_linear_2343_1104" x1="160.982" y1="122.316" x2="160.982" y2="188.871" gradientUnits="userSpaceOnUse">
<stop stop-color="#60CCF6"/>
<stop offset="1" stop-color="#BEF8FF"/>
</linearGradient>
</defs>
</svg>
