<svg width="28" height="28" viewBox="0 0 28 28" fill="none" xmlns="http://www.w3.org/2000/svg">
<rect width="28" height="28" rx="14" fill="#68F0F8"/>
<path d="M16.29 7.45442C16.988 7.03932 17.8479 7.02629 18.5576 7.42024C18.8579 7.58696 19.1387 7.87629 19.6406 8.38899C20.1425 8.90172 20.4252 9.18759 20.5879 9.49348C20.9719 10.2153 20.9593 11.089 20.5547 11.7991C20.3832 12.1001 20.0919 12.3777 19.5752 12.8753L13.3066 18.9134C12.3203 19.8635 11.7888 20.3803 11.1191 20.6419C10.4489 20.9037 9.71452 20.8815 8.35938 20.846L8.17188 20.8411C7.96918 20.8358 7.7957 20.8317 7.65918 20.8089C7.51649 20.7851 7.3824 20.7355 7.2793 20.6185C7.17706 20.5022 7.14485 20.3632 7.13672 20.2181C7.12892 20.0781 7.14208 19.9025 7.1582 19.6956L7.17676 19.4642C7.26899 18.2802 7.31614 17.6418 7.56641 17.0658C7.81683 16.4894 8.24933 16.0246 9.04688 15.1605L15.2363 8.45442C15.7231 7.92705 15.9949 7.63003 16.29 7.45442Z" fill="#142C57" stroke="#142C57" stroke-width="0.4" stroke-linejoin="round"/>
<path d="M14.666 8.66666L19.3327 13.3333" stroke="#68F0F8" stroke-width="1.5" stroke-linejoin="round"/>
<path d="M15.334 20.6667H20.6673" stroke="#142C57" stroke-width="1.5" stroke-linecap="round" stroke-linejoin="round"/>
</svg>
