<svg width="127" height="60" viewBox="0 0 127 60" fill="none" xmlns="http://www.w3.org/2000/svg">
<g opacity="0.3">
<path d="M143.805 58.6428C157.599 68.0745 186.596 64.7499 186.596 64.7499L178.178 82.3928C178.178 82.3928 148.881 85.6175 134.686 76.2857C123.307 68.8053 126.535 54.6283 114.343 48.4642C101.96 42.2044 91.2377 54.1578 78.5667 48.4642C62.7866 41.3736 69.9099 19.3457 54.0147 12.4999C42.002 7.32633 32.0783 18.239 20.3433 12.4999C5.78703 5.38112 0.000183105 -22.7858 0.000183105 -22.7858L14.0299 -37.7144C14.0299 -37.7144 19.1371 -12.065 32.2686 -5.14293C43.815 0.9436 54.2143 -10.8999 65.9399 -5.14293C79.8491 1.6861 72.6176 20.8322 86.2831 28.1071C99.2433 35.0065 111.269 21.0927 124.163 28.1071C136.819 34.9915 131.949 50.5358 143.805 58.6428Z" fill="#8ED4FF"/>
<path d="M153.625 42.3571C167.419 51.7889 196.416 48.4643 196.416 48.4643L187.998 66.1071C187.998 66.1071 158.701 69.3319 144.506 60C133.127 52.5197 136.356 38.3426 124.163 32.1786C111.781 25.9187 101.058 37.8722 88.387 32.1786C72.6069 25.088 79.7302 3.06002 63.835 -3.78571C51.8223 -8.95931 41.8986 1.95335 30.1636 -3.78571C15.6073 -10.9045 9.8205 -39.0714 9.8205 -39.0714L23.8502 -54C23.8502 -54 28.9574 -28.3506 42.0889 -21.4286C53.6353 -15.342 64.0346 -27.1855 75.7603 -21.4286C89.6694 -14.5995 82.4379 4.54655 96.1034 11.8214C109.064 18.7209 121.09 4.80706 133.984 11.8214C146.639 18.7059 141.769 34.2501 153.625 42.3571Z" fill="#A6F7FB"/>
</g>
</svg>
