<svg width="89" height="64" viewBox="0 0 89 64" fill="none" xmlns="http://www.w3.org/2000/svg">
<g opacity="0.3">
<path d="M37.5 76C27.6683 82.9497 7 80.5 7 80.5L13 93.5C13 93.5 33.8823 95.8761 44 89C52.1103 83.4882 49.8093 73.0419 58.5 68.5C67.3258 63.8875 74.9685 72.6953 84 68.5C95.2476 63.2753 90.1703 47.0442 101.5 42C110.062 38.1879 117.136 46.2288 125.5 42C135.875 36.7546 140 16 140 16L130 5C130 5 126.36 23.8995 117 29C108.77 33.4848 101.358 24.758 93 29C83.0859 34.0319 88.2404 48.1396 78.5 53.5C69.2623 58.5838 60.6905 48.3315 51.5 53.5C42.4797 58.5728 45.9508 70.0264 37.5 76Z" fill="#8ED4FF"/>
<path d="M30.5 64C20.6683 70.9497 0 68.5 0 68.5L6 81.5C6 81.5 26.8823 83.8761 37 77C45.1103 71.4882 42.8093 61.0419 51.5 56.5C60.3258 51.8875 67.9685 60.6953 77 56.5C88.2476 51.2753 83.1703 35.0442 94.5 30C103.062 26.1879 110.136 34.2288 118.5 30C128.875 24.7546 133 4 133 4L123 -7C123 -7 119.36 11.8995 110 17C101.77 21.4848 94.3577 12.758 86 17C76.0859 22.0319 81.2404 36.1396 71.5 41.5C62.2623 46.5838 53.6905 36.3315 44.5 41.5C35.4797 46.5728 38.9508 58.0264 30.5 64Z" fill="#A6F7FB"/>
</g>
</svg>
