<svg width="24" height="24" viewBox="0 0 24 24" fill="none" xmlns="http://www.w3.org/2000/svg">
<path d="M16.5557 4.61883C15.7488 4.07099 14.8724 3.64848 13.9552 3.3602C12.7981 2.99648 12.2195 2.81462 11.6098 3.2715C11 3.72839 11 4.4705 11 5.95472V10.5064C11 11.7697 11 12.4013 11.2341 12.9676C11.4683 13.534 11.9122 13.9761 12.8 14.8604L15.999 18.0466C17.0421 19.0855 17.5637 19.605 18.3116 19.4823C19.0596 19.3597 19.3367 18.8125 19.8911 17.7182C20.3153 16.881 20.6251 15.9835 20.8079 15.0499C21.1937 13.0788 20.9957 11.0358 20.2388 9.17903C19.4819 7.32232 18.2002 5.73535 16.5557 4.61883Z" fill="url(#paint0_linear_3241_15164)" stroke="white" stroke-width="0.5" stroke-linecap="round" stroke-linejoin="round"/>
<path d="M14 20.4184C13.0736 20.7934 12.0609 20.9999 11 20.9999C6.58172 20.9999 3 17.4182 3 12.9999C3 9.56293 5.16736 6.6322 8.20988 5.49988" stroke="url(#paint1_linear_3241_15164)" stroke-width="1.5" stroke-linecap="round" stroke-linejoin="round"/>
<defs>
<linearGradient id="paint0_linear_3241_15164" x1="11.4571" y1="3" x2="20.3717" y2="3.30895" gradientUnits="userSpaceOnUse">
<stop stop-color="#48E4EF"/>
<stop offset="1" stop-color="#1B7CF5"/>
</linearGradient>
<linearGradient id="paint1_linear_3241_15164" x1="3.50286" y1="5.49988" x2="13.3045" y2="5.89765" gradientUnits="userSpaceOnUse">
<stop stop-color="#48E4EF"/>
<stop offset="1" stop-color="#1B7CF5"/>
</linearGradient>
</defs>
</svg>
