<svg width="81" height="80" viewBox="0 0 81 80" fill="none" xmlns="http://www.w3.org/2000/svg">
<g clip-path="url(#clip0_2345_3221)">
<path d="M3.61876 68.0273C3.61876 68.0273 2.29735 77.6566 10.0708 79.9548H32.6297C40.4031 77.6566 39.0817 68.0273 39.0817 68.0273L21.6828 62.1716L3.61876 68.0273Z" fill="#FFB983"/>
<path d="M24.1054 62.1724H18.5951C16.1271 62.1724 14.1265 60.1718 14.1265 57.7038V51.0132H28.5741V57.7038C28.5741 60.1718 26.5733 62.1724 24.1054 62.1724Z" fill="#FCD0A3"/>
<path d="M38.3929 42.564H38.4169C40.4662 42.564 42.1269 40.902 42.1269 38.854C42.1269 36.8046 40.4662 35.1426 38.4169 35.1426C38.3901 35.1426 38.3636 35.1426 38.3369 35.144H4.36373C4.33701 35.1426 4.31045 35.1426 4.28373 35.1426C2.23436 35.1426 0.57373 36.8046 0.57373 38.854C0.57373 40.902 2.23436 42.564 4.28373 42.564H4.30764" fill="#FFB983"/>
<path d="M28.5741 54.6189C28.5741 54.6189 39.0818 55.94 39.0818 60.9758C39.0818 66.0116 39.0818 68.0273 39.0818 68.0273H32.6296V79.9548H10.0707V68.0273H3.61865C3.61865 68.0273 3.61865 66.0114 3.61865 60.9758C3.61865 55.9401 14.1263 54.6189 14.1263 54.6189" fill="#3FA1FF"/>
<path d="M15.0601 79.9553H10.0718V68.0278H3.61865C3.61865 68.0278 3.61865 66.0125 3.61865 60.9759C3.61865 55.9409 14.1265 54.6194 14.1265 54.6194H16.5458L16.6618 54.7095C14.1265 54.7094 10.6562 62.9733 15.0601 79.9553Z" fill="#1F84E4"/>
<path d="M28.5736 57.1504V57.7043C28.5736 60.1726 26.5739 62.1724 24.1055 62.1724H21.6839C19.2172 62.1724 17.2158 60.1727 17.2158 57.7043V57.2551C21.0013 57.3501 24.7883 57.3148 28.5736 57.1504Z" fill="#FCD0A3"/>
<path d="M28.5741 51.0137V57.1513L28.5725 57.1498C24.7872 57.314 21.0001 57.3494 17.2148 57.2544V57.7037C17.2148 60.1719 19.2162 62.1718 21.683 62.1718H18.5948C16.1281 62.1718 14.1267 60.1721 14.1267 57.7037V51.0137H28.5741Z" fill="#FFB983"/>
<path d="M37.5396 25.454C26.7468 24.4076 15.9539 24.4076 5.16114 25.454C4.32364 32.1646 4.07692 38.8751 4.42114 45.5857C4.6716 50.4707 8.58067 54.3588 13.4664 54.5896C18.7224 54.8377 23.9783 54.8377 29.2343 54.5896C34.1202 54.359 38.0291 50.4707 38.2796 45.5857C38.6238 38.8752 38.3772 32.1646 37.5396 25.454Z" fill="#FCD0A3"/>
<path d="M5.16176 25.453C10.5572 24.9297 15.9543 24.6689 21.3514 24.6689C18.6191 24.6689 15.8868 24.933 13.1544 25.4611C12.7294 32.2364 12.6054 39.0118 12.7793 45.7855C12.8936 50.2439 14.523 53.8796 16.6613 54.7088C15.5971 54.6799 14.5311 54.6396 13.4668 54.5896C8.58176 54.3593 4.67238 50.471 4.42113 45.5858C4.07817 38.8749 4.32457 32.1639 5.16176 25.453Z" fill="#FFB983"/>
<path d="M21.3503 47.1984C19.4108 47.1984 17.62 46.066 16.7883 44.3134C16.5024 43.711 16.7589 42.991 17.3613 42.7051C17.9641 42.4192 18.6838 42.6757 18.9696 43.2781C19.4038 44.1929 20.3383 44.7839 21.3503 44.7839C22.3625 44.7839 23.2969 44.1928 23.731 43.2781C24.0169 42.6757 24.7367 42.4192 25.3392 42.705C25.9416 42.9907 26.1982 43.7109 25.9124 44.3132C25.0807 46.0659 23.29 47.1984 21.3503 47.1984Z" fill="#E7AB8A"/>
<path d="M38.2457 32.1368C34.8001 35.584 27.9765 28.6911 27.9765 28.6911C28.1698 29.939 27.8187 31.1546 26.4662 32.1207C25.5082 32.8049 24.4246 33.106 23.3023 33.1511C18.8053 33.3315 13.7076 29.3771 13.7076 29.3771C12.7995 31.8744 10.1203 31.8244 7.89995 31.2771C5.85667 30.7732 4.13073 29.4207 3.14527 27.561C1.45152 24.3647 -0.844422 18.958 1.49667 16.6169C4.9262 13.1874 9.18011 16.6169 9.18011 16.6169C9.18011 16.6169 13.3117 15.0665 18.5848 13.9683C18.5864 13.9683 18.5896 13.9668 18.5912 13.9668C24.9012 12.6529 32.8439 11.9832 37.3054 15.3836C41.9103 18.8936 41.6929 28.6911 38.2457 32.1368Z" fill="#3C5959"/>
<path d="M23.3023 33.1513C18.8053 33.3316 13.7076 29.3773 13.7076 29.3773C12.7995 31.8746 10.1203 31.8246 7.89995 31.2773C5.85667 30.7733 4.13073 29.4209 3.14527 27.5612C1.45152 24.3649 -0.844422 18.9582 1.49667 16.6171C4.9262 13.1876 9.18011 16.6171 9.18011 16.6171C9.18011 16.6171 13.3117 15.0666 18.5848 13.9685C11.7675 15.759 17.3562 31.0163 23.3023 33.1513Z" fill="#394949"/>
<path d="M71.8521 45.5862C79.2412 45.5862 79.451 54.8498 80.5001 57.7873C80.5001 57.7873 72.5573 56.4088 70.0767 50.646" fill="#FCB143"/>
<path d="M37.191 68.0277C37.191 68.0277 35.8696 77.6571 43.6431 79.9552H66.2018C73.9752 77.6571 72.6538 68.0277 72.6538 68.0277L55.2549 62.1721L37.191 68.0277Z" fill="#FFB983"/>
<path d="M57.6776 62.1726H52.1673C49.6994 62.1726 47.6987 60.172 47.6987 57.7041V51.0134H62.1464V57.7041C62.1462 60.172 60.1456 62.1726 57.6776 62.1726Z" fill="#FCD0A3"/>
<path d="M71.9652 42.5645H71.9891C74.0385 42.5645 75.6991 40.9024 75.6991 38.8545C75.6991 36.8051 74.0385 35.1431 71.9891 35.1431C71.9624 35.1431 71.9358 35.1431 71.9091 35.1445H37.936C37.9093 35.1431 37.8827 35.1431 37.856 35.1431C35.8066 35.1431 34.146 36.8051 34.146 38.8545C34.146 40.9024 35.8066 42.5645 37.856 42.5645H37.8799" fill="#FFB983"/>
<path d="M72.6545 60.9757V68.0276H66.2014V79.9551H43.6436V68.0276H37.1904C37.1904 68.0276 37.1904 66.0123 37.1904 60.9757C37.1904 55.9407 47.6982 54.6191 47.6982 54.6191H62.1465C62.1465 54.6191 72.6545 55.9407 72.6545 60.9757Z" fill="#48E4EF"/>
<path d="M48.6321 79.9551H43.6438V68.0276H37.1907C37.1907 68.0276 37.1907 66.0123 37.1907 60.9757C37.1907 55.9407 47.6985 54.6191 47.6985 54.6191H50.1179L50.2338 54.7093C47.6985 54.7091 44.228 62.9732 48.6321 79.9551Z" fill="#046B74"/>
<path d="M62.1459 57.1509V57.7048C62.1459 60.1731 60.1462 62.1729 57.6778 62.1729H55.2562C52.7895 62.1729 50.7881 60.1732 50.7881 57.7048V57.2556C54.5736 57.3506 58.3604 57.3151 62.1459 57.1509Z" fill="#FCD0A3"/>
<path d="M62.1463 51.0142V57.1518L62.1448 57.1503C58.3594 57.3145 54.5724 57.3499 50.7871 57.2549V57.7042C50.7871 60.1724 52.7885 62.1723 55.2552 62.1723H52.1671C49.7004 62.1723 47.699 60.1726 47.699 57.7042V51.0142H62.1463Z" fill="#FFB983"/>
<path d="M71.1118 25.4545C60.319 24.4081 49.5262 24.4081 38.7334 25.4545C37.8959 32.1651 37.6492 38.8756 37.9934 45.5862C38.2439 50.4712 42.1529 54.3593 47.0387 54.5901C52.2946 54.8382 57.5506 54.8382 62.8065 54.5901C67.6925 54.3595 71.6014 50.4712 71.852 45.5862C72.1961 38.8756 71.9493 32.165 71.1118 25.4545Z" fill="#FCD0A3"/>
<path d="M38.7338 25.4535C44.1293 24.9302 49.5263 24.6694 54.9235 24.6694C52.1912 24.6694 49.4588 24.9335 46.7265 25.4616C46.3015 32.2369 46.1774 39.0122 46.3513 45.786C46.4657 50.2444 48.0951 53.8801 50.2333 54.7093C49.1691 54.6804 48.1032 54.6401 47.0388 54.5901C42.1538 54.3597 38.2444 50.4715 37.9932 45.5863C37.6502 38.8754 37.8965 32.1644 38.7338 25.4535Z" fill="#FFB983"/>
<path d="M54.9226 47.1989C52.9831 47.1989 51.1923 46.0665 50.3606 44.3139C50.0746 43.7115 50.3312 42.9915 50.9335 42.7056C51.5359 42.4195 52.2559 42.6764 52.5418 43.2786C52.976 44.1934 53.9106 44.7843 54.9226 44.7843C55.9346 44.7843 56.8692 44.1932 57.3032 43.2786C57.589 42.6762 58.309 42.4198 58.9115 42.7054C59.5139 42.9912 59.7704 43.7114 59.4846 44.3137C58.6529 46.0664 56.8621 47.1989 54.9226 47.1989Z" fill="#E7AB8A"/>
<path d="M71.7956 32.8293C71.7956 32.8293 59.5008 32.2577 54.9233 24.6693C52.9798 27.8943 49.6422 29.8505 46.4461 31.0339C42.1181 32.6408 38.0509 32.8293 38.0509 32.8293C38.0509 32.8293 32.2401 13.9346 54.9234 13.9346C77.6067 13.9346 71.7956 32.8293 71.7956 32.8293Z" fill="#FCB143"/>
<path d="M54.9236 13.9346C48.9678 16.5591 46.7265 25.4597 46.4464 31.0339C42.1184 32.6408 38.0512 32.8293 38.0512 32.8293C38.0512 32.8293 32.2403 13.9346 54.9236 13.9346Z" fill="#FA9801"/>
<path d="M44.0249 44.3061C45.7196 44.3061 47.0935 43.6721 47.0935 42.8899C47.0935 42.1077 45.7196 41.4736 44.0249 41.4736C42.3302 41.4736 40.9563 42.1077 40.9563 42.8899C40.9563 43.6721 42.3302 44.3061 44.0249 44.3061Z" fill="#EC6161"/>
<path d="M65.8201 44.3061C67.5148 44.3061 68.8886 43.6721 68.8886 42.8899C68.8886 42.1077 67.5148 41.4736 65.8201 41.4736C64.1253 41.4736 62.7515 42.1077 62.7515 42.8899C62.7515 43.6721 64.1253 44.3061 65.8201 44.3061Z" fill="#EC6161"/>
<path d="M39.5 20.2571C28.5602 16.2417 27.2783 7.70467 29.2946 4.2617C30.6862 1.88553 33.8977 1.32734 36.5271 2.8231C36.5303 2.82483 36.5337 2.82664 36.5369 2.82887C36.5612 2.84256 36.586 2.85675 36.6104 2.87134C36.6139 2.87308 36.6174 2.8753 36.621 2.87753C37.7643 3.55258 38.7909 4.62071 39.5 6.10186C41.4654 1.99844 45.8654 1.064 48.435 2.87753C48.9401 3.2339 49.3743 3.69642 49.7055 4.2617C51.7217 7.70467 50.4398 16.2417 39.5 20.2571Z" fill="#F81327"/>
<path d="M39.5 20.2571C28.5602 16.2417 27.2783 7.70467 29.2946 4.2617C30.6862 1.88553 33.8977 1.32734 36.5271 2.8231C33.7592 1.30128 29.4979 7.46005 32.8531 12.4695C35.4572 16.3575 39.5 20.2571 39.5 20.2571Z" fill="#D30F1D"/>
<path d="M52.136 70.3701H52.1547C53.7633 70.3701 55.0668 69.0655 55.0668 67.458C55.0668 65.8495 53.7633 64.5449 52.1547 64.5449C52.1338 64.5449 52.1129 64.5449 52.0919 64.546H22.2068C22.1858 64.5449 22.1649 64.5449 22.144 64.5449C20.5354 64.5449 19.2319 65.8495 19.2319 67.458C19.2319 69.0655 20.5354 70.3701 22.144 70.3701H22.1627" fill="#FFB983"/>
<path d="M49.8565 56.9404C41.3851 56.1192 32.9137 56.1192 24.4423 56.9404C23.7849 62.2076 23.5913 67.4748 23.8613 72.742C24.0581 76.5762 27.1262 79.6282 30.9612 79.8092C35.0867 80.004 39.2121 80.004 43.3374 79.8092C47.1724 79.6281 50.2406 76.5762 50.4373 72.742C50.7076 67.4748 50.5138 62.2076 49.8565 56.9404Z" fill="#FCD0A3"/>
<path d="M24.4426 56.9394C28.6776 56.5287 32.9139 56.324 37.1501 56.324C35.0055 56.324 32.8608 56.5312 30.7162 56.9457C30.3826 62.2637 30.2853 67.5818 30.4217 72.8985C30.5114 76.3979 31.7905 79.2516 33.4687 79.9024C32.6334 79.8796 31.7967 79.848 30.9614 79.8088C27.127 79.628 24.0586 76.576 23.8614 72.7416C23.5922 67.4743 23.7855 62.2069 24.4426 56.9394Z" fill="#FFB983"/>
<path d="M37.1491 74.0258C35.6197 74.0258 34.2077 73.1328 33.5518 71.7509C33.323 71.2691 33.5283 70.693 34.0102 70.4644C34.4921 70.2358 35.0682 70.4409 35.2968 70.9228C35.6346 71.6345 36.3616 72.0944 37.1491 72.0944C37.9366 72.0944 38.6637 71.6345 39.0015 70.9228C39.2302 70.4409 39.806 70.2356 40.288 70.4644C40.7699 70.693 40.9751 71.2691 40.7465 71.7509C40.0905 73.133 38.6786 74.0258 37.1491 74.0258Z" fill="#E7AB8A"/>
<path d="M13.4505 39.8546C14.3062 39.8546 14.9999 38.8231 14.9999 37.5507C14.9999 36.2783 14.3062 35.2468 13.4505 35.2468C12.5948 35.2468 11.9011 36.2783 11.9011 37.5507C11.9011 38.8231 12.5948 39.8546 13.4505 39.8546Z" fill="#394949"/>
<path d="M30.7998 37.5507C30.7998 36.2803 30.1048 35.2468 29.2505 35.2468C28.3961 35.2468 27.7009 36.2804 27.7009 37.5507C27.7009 38.821 28.3961 39.8546 29.2505 39.8546C30.1048 39.8546 30.7998 38.8212 30.7998 37.5507Z" fill="#394949"/>
<path d="M47.0228 39.8549C47.8785 39.8549 48.5721 38.8234 48.5721 37.551C48.5721 36.2786 47.8785 35.2471 47.0228 35.2471C46.1671 35.2471 45.4734 36.2786 45.4734 37.551C45.4734 38.8234 46.1671 39.8549 47.0228 39.8549Z" fill="#394949"/>
<path d="M62.8225 35.2471C61.9681 35.2471 61.2729 36.2807 61.2729 37.551C61.2729 38.8213 61.9681 39.8549 62.8225 39.8549C63.6769 39.8549 64.3719 38.8213 64.3719 37.551C64.3719 36.2807 63.6769 35.2471 62.8225 35.2471Z" fill="#394949"/>
<path d="M30.9487 68.2522C31.6252 68.2522 32.1736 67.4387 32.1736 66.4352C32.1736 65.4317 31.6252 64.6182 30.9487 64.6182C30.2723 64.6182 29.7239 65.4317 29.7239 66.4352C29.7239 67.4387 30.2723 68.2522 30.9487 68.2522Z" fill="#394949"/>
<path d="M43.3501 64.6182C42.6748 64.6182 42.1252 65.4333 42.1252 66.4352C42.1252 67.4371 42.6748 68.2522 43.3501 68.2522C44.0254 68.2522 44.5749 67.4371 44.5749 66.4352C44.5749 65.4333 44.0254 64.6182 43.3501 64.6182Z" fill="#394949"/>
<path d="M50.3933 62.7288C50.3933 62.7288 40.743 62.2802 37.1501 56.324C35.6246 58.8554 33.0049 60.3908 30.4962 61.3198C27.0991 62.581 23.9068 62.7288 23.9068 62.7288C23.9068 62.7288 19.3457 47.8982 37.1501 47.8982C54.9544 47.8982 50.3933 62.7288 50.3933 62.7288Z" fill="#D5694C"/>
<path d="M37.1501 47.8982C32.4754 49.9582 30.7162 56.9444 30.4962 61.3196C27.0991 62.5808 23.9068 62.7287 23.9068 62.7287C23.9068 62.7287 19.3457 47.8982 37.1501 47.8982Z" fill="#A64C31"/>
</g>
<defs>
<clipPath id="clip0_2345_3221">
<rect width="80" height="80" fill="white" transform="translate(0.5)"/>
</clipPath>
</defs>
</svg>
