<svg width="81" height="80" viewBox="0 0 81 80" fill="none" xmlns="http://www.w3.org/2000/svg">
<g clip-path="url(#clip0_2345_3161)">
<path d="M61.4505 70.5029C60.7407 71.2127 59.8119 71.567 58.8832 71.567C57.9529 71.567 57.0224 71.2127 56.3141 70.5029C57.7323 71.921 57.7323 74.2196 56.3141 75.6393C55.6059 76.3476 54.6755 76.7034 53.7451 76.7034C52.8163 76.7034 51.8876 76.3476 51.1777 75.6393L48.8163 73.2779C50.2344 74.696 50.2344 76.9962 48.8163 78.4143C48.108 79.1226 47.1777 79.4782 46.249 79.4782C45.3202 79.4782 44.3915 79.1224 43.6816 78.4159V78.4143H43.6801C35.4612 84.5729 17.6985 63.7423 12.9051 57.8156L11.0974 49.579L21.9963 36.8304C29.8032 34.9954 37.1754 36.1834 37.1754 36.1834L50.5951 44.6245L61.4505 65.3665C62.8687 66.7846 62.8687 69.0849 61.4505 70.5029Z" fill="#FFCBBE"/>
<path d="M43.6803 78.4144C35.4614 84.573 17.6987 63.7424 12.9053 57.8157L14.8481 53.3296C21.8276 63.4512 31.9282 74.2182 37.8807 72.6133L43.6803 78.4144Z" fill="#EAAC9D"/>
<path d="M68.8762 56.3895C68.3531 57.9862 68.0729 59.5284 68.7298 60.8724V60.874C65.776 65.1751 62.4876 66.9601 62.3957 67.0101C62.2379 66.4081 61.9224 65.8382 61.4509 65.3666L42.642 46.5577C40.316 47.3337 37.8404 49.4116 36.0392 51.179C35.1554 52.0451 33.9981 52.4876 32.8327 52.4876C31.8798 52.4876 30.9221 52.1913 30.1076 51.5895C30.0465 51.5445 29.9852 51.4977 29.9273 51.4495C29.9257 51.4479 29.924 51.4462 29.9224 51.4446C28.2774 50.0957 27.7638 47.7729 28.7296 45.8559C32.6331 38.1021 39.1007 34.8393 41.0998 33.9846C41.4877 33.8188 41.9062 33.7384 42.3279 33.7545C44.2659 33.8237 46.1831 34.2132 48.0053 34.7879C54.1654 36.7259 59.252 40.779 60.4367 41.7706C61.4942 44.544 69.1513 45.9187 70.3135 48.647C71.2874 50.9312 69.7454 53.7335 68.8762 56.3895Z" fill="#A55E4D"/>
<path d="M68.7296 60.8723V60.8738C65.7759 65.1749 62.4874 66.9599 62.3956 67.0099C62.2378 66.4079 61.9223 65.8381 61.4507 65.3665L50.0415 53.9573C54.056 57.9718 62.7417 59.6877 66.7578 56.7323C67.2954 56.3379 68.0214 56.2477 68.876 56.3895C68.3531 57.986 68.0729 59.5282 68.7296 60.8723Z" fill="#904F40"/>
<path d="M29.9224 51.4446C28.2774 50.0957 27.7638 47.7729 28.7296 45.8559C32.6331 38.1021 39.1007 34.8393 41.0998 33.9846C41.4877 33.8188 41.9062 33.7384 42.3279 33.7545C44.2659 33.8237 46.1831 34.2132 48.0053 34.7879C39.4517 34.7927 27.4113 48.977 29.9224 51.4446Z" fill="#904F40"/>
<path d="M62.077 69.6638C61.9145 69.9648 61.7052 70.2482 61.4509 70.5024C60.7411 71.2123 59.8123 71.5665 58.8836 71.5665C57.9533 71.5665 57.0228 71.2123 56.3145 70.5024L44.3164 58.5041C44.8417 57.5601 46.1242 57.381 46.8881 58.1449L57.7792 69.0376C58.4875 69.7474 59.4178 70.1015 60.3483 70.1015C60.9437 70.1016 61.5394 69.9568 62.077 69.6638Z" fill="#EAAC9D"/>
<path d="M49.5024 77.4657C49.3302 77.8085 49.1032 78.1288 48.8183 78.4138C48.11 79.1221 47.1797 79.4777 46.2493 79.4777C45.3205 79.4777 44.3918 79.1219 43.6819 78.4138L33.929 68.6592C35.0941 67.9172 36.6185 68.0842 37.5952 69.0611L45.3157 76.7816C46.024 77.4899 46.9543 77.8457 47.883 77.8457C48.4385 77.8457 48.9938 77.7185 49.5024 77.4657Z" fill="#EAAC9D"/>
<path d="M56.9133 74.8452C56.7555 75.13 56.5544 75.3972 56.3128 75.6388C55.603 76.3471 54.6742 76.7028 53.7455 76.7028C52.8151 76.7028 51.8847 76.3471 51.1764 75.6388L40.2048 64.665C41.0539 63.9422 42.3158 63.993 43.1042 64.7814L50.2073 71.885L52.567 74.2464C53.2769 74.9563 54.2056 75.3105 55.1361 75.3105C55.7495 75.3103 56.3628 75.1558 56.9133 74.8452Z" fill="#EAAC9D"/>
<path d="M69.5919 62.6172C65.87 55.1675 62.5177 47.4299 59.6282 39.6191C63.0493 37.14 66.8874 35.4772 71.036 34.6768C74.758 42.1266 78.1104 49.8643 80.9999 57.6749C77.5786 60.1538 73.7405 61.8168 69.5919 62.6172Z" fill="#3FA1FF"/>
<path d="M80.9999 57.6747C77.5632 60.167 73.7612 61.8141 69.5923 62.6176C68.6187 60.6675 67.6746 58.7058 66.7581 56.7326C71.1002 55.8886 75.0685 54.1847 78.6631 51.6189C79.4702 53.6262 80.2498 55.6447 80.9999 57.6747Z" fill="#19468F"/>
<path d="M12.4078 58.8225C8.25938 58.0221 4.42125 56.3593 1 53.8802C3.88938 46.0697 7.24172 38.3319 10.9639 30.8821C15.1123 31.6825 18.9505 33.3454 22.3717 35.8244C19.4822 43.6352 16.1298 51.3729 12.4078 58.8225Z" fill="#48E4EF"/>
<path d="M1 53.8802C4.43672 56.3726 8.23875 58.0196 12.4077 58.8232C13.3813 56.8731 14.3253 54.9113 15.2419 52.9382C10.8997 52.0942 6.93141 50.3902 3.33687 47.8245C2.52969 49.8317 1.75016 51.8502 1 53.8802Z" fill="#0A9BB0"/>
<path d="M40.6371 35.1448C20.1129 27.6116 17.708 11.5952 21.4907 5.13579C24.1016 0.677853 30.1266 -0.369361 35.0597 2.43683C35.0656 2.44008 35.0721 2.44348 35.078 2.44766C35.1236 2.47334 35.1702 2.49996 35.2159 2.52734C35.2225 2.53059 35.2292 2.53477 35.2358 2.53895C37.3808 3.80542 39.3068 5.80933 40.6371 8.58813C44.3244 0.889679 52.5792 -0.863415 57.4001 2.53895C58.3477 3.20754 59.1624 4.07527 59.7836 5.13579C63.5663 11.5952 61.1613 27.6116 40.6371 35.1448Z" fill="#F81327"/>
<path d="M40.6371 35.1448C20.1129 27.6116 17.708 11.5952 21.4907 5.13579C24.1016 0.677853 30.1266 -0.369361 35.0597 2.43683C29.8668 -0.418256 21.8722 11.1362 28.1668 20.5344C33.0524 27.8287 40.6371 35.1448 40.6371 35.1448Z" fill="#D30F1D"/>
</g>
<defs>
<clipPath id="clip0_2345_3161">
<rect width="80" height="80" fill="white" transform="translate(0.5)"/>
</clipPath>
</defs>
</svg>
