<svg width="148" height="161" viewBox="0 0 148 161" fill="none" xmlns="http://www.w3.org/2000/svg">
<path d="M18.7324 65.4433H22.7774L24.3954 64.6343L33.2943 58.9713V55.7354L24.3954 61.3983L18.7324 63.0163V65.4433Z" fill="url(#paint0_linear_2613_2796)"/>
<path d="M77.79 62.7539C71.3181 60.7123 63.2282 62.3286 59.9922 63.3919V60.5896C62.9585 59.5109 70.5091 57.839 76.981 59.7806L77.79 62.7539Z" fill="#B4DBFF"/>
<g filter="url(#filter0_i_2613_2796)">
<path d="M62.2189 105.084L48.466 93.7578C42.8031 96.9938 26.6232 126.118 36.3311 126.118C44.0975 126.118 56.8256 112.095 62.2189 105.084Z" fill="url(#paint1_linear_2613_2796)"/>
</g>
<g filter="url(#filter1_f_2613_2796)">
<path d="M33.1406 124.62C33.3878 124.153 38.3321 117.152 38.8266 106.884C41.7931 115.845 36.272 122.442 33.1406 124.62Z" fill="#48B7E4"/>
</g>
<path d="M29.6408 88.9141C29.6408 96.2923 25.2244 107.593 22.873 112.447L23.3433 113.418C25.4595 111.234 32.908 93.8149 29.6408 88.9141Z" fill="#42B3E1"/>
<g filter="url(#filter2_ii_2613_2796)">
<path d="M33.6437 63.6101C34.4529 93.5428 43.3518 88.6888 61.1494 105.678C73.2843 133.183 42.5426 135.61 32.8347 125.903C49.0145 100.824 27.9807 85.4529 29.5987 89.4978C31.5403 92.7338 26.3627 106.756 23.1268 112.959C19.0818 105.678 8.56489 95.1608 4.51997 83.8349C-7.61494 112.959 14.2278 125.094 23.1268 128.329C78.9473 187.386 118.588 152.599 133.959 126.711C137.992 119.919 143.667 88.6888 142.858 70.891C142.858 22.3514 108.071 -8.60545 70.8574 2.12658C33.6437 12.8586 28.7898 45.8122 33.6437 63.6101Z" fill="url(#paint2_linear_2613_2796)"/>
</g>
<path d="M102.396 31.6217C97.223 29.9498 95.5502 31.4322 91.5719 32.3344C91.4574 32.3603 91.3434 32.2775 91.3364 32.1603C91.0633 27.5559 100.879 27.416 102.632 31.3805C102.698 31.5292 102.551 31.6717 102.396 31.6217Z" fill="#55A4DD"/>
<path d="M55.9473 76.2137C59.1832 76.2137 66.4642 88.0945 86.689 72.7236C81.835 86.4765 65.6552 92.9485 55.9473 76.2137Z" fill="url(#paint3_linear_2613_2796)"/>
<path d="M61.7529 68.157C49.2853 77.715 66.7401 92.8485 86.6882 72.936C82.5323 68.157 71.7269 60.5106 61.7529 68.157Z" fill="url(#paint4_linear_2613_2796)"/>
<g filter="url(#filter3_f_2613_2796)">
<path d="M121.132 56.7505L122.8 56.4599L127.653 54.7355L132.868 35.3796L134.535 35.089L136.797 38.2084L134.296 38.6443L129.914 57.8549C129.914 57.8549 123.542 60.7225 121.727 60.1606C119.911 59.5987 120.299 56.8958 121.132 56.7505Z" fill="#50BCEA"/>
</g>
<g filter="url(#filter4_f_2613_2796)">
<path d="M78.5389 66.5365C71.8611 65.5277 64.0983 66.3043 59.9982 66.9939C59.3816 67.0976 58.8105 66.6275 58.8105 66.0023C58.8105 65.537 59.1322 65.1338 59.5892 65.0466C63.4472 64.3102 71.9529 63.3518 78.9338 64.4198C79.445 64.498 79.8139 64.9428 79.8139 65.46C79.8139 66.1316 79.203 66.6369 78.5389 66.5365Z" fill="#3BADF4"/>
</g>
<g filter="url(#filter5_f_2613_2796)">
<path d="M101.065 36.4062C113.576 36.4062 123.718 45.8238 123.718 57.4404C123.718 69.0569 113.576 78.4736 101.065 78.4736C88.5555 78.4734 78.4143 69.0568 78.4141 57.4404C78.4141 45.8239 88.5554 36.4065 101.065 36.4062ZM101.066 38.0244C89.4499 38.0244 80.0324 46.7165 80.0322 57.4395C80.0322 68.1625 89.4498 76.8555 101.066 76.8555C112.683 76.8552 122.1 68.1624 122.1 57.4395C122.099 46.7167 112.683 38.0246 101.066 38.0244Z" fill="#4AB3EF"/>
</g>
<path d="M98.8232 34.7012C111.333 34.7012 121.476 44.1187 121.476 55.7354C121.475 67.3518 111.333 76.7686 98.8232 76.7686C86.3133 76.7683 76.1721 67.3517 76.1719 55.7354C76.1719 44.1188 86.3132 34.7014 98.8232 34.7012ZM98.8242 36.3193C87.2076 36.3193 77.79 45.0123 77.79 55.7354C77.7903 66.4582 87.2077 75.1504 98.8242 75.1504C110.441 75.1503 119.857 66.4581 119.857 55.7354C119.857 45.0124 110.441 36.3195 98.8242 36.3193Z" fill="url(#paint5_linear_2613_2796)"/>
<path d="M41.3838 41.1729C51.6601 41.1729 59.9912 50.5904 59.9912 62.207C59.991 73.8235 51.66 83.2402 41.3838 83.2402C31.1078 83.24 22.7775 73.8234 22.7773 62.207C22.7773 50.5905 31.1077 41.1731 41.3838 41.1729ZM41.3838 42.791C32.0013 42.7913 24.3955 51.4841 24.3955 62.207C24.3956 72.9299 32.0013 81.6228 41.3838 81.623C50.7664 81.623 58.373 72.93 58.373 62.207C58.373 51.484 50.7665 42.791 41.3838 42.791Z" fill="url(#paint6_linear_2613_2796)"/>
<g filter="url(#filter6_f_2613_2796)">
<path d="M40.5938 44.5498C43.8185 44.0065 47.1136 44.5254 50.084 46.0449C53.0543 47.5644 55.5744 50.0201 57.3418 53.1172C59.109 56.2142 60.0488 59.8214 60.0488 63.5068H58.5742C58.5742 53.7357 51.6435 45.8146 43.0938 45.8145C39.1478 45.8145 35.5466 47.5017 32.8125 50.2793L31.9023 49.1084C34.3515 46.6758 37.3692 45.0932 40.5938 44.5498Z" fill="#4AB3EF"/>
</g>
<path d="M118.241 51.6904H119.859L124.713 50.8814L132.803 33.8926H134.42L136.038 37.1286H133.612L126.331 54.1174C126.331 54.1174 119.858 55.7354 118.241 54.9264C116.623 54.1174 117.432 51.6904 118.241 51.6904Z" fill="url(#paint7_linear_2613_2796)"/>
<path d="M77.1249 63.7156C71.1345 62.7492 64.2195 63.4932 60.4809 64.1722C59.8604 64.2849 59.2793 63.8141 59.2793 63.1834C59.2793 62.7272 59.5887 62.3299 60.0353 62.237C63.5611 61.5042 71.2349 60.5624 77.5564 61.6104C78.0579 61.6936 78.4157 62.1331 78.4157 62.6413C78.4157 63.3182 77.793 63.8234 77.1249 63.7156Z" fill="url(#paint8_linear_2613_2796)"/>
<path d="M47.0112 35.7248C45.4637 33.8226 42.7893 34.3387 41.7813 35.0386C41.6691 35.1164 41.5034 35.0853 41.4611 34.9555C40.4863 31.9624 49.1997 30.5737 47.3688 35.6729C47.3152 35.8223 47.1115 35.848 47.0112 35.7248Z" fill="#55A4DD"/>
<g filter="url(#filter7_f_2613_2796)">
<path d="M40.1206 135.056C34.6355 131.158 30.2269 126.671 27.3565 123.287C26.187 121.908 24.2424 122.552 24.944 124.219C29.1369 134.176 48.9331 141.319 40.1206 135.056Z" fill="white" fill-opacity="0.6"/>
</g>
<g filter="url(#filter8_f_2613_2796)">
<path d="M59.2736 73.6241C60.1556 70.4415 62.581 69.6459 63.6835 69.6459C66.9908 68.6514 69.7471 72.6295 68.6446 74.1213C67.5421 75.6131 58.1711 77.6022 59.2736 73.6241Z" fill="white" fill-opacity="0.5"/>
</g>
<g filter="url(#filter9_f_2613_2796)">
<path d="M34.9141 74.0689C36.7191 72.152 44.014 63.0706 52.5127 71.1936C54.3177 72.9189 43.4878 82.6949 34.9141 74.0689Z" fill="#E0F3FF" fill-opacity="0.5"/>
</g>
<path d="M115.18 47.2719C114.371 51.3168 112.213 52.9348 111.135 52.9348L109.517 49.6989C112.297 52.4993 115.989 43.2269 115.18 47.2719Z" fill="#173F66"/>
<path d="M110.326 44.0359C109.517 45.6539 107.899 47.0022 107.09 47.2719L109.517 48.8899C112.753 46.4629 111.47 41.7477 110.326 44.0359Z" fill="#173F66"/>
<path d="M106.281 42.4179C105.472 44.0359 103.854 45.3842 103.045 45.6539L106.281 46.4629C107.899 44.0359 107.09 40.7999 106.281 42.4179Z" fill="#173F66"/>
<path d="M112.743 52.3169C111.883 70.5706 97.6588 64.1089 89.4903 65.2151C88.8682 65.2994 88.2672 64.8421 88.246 64.2147C87.4475 40.5801 109.3 42.5544 112.691 51.9522C112.733 52.0665 112.749 52.1956 112.743 52.3169Z" fill="url(#paint9_linear_2613_2796)"/>
<path d="M109.517 56.1708C109.517 61.9791 106.281 65.0697 99.8087 65.0697C93.3367 65.0697 91.7188 61.9791 91.7188 56.1708C91.7188 50.3625 95.7029 46.4629 100.618 46.4629C105.532 46.4629 109.517 50.3625 109.517 56.1708Z" fill="url(#paint10_linear_2613_2796)"/>
<path d="M109.517 56.153C109.517 61.7088 106.281 64.665 99.8087 64.665C93.3367 64.665 91.7188 61.7088 91.7188 56.153C91.7188 50.5972 95.7029 46.8672 100.618 46.8672C105.532 46.8672 109.517 50.5972 109.517 56.153Z" fill="url(#paint11_linear_2613_2796)"/>
<path d="M107.898 56.0829C107.898 60.6285 105.25 63.0472 99.955 63.0472C94.6597 63.0472 93.3359 60.6285 93.3359 56.0829C93.3359 51.5372 96.5957 48.4854 100.617 48.4854C104.638 48.4854 107.898 51.5372 107.898 56.0829Z" fill="url(#paint12_linear_2613_2796)"/>
<path d="M104.487 55.9814C104.487 59.5169 103.972 61.309 100.442 61.309C96.9119 61.309 96.0293 59.4278 96.0293 55.8923C96.0293 52.3568 96.9521 50.0723 99.6329 50.0723C102.314 50.0723 104.487 52.4459 104.487 55.9814Z" fill="#142C57"/>
<path d="M88.3069 63.0162C87.4979 52.4993 97.2057 38.7465 112.577 50.8813C106.105 37.9375 83.4529 45.2184 88.3069 63.0162Z" fill="#173F66"/>
<path d="M109.34 48.4541C110.149 49.2631 112.707 51.6901 111.767 58.162C115.003 50.8811 111.494 49.2631 109.34 48.4541Z" fill="#173F66"/>
<ellipse cx="103.678" cy="60.5826" rx="0.807385" ry="0.800976" transform="rotate(-0.11512 103.678 60.5826)" fill="white"/>
<path d="M108.532 51.69C108.533 52.3025 107.392 52.078 106.858 52.0791C106.324 52.0802 106.106 51.4935 106.105 50.881C106.104 50.2685 106.38 49.2641 106.914 49.263C107.447 49.2619 108.53 51.0775 108.532 51.69Z" fill="#EEF8FF"/>
<path d="M97.2051 48.6805C99.6321 47.8715 99.6321 49.263 99.6321 49.263L98.0141 54.926L93.1602 55.1525C93.1602 55.1525 94.7781 49.4895 97.2051 48.6805Z" fill="#F0F8FF"/>
<g filter="url(#filter10_f_2613_2796)">
<path d="M4.17112 93.7578C3.36213 99.4208 5.10522 112.054 16.306 120.455C29.25 130.162 8.2162 109.129 4.17112 93.7578Z" fill="#99E7F7" fill-opacity="0.5"/>
</g>
<path d="M93.1602 65.4436C96.9355 64.365 99.86 63.9844 106.913 63.8257C110.958 63.7346 104.486 66.2526 93.1602 65.4436Z" fill="#5BB5F4"/>
<g filter="url(#filter11_f_2613_2796)">
<path d="M87.2715 69.2974C89.8969 67.3805 100.508 58.2991 112.87 66.4222C115.495 68.1474 99.7423 77.9234 87.2715 69.2974Z" fill="#E0F3FF" fill-opacity="0.5"/>
</g>
<path d="M54.3293 66.2524C54.2801 67.5314 38.1494 75.9603 36.5312 57.3535C37.3404 46.0276 55.1383 45.2186 54.3293 66.2524Z" fill="url(#paint13_linear_2613_2796)"/>
<path d="M36.53 58.1621C37.3389 56.0048 39.3738 50.4336 44.6199 50.8812C50.3196 51.3675 34.9118 46.8362 36.53 58.1621Z" fill="#173F66"/>
<path d="M54.3283 61.0224C53.3171 66.9186 50.7063 67.7609 46.2384 67.7609C42.1934 68.6033 38.1484 64.455 38.1484 59.3378C38.1484 54.2206 40.7592 50.0723 45.2271 50.0723C49.6951 50.0723 54.3283 54.2839 54.3283 61.0224Z" fill="url(#paint14_linear_2613_2796)"/>
<path d="M52.7107 59.0315C52.0028 63.8556 50.1753 64.5448 47.0477 64.5448C44.2162 65.234 41.3848 61.8399 41.3848 57.6531C41.3848 53.4663 43.2123 50.0723 46.3398 50.0723C49.4674 50.0723 52.7107 53.5181 52.7107 59.0315Z" fill="url(#paint15_linear_2613_2796)"/>
<path d="M51.093 57.6632C50.6885 60.8793 49.6442 61.3388 47.8571 61.3388C46.2391 61.7982 44.6211 59.5355 44.6211 56.7443C44.6211 53.9531 45.6654 51.6904 47.4526 51.6904C49.2397 51.6904 51.093 53.9877 51.093 57.6632Z" fill="#142C57"/>
<path d="M33.2949 51.6907C35.2365 53.6323 36.8006 54.1177 37.3399 54.1177C36.5309 53.3087 34.9129 50.8817 34.9129 47.6457C36.2073 49.5873 38.9579 51.421 39.7669 51.6907C39.7669 50.8817 37.3399 48.4547 37.3399 45.2188C38.6343 47.8075 40.0365 48.4547 40.5759 48.4547C42.1938 47.9154 47.0478 48.4547 50.2838 51.6907C50.2838 51.6907 46.8542 50.8298 44.6208 50.8817C42.6996 50.9264 39.7669 51.6907 39.7669 51.6907L37.3399 54.1177L36.4496 58.1057C35.6082 57.4891 33.9212 55.4486 33.2949 51.6907Z" fill="#173F66"/>
<path d="M54.3298 63.0167C53.5208 54.9268 51.9028 53.3088 50.2848 51.6908L47.0488 50.8818C49.4758 52.2302 53.5208 54.9268 54.3298 63.0167Z" fill="#173F66"/>
<g filter="url(#filter12_f_2613_2796)">
<path d="M133.956 109.218H126.955C127.361 114.137 128.538 123.493 129.999 121.561C131.46 119.629 133.246 112.527 133.956 109.218Z" fill="#56C2EF"/>
</g>
<path d="M37.341 61.3983C37.341 61.3983 36.532 57.3533 37.341 55.7354C37.0714 56.005 36.2085 57.0297 34.9141 55.7354C36.532 60.5893 37.341 61.3983 37.341 61.3983Z" fill="#173F66"/>
<path d="M40.5762 67.8703C42.1942 67.0613 46.2391 67.8703 52.7111 67.8703C47.1883 71.1262 41.3852 68.6793 40.5762 67.8703Z" fill="#82C9F7"/>
<path d="M51.0922 54.1174C51.3499 55.0318 49.1789 55.5756 48.5536 55.5756C47.7499 55.8021 47.1759 55.0178 46.9183 54.1034C46.6606 53.189 46.6575 51.5723 47.4613 51.3458C48.2305 51.3458 50.2832 53.3084 51.0922 54.1174Z" fill="#EEF8FF"/>
<path d="M46.2395 52.4992C46.2395 52.0524 45.8773 51.6902 45.4305 51.6902C44.9837 51.6902 43.8125 52.0524 43.8125 52.4992C43.8125 52.946 43.8125 54.1172 45.4305 54.1172C45.8773 54.1172 46.2395 52.946 46.2395 52.4992Z" fill="#EEF8FF"/>
<ellipse cx="44.3144" cy="64.4721" rx="0.828371" ry="1.20399" transform="rotate(-29.3703 44.3144 64.4721)" fill="#EEF8FF"/>
<ellipse cx="42.2774" cy="54.2678" rx="0.811974" ry="0.886186" transform="rotate(-5.46049 42.2774 54.2678)" fill="#EEF8FF"/>
<g filter="url(#filter13_f_2613_2796)">
<path d="M124.155 137.091L120.122 141.045L109.808 99.5323L124.155 137.091Z" fill="#48B7E5"/>
</g>
<g filter="url(#filter14_f_2613_2796)">
<path d="M104.699 143.54L104.025 135.928C103.976 135.373 104.389 134.885 104.944 134.843L123.823 133.393C124.918 133.309 125.329 134.795 124.345 135.285L106.141 144.347C105.51 144.661 104.761 144.241 104.699 143.54Z" fill="#1FA0D3"/>
</g>
<g filter="url(#filter15_i_2613_2796)">
<path d="M130.562 130.128C115.718 148.803 88.4927 134.919 102.466 128.44C91.9264 129.112 89.7975 121.426 97.1672 117.886C87.7032 119.335 81.7813 108.692 106.062 103.258C101.562 98.1281 96.0625 76.1282 112.062 78.1281C112.062 93.1279 124.562 97.1279 126.562 103.258C134.062 106.128 150.562 109.128 147.062 133.128C145.862 139.928 136.562 134.128 130.562 130.128Z" fill="url(#paint16_linear_2613_2796)"/>
</g>
<defs>
<filter id="filter0_i_2613_2796" x="33.2949" y="93.7578" width="28.9238" height="34.3594" filterUnits="userSpaceOnUse" color-interpolation-filters="sRGB">
<feFlood flood-opacity="0" result="BackgroundImageFix"/>
<feBlend mode="normal" in="SourceGraphic" in2="BackgroundImageFix" result="shape"/>
<feColorMatrix in="SourceAlpha" type="matrix" values="0 0 0 0 0 0 0 0 0 0 0 0 0 0 0 0 0 0 127 0" result="hardAlpha"/>
<feOffset dy="2"/>
<feGaussianBlur stdDeviation="2"/>
<feComposite in2="hardAlpha" operator="arithmetic" k2="-1" k3="1"/>
<feColorMatrix type="matrix" values="0 0 0 0 0.0425347 0 0 0 0 0.549444 0 0 0 0 0.729167 0 0 0 0.5 0"/>
<feBlend mode="normal" in2="shape" result="effect1_innerShadow_2613_2796"/>
</filter>
<filter id="filter1_f_2613_2796" x="23.1406" y="96.8838" width="26.5352" height="37.7363" filterUnits="userSpaceOnUse" color-interpolation-filters="sRGB">
<feFlood flood-opacity="0" result="BackgroundImageFix"/>
<feBlend mode="normal" in="SourceGraphic" in2="BackgroundImageFix" result="shape"/>
<feGaussianBlur stdDeviation="5" result="effect1_foregroundBlur_2613_2796"/>
</filter>
<filter id="filter2_ii_2613_2796" x="0.935547" y="-4" width="142" height="168.73" filterUnits="userSpaceOnUse" color-interpolation-filters="sRGB">
<feFlood flood-opacity="0" result="BackgroundImageFix"/>
<feBlend mode="normal" in="SourceGraphic" in2="BackgroundImageFix" result="shape"/>
<feColorMatrix in="SourceAlpha" type="matrix" values="0 0 0 0 0 0 0 0 0 0 0 0 0 0 0 0 0 0 127 0" result="hardAlpha"/>
<feOffset dy="7"/>
<feGaussianBlur stdDeviation="2"/>
<feComposite in2="hardAlpha" operator="arithmetic" k2="-1" k3="1"/>
<feColorMatrix type="matrix" values="0 0 0 0 0.34902 0 0 0 0 0.729412 0 0 0 0 1 0 0 0 0.47 0"/>
<feBlend mode="normal" in2="shape" result="effect1_innerShadow_2613_2796"/>
<feColorMatrix in="SourceAlpha" type="matrix" values="0 0 0 0 0 0 0 0 0 0 0 0 0 0 0 0 0 0 127 0" result="hardAlpha"/>
<feOffset dy="-4"/>
<feGaussianBlur stdDeviation="5"/>
<feComposite in2="hardAlpha" operator="arithmetic" k2="-1" k3="1"/>
<feColorMatrix type="matrix" values="0 0 0 0 0.380392 0 0 0 0 0.745098 0 0 0 0 0.937255 0 0 0 1 0"/>
<feBlend mode="normal" in2="effect1_innerShadow_2613_2796" result="effect2_innerShadow_2613_2796"/>
</filter>
<filter id="filter3_f_2613_2796" x="116.434" y="31.0889" width="24.3633" height="33.1445" filterUnits="userSpaceOnUse" color-interpolation-filters="sRGB">
<feFlood flood-opacity="0" result="BackgroundImageFix"/>
<feBlend mode="normal" in="SourceGraphic" in2="BackgroundImageFix" result="shape"/>
<feGaussianBlur stdDeviation="2" result="effect1_foregroundBlur_2613_2796"/>
</filter>
<filter id="filter4_f_2613_2796" x="55.8105" y="60.9434" width="27.0039" height="9.06445" filterUnits="userSpaceOnUse" color-interpolation-filters="sRGB">
<feFlood flood-opacity="0" result="BackgroundImageFix"/>
<feBlend mode="normal" in="SourceGraphic" in2="BackgroundImageFix" result="shape"/>
<feGaussianBlur stdDeviation="1.5" result="effect1_foregroundBlur_2613_2796"/>
</filter>
<filter id="filter5_f_2613_2796" x="74.4141" y="32.4062" width="53.3027" height="50.0674" filterUnits="userSpaceOnUse" color-interpolation-filters="sRGB">
<feFlood flood-opacity="0" result="BackgroundImageFix"/>
<feBlend mode="normal" in="SourceGraphic" in2="BackgroundImageFix" result="shape"/>
<feGaussianBlur stdDeviation="2" result="effect1_foregroundBlur_2613_2796"/>
</filter>
<filter id="filter6_f_2613_2796" x="27.9023" y="40.3408" width="36.1465" height="27.166" filterUnits="userSpaceOnUse" color-interpolation-filters="sRGB">
<feFlood flood-opacity="0" result="BackgroundImageFix"/>
<feBlend mode="normal" in="SourceGraphic" in2="BackgroundImageFix" result="shape"/>
<feGaussianBlur stdDeviation="2" result="effect1_foregroundBlur_2613_2796"/>
</filter>
<filter id="filter7_f_2613_2796" x="16.7949" y="114.537" width="33.5625" height="30.8711" filterUnits="userSpaceOnUse" color-interpolation-filters="sRGB">
<feFlood flood-opacity="0" result="BackgroundImageFix"/>
<feBlend mode="normal" in="SourceGraphic" in2="BackgroundImageFix" result="shape"/>
<feGaussianBlur stdDeviation="4" result="effect1_foregroundBlur_2613_2796"/>
</filter>
<filter id="filter8_f_2613_2796" x="54.1836" y="64.4883" width="19.707" height="16.4717" filterUnits="userSpaceOnUse" color-interpolation-filters="sRGB">
<feFlood flood-opacity="0" result="BackgroundImageFix"/>
<feBlend mode="normal" in="SourceGraphic" in2="BackgroundImageFix" result="shape"/>
<feGaussianBlur stdDeviation="2.5" result="effect1_foregroundBlur_2613_2796"/>
</filter>
<filter id="filter9_f_2613_2796" x="26.9141" y="59.8701" width="33.7969" height="25.708" filterUnits="userSpaceOnUse" color-interpolation-filters="sRGB">
<feFlood flood-opacity="0" result="BackgroundImageFix"/>
<feBlend mode="normal" in="SourceGraphic" in2="BackgroundImageFix" result="shape"/>
<feGaussianBlur stdDeviation="4" result="effect1_foregroundBlur_2613_2796"/>
</filter>
<filter id="filter10_f_2613_2796" x="0" y="89.7578" width="24.4648" height="37.1641" filterUnits="userSpaceOnUse" color-interpolation-filters="sRGB">
<feFlood flood-opacity="0" result="BackgroundImageFix"/>
<feBlend mode="normal" in="SourceGraphic" in2="BackgroundImageFix" result="shape"/>
<feGaussianBlur stdDeviation="2" result="effect1_foregroundBlur_2613_2796"/>
</filter>
<filter id="filter11_f_2613_2796" x="78.2715" y="54.0986" width="43.8887" height="27.708" filterUnits="userSpaceOnUse" color-interpolation-filters="sRGB">
<feFlood flood-opacity="0" result="BackgroundImageFix"/>
<feBlend mode="normal" in="SourceGraphic" in2="BackgroundImageFix" result="shape"/>
<feGaussianBlur stdDeviation="4.5" result="effect1_foregroundBlur_2613_2796"/>
</filter>
<filter id="filter12_f_2613_2796" x="120.955" y="103.218" width="19.002" height="24.6016" filterUnits="userSpaceOnUse" color-interpolation-filters="sRGB">
<feFlood flood-opacity="0" result="BackgroundImageFix"/>
<feBlend mode="normal" in="SourceGraphic" in2="BackgroundImageFix" result="shape"/>
<feGaussianBlur stdDeviation="3" result="effect1_foregroundBlur_2613_2796"/>
</filter>
<filter id="filter13_f_2613_2796" x="94.8086" y="84.5322" width="44.3457" height="71.5127" filterUnits="userSpaceOnUse" color-interpolation-filters="sRGB">
<feFlood flood-opacity="0" result="BackgroundImageFix"/>
<feBlend mode="normal" in="SourceGraphic" in2="BackgroundImageFix" result="shape"/>
<feGaussianBlur stdDeviation="7.5" result="effect1_foregroundBlur_2613_2796"/>
</filter>
<filter id="filter14_f_2613_2796" x="94.0215" y="123.39" width="40.8809" height="31.0625" filterUnits="userSpaceOnUse" color-interpolation-filters="sRGB">
<feFlood flood-opacity="0" result="BackgroundImageFix"/>
<feBlend mode="normal" in="SourceGraphic" in2="BackgroundImageFix" result="shape"/>
<feGaussianBlur stdDeviation="5" result="effect1_foregroundBlur_2613_2796"/>
</filter>
<filter id="filter15_i_2613_2796" x="88.9355" y="76" width="58.6074" height="63.5098" filterUnits="userSpaceOnUse" color-interpolation-filters="sRGB">
<feFlood flood-opacity="0" result="BackgroundImageFix"/>
<feBlend mode="normal" in="SourceGraphic" in2="BackgroundImageFix" result="shape"/>
<feColorMatrix in="SourceAlpha" type="matrix" values="0 0 0 0 0 0 0 0 0 0 0 0 0 0 0 0 0 0 127 0" result="hardAlpha"/>
<feOffset dy="-2"/>
<feGaussianBlur stdDeviation="3"/>
<feComposite in2="hardAlpha" operator="arithmetic" k2="-1" k3="1"/>
<feColorMatrix type="matrix" values="0 0 0 0 0.253576 0 0 0 0 0.712352 0 0 0 0 0.908333 0 0 0 1 0"/>
<feBlend mode="normal" in2="shape" result="effect1_innerShadow_2613_2796"/>
</filter>
<linearGradient id="paint0_linear_2613_2796" x1="26.0134" y1="55.7354" x2="26.0134" y2="65.4433" gradientUnits="userSpaceOnUse">
<stop stop-color="#10BFCF"/>
<stop offset="1" stop-color="#A7F7FB"/>
</linearGradient>
<linearGradient id="paint1_linear_2613_2796" x1="72.9356" y1="96.9938" x2="73.7446" y2="129.354" gradientUnits="userSpaceOnUse">
<stop stop-color="#5FC7F5"/>
<stop offset="1" stop-color="#ACF0FC"/>
</linearGradient>
<linearGradient id="paint2_linear_2613_2796" x1="71.9355" y1="1.53271" x2="71.9355" y2="160.731" gradientUnits="userSpaceOnUse">
<stop offset="0.0545156" stop-color="#D9EFFF"/>
<stop offset="0.396124" stop-color="#5AB4F3"/>
<stop offset="1" stop-color="#68F0F8"/>
</linearGradient>
<linearGradient id="paint3_linear_2613_2796" x1="71.7226" y1="73.5961" x2="71.7226" y2="86.3627" gradientUnits="userSpaceOnUse">
<stop stop-color="#011F44"/>
<stop offset="1" stop-color="#44B5ED"/>
</linearGradient>
<linearGradient id="paint4_linear_2613_2796" x1="72.1263" y1="64.9131" x2="72.1263" y2="82.7109" gradientUnits="userSpaceOnUse">
<stop stop-color="#5BB7F4"/>
<stop offset="1" stop-color="#B5E0FF"/>
</linearGradient>
<linearGradient id="paint5_linear_2613_2796" x1="98.8237" y1="34.7012" x2="98.8237" y2="76.7686" gradientUnits="userSpaceOnUse">
<stop stop-color="#E0F2FF"/>
<stop offset="1" stop-color="#1465E1"/>
</linearGradient>
<linearGradient id="paint6_linear_2613_2796" x1="41.3843" y1="41.1729" x2="41.3843" y2="83.2402" gradientUnits="userSpaceOnUse">
<stop stop-color="#E0F2FF"/>
<stop offset="1" stop-color="#1465E1"/>
</linearGradient>
<linearGradient id="paint7_linear_2613_2796" x1="138.465" y1="32.2746" x2="126.673" y2="55.1529" gradientUnits="userSpaceOnUse">
<stop stop-color="#08E5F4"/>
<stop offset="1" stop-color="#94F8FF"/>
</linearGradient>
<linearGradient id="paint8_linear_2613_2796" x1="68.8475" y1="61.1436" x2="68.8475" y2="64.4107" gradientUnits="userSpaceOnUse">
<stop stop-color="#E0F2FF"/>
<stop offset="1" stop-color="#1465E1"/>
</linearGradient>
<linearGradient id="paint9_linear_2613_2796" x1="100.529" y1="45.4914" x2="94.7787" y2="65.4434" gradientUnits="userSpaceOnUse">
<stop stop-color="#173F66"/>
<stop offset="0.693722" stop-color="white"/>
</linearGradient>
<linearGradient id="paint10_linear_2613_2796" x1="100.618" y1="46.4629" x2="101.251" y2="60.5893" gradientUnits="userSpaceOnUse">
<stop stop-color="#054878"/>
<stop offset="1" stop-color="#A3C9ED"/>
</linearGradient>
<linearGradient id="paint11_linear_2613_2796" x1="100.618" y1="46.8672" x2="101.197" y2="60.3817" gradientUnits="userSpaceOnUse">
<stop stop-color="#054878"/>
<stop offset="1" stop-color="#B4DBFF"/>
</linearGradient>
<linearGradient id="paint12_linear_2613_2796" x1="100.617" y1="48.4854" x2="100.617" y2="63.0472" gradientUnits="userSpaceOnUse">
<stop stop-color="#0F6FB3"/>
<stop offset="1" stop-color="#2A8CD2"/>
</linearGradient>
<linearGradient id="paint13_linear_2613_2796" x1="46.2394" y1="50.8815" x2="38.4807" y2="67.966" gradientUnits="userSpaceOnUse">
<stop stop-color="#173F66"/>
<stop offset="0.693722" stop-color="white"/>
</linearGradient>
<linearGradient id="paint14_linear_2613_2796" x1="46.2384" y1="50.0723" x2="46.8757" y2="63.5815" gradientUnits="userSpaceOnUse">
<stop stop-color="#054878"/>
<stop offset="1" stop-color="#B4DBFF"/>
</linearGradient>
<linearGradient id="paint15_linear_2613_2796" x1="47.0477" y1="50.0723" x2="47.0477" y2="64.6341" gradientUnits="userSpaceOnUse">
<stop stop-color="#173F66"/>
<stop offset="1" stop-color="#2A8CD2"/>
</linearGradient>
<linearGradient id="paint16_linear_2613_2796" x1="117.936" y1="118.5" x2="118.239" y2="139.509" gradientUnits="userSpaceOnUse">
<stop stop-color="#49F2FC"/>
<stop offset="1" stop-color="#60C6F4"/>
</linearGradient>
</defs>
</svg>
