<svg width="56" height="56" viewBox="0 0 56 56" fill="none" xmlns="http://www.w3.org/2000/svg">
<g clip-path="url(#clip0_2613_2866)">
<path d="M52 13.5749C54.2952 17.9246 56 22.7235 56 28C56 43.464 43.464 56 28 56C12.536 56 0 43.464 0 28C0 12.536 12.536 0 28 0C33.3723 0 38.609 1.64402 42.8717 4.26716C42.8717 4.26716 49.4812 8.80097 52 13.5749Z" fill="#68F0F8"/>
<path d="M56 28C56 22.7235 54.2952 17.9246 52.0002 13.5749C49.4812 8.80097 42.8717 4.26716 42.8717 4.26716C38.609 1.64402 33.3723 0 28 0V56C43.464 56 56 43.464 56 28Z" fill="#48E4EF"/>
<path d="M44.2592 19.9307C45.4538 22.4783 46.1467 24.992 46.1467 28.0001C46.1467 38.0222 38.0222 46.1468 28 46.1468C17.9779 46.1468 9.85352 38.0222 9.85352 28.0001C9.85352 17.9781 17.9781 9.85352 28.0001 9.85352C31.1658 9.85352 33.892 10.5283 36.4827 11.9532C36.4827 11.9533 41.9952 15.1024 44.2592 19.9307Z" fill="#FFF4F4"/>
<path d="M46.1466 28.0001C46.1466 24.9919 45.4537 22.4783 44.2591 19.9307C41.9952 15.1025 36.4827 11.9533 36.4827 11.9533C33.8918 10.5284 31.1656 9.85352 28 9.85352V46.1467C38.022 46.1468 46.1466 38.0222 46.1466 28.0001Z" fill="#EEE1DC"/>
<path d="M28.001 36.5419C32.7186 36.5419 36.5429 32.7176 36.5429 28C36.5429 23.2824 32.7186 19.458 28.001 19.458C23.2834 19.458 19.459 23.2824 19.459 28C19.459 32.7176 23.2834 36.5419 28.001 36.5419Z" fill="#68F0F8"/>
<path d="M36.542 28C36.542 23.2824 32.7176 19.458 28 19.458V36.5419C32.7176 36.5419 36.542 32.7175 36.542 28Z" fill="#48E4EF"/>
<path d="M27.6538 30.2731C27.2101 30.2731 26.7667 30.1031 26.4292 29.7635C25.7574 29.0873 25.7611 27.9944 26.4372 27.3225L47.7391 6.16063C48.4155 5.48885 49.5083 5.49257 50.1801 6.16862C50.8519 6.84488 50.8483 7.93787 50.1721 8.60965L28.8703 29.7715C28.5335 30.106 28.0936 30.2731 27.6538 30.2731Z" fill="#00337A"/>
<path d="M50.1352 5.31454L48.5626 0.773511C48.3025 0.0224333 47.3461 -0.19741 46.7841 0.364558L37.8583 9.29043C37.5993 9.54943 37.4898 9.92229 37.5675 10.2802L38.8781 16.3122C38.9636 16.7059 39.2619 17.019 39.651 17.1233L45.8488 18.7865C46.2203 18.8862 46.6169 18.78 46.889 18.508L55.6853 9.71175C56.2221 9.17493 56.0496 8.26614 55.3534 7.96339L50.7231 5.94946C50.4469 5.82937 50.2336 5.59914 50.1352 5.31454Z" fill="#1B7CF5"/>
<path d="M50.1808 6.16805C50.1677 6.15481 50.1533 6.14355 50.1399 6.13086L26.4707 29.8002C26.8028 30.1138 27.228 30.2725 27.6544 30.2725C28.0942 30.2725 28.5342 30.1054 28.8708 29.7711L50.1727 8.60919C50.8491 7.9373 50.8527 6.84442 50.1808 6.16805Z" fill="#002659"/>
<path d="M55.3488 7.96662L50.7184 5.9527C50.6283 5.91355 50.5457 5.86148 50.4708 5.80078L39.3066 16.9648C39.4085 17.0367 39.5221 17.0932 39.6465 17.1266L45.8442 18.7897C46.2158 18.8895 46.6123 18.7833 46.8845 18.5113L55.6807 9.71498C56.2174 9.17817 56.045 8.26937 55.3488 7.96662Z" fill="#1465E1"/>
</g>
<defs>
<clipPath id="clip0_2613_2866">
<rect width="56" height="56" fill="white"/>
</clipPath>
</defs>
</svg>
