<svg width="56" height="56" viewBox="0 0 56 56" fill="none" xmlns="http://www.w3.org/2000/svg">
<path d="M28 2C13.7116 2 2 13.5964 2 27.885C2 42.1735 13.7116 53.9999 28 53.9999C42.2884 53.9999 54 42.1734 54 27.8848C54 13.5963 42.2886 2 28 2Z" fill="#68F0F8"/>
<path d="M54 27.885C54 42.1734 42.2886 54 28 54V2C42.2886 2 54 13.5964 54 27.885Z" fill="#48E4EF"/>
<path d="M27.9997 8.90234C17.5421 8.90234 8.90234 17.427 8.90234 27.8846C8.90234 38.3419 17.5421 47.097 27.9997 47.097C38.4572 47.097 47.097 38.3419 47.097 27.8846C47.097 17.427 38.4572 8.90234 27.9997 8.90234Z" fill="#FFF4F4"/>
<path d="M47.0973 27.8847C47.0973 38.3421 38.4576 47.0971 28 47.0971V8.90234C38.4576 8.90234 47.0973 17.427 47.0973 27.8847Z" fill="#EEE1DC"/>
<path d="M36.2248 35.9958C35.9143 36.341 35.4656 36.5136 35.017 36.5136C34.5683 36.5136 34.1196 36.341 33.8091 35.9958L27.9991 30.3012L26.7913 29.0931C26.446 28.7826 26.2734 28.3339 26.2734 27.8852V17.5313C26.2734 16.5648 27.0326 15.8057 27.9991 15.8057C28.9656 15.8057 29.7248 16.5648 29.7248 17.5313V27.1605L36.2247 33.58C36.9151 34.2356 36.9151 35.34 36.2248 35.9958Z" fill="#1B7CF5"/>
<path d="M36.2257 35.9958C35.9152 36.341 35.4665 36.5136 35.0178 36.5136C34.5692 36.5136 34.1205 36.341 33.81 35.9958L28 30.3012V15.8057C28.9665 15.8057 29.7257 16.5648 29.7257 17.5313V27.1605L36.2256 33.58C36.916 34.2356 36.916 35.34 36.2257 35.9958Z" fill="#1465E1"/>
</svg>
