<svg width="109" height="64" viewBox="0 0 109 64" fill="none" xmlns="http://www.w3.org/2000/svg">
<g opacity="0.3">
<path d="M37.5 77C27.6683 83.9497 7 81.5 7 81.5L13 94.5C13 94.5 33.8823 96.8761 44 90C52.1103 84.4882 49.8093 74.0419 58.5 69.5C67.3258 64.8875 74.9685 73.6953 84 69.5C95.2476 64.2753 90.1703 48.0442 101.5 43C110.062 39.1879 117.136 47.2288 125.5 43C135.875 37.7546 140 17 140 17L130 6C130 6 126.36 24.8995 117 30C108.77 34.4848 101.358 25.758 93 30C83.0859 35.0319 88.2404 49.1396 78.5 54.5C69.2623 59.5838 60.6905 49.3315 51.5 54.5C42.4797 59.5728 45.9508 71.0264 37.5 77Z" fill="#8ED4FF"/>
<path d="M30.5 65C20.6683 71.9497 0 69.5 0 69.5L6 82.5C6 82.5 26.8823 84.8761 37 78C45.1103 72.4882 42.8093 62.0419 51.5 57.5C60.3258 52.8875 67.9685 61.6953 77 57.5C88.2476 52.2753 83.1703 36.0442 94.5 31C103.062 27.1879 110.136 35.2288 118.5 31C128.875 25.7546 133 5 133 5L123 -6C123 -6 119.36 12.8995 110 18C101.77 22.4848 94.3577 13.758 86 18C76.0859 23.0319 81.2404 37.1396 71.5 42.5C62.2623 47.5838 53.6905 37.3315 44.5 42.5C35.4797 47.5728 38.9508 59.0264 30.5 65Z" fill="#A6F7FB"/>
</g>
</svg>
