<svg width="49" height="49" viewBox="0 0 49 49" fill="none" xmlns="http://www.w3.org/2000/svg">
<path d="M43.2178 11.0996H45.442C45.8512 11.0996 46.1833 11.4226 46.1833 11.8205V39.2159C46.1833 39.6138 45.8512 39.9368 45.442 39.9368H26.9075C26.9075 41.1314 25.9118 42.0996 24.6833 42.0996C23.4549 42.0996 22.4592 41.1314 22.4592 39.9368H3.92473C3.51549 39.9368 3.18335 39.6138 3.18335 39.2159V11.8205C3.18335 11.4226 3.51549 11.0996 3.92473 11.0996H43.2178Z" fill="#08C1D2"/>
<path d="M7.18335 37.0996C7.18335 37.0996 8.70161 33.0996 24.6833 33.0996C40.6651 33.0996 42.1833 37.0996 42.1833 37.0996H24.6833H7.18335Z" fill="#C0D0D8"/>
<path d="M43.1833 9.73086C43.1833 9.45574 43.0302 9.20476 42.7808 9.08329C41.656 8.53304 38.2069 7.09961 32.8233 7.09961C27.6434 7.09961 24.6833 10.0265 24.6833 10.0265C24.6833 10.0265 21.7233 7.09961 16.5434 7.09961C11.1606 7.09961 7.71071 8.53377 6.58591 9.08329C6.33653 9.20549 6.18335 9.45574 6.18335 9.73086V36.4246C6.18335 36.9412 6.74797 37.2697 7.19789 37.0071C8.68011 36.1436 12.4511 34.1724 16.5434 34.1724C21.7233 34.1724 24.6833 37.0993 24.6833 37.0993C24.6833 37.0993 27.6434 34.1724 32.8233 34.1724C36.9156 34.1724 40.6866 36.1429 42.1688 37.0071C42.6187 37.2697 43.1833 36.9412 43.1833 36.4246V9.73086Z" fill="#E7EEF2"/>
<path d="M21.9266 15.1431C21.7384 15.1431 21.5502 15.0711 21.4069 14.9277C21.3995 14.9211 20.0514 13.673 16.7812 13.673C13.3352 13.673 10.5214 15.052 10.4935 15.0659C10.1282 15.2468 9.68859 15.099 9.50777 14.7366C9.32694 14.3735 9.47395 13.9325 9.83634 13.7509C9.96277 13.6877 12.9758 12.2036 16.7804 12.2036C20.7152 12.2036 22.3764 13.82 22.4455 13.8891C22.7329 14.1765 22.7329 14.6411 22.4455 14.9285C22.3022 15.0718 22.114 15.1438 21.9258 15.1438L21.9266 15.1431Z" fill="#516972"/>
<path d="M21.9266 20.2884C21.7384 20.2884 21.5502 20.2163 21.4069 20.073C21.3995 20.0664 20.0514 18.8183 16.7812 18.8183C13.3352 18.8183 10.5214 20.1972 10.4935 20.2112C10.1282 20.3928 9.68859 20.2443 9.50777 19.8819C9.32694 19.5188 9.47395 19.0777 9.83634 18.8962C9.96277 18.833 12.9758 17.3489 16.7804 17.3489C20.7152 17.3489 22.3764 18.9653 22.4455 19.0344C22.7329 19.3218 22.7329 19.7863 22.4455 20.0737C22.3022 20.2171 22.114 20.2891 21.9258 20.2891L21.9266 20.2884Z" fill="#516972"/>
<path d="M21.9266 25.4339C21.7384 25.4339 21.5502 25.3618 21.4069 25.2185C21.3995 25.2119 20.0514 23.9638 16.7812 23.9638C13.3352 23.9638 10.5214 25.3427 10.4935 25.3567C10.1282 25.5375 9.68859 25.3898 9.50777 25.0274C9.32694 24.6643 9.47395 24.2232 9.83634 24.0417C9.96277 23.9785 12.9758 22.4944 16.7804 22.4944C20.7152 22.4944 22.3764 24.1108 22.4455 24.1799C22.7329 24.4673 22.7329 24.9318 22.4455 25.2192C22.3022 25.3626 22.114 25.4346 21.9258 25.4346L21.9266 25.4339Z" fill="#516972"/>
<path d="M21.9266 30.5791C21.7384 30.5791 21.5502 30.5071 21.4069 30.3638C21.3995 30.3572 20.0514 29.109 16.7812 29.109C13.3352 29.109 10.5214 30.488 10.4935 30.502C10.1282 30.6835 9.68859 30.535 9.50777 30.1727C9.32694 29.8095 9.47395 29.3685 9.83634 29.1869C9.96277 29.1237 12.9758 27.6396 16.7804 27.6396C20.7152 27.6396 22.3764 29.256 22.4455 29.3251C22.7329 29.6125 22.7329 30.0771 22.4455 30.3645C22.3022 30.5078 22.114 30.5799 21.9258 30.5799L21.9266 30.5791Z" fill="#516972"/>
<path d="M25.1833 9.09961V36.4925C24.8533 36.8479 24.6833 37.0996 24.6833 37.0996C24.6833 37.0996 24.5133 36.8479 24.1833 36.4925V9.09961C24.5133 9.45498 24.6833 9.7067 24.6833 9.7067C24.6833 9.7067 24.8533 9.45498 25.1833 9.09961Z" fill="#D4E1E8"/>
</svg>
