<svg width="40" height="40" viewBox="0 0 40 40" fill="none" xmlns="http://www.w3.org/2000/svg">
<path d="M8.88953 8.33335C12.9903 8.32762 16.9482 9.81182 20.0007 12.5V36.6667C16.9482 33.9785 12.9903 32.4943 8.88953 32.5C6.28618 32.5 4.98452 32.5 4.40942 32.132C4.06415 31.911 3.92308 31.7698 3.70208 31.4245C3.33398 30.8495 3.33398 29.8235 3.33398 27.7715V14.0054C3.33398 11.6257 3.33398 10.4359 4.24855 9.47144C5.16312 8.50697 6.09937 8.4572 7.97185 8.35767C8.27565 8.34152 8.58162 8.33335 8.88953 8.33335Z" fill="#08C1D2" stroke="#08C1D2" stroke-width="1.5" stroke-linecap="round" stroke-linejoin="round"/>
<path d="M20 36.6683C23.0525 33.9802 27.0103 32.496 31.1112 32.5017C33.7145 32.5017 35.0162 32.5017 35.5912 32.1337C35.9365 31.9127 36.0775 31.7715 36.2985 31.4263C36.6667 30.8512 36.6667 29.8252 36.6667 27.7732V14.0071C36.6667 11.6274 36.6667 10.4376 35.7522 9.47314C34.8375 8.50867 33.5392 8.43287 31.6667 8.33334" fill="#0A9AB0"/>
<path d="M20 36.6683C23.0525 33.9802 27.0103 32.496 31.1112 32.5017C33.7145 32.5017 35.0162 32.5017 35.5912 32.1337C35.9365 31.9127 36.0775 31.7715 36.2985 31.4263C36.6667 30.8512 36.6667 29.8252 36.6667 27.7732V14.0071C36.6667 11.6274 36.6667 10.4376 35.7522 9.47314C34.8375 8.50867 33.5392 8.43287 31.6667 8.33334" stroke="#0A9AB0" stroke-width="1.5" stroke-linecap="round" stroke-linejoin="round"/>
<path d="M29.1758 3.36457C21.3815 4.72425 20 12.5 20 12.5V36.6667C20 36.6667 21.4778 28.5453 30.0007 27.598C30.9155 27.4963 31.6667 26.7627 31.6667 25.843V5.65515C31.6667 4.27567 30.536 3.1273 29.1758 3.36457Z" fill="#08C1D2" stroke="#68F0F8" stroke-width="1.5" stroke-linecap="round" stroke-linejoin="round"/>
</svg>
