<svg width="287" height="329" viewBox="0 0 287 329" fill="none" xmlns="http://www.w3.org/2000/svg">
<path d="M264.104 139.213H255.438L251.972 137.479L232.906 125.346V118.413L251.972 130.546L264.104 134.013V139.213Z" fill="url(#paint0_linear_2471_1395)"/>
<path d="M137.575 133.45C151.441 129.076 168.774 132.539 175.707 134.817V128.813C169.352 126.502 153.175 122.92 139.308 127.08L137.575 133.45Z" fill="#B4DBFF"/>
<g filter="url(#filter0_i_2471_1395)">
<path d="M170.935 224.143L200.401 199.877C212.534 206.81 247.199 269.208 226.4 269.208C209.761 269.208 182.49 239.165 170.935 224.143Z" fill="url(#paint1_linear_2471_1395)"/>
</g>
<g filter="url(#filter1_f_2471_1395)">
<path d="M233.236 266C232.707 265 222.113 250 221.054 228C214.698 247.2 226.527 261.333 233.236 266Z" fill="#48B7E4"/>
</g>
<path d="M240.736 189.5C240.736 205.308 250.199 229.52 255.236 239.92L254.229 242C249.695 237.32 233.736 200 240.736 189.5Z" fill="#42B3E1"/>
<g filter="url(#filter2_ii_2471_1395)">
<path d="M233.992 136.285C232.259 200.416 213.193 190.017 175.061 226.416L168.5 283.5C70.5 364.5 3.3335 269.747 4.57764e-05 180.5V151.885C4.57764e-05 47.8881 74.5309 -18.4373 154.262 4.55622C233.992 27.5497 244.392 98.1532 233.992 136.285Z" fill="url(#paint2_linear_2471_1395)"/>
</g>
<path d="M84.4342 66.8882C95.9561 63.0527 99.4814 66.3811 108.29 68.3319C108.404 68.3573 108.52 68.2727 108.531 68.1558C109.506 57.886 87.4602 57.6584 84.1828 66.6441C84.127 66.7968 84.2799 66.9395 84.4342 66.8882Z" fill="#55A4DD"/>
<path d="M184.374 162.29C177.441 162.29 161.841 187.744 118.51 154.812C128.909 184.278 163.575 198.144 184.374 162.29Z" fill="url(#paint3_linear_2471_1395)"/>
<path d="M171.933 145.027C198.645 165.506 161.248 197.929 118.509 155.266C127.413 145.027 150.564 128.645 171.933 145.027Z" fill="url(#paint4_linear_2471_1395)"/>
<g filter="url(#filter3_f_2471_1395)">
<path d="M44.7149 120.589L41.1428 119.966L30.745 116.272L19.5709 74.8015L15.9993 74.1789L11.1536 80.8623L16.5113 81.7962L25.8993 122.955C25.8993 122.955 39.5512 129.099 43.4413 127.895C47.3314 126.691 46.5005 120.9 44.7149 120.589Z" fill="#50BCEA"/>
</g>
<g filter="url(#filter4_f_2471_1395)">
<path d="M135.618 141.61C150.086 139.354 167.03 141.066 175.844 142.561C177.088 142.773 178.236 141.824 178.236 140.562V140.312C178.236 139.373 177.584 138.559 176.663 138.382C168.398 136.793 149.94 134.702 134.882 137.058C133.927 137.207 133.236 138.039 133.236 139.005V139.603C133.236 140.859 134.378 141.803 135.618 141.61Z" fill="#3BADF4"/>
</g>
<g filter="url(#filter5_f_2471_1395)">
<path fill-rule="evenodd" clip-rule="evenodd" d="M87.7046 167.13C60.9013 167.13 39.1729 146.954 39.1729 122.065C39.1729 97.1764 60.9013 77 87.7046 77C114.508 77 136.236 97.1764 136.236 122.065C136.236 146.954 114.508 167.13 87.7046 167.13ZM87.7041 163.664C62.8153 163.664 42.639 145.039 42.639 122.065C42.639 99.0909 62.8153 80.4665 87.7041 80.4665C112.593 80.4665 132.769 99.0909 132.769 122.065C132.769 145.039 112.593 163.664 87.7041 163.664Z" fill="#4AB3EF"/>
</g>
<path fill-rule="evenodd" clip-rule="evenodd" d="M92.5103 163.479C65.7069 163.479 43.9785 143.302 43.9785 118.413C43.9785 93.5245 65.7069 73.3481 92.5103 73.3481C119.314 73.3481 141.042 93.5245 141.042 118.413C141.042 143.302 119.314 163.479 92.5103 163.479ZM92.5098 160.012C67.621 160.012 47.4446 141.388 47.4446 118.413C47.4446 95.439 67.621 76.8147 92.5098 76.8147C117.399 76.8147 137.575 95.439 137.575 118.413C137.575 141.388 117.399 160.012 92.5098 160.012Z" fill="url(#paint5_linear_2471_1395)"/>
<path fill-rule="evenodd" clip-rule="evenodd" d="M215.573 177.345C193.556 177.345 175.707 157.168 175.707 132.28C175.707 107.391 193.556 87.2145 215.573 87.2145C237.59 87.2145 255.438 107.391 255.438 132.28C255.438 157.168 237.59 177.345 215.573 177.345ZM215.573 173.878C195.47 173.878 179.174 155.254 179.174 132.28C179.174 109.305 195.47 90.681 215.573 90.681C235.675 90.681 251.972 109.305 251.972 132.28C251.972 155.254 235.675 173.878 215.573 173.878Z" fill="url(#paint6_linear_2471_1395)"/>
<g filter="url(#filter6_f_2471_1395)">
<path fill-rule="evenodd" clip-rule="evenodd" d="M181.383 112.804C177.597 119.44 175.583 127.169 175.583 135.065H178.742C178.742 135.065 178.742 135.065 178.742 135.065C178.742 114.13 193.592 97.1588 211.91 97.1588C220.364 97.1588 228.079 100.774 233.937 106.725L235.887 104.216C230.639 99.004 224.174 95.6128 217.265 94.4487C210.356 93.2846 203.297 94.397 196.933 97.6525C190.569 100.908 185.17 106.169 181.383 112.804Z" fill="#4AB3EF"/>
</g>
<path d="M50.9115 109.747H47.4449L37.0452 108.014L19.7125 71.6149H16.2464L12.7798 78.548H17.9792L33.5787 114.947C33.5787 114.947 47.4452 118.413 50.9115 116.68C54.3777 114.947 52.6443 109.747 50.9115 109.747Z" fill="url(#paint7_linear_2471_1395)"/>
<path d="M138.656 135.567C151.644 133.399 166.754 135.04 174.802 136.514C176.057 136.744 177.236 135.792 177.236 134.515V134.278C177.236 133.355 176.608 132.55 175.704 132.361C168.148 130.78 151.488 128.723 137.848 131.039C136.908 131.198 136.236 132.023 136.236 132.976V133.559C136.236 134.829 137.403 135.777 138.656 135.567Z" fill="url(#paint8_linear_2471_1395)"/>
<path d="M203.26 75.8746C206.662 71.2247 212.999 72.6325 214.976 74.2609C215.081 74.3477 215.247 74.3117 215.3 74.1858C218.099 67.4958 198.316 64.2642 202.901 75.8242C202.96 75.9718 203.167 76.0028 203.26 75.8746Z" fill="#55A4DD"/>
<g filter="url(#filter7_f_2471_1395)">
<path d="M177.248 156.74C175.358 149.922 170.162 148.217 167.8 148.217C160.714 146.086 154.808 154.609 157.17 157.805C159.532 161.002 179.61 165.263 177.248 156.74Z" fill="white" fill-opacity="0.5"/>
</g>
<g filter="url(#filter8_f_2471_1395)">
<path d="M229.439 157.693C225.572 153.586 209.942 134.129 191.733 151.533C187.866 155.229 211.069 176.175 229.439 157.693Z" fill="#E0F3FF" fill-opacity="0.5"/>
</g>
<path d="M57.4679 100.28C59.2012 108.947 63.8233 112.413 66.1343 112.413L69.6009 105.48C63.6434 111.48 55.7346 91.614 57.4679 100.28Z" fill="#173F66"/>
<path d="M67.8676 93.3473C69.6009 96.8138 73.0674 99.7026 74.8007 100.28L69.6009 103.747C62.6677 98.5471 65.4164 88.4448 67.8676 93.3473Z" fill="#173F66"/>
<path d="M76.5339 89.8807C78.2672 93.3473 81.7338 96.2361 83.467 96.8138L76.5339 98.5471C73.0674 93.3472 74.8007 86.4141 76.5339 89.8807Z" fill="#173F66"/>
<path d="M62.6772 110.871C64.4643 151.29 96.6087 135.577 113.869 138.947C114.485 139.067 115.083 138.599 115.114 137.972C117.745 85.6982 69.8199 90.0172 62.7282 110.506C62.6885 110.621 62.6718 110.75 62.6772 110.871Z" fill="url(#paint9_linear_2471_1395)"/>
<path d="M69.6011 119.346C69.6011 131.791 76.5342 138.412 90.4004 138.412C104.267 138.412 107.733 131.791 107.733 119.346C107.733 106.902 99.197 98.5471 88.6671 98.5471C78.1372 98.5471 69.6011 106.902 69.6011 119.346Z" fill="url(#paint10_linear_2471_1395)"/>
<path d="M69.6011 119.309C69.6011 131.212 76.5342 137.546 90.4004 137.546C104.267 137.546 107.733 131.212 107.733 119.309C107.733 107.405 99.197 99.4138 88.6671 99.4138C78.1372 99.4138 69.6011 107.405 69.6011 119.309Z" fill="url(#paint11_linear_2471_1395)"/>
<path d="M73.0679 119.158C73.0679 128.897 78.7404 134.079 90.0855 134.079C101.431 134.079 104.267 128.897 104.267 119.158C104.267 109.419 97.2827 102.88 88.6674 102.88C80.052 102.88 73.0679 109.419 73.0679 119.158Z" fill="url(#paint12_linear_2471_1395)"/>
<path d="M80.3772 118.941C80.3772 126.516 81.4799 130.355 89.0432 130.355C96.6066 130.355 98.4975 126.325 98.4975 118.75C98.4975 111.175 96.5204 106.28 90.7768 106.28C85.0333 106.28 80.3772 111.366 80.3772 118.941Z" fill="#142C57"/>
<path d="M115.043 134.013C116.776 111.48 95.977 82.0146 63.0444 108.014C76.911 80.2813 125.442 95.8808 115.043 134.013Z" fill="#173F66"/>
<path d="M69.9778 102.814C68.2445 104.547 62.7636 109.747 64.778 123.613C57.8448 108.014 65.3616 104.547 69.9778 102.814Z" fill="#173F66"/>
<ellipse cx="1.72983" cy="1.7161" rx="1.72983" ry="1.7161" transform="matrix(-0.999998 -0.00200921 -0.00200921 0.999998 83.8433 127.087)" fill="white"/>
<path d="M71.7109 109.747C71.7082 111.059 74.153 110.578 75.2966 110.581C76.4402 110.583 76.9079 109.326 76.9105 108.014C76.9132 106.701 76.321 104.549 75.1774 104.547C74.0338 104.545 71.7135 108.435 71.7109 109.747Z" fill="#EEF8FF"/>
<path d="M95.9767 103.299C90.7768 101.566 90.7769 104.547 90.7769 104.547L94.2434 116.68L104.643 117.165C104.643 117.165 101.177 105.032 95.9767 103.299Z" fill="#F0F8FF"/>
<path d="M104.643 139.213C96.5544 136.902 90.2885 136.086 75.1774 135.746C66.511 135.551 80.3772 140.946 104.643 139.213Z" fill="#5BB5F4"/>
<g filter="url(#filter9_f_2471_1395)">
<path d="M117.26 147.471C111.635 143.364 88.901 123.907 62.4159 141.31C56.7909 145.007 90.5411 165.952 117.26 147.471Z" fill="#E0F3FF" fill-opacity="0.5"/>
</g>
<path d="M187.84 140.946C187.945 143.686 222.505 161.745 225.972 121.88C224.239 97.614 186.107 95.8807 187.84 140.946Z" fill="url(#paint13_linear_2471_1395)"/>
<path d="M225.972 123.613C224.239 118.991 219.879 107.055 208.639 108.014C196.427 109.055 229.439 99.3472 225.972 123.613Z" fill="#173F66"/>
<path d="M187.84 129.741C190.006 142.374 195.6 144.179 205.173 144.179C213.839 145.983 222.505 137.095 222.505 126.132C222.505 115.168 216.912 106.28 207.339 106.28C197.767 106.28 187.84 115.304 187.84 129.741Z" fill="url(#paint14_linear_2471_1395)"/>
<path d="M191.307 125.476C192.823 135.811 196.739 137.288 203.44 137.288C209.506 138.765 215.573 131.493 215.573 122.522C215.573 113.552 211.657 106.28 204.956 106.28C198.255 106.28 191.307 113.663 191.307 125.476Z" fill="url(#paint15_linear_2471_1395)"/>
<path d="M194.773 122.544C195.64 129.434 197.877 130.419 201.706 130.419C205.173 131.403 208.639 126.555 208.639 120.575C208.639 114.595 206.402 109.747 202.573 109.747C198.744 109.747 194.773 114.669 194.773 122.544Z" fill="#142C57"/>
<path d="M232.905 109.747C228.745 113.907 225.394 114.947 224.239 114.947C225.972 113.213 229.439 108.014 229.439 101.081C226.665 105.24 220.772 109.169 219.039 109.747C219.039 108.014 224.239 102.814 224.239 95.8807C221.466 101.427 218.461 102.814 217.306 102.814C213.839 101.658 203.44 102.814 196.506 109.747C196.506 109.747 203.854 107.902 208.639 108.014C212.756 108.109 219.039 109.747 219.039 109.747L224.239 114.947L226.146 123.491C227.949 122.17 231.563 117.798 232.905 109.747Z" fill="#173F66"/>
<path d="M187.84 134.013C189.573 116.68 193.04 113.214 196.506 109.747L203.439 108.014C198.239 110.902 189.573 116.68 187.84 134.013Z" fill="#173F66"/>
<path d="M224.239 130.546C224.239 130.546 225.972 121.88 224.239 118.413C224.817 118.991 226.665 121.187 229.439 118.413C225.972 128.813 224.239 130.546 224.239 130.546Z" fill="#173F66"/>
<path d="M217.306 144.412C213.839 142.679 205.173 144.412 191.307 144.412C203.139 151.388 215.572 146.146 217.306 144.412Z" fill="#82C9F7"/>
<path d="M194.773 114.947C194.221 116.906 198.873 118.071 200.212 118.071C201.934 118.556 203.164 116.876 203.716 114.917C204.268 112.958 204.275 109.494 202.553 109.009C200.905 109.009 196.506 113.214 194.773 114.947Z" fill="#EEF8FF"/>
<path d="M205.173 111.48C205.173 110.523 205.949 109.747 206.906 109.747C207.864 109.747 210.373 110.523 210.373 111.48C210.373 112.438 210.373 114.947 206.906 114.947C205.949 114.947 205.173 112.438 205.173 111.48Z" fill="#EEF8FF"/>
<ellipse cx="1.77479" cy="2.57957" rx="1.77479" ry="2.57957" transform="matrix(-0.871468 -0.490452 -0.490452 0.871468 212.106 135.754)" fill="#EEF8FF"/>
<ellipse cx="1.73966" cy="1.89866" rx="1.73966" ry="1.89866" transform="matrix(-0.995462 -0.0951593 -0.0951593 0.995462 215.573 113.545)" fill="#EEF8FF"/>
<g filter="url(#filter10_f_2471_1395)">
<path d="M113.07 281.528C133.655 287.267 149.469 285.931 160.721 284.82C155.517 282.441 137.13 276.211 125.928 274.218C117.732 275.094 103.687 277.782 113.07 281.528Z" fill="#19A5EF"/>
</g>
<g filter="url(#filter11_f_2471_1395)">
<path d="M119 267L115.224 251.47C90.2289 237.108 42.3969 212.694 51.0282 229.927C59.6595 247.161 99.9391 261.823 119 267Z" fill="#37BDE8"/>
</g>
<g filter="url(#filter12_i_2471_1395)">
<path d="M115.06 271.945L92 168.945C92 143.078 157.169 140.444 193.262 165.653C230.86 137.434 285 147.31 285 165.653C276.478 192.932 273.971 208.452 258.431 267.712C238.78 268.089 209.471 286.368 196.27 292.169C193.095 292.796 185.943 293.674 182.735 292.169C169.701 282.292 134.945 272.416 115.06 271.945Z" fill="url(#paint16_linear_2471_1395)"/>
</g>
<g filter="url(#filter13_f_2471_1395)">
<path d="M197.919 287L193 176.88C234.54 170.403 248.752 169.406 281 179.87C274.988 198.472 258.153 235.378 254.217 266.072C235.087 267.567 212.13 276.536 197.919 287Z" fill="url(#paint17_linear_2471_1395)"/>
</g>
<g filter="url(#filter14_f_2471_1395)">
<path d="M94 175.184C126.182 167.167 151.818 164.161 196 175.184C192.545 207.252 182.314 282.03 169.273 278.905C156.231 275.78 129.818 271.556 118.545 270.387C114.182 247.338 102.291 202.041 94 175.184Z" fill="url(#paint18_linear_2471_1395)"/>
</g>
<g filter="url(#filter15_f_2471_1395)">
<path d="M263.428 195C266.131 209.369 260.308 241.424 222.893 262.739C179.655 287.372 249.916 234.001 263.428 195Z" fill="#DDF9FF" fill-opacity="0.23"/>
</g>
<g filter="url(#filter16_f_2471_1395)">
<path d="M131.572 193C128.869 207.369 137.5 239.5 165.5 257.5C207.359 284.409 149.5 235 131.572 193Z" fill="#DDF9FF" fill-opacity="0.21"/>
</g>
<path d="M193 180V165.832C221.5 140.5 285 143.5 285 165.832C284.832 166.189 284.521 164.167 280.5 180C247.929 163.311 207.241 173.046 193 180Z" fill="#F5F2F2"/>
<path d="M193 180V168.055C219.941 146.07 280.956 145.448 285 165.564C284.832 165.88 285.021 166.475 281 180.5C248.429 165.717 207.241 173.84 193 180Z" fill="#EEEEEE"/>
<path d="M92.5 166C98 143 159.5 141.5 193 166C193.5 171.667 193.1 181.8 187.5 177C153.5 163 100.5 173 94 177C93.2 174.6 92.6667 168.667 92.5 166Z" fill="#E8E1E1" stroke="#E8E1E1"/>
<path d="M92.5 166C97.964 143.819 160.219 143.872 193.5 167.5C193.997 172.965 193.063 181.629 187.5 177C153.722 163.498 100.457 173.142 94 177C93.2052 174.685 91.8842 168.5 92.5 166Z" fill="#FFF2F2" stroke="#FFF2F2"/>
<path d="M187.764 176.727C188.359 171.704 198.437 171.812 199.553 176.727C202.728 190.696 200.088 276.68 197.286 280.995C195.019 284.487 190.031 285.485 185.95 280.995C181.869 276.505 185.043 199.676 187.764 176.727Z" fill="#F6703F"/>
<g filter="url(#filter17_ii_2471_1395)">
<path d="M264 185C282.5 249 226.566 264.067 207.5 271C191 315 82.5 377.5 22 264C136 306 169 285.5 182.5 271C127.5 246 126.5 171 132.5 192C141 215 192.567 222.212 199.5 235.5C214.5 220.5 255.334 209.266 264 185Z" fill="url(#paint19_linear_2471_1395)"/>
</g>
<g filter="url(#filter18_f_2471_1395)">
<path d="M98 286.879L90.5 294C45.0412 306.41 23 275.5 14 243L98 286.879Z" fill="url(#paint20_linear_2471_1395)"/>
</g>
<g filter="url(#filter19_f_2471_1395)">
<path d="M197.937 266.882C194.141 280.321 172.297 296 179.416 296C186.534 296 202.229 276.215 206.5 266.882C218.812 261.314 235.5 261.5 253 241C226.804 256.529 201.734 253.443 197.937 266.882Z" fill="#46C7F4"/>
</g>
<g filter="url(#filter20_ii_2471_1395)">
<path d="M55.5093 232.102C41.1231 218.119 51.7893 201.126 61.1776 205.236C81.7665 210.91 124.36 225.58 130.021 238.866C137.099 255.473 79.4905 251.917 55.5093 232.102Z" fill="url(#paint21_linear_2471_1395)"/>
</g>
<defs>
<filter id="filter0_i_2471_1395" x="170.935" y="199.877" width="61.97" height="71.3311" filterUnits="userSpaceOnUse" color-interpolation-filters="sRGB">
<feFlood flood-opacity="0" result="BackgroundImageFix"/>
<feBlend mode="normal" in="SourceGraphic" in2="BackgroundImageFix" result="shape"/>
<feColorMatrix in="SourceAlpha" type="matrix" values="0 0 0 0 0 0 0 0 0 0 0 0 0 0 0 0 0 0 127 0" result="hardAlpha"/>
<feOffset dy="2"/>
<feGaussianBlur stdDeviation="2"/>
<feComposite in2="hardAlpha" operator="arithmetic" k2="-1" k3="1"/>
<feColorMatrix type="matrix" values="0 0 0 0 0.0425347 0 0 0 0 0.549444 0 0 0 0 0.729167 0 0 0 0.5 0"/>
<feBlend mode="normal" in2="shape" result="effect1_innerShadow_2471_1395"/>
</filter>
<filter id="filter1_f_2471_1395" x="209.236" y="218" width="34" height="58" filterUnits="userSpaceOnUse" color-interpolation-filters="sRGB">
<feFlood flood-opacity="0" result="BackgroundImageFix"/>
<feBlend mode="normal" in="SourceGraphic" in2="BackgroundImageFix" result="shape"/>
<feGaussianBlur stdDeviation="5" result="effect1_foregroundBlur_2471_1395"/>
</filter>
<filter id="filter2_ii_2471_1395" x="0" y="-4" width="237.348" height="324.243" filterUnits="userSpaceOnUse" color-interpolation-filters="sRGB">
<feFlood flood-opacity="0" result="BackgroundImageFix"/>
<feBlend mode="normal" in="SourceGraphic" in2="BackgroundImageFix" result="shape"/>
<feColorMatrix in="SourceAlpha" type="matrix" values="0 0 0 0 0 0 0 0 0 0 0 0 0 0 0 0 0 0 127 0" result="hardAlpha"/>
<feOffset dy="7"/>
<feGaussianBlur stdDeviation="3"/>
<feComposite in2="hardAlpha" operator="arithmetic" k2="-1" k3="1"/>
<feColorMatrix type="matrix" values="0 0 0 0 0.34902 0 0 0 0 0.729412 0 0 0 0 1 0 0 0 0.47 0"/>
<feBlend mode="normal" in2="shape" result="effect1_innerShadow_2471_1395"/>
<feColorMatrix in="SourceAlpha" type="matrix" values="0 0 0 0 0 0 0 0 0 0 0 0 0 0 0 0 0 0 127 0" result="hardAlpha"/>
<feOffset dy="-4"/>
<feGaussianBlur stdDeviation="10"/>
<feComposite in2="hardAlpha" operator="arithmetic" k2="-1" k3="1"/>
<feColorMatrix type="matrix" values="0 0 0 0 0.380392 0 0 0 0 0.745098 0 0 0 0 0.937255 0 0 0 1 0"/>
<feBlend mode="normal" in2="effect1_innerShadow_2471_1395" result="effect2_innerShadow_2471_1395"/>
</filter>
<filter id="filter3_f_2471_1395" x="5.15356" y="68.1788" width="47.0562" height="65.8726" filterUnits="userSpaceOnUse" color-interpolation-filters="sRGB">
<feFlood flood-opacity="0" result="BackgroundImageFix"/>
<feBlend mode="normal" in="SourceGraphic" in2="BackgroundImageFix" result="shape"/>
<feGaussianBlur stdDeviation="3" result="effect1_foregroundBlur_2471_1395"/>
</filter>
<filter id="filter4_f_2471_1395" x="129.236" y="132" width="53" height="14.5909" filterUnits="userSpaceOnUse" color-interpolation-filters="sRGB">
<feFlood flood-opacity="0" result="BackgroundImageFix"/>
<feBlend mode="normal" in="SourceGraphic" in2="BackgroundImageFix" result="shape"/>
<feGaussianBlur stdDeviation="2" result="effect1_foregroundBlur_2471_1395"/>
</filter>
<filter id="filter5_f_2471_1395" x="33.1729" y="71" width="109.063" height="102.13" filterUnits="userSpaceOnUse" color-interpolation-filters="sRGB">
<feFlood flood-opacity="0" result="BackgroundImageFix"/>
<feBlend mode="normal" in="SourceGraphic" in2="BackgroundImageFix" result="shape"/>
<feGaussianBlur stdDeviation="3" result="effect1_foregroundBlur_2471_1395"/>
</filter>
<filter id="filter6_f_2471_1395" x="170.583" y="89" width="70.3042" height="51.0652" filterUnits="userSpaceOnUse" color-interpolation-filters="sRGB">
<feFlood flood-opacity="0" result="BackgroundImageFix"/>
<feBlend mode="normal" in="SourceGraphic" in2="BackgroundImageFix" result="shape"/>
<feGaussianBlur stdDeviation="2.5" result="effect1_foregroundBlur_2471_1395"/>
</filter>
<filter id="filter7_f_2471_1395" x="151.641" y="142.879" width="30.7993" height="23.8662" filterUnits="userSpaceOnUse" color-interpolation-filters="sRGB">
<feFlood flood-opacity="0" result="BackgroundImageFix"/>
<feBlend mode="normal" in="SourceGraphic" in2="BackgroundImageFix" result="shape"/>
<feGaussianBlur stdDeviation="2.5" result="effect1_foregroundBlur_2471_1395"/>
</filter>
<filter id="filter8_f_2471_1395" x="183.307" y="136.412" width="54.1321" height="36.7993" filterUnits="userSpaceOnUse" color-interpolation-filters="sRGB">
<feFlood flood-opacity="0" result="BackgroundImageFix"/>
<feBlend mode="normal" in="SourceGraphic" in2="BackgroundImageFix" result="shape"/>
<feGaussianBlur stdDeviation="4" result="effect1_foregroundBlur_2471_1395"/>
</filter>
<filter id="filter9_f_2471_1395" x="52.7952" y="125.19" width="73.4648" height="38.7993" filterUnits="userSpaceOnUse" color-interpolation-filters="sRGB">
<feFlood flood-opacity="0" result="BackgroundImageFix"/>
<feBlend mode="normal" in="SourceGraphic" in2="BackgroundImageFix" result="shape"/>
<feGaussianBlur stdDeviation="4.5" result="effect1_foregroundBlur_2471_1395"/>
</filter>
<filter id="filter10_f_2471_1395" x="94.9565" y="259.218" width="80.7644" height="41.5804" filterUnits="userSpaceOnUse" color-interpolation-filters="sRGB">
<feFlood flood-opacity="0" result="BackgroundImageFix"/>
<feBlend mode="normal" in="SourceGraphic" in2="BackgroundImageFix" result="shape"/>
<feGaussianBlur stdDeviation="7.5" result="effect1_foregroundBlur_2471_1395"/>
</filter>
<filter id="filter11_f_2471_1395" x="42" y="216" width="85" height="59" filterUnits="userSpaceOnUse" color-interpolation-filters="sRGB">
<feFlood flood-opacity="0" result="BackgroundImageFix"/>
<feBlend mode="normal" in="SourceGraphic" in2="BackgroundImageFix" result="shape"/>
<feGaussianBlur stdDeviation="4" result="effect1_foregroundBlur_2471_1395"/>
</filter>
<filter id="filter12_i_2471_1395" x="92" y="148" width="193" height="145" filterUnits="userSpaceOnUse" color-interpolation-filters="sRGB">
<feFlood flood-opacity="0" result="BackgroundImageFix"/>
<feBlend mode="normal" in="SourceGraphic" in2="BackgroundImageFix" result="shape"/>
<feColorMatrix in="SourceAlpha" type="matrix" values="0 0 0 0 0 0 0 0 0 0 0 0 0 0 0 0 0 0 127 0" result="hardAlpha"/>
<feOffset/>
<feGaussianBlur stdDeviation="3.95"/>
<feComposite in2="hardAlpha" operator="arithmetic" k2="-1" k3="1"/>
<feColorMatrix type="matrix" values="0 0 0 0 0.878431 0 0 0 0 0.356863 0 0 0 0 0.164706 0 0 0 1 0"/>
<feBlend mode="normal" in2="shape" result="effect1_innerShadow_2471_1395"/>
</filter>
<filter id="filter13_f_2471_1395" x="187" y="166" width="100" height="127" filterUnits="userSpaceOnUse" color-interpolation-filters="sRGB">
<feFlood flood-opacity="0" result="BackgroundImageFix"/>
<feBlend mode="normal" in="SourceGraphic" in2="BackgroundImageFix" result="shape"/>
<feGaussianBlur stdDeviation="3" result="effect1_foregroundBlur_2471_1395"/>
</filter>
<filter id="filter14_f_2471_1395" x="88" y="162" width="114" height="123" filterUnits="userSpaceOnUse" color-interpolation-filters="sRGB">
<feFlood flood-opacity="0" result="BackgroundImageFix"/>
<feBlend mode="normal" in="SourceGraphic" in2="BackgroundImageFix" result="shape"/>
<feGaussianBlur stdDeviation="3" result="effect1_foregroundBlur_2471_1395"/>
</filter>
<filter id="filter15_f_2471_1395" x="205" y="191" width="63" height="82" filterUnits="userSpaceOnUse" color-interpolation-filters="sRGB">
<feFlood flood-opacity="0" result="BackgroundImageFix"/>
<feBlend mode="normal" in="SourceGraphic" in2="BackgroundImageFix" result="shape"/>
<feGaussianBlur stdDeviation="2" result="effect1_foregroundBlur_2471_1395"/>
</filter>
<filter id="filter16_f_2471_1395" x="127.101" y="189" width="57.2839" height="80.158" filterUnits="userSpaceOnUse" color-interpolation-filters="sRGB">
<feFlood flood-opacity="0" result="BackgroundImageFix"/>
<feBlend mode="normal" in="SourceGraphic" in2="BackgroundImageFix" result="shape"/>
<feGaussianBlur stdDeviation="2" result="effect1_foregroundBlur_2471_1395"/>
</filter>
<filter id="filter17_ii_2471_1395" x="22" y="181" width="245.699" height="153.281" filterUnits="userSpaceOnUse" color-interpolation-filters="sRGB">
<feFlood flood-opacity="0" result="BackgroundImageFix"/>
<feBlend mode="normal" in="SourceGraphic" in2="BackgroundImageFix" result="shape"/>
<feColorMatrix in="SourceAlpha" type="matrix" values="0 0 0 0 0 0 0 0 0 0 0 0 0 0 0 0 0 0 127 0" result="hardAlpha"/>
<feOffset dy="7"/>
<feGaussianBlur stdDeviation="3"/>
<feComposite in2="hardAlpha" operator="arithmetic" k2="-1" k3="1"/>
<feColorMatrix type="matrix" values="0 0 0 0 0.34902 0 0 0 0 0.729412 0 0 0 0 1 0 0 0 0.47 0"/>
<feBlend mode="normal" in2="shape" result="effect1_innerShadow_2471_1395"/>
<feColorMatrix in="SourceAlpha" type="matrix" values="0 0 0 0 0 0 0 0 0 0 0 0 0 0 0 0 0 0 127 0" result="hardAlpha"/>
<feOffset dy="-4"/>
<feGaussianBlur stdDeviation="10"/>
<feComposite in2="hardAlpha" operator="arithmetic" k2="-1" k3="1"/>
<feColorMatrix type="matrix" values="0 0 0 0 0.380392 0 0 0 0 0.745098 0 0 0 0 0.937255 0 0 0 1 0"/>
<feBlend mode="normal" in2="effect1_innerShadow_2471_1395" result="effect2_innerShadow_2471_1395"/>
</filter>
<filter id="filter18_f_2471_1395" x="8" y="237" width="96" height="65.8038" filterUnits="userSpaceOnUse" color-interpolation-filters="sRGB">
<feFlood flood-opacity="0" result="BackgroundImageFix"/>
<feBlend mode="normal" in="SourceGraphic" in2="BackgroundImageFix" result="shape"/>
<feGaussianBlur stdDeviation="3" result="effect1_foregroundBlur_2471_1395"/>
</filter>
<filter id="filter19_f_2471_1395" x="163" y="226" width="105" height="85" filterUnits="userSpaceOnUse" color-interpolation-filters="sRGB">
<feFlood flood-opacity="0" result="BackgroundImageFix"/>
<feBlend mode="normal" in="SourceGraphic" in2="BackgroundImageFix" result="shape"/>
<feGaussianBlur stdDeviation="7.5" result="effect1_foregroundBlur_2471_1395"/>
</filter>
<filter id="filter20_ii_2471_1395" x="48.4814" y="202.611" width="84.1379" height="46.804" filterUnits="userSpaceOnUse" color-interpolation-filters="sRGB">
<feFlood flood-opacity="0" result="BackgroundImageFix"/>
<feBlend mode="normal" in="SourceGraphic" in2="BackgroundImageFix" result="shape"/>
<feColorMatrix in="SourceAlpha" type="matrix" values="0 0 0 0 0 0 0 0 0 0 0 0 0 0 0 0 0 0 127 0" result="hardAlpha"/>
<feOffset dy="-2"/>
<feGaussianBlur stdDeviation="4"/>
<feComposite in2="hardAlpha" operator="arithmetic" k2="-1" k3="1"/>
<feColorMatrix type="matrix" values="0 0 0 0 0.218698 0 0 0 0 0.714874 0 0 0 0 0.920833 0 0 0 0.5 0"/>
<feBlend mode="normal" in2="shape" result="effect1_innerShadow_2471_1395"/>
<feColorMatrix in="SourceAlpha" type="matrix" values="0 0 0 0 0 0 0 0 0 0 0 0 0 0 0 0 0 0 127 0" result="hardAlpha"/>
<feOffset dx="2"/>
<feGaussianBlur stdDeviation="2"/>
<feComposite in2="hardAlpha" operator="arithmetic" k2="-1" k3="1"/>
<feColorMatrix type="matrix" values="0 0 0 0 0.388235 0 0 0 0 0.905882 0 0 0 0 0.964706 0 0 0 1 0"/>
<feBlend mode="normal" in2="effect1_innerShadow_2471_1395" result="effect2_innerShadow_2471_1395"/>
</filter>
<linearGradient id="paint0_linear_2471_1395" x1="248.505" y1="118.413" x2="248.505" y2="139.213" gradientUnits="userSpaceOnUse">
<stop stop-color="#10BFCF"/>
<stop offset="1" stop-color="#A7F7FB"/>
</linearGradient>
<linearGradient id="paint1_linear_2471_1395" x1="147.975" y1="206.81" x2="146.241" y2="276.141" gradientUnits="userSpaceOnUse">
<stop stop-color="#5FC7F5"/>
<stop offset="1" stop-color="#ACF0FC"/>
</linearGradient>
<linearGradient id="paint2_linear_2471_1395" x1="151.952" y1="3.28385" x2="151.952" y2="344.367" gradientUnits="userSpaceOnUse">
<stop offset="0.0292509" stop-color="#EEF8FF"/>
<stop offset="0.396124" stop-color="#5AB4F3"/>
<stop offset="1" stop-color="#68F0F8"/>
</linearGradient>
<linearGradient id="paint3_linear_2471_1395" x1="150.575" y1="156.682" x2="150.575" y2="184.034" gradientUnits="userSpaceOnUse">
<stop stop-color="#011F44"/>
<stop offset="1" stop-color="#44B5ED"/>
</linearGradient>
<linearGradient id="paint4_linear_2471_1395" x1="149.708" y1="138.077" x2="149.708" y2="176.209" gradientUnits="userSpaceOnUse">
<stop stop-color="#5BB7F4"/>
<stop offset="1" stop-color="#B5E0FF"/>
</linearGradient>
<linearGradient id="paint5_linear_2471_1395" x1="92.5103" y1="73.3481" x2="92.5103" y2="163.479" gradientUnits="userSpaceOnUse">
<stop stop-color="#E0F2FF"/>
<stop offset="1" stop-color="#1465E1"/>
</linearGradient>
<linearGradient id="paint6_linear_2471_1395" x1="215.573" y1="87.2145" x2="215.573" y2="177.345" gradientUnits="userSpaceOnUse">
<stop stop-color="#E0F2FF"/>
<stop offset="1" stop-color="#1465E1"/>
</linearGradient>
<linearGradient id="paint7_linear_2471_1395" x1="7.57998" y1="68.1483" x2="32.846" y2="117.165" gradientUnits="userSpaceOnUse">
<stop stop-color="#08E5F4"/>
<stop offset="1" stop-color="#94F8FF"/>
</linearGradient>
<linearGradient id="paint8_linear_2471_1395" x1="156.736" y1="130" x2="156.736" y2="137" gradientUnits="userSpaceOnUse">
<stop stop-color="#E0F2FF"/>
<stop offset="1" stop-color="#1465E1"/>
</linearGradient>
<linearGradient id="paint9_linear_2471_1395" x1="88.8553" y1="96.4651" x2="101.176" y2="139.213" gradientUnits="userSpaceOnUse">
<stop stop-color="#173F66"/>
<stop offset="0.693722" stop-color="white"/>
</linearGradient>
<linearGradient id="paint10_linear_2471_1395" x1="88.6671" y1="98.5471" x2="87.31" y2="128.813" gradientUnits="userSpaceOnUse">
<stop stop-color="#054878"/>
<stop offset="1" stop-color="#A3C9ED"/>
</linearGradient>
<linearGradient id="paint11_linear_2471_1395" x1="88.6671" y1="99.4138" x2="87.4253" y2="128.369" gradientUnits="userSpaceOnUse">
<stop stop-color="#054878"/>
<stop offset="1" stop-color="#B4DBFF"/>
</linearGradient>
<linearGradient id="paint12_linear_2471_1395" x1="88.6674" y1="102.88" x2="88.6674" y2="134.079" gradientUnits="userSpaceOnUse">
<stop stop-color="#0F6FB3"/>
<stop offset="1" stop-color="#2A8CD2"/>
</linearGradient>
<linearGradient id="paint13_linear_2471_1395" x1="205.173" y1="108.014" x2="221.796" y2="144.617" gradientUnits="userSpaceOnUse">
<stop stop-color="#173F66"/>
<stop offset="0.693722" stop-color="white"/>
</linearGradient>
<linearGradient id="paint14_linear_2471_1395" x1="205.173" y1="106.28" x2="203.807" y2="135.224" gradientUnits="userSpaceOnUse">
<stop stop-color="#054878"/>
<stop offset="1" stop-color="#B4DBFF"/>
</linearGradient>
<linearGradient id="paint15_linear_2471_1395" x1="203.44" y1="106.28" x2="203.44" y2="137.479" gradientUnits="userSpaceOnUse">
<stop stop-color="#173F66"/>
<stop offset="1" stop-color="#2A8CD2"/>
</linearGradient>
<linearGradient id="paint16_linear_2471_1395" x1="187.5" y1="183" x2="188.5" y2="293" gradientUnits="userSpaceOnUse">
<stop stop-color="#FF8F66"/>
<stop offset="1" stop-color="#9F350E"/>
</linearGradient>
<linearGradient id="paint17_linear_2471_1395" x1="248.205" y1="199.801" x2="212.819" y2="259.6" gradientUnits="userSpaceOnUse">
<stop stop-color="#FF7440"/>
<stop offset="1" stop-color="#B13B10"/>
</linearGradient>
<linearGradient id="paint18_linear_2471_1395" x1="113.091" y1="176.687" x2="163.042" y2="282.851" gradientUnits="userSpaceOnUse">
<stop stop-color="#FD703C"/>
<stop offset="1" stop-color="#E06032"/>
</linearGradient>
<linearGradient id="paint19_linear_2471_1395" x1="48" y1="279" x2="181.5" y2="298" gradientUnits="userSpaceOnUse">
<stop offset="0.0292509" stop-color="#63D9F6"/>
<stop offset="0.598817" stop-color="#64DDF7"/>
<stop offset="1" stop-color="#68F0F8"/>
</linearGradient>
<linearGradient id="paint20_linear_2471_1395" x1="49.0823" y1="275.798" x2="43.5003" y2="280.584" gradientUnits="userSpaceOnUse">
<stop stop-color="#62D5F6"/>
<stop offset="1" stop-color="#61C8F2"/>
</linearGradient>
<linearGradient id="paint21_linear_2471_1395" x1="50.0582" y1="231.376" x2="128.311" y2="221.978" gradientUnits="userSpaceOnUse">
<stop stop-color="#60CCF6"/>
<stop offset="1" stop-color="#BEF8FF"/>
</linearGradient>
</defs>
</svg>
