<svg width="48" height="53" viewBox="0 0 48 53" fill="none" xmlns="http://www.w3.org/2000/svg">
<path d="M42.7007 22.956H41.3323L40.785 22.6823L37.7745 20.7666V19.6719L40.785 21.5876L42.7007 22.135V22.956Z" fill="url(#paint0_linear_2471_1547)"/>
<path d="M22.7223 22.0457C24.9117 21.355 27.6485 21.9018 28.7432 22.2615V21.3135C27.7397 20.9486 25.1854 20.383 22.996 21.0398L22.7223 22.0457Z" fill="#B4DBFF"/>
<g filter="url(#filter0_i_2471_1547)">
<path d="M27.9897 36.3661L32.6422 32.5347C34.5579 33.6294 40.0314 43.4817 36.7473 43.4817C34.12 43.4817 29.8142 38.738 27.9897 36.3661Z" fill="url(#paint1_linear_2471_1547)"/>
</g>
<g filter="url(#filter1_f_2471_1547)">
<path d="M37.8269 42.9751C37.7433 42.8172 36.0707 40.4488 35.9034 36.9751C34.8998 40.0067 36.7676 42.2383 37.8269 42.9751Z" fill="#48B7E4"/>
</g>
<path d="M39.0111 30.8965C39.0111 33.3925 40.5051 37.2154 41.3005 38.8575L41.1414 39.186C40.4255 38.447 37.9058 32.5544 39.0111 30.8965Z" fill="#42B3E1"/>
<g filter="url(#filter2_ii_2471_1547)">
<path d="M37.9462 22.4938C37.6724 32.6198 34.662 30.9778 28.6412 36.7249L27.6053 45.7383C12.1316 58.5277 1.52635 43.5668 1.00002 29.4751V24.9569C1.00002 8.53638 12.768 -1.93605 25.3571 1.6945C37.9462 5.32505 39.5882 16.473 37.9462 22.4938Z" fill="url(#paint2_linear_2471_1547)"/>
</g>
<path d="M14.6436 11.4401C16.1463 11.0137 16.7347 11.4316 17.9191 11.7226C18.0332 11.7506 18.1476 11.6698 18.1381 11.5527C18.0301 10.223 15.2588 10.1402 14.4486 11.2126C14.3505 11.3423 14.4872 11.4845 14.6436 11.4401Z" fill="#55A4DD"/>
<path d="M30.1116 26.5996C29.0169 26.5996 26.5538 30.6188 19.7119 25.4189C21.354 30.0714 26.8275 32.2608 30.1116 26.5996Z" fill="url(#paint3_linear_2471_1547)"/>
<path d="M28.1473 23.8742C32.365 27.1076 26.4602 32.2271 19.7119 25.4909C21.1178 23.8742 24.7732 21.2875 28.1473 23.8742Z" fill="url(#paint4_linear_2471_1547)"/>
<g filter="url(#filter3_f_2471_1547)">
<path d="M8.06009 20.0155L7.49608 19.9172L5.85432 19.3338L4.08999 12.7859L3.52605 12.6876L2.76095 13.7429L3.60689 13.8903L5.08921 20.3891C5.08921 20.3891 7.24477 21.3592 7.859 21.1691C8.47323 20.979 8.34203 20.0647 8.06009 20.0155Z" fill="#50BCEA"/>
</g>
<g filter="url(#filter4_f_2471_1547)">
<path d="M22.4687 23.326C24.7277 22.9847 27.3538 23.2474 28.7408 23.4807C28.9494 23.5158 29.1426 23.3568 29.1426 23.1452C29.1426 22.9879 29.0338 22.8514 28.8792 22.8219C27.574 22.5728 24.6966 22.2486 22.335 22.6099C22.1621 22.6364 22.0373 22.7868 22.0373 22.9618C22.0373 23.189 22.244 23.3599 22.4687 23.326Z" fill="#3BADF4"/>
</g>
<g filter="url(#filter5_f_2471_1547)">
<path fill-rule="evenodd" clip-rule="evenodd" d="M14.8481 27.3639C10.616 27.3639 7.18517 24.1782 7.18517 20.2484C7.18517 16.3186 10.616 13.1328 14.8481 13.1328C19.0802 13.1328 22.511 16.3186 22.511 20.2484C22.511 24.1782 19.0802 27.3639 14.8481 27.3639ZM14.8481 26.8165C10.9183 26.8165 7.73253 23.8758 7.73253 20.2483C7.73253 16.6207 10.9183 13.6801 14.8481 13.6801C18.7779 13.6801 21.9636 16.6207 21.9636 20.2483C21.9636 23.8758 18.7779 26.8165 14.8481 26.8165Z" fill="#4AB3EF"/>
</g>
<path fill-rule="evenodd" clip-rule="evenodd" d="M15.6069 26.7878C11.3748 26.7878 7.94396 23.602 7.94396 19.6722C7.94396 15.7424 11.3748 12.5566 15.6069 12.5566C19.839 12.5566 23.2698 15.7424 23.2698 19.6722C23.2698 23.602 19.839 26.7878 15.6069 26.7878ZM15.6068 26.24C11.677 26.24 8.49123 23.2993 8.49123 19.6718C8.49123 16.0443 11.677 13.1036 15.6068 13.1036C19.5366 13.1036 22.7223 16.0443 22.7223 19.6718C22.7223 23.2993 19.5366 26.24 15.6068 26.24Z" fill="url(#paint5_linear_2471_1547)"/>
<path fill-rule="evenodd" clip-rule="evenodd" d="M35.0377 28.9767C31.5614 28.9767 28.7432 25.791 28.7432 21.8612C28.7432 17.9313 31.5614 14.7456 35.0377 14.7456C38.5141 14.7456 41.3323 17.9313 41.3323 21.8612C41.3323 25.791 38.5141 28.9767 35.0377 28.9767ZM35.0378 28.4295C31.8637 28.4295 29.2906 25.4888 29.2906 21.8613C29.2906 18.2338 31.8637 15.2931 35.0378 15.2931C38.2118 15.2931 40.7849 18.2338 40.7849 21.8613C40.7849 25.4888 38.2118 28.4295 35.0378 28.4295Z" fill="url(#paint6_linear_2471_1547)"/>
<g filter="url(#filter6_f_2471_1547)">
<path fill-rule="evenodd" clip-rule="evenodd" d="M29.6395 18.786C29.0416 19.8337 28.7236 21.0541 28.7236 22.3009H29.2223C29.2223 18.9954 31.567 16.3158 34.4593 16.3158C35.7942 16.3158 37.0124 16.8866 37.9373 17.8262L38.2454 17.4299C37.4168 16.607 36.3959 16.0715 35.305 15.8877C34.2141 15.7039 33.0995 15.8796 32.0947 16.3936C31.0898 16.9076 30.2374 17.7383 29.6395 18.786Z" fill="#4AB3EF"/>
</g>
<path d="M9.03852 18.3031H8.49117L6.84912 18.0294L4.11237 12.2822H3.56509L3.01774 13.3769H3.83869L6.30177 19.1241C6.30177 19.1241 8.49123 19.6715 9.03852 19.3978C9.58582 19.1241 9.31213 18.3031 9.03852 18.3031Z" fill="url(#paint7_linear_2471_1547)"/>
<path d="M22.9479 22.3716C24.9744 22.0446 27.3136 22.2963 28.5784 22.526C28.7883 22.5641 28.9849 22.4049 28.9849 22.1915C28.9849 22.0372 28.8802 21.9028 28.7291 21.8714C27.5364 21.6235 24.9404 21.3049 22.8019 21.6594C22.6322 21.6875 22.5112 21.8362 22.5112 22.0082C22.5112 22.2371 22.7218 22.408 22.9479 22.3716Z" fill="url(#paint8_linear_2471_1547)"/>
<path d="M33.3064 12.7297C33.7599 12.3589 34.3804 12.4232 34.7426 12.5822C34.8676 12.6371 35.0443 12.5978 35.0372 12.4615C34.9939 11.6254 32.6882 11.3001 32.9481 12.6511C32.9781 12.8071 33.1834 12.8303 33.3064 12.7297Z" fill="#55A4DD"/>
<g filter="url(#filter7_f_2471_1547)">
<path d="M28.9864 25.7233C28.688 24.6467 27.8675 24.3775 27.4946 24.3775C26.3757 24.0411 25.4433 25.3869 25.8163 25.8915C26.1892 26.3962 29.3594 27.0691 28.9864 25.7233Z" fill="white" fill-opacity="0.5"/>
</g>
<g filter="url(#filter8_f_2471_1547)">
<path d="M37.2271 25.8743C36.6164 25.2259 34.1486 22.1537 31.2736 24.9017C30.663 25.4853 34.3266 28.7924 37.2271 25.8743Z" fill="#E0F3FF" fill-opacity="0.5"/>
</g>
<path d="M10.0738 16.8089C10.3475 18.1773 11.0773 18.7246 11.4422 18.7246L11.9896 17.6299C11.0489 18.5773 9.80015 15.4405 10.0738 16.8089Z" fill="#173F66"/>
<path d="M11.7159 15.7142C11.9896 16.2616 12.5369 16.7177 12.8106 16.8089L11.9896 17.3563C10.8949 16.5352 11.3288 14.9401 11.7159 15.7142Z" fill="#173F66"/>
<path d="M13.0843 15.1669C13.3579 15.7142 13.9053 16.1703 14.179 16.2616L13.0843 16.5352C12.5369 15.7142 12.8106 14.6195 13.0843 15.1669Z" fill="#173F66"/>
<path d="M10.9045 18.6398C11.2223 24.11 15.1846 22.8327 17.965 22.8319C18.5928 22.8317 19.2069 22.3679 19.1862 21.7404C18.9536 14.683 12.1941 15.306 10.9595 18.2786C10.9129 18.3907 10.8975 18.5186 10.9045 18.6398Z" fill="url(#paint9_linear_2471_1547)"/>
<path d="M11.9896 19.8193C11.9896 21.7842 13.0843 22.8297 15.2737 22.8297C17.4631 22.8297 18.0105 21.7842 18.0105 19.8193C18.0105 17.8544 16.6627 16.5352 15.0001 16.5352C13.3375 16.5352 11.9896 17.8544 11.9896 19.8193Z" fill="url(#paint10_linear_2471_1547)"/>
<path d="M11.9896 19.8132C11.9896 21.6927 13.0843 22.6927 15.2737 22.6927C17.4631 22.6927 18.0105 21.6927 18.0105 19.8132C18.0105 17.9337 16.6627 16.6719 15.0001 16.6719C13.3375 16.6719 11.9896 17.9337 11.9896 19.8132Z" fill="url(#paint11_linear_2471_1547)"/>
<path d="M12.537 19.7894C12.537 21.3272 13.4326 22.1454 15.224 22.1454C17.0153 22.1454 17.4631 21.3272 17.4631 19.7894C17.4631 18.2517 16.3604 17.2192 15.0001 17.2192C13.6397 17.2192 12.537 18.2517 12.537 19.7894Z" fill="url(#paint12_linear_2471_1547)"/>
<path d="M13.6911 19.7554C13.6911 20.9514 13.8652 21.5576 15.0595 21.5576C16.2537 21.5576 16.5522 20.9212 16.5522 19.7252C16.5522 18.5292 16.2401 17.7563 15.3332 17.7563C14.4263 17.7563 13.6911 18.5593 13.6911 19.7554Z" fill="#142C57"/>
<path d="M19.1646 22.135C19.4383 18.5772 16.1542 13.9247 10.9543 18.0298C13.1438 13.651 20.8067 16.1141 19.1646 22.135Z" fill="#173F66"/>
<path d="M12.0493 17.2085C11.7756 17.4822 10.9102 18.3032 11.2283 20.4926C10.1336 18.0295 11.3204 17.4822 12.0493 17.2085Z" fill="#173F66"/>
<ellipse cx="0.273131" cy="0.270963" rx="0.273131" ry="0.270963" transform="matrix(-0.999998 -0.00200921 -0.00200921 0.999998 14.2383 21.0415)" fill="white"/>
<path d="M12.3227 18.3034C12.3223 18.5106 12.7083 18.4347 12.8888 18.435C13.0694 18.4354 13.1433 18.2369 13.1437 18.0297C13.1441 17.8225 13.0506 17.4827 12.87 17.4824C12.6895 17.482 12.3231 18.0962 12.3227 18.3034Z" fill="#EEF8FF"/>
<path d="M16.1541 17.2857C15.3331 17.012 15.3331 17.4828 15.3331 17.4828L15.8804 19.3985L17.5225 19.4751C17.5225 19.4751 16.9751 17.5594 16.1541 17.2857Z" fill="#F0F8FF"/>
<path d="M17.5225 22.9559C16.2453 22.591 15.256 22.4622 12.87 22.4085C11.5016 22.3777 13.691 23.2295 17.5225 22.9559Z" fill="#5BB5F4"/>
<g filter="url(#filter9_f_2471_1547)">
<path d="M19.5146 24.2596C18.6265 23.6111 15.0369 20.539 10.8551 23.2869C9.96689 23.8705 15.2959 27.1777 19.5146 24.2596Z" fill="#E0F3FF" fill-opacity="0.5"/>
</g>
<path d="M30.659 23.2297C30.6757 23.6623 36.1325 26.5138 36.6799 20.2192C36.4062 16.3878 30.3853 16.1141 30.659 23.2297Z" fill="url(#paint13_linear_2471_1547)"/>
<path d="M36.6797 20.4928C36.406 19.763 35.7176 17.8784 33.9429 18.0298C32.0148 18.1943 37.2271 16.6614 36.6797 20.4928Z" fill="#173F66"/>
<path d="M30.6588 21.4607C31.0009 23.4553 31.8841 23.7403 33.3956 23.7403C34.7639 24.0252 36.1323 22.6219 36.1323 20.8908C36.1323 19.1597 35.2491 17.7563 33.7377 17.7563C32.2262 17.7563 30.6588 19.1811 30.6588 21.4607Z" fill="url(#paint14_linear_2471_1547)"/>
<path d="M31.2064 20.7872C31.4459 22.4191 32.0641 22.6523 33.1221 22.6523C34.08 22.8854 35.0378 21.7372 35.0378 20.3209C35.0378 18.9045 34.4196 17.7563 33.3616 17.7563C32.3036 17.7563 31.2064 18.922 31.2064 20.7872Z" fill="url(#paint15_linear_2471_1547)"/>
<path d="M31.7537 20.3238C31.8906 21.4118 32.2438 21.5672 32.8484 21.5672C33.3958 21.7226 33.9431 20.9572 33.9431 20.0129C33.9431 19.0687 33.5898 18.3032 32.9853 18.3032C32.3807 18.3032 31.7537 19.0804 31.7537 20.3238Z" fill="#142C57"/>
<path d="M37.7744 18.3037C37.1176 18.9605 36.5885 19.1247 36.406 19.1247C36.6797 18.851 37.2271 18.03 37.2271 16.9353C36.7892 17.5921 35.8587 18.2124 35.585 18.3037C35.585 18.03 36.406 17.209 36.406 16.1143C35.9682 16.99 35.4938 17.209 35.3113 17.209C34.764 17.0265 33.1219 17.209 32.0272 18.3037C32.0272 18.3037 33.1874 18.0124 33.943 18.03C34.5929 18.0451 35.585 18.3037 35.585 18.3037L36.406 19.1247L36.7072 20.4738C36.9918 20.2652 37.5625 19.5749 37.7744 18.3037Z" fill="#173F66"/>
<path d="M30.659 22.1349C30.9327 19.3982 31.48 18.8508 32.0274 18.3035L33.1221 18.0298C32.301 18.4859 30.9327 19.3982 30.659 22.1349Z" fill="#173F66"/>
<path d="M36.406 21.5876C36.406 21.5876 36.6797 20.2192 36.406 19.6719C36.4973 19.7631 36.7892 20.1098 37.2271 19.6719C36.6797 21.3139 36.406 21.5876 36.406 21.5876Z" fill="#173F66"/>
<path d="M35.3113 23.7769C34.7639 23.5032 33.3956 23.7769 31.2062 23.7769C33.0744 24.8784 35.0376 24.0506 35.3113 23.7769Z" fill="#82C9F7"/>
<path d="M31.7537 19.1242C31.6665 19.4336 32.401 19.6176 32.6125 19.6176C32.8844 19.6942 33.0785 19.4289 33.1657 19.1195C33.2529 18.8102 33.2539 18.2633 32.982 18.1866C32.7218 18.1866 32.0274 18.8506 31.7537 19.1242Z" fill="#EEF8FF"/>
<path d="M33.3958 18.5772C33.3958 18.426 33.5183 18.3035 33.6694 18.3035C33.8206 18.3035 34.2168 18.426 34.2168 18.5772C34.2168 18.7283 34.2168 19.1245 33.6694 19.1245C33.5183 19.1245 33.3958 18.7283 33.3958 18.5772Z" fill="#EEF8FF"/>
<ellipse cx="0.280231" cy="0.4073" rx="0.280231" ry="0.4073" transform="matrix(-0.871468 -0.490452 -0.490452 0.871468 34.4905 22.4097)" fill="#EEF8FF"/>
<ellipse cx="0.274684" cy="0.299789" rx="0.274684" ry="0.299789" transform="matrix(-0.995462 -0.0951593 -0.0951593 0.995462 35.0378 18.9033)" fill="#EEF8FF"/>
<g filter="url(#filter10_f_2471_1547)">
<path d="M18.8532 45.4265C22.1034 46.3326 24.6004 46.1217 26.377 45.9464C25.5553 45.5707 22.6521 44.5871 20.8834 44.2723C19.5893 44.4106 17.3717 44.8351 18.8532 45.4265Z" fill="#109DD1"/>
</g>
<g filter="url(#filter11_f_2471_1547)">
<path d="M19.7895 43.1327L19.1933 40.6806C15.2467 38.413 7.69428 34.5581 9.05712 37.2792C10.42 40.0003 16.7799 42.3153 19.7895 43.1327Z" fill="#37BDE8"/>
</g>
<g filter="url(#filter12_i_2471_1547)">
<path d="M19.1674 43.9141L15.5264 27.6509C15.5264 23.5665 25.8162 23.1506 31.5152 27.131C37.4516 22.6754 46.0001 24.2349 46.0001 27.131C44.6545 31.4382 44.2587 33.8888 41.805 43.2457C38.7022 43.3051 34.0744 46.1914 31.9901 47.1073C31.4888 47.2063 30.3595 47.3449 29.853 47.1073C27.795 45.5478 22.3071 43.9883 19.1674 43.9141Z" fill="url(#paint16_linear_2471_1547)"/>
</g>
<g filter="url(#filter13_f_2471_1547)">
<path d="M32.2506 46.2907L31.4739 28.9034C38.0329 27.8806 40.2768 27.7233 45.3686 29.3754C44.4193 32.3127 41.7612 38.1399 41.1398 42.9863C38.1192 43.2224 34.4945 44.6385 32.2506 46.2907Z" fill="url(#paint17_linear_2471_1547)"/>
</g>
<g filter="url(#filter14_f_2471_1547)">
<path d="M15.842 28.6358C20.9234 27.37 24.9712 26.8953 31.9473 28.6358C31.4018 33.6992 29.7864 45.5063 27.7272 45.0128C25.668 44.5193 21.4975 43.8524 19.7176 43.6678C19.0286 40.0285 17.1511 32.8764 15.842 28.6358Z" fill="url(#paint18_linear_2471_1547)"/>
</g>
<path d="M31.4739 29.396V27.159C35.9739 23.1592 46.0002 23.6329 46.0002 27.159C45.9737 27.2153 45.9246 26.896 45.2897 29.396C40.1469 26.7609 33.7225 28.2981 31.4739 29.396Z" fill="#F5F2F2"/>
<path d="M31.4739 29.3963V27.5104C35.7278 24.039 45.3617 23.9407 46.0002 27.117C45.9737 27.1669 46.0035 27.2608 45.3686 29.4753C40.2258 27.1411 33.7225 28.4237 31.4739 29.3963Z" fill="#EEEEEE"/>
<path d="M15.6055 27.1856C16.4739 23.5541 26 22.8921 31.5 27.1856C31.5789 28.0803 31.4897 29.6804 30.6055 28.9225C25.237 26.712 16.8686 28.2909 15.8423 28.9225C15.716 28.5435 15.6318 27.6067 15.6055 27.1856Z" fill="#E8E1E1"/>
<path d="M15.5 26.8921C16.3627 23.3898 26.2978 23.692 31.5527 27.4227C31.6311 28.2855 31.4837 29.6536 30.6053 28.9227C25.272 26.7908 16.8617 28.3136 15.8421 28.9227C15.7167 28.5572 15.4028 27.2868 15.5 26.8921Z" fill="#FFF2F2"/>
<path d="M30.647 28.8794C30.741 28.0863 32.3322 28.1035 32.5085 28.8794C33.0097 31.0851 32.5929 44.6615 32.1505 45.3429C31.7925 45.8943 31.0049 46.0518 30.3606 45.3429C29.7162 44.6339 30.2174 32.503 30.647 28.8794Z" fill="#F6703F"/>
<g filter="url(#filter15_ii_2471_1547)">
<path d="M42.6842 30.186C45.6053 40.2913 36.7736 42.6703 33.7632 43.765C31.1579 50.7123 15 58.9971 4.5 42.0234C22.5 48.655 27.6843 46.0545 29.8158 43.765C21.1316 39.8176 20.9737 27.9755 21.9211 31.2913C23.2632 34.9229 31.4053 36.0615 32.5 38.1597C34.8685 35.7913 41.3159 34.0175 42.6842 30.186Z" fill="url(#paint19_linear_2471_1547)"/>
</g>
<g filter="url(#filter16_f_2471_1547)">
<path d="M42.5941 31.7642C43.0208 34.0329 42.1014 39.0943 36.1938 42.4598C29.3668 46.3491 40.4606 37.9223 42.5941 31.7642Z" fill="#DDF9FF" fill-opacity="0.68"/>
</g>
<g filter="url(#filter17_f_2471_1547)">
<path d="M22.0668 31.3921C21.683 33.5825 22.9088 38.4807 26.8858 41.2247C32.8312 45.3268 24.6133 37.7947 22.0668 31.3921Z" fill="#DDF9FF" fill-opacity="0.21"/>
</g>
<g filter="url(#filter18_f_2471_1547)">
<path d="M16 45.9164L15.0179 46.9752C9.06492 48.8204 6.17857 44.2245 5 39.3921L16 45.9164Z" fill="url(#paint20_linear_2471_1547)"/>
</g>
<g filter="url(#filter19_f_2471_1547)">
<path d="M32.2532 43.1145C31.6538 45.2365 28.2048 47.712 29.3288 47.712C30.4528 47.712 32.9308 44.5881 33.6052 43.1145C35.5493 42.2353 38.1842 42.2647 40.9473 39.0278C36.8111 41.4798 32.8526 40.9926 32.2532 43.1145Z" fill="#28ADD8"/>
</g>
<g filter="url(#filter20_ii_2471_1547)">
<path d="M9.76472 37.6228C7.49321 35.4148 9.17734 32.7318 10.6597 33.3807C13.9106 34.2766 20.6358 36.5929 21.5298 38.6907C22.6472 41.3129 13.5512 40.7513 9.76472 37.6228Z" fill="url(#paint21_linear_2471_1547)"/>
</g>
<defs>
<filter id="filter0_i_2471_1547" x="27.9897" y="32.5347" width="9.78467" height="12.9468" filterUnits="userSpaceOnUse" color-interpolation-filters="sRGB">
<feFlood flood-opacity="0" result="BackgroundImageFix"/>
<feBlend mode="normal" in="SourceGraphic" in2="BackgroundImageFix" result="shape"/>
<feColorMatrix in="SourceAlpha" type="matrix" values="0 0 0 0 0 0 0 0 0 0 0 0 0 0 0 0 0 0 127 0" result="hardAlpha"/>
<feOffset dy="2"/>
<feGaussianBlur stdDeviation="2"/>
<feComposite in2="hardAlpha" operator="arithmetic" k2="-1" k3="1"/>
<feColorMatrix type="matrix" values="0 0 0 0 0.0425347 0 0 0 0 0.549444 0 0 0 0 0.729167 0 0 0 0.5 0"/>
<feBlend mode="normal" in2="shape" result="effect1_innerShadow_2471_1547"/>
</filter>
<filter id="filter1_f_2471_1547" x="25.6165" y="26.9751" width="22.2104" height="26" filterUnits="userSpaceOnUse" color-interpolation-filters="sRGB">
<feFlood flood-opacity="0" result="BackgroundImageFix"/>
<feBlend mode="normal" in="SourceGraphic" in2="BackgroundImageFix" result="shape"/>
<feGaussianBlur stdDeviation="5" result="effect1_foregroundBlur_2471_1547"/>
</filter>
<filter id="filter2_ii_2471_1547" x="1" y="-1.0249" width="37.4761" height="53.6172" filterUnits="userSpaceOnUse" color-interpolation-filters="sRGB">
<feFlood flood-opacity="0" result="BackgroundImageFix"/>
<feBlend mode="normal" in="SourceGraphic" in2="BackgroundImageFix" result="shape"/>
<feColorMatrix in="SourceAlpha" type="matrix" values="0 0 0 0 0 0 0 0 0 0 0 0 0 0 0 0 0 0 127 0" result="hardAlpha"/>
<feOffset dy="2"/>
<feGaussianBlur stdDeviation="2"/>
<feComposite in2="hardAlpha" operator="arithmetic" k2="-1" k3="1"/>
<feColorMatrix type="matrix" values="0 0 0 0 0.34902 0 0 0 0 0.729412 0 0 0 0 1 0 0 0 0.47 0"/>
<feBlend mode="normal" in2="shape" result="effect1_innerShadow_2471_1547"/>
<feColorMatrix in="SourceAlpha" type="matrix" values="0 0 0 0 0 0 0 0 0 0 0 0 0 0 0 0 0 0 127 0" result="hardAlpha"/>
<feOffset dy="-2"/>
<feGaussianBlur stdDeviation="5"/>
<feComposite in2="hardAlpha" operator="arithmetic" k2="-1" k3="1"/>
<feColorMatrix type="matrix" values="0 0 0 0 0.380392 0 0 0 0 0.745098 0 0 0 0 0.937255 0 0 0 1 0"/>
<feBlend mode="normal" in2="effect1_innerShadow_2471_1547" result="effect2_innerShadow_2471_1547"/>
</filter>
<filter id="filter3_f_2471_1547" x="0.760986" y="10.6875" width="9.53516" height="12.5063" filterUnits="userSpaceOnUse" color-interpolation-filters="sRGB">
<feFlood flood-opacity="0" result="BackgroundImageFix"/>
<feBlend mode="normal" in="SourceGraphic" in2="BackgroundImageFix" result="shape"/>
<feGaussianBlur stdDeviation="1" result="effect1_foregroundBlur_2471_1547"/>
</filter>
<filter id="filter4_f_2471_1547" x="20.0374" y="20.4487" width="11.1052" height="5.03662" filterUnits="userSpaceOnUse" color-interpolation-filters="sRGB">
<feFlood flood-opacity="0" result="BackgroundImageFix"/>
<feBlend mode="normal" in="SourceGraphic" in2="BackgroundImageFix" result="shape"/>
<feGaussianBlur stdDeviation="1" result="effect1_foregroundBlur_2471_1547"/>
</filter>
<filter id="filter5_f_2471_1547" x="5.18506" y="11.1328" width="19.3259" height="18.231" filterUnits="userSpaceOnUse" color-interpolation-filters="sRGB">
<feFlood flood-opacity="0" result="BackgroundImageFix"/>
<feBlend mode="normal" in="SourceGraphic" in2="BackgroundImageFix" result="shape"/>
<feGaussianBlur stdDeviation="1" result="effect1_foregroundBlur_2471_1547"/>
</filter>
<filter id="filter6_f_2471_1547" x="23.7236" y="10.8169" width="19.5217" height="16.4839" filterUnits="userSpaceOnUse" color-interpolation-filters="sRGB">
<feFlood flood-opacity="0" result="BackgroundImageFix"/>
<feBlend mode="normal" in="SourceGraphic" in2="BackgroundImageFix" result="shape"/>
<feGaussianBlur stdDeviation="2.5" result="effect1_foregroundBlur_2471_1547"/>
</filter>
<filter id="filter7_f_2471_1547" x="20.7327" y="19.3242" width="13.2842" height="12.1895" filterUnits="userSpaceOnUse" color-interpolation-filters="sRGB">
<feFlood flood-opacity="0" result="BackgroundImageFix"/>
<feBlend mode="normal" in="SourceGraphic" in2="BackgroundImageFix" result="shape"/>
<feGaussianBlur stdDeviation="2.5" result="effect1_foregroundBlur_2471_1547"/>
</filter>
<filter id="filter8_f_2471_1547" x="29.2063" y="21.7773" width="10.0208" height="7.28418" filterUnits="userSpaceOnUse" color-interpolation-filters="sRGB">
<feFlood flood-opacity="0" result="BackgroundImageFix"/>
<feBlend mode="normal" in="SourceGraphic" in2="BackgroundImageFix" result="shape"/>
<feGaussianBlur stdDeviation="1" result="effect1_foregroundBlur_2471_1547"/>
</filter>
<filter id="filter9_f_2471_1547" x="8.75708" y="20.1626" width="12.7576" height="7.28418" filterUnits="userSpaceOnUse" color-interpolation-filters="sRGB">
<feFlood flood-opacity="0" result="BackgroundImageFix"/>
<feBlend mode="normal" in="SourceGraphic" in2="BackgroundImageFix" result="shape"/>
<feGaussianBlur stdDeviation="1" result="effect1_foregroundBlur_2471_1547"/>
</filter>
<filter id="filter10_f_2471_1547" x="16.3616" y="42.2725" width="12.0154" height="5.82812" filterUnits="userSpaceOnUse" color-interpolation-filters="sRGB">
<feFlood flood-opacity="0" result="BackgroundImageFix"/>
<feBlend mode="normal" in="SourceGraphic" in2="BackgroundImageFix" result="shape"/>
<feGaussianBlur stdDeviation="1" result="effect1_foregroundBlur_2471_1547"/>
</filter>
<filter id="filter11_f_2471_1547" x="6.89478" y="34.3433" width="14.8948" height="10.7896" filterUnits="userSpaceOnUse" color-interpolation-filters="sRGB">
<feFlood flood-opacity="0" result="BackgroundImageFix"/>
<feBlend mode="normal" in="SourceGraphic" in2="BackgroundImageFix" result="shape"/>
<feGaussianBlur stdDeviation="1" result="effect1_foregroundBlur_2471_1547"/>
</filter>
<filter id="filter12_i_2471_1547" x="15.5264" y="24.3438" width="30.4736" height="22.8945" filterUnits="userSpaceOnUse" color-interpolation-filters="sRGB">
<feFlood flood-opacity="0" result="BackgroundImageFix"/>
<feBlend mode="normal" in="SourceGraphic" in2="BackgroundImageFix" result="shape"/>
<feColorMatrix in="SourceAlpha" type="matrix" values="0 0 0 0 0 0 0 0 0 0 0 0 0 0 0 0 0 0 127 0" result="hardAlpha"/>
<feOffset/>
<feGaussianBlur stdDeviation="3.95"/>
<feComposite in2="hardAlpha" operator="arithmetic" k2="-1" k3="1"/>
<feColorMatrix type="matrix" values="0 0 0 0 0.878431 0 0 0 0 0.356863 0 0 0 0 0.164706 0 0 0 1 0"/>
<feBlend mode="normal" in2="shape" result="effect1_innerShadow_2471_1547"/>
</filter>
<filter id="filter13_f_2471_1547" x="30.4739" y="27.1328" width="15.8948" height="20.1577" filterUnits="userSpaceOnUse" color-interpolation-filters="sRGB">
<feFlood flood-opacity="0" result="BackgroundImageFix"/>
<feBlend mode="normal" in="SourceGraphic" in2="BackgroundImageFix" result="shape"/>
<feGaussianBlur stdDeviation="0.5" result="effect1_foregroundBlur_2471_1547"/>
</filter>
<filter id="filter14_f_2471_1547" x="14.842" y="26.5015" width="18.1052" height="19.5264" filterUnits="userSpaceOnUse" color-interpolation-filters="sRGB">
<feFlood flood-opacity="0" result="BackgroundImageFix"/>
<feBlend mode="normal" in="SourceGraphic" in2="BackgroundImageFix" result="shape"/>
<feGaussianBlur stdDeviation="0.5" result="effect1_foregroundBlur_2471_1547"/>
</filter>
<filter id="filter15_ii_2471_1547" x="4.5" y="29.186" width="38.7683" height="24.8389" filterUnits="userSpaceOnUse" color-interpolation-filters="sRGB">
<feFlood flood-opacity="0" result="BackgroundImageFix"/>
<feBlend mode="normal" in="SourceGraphic" in2="BackgroundImageFix" result="shape"/>
<feColorMatrix in="SourceAlpha" type="matrix" values="0 0 0 0 0 0 0 0 0 0 0 0 0 0 0 0 0 0 127 0" result="hardAlpha"/>
<feOffset dy="2"/>
<feGaussianBlur stdDeviation="1"/>
<feComposite in2="hardAlpha" operator="arithmetic" k2="-1" k3="1"/>
<feColorMatrix type="matrix" values="0 0 0 0 0.34902 0 0 0 0 0.729412 0 0 0 0 1 0 0 0 0.47 0"/>
<feBlend mode="normal" in2="shape" result="effect1_innerShadow_2471_1547"/>
<feColorMatrix in="SourceAlpha" type="matrix" values="0 0 0 0 0 0 0 0 0 0 0 0 0 0 0 0 0 0 127 0" result="hardAlpha"/>
<feOffset dy="-1"/>
<feGaussianBlur stdDeviation="2.5"/>
<feComposite in2="hardAlpha" operator="arithmetic" k2="-1" k3="1"/>
<feColorMatrix type="matrix" values="0 0 0 0 0.380392 0 0 0 0 0.745098 0 0 0 0 0.937255 0 0 0 1 0"/>
<feBlend mode="normal" in2="effect1_innerShadow_2471_1547" result="effect2_innerShadow_2471_1547"/>
</filter>
<filter id="filter16_f_2471_1547" x="32" y="29.7642" width="12.6843" height="15.6841" filterUnits="userSpaceOnUse" color-interpolation-filters="sRGB">
<feFlood flood-opacity="0" result="BackgroundImageFix"/>
<feBlend mode="normal" in="SourceGraphic" in2="BackgroundImageFix" result="shape"/>
<feGaussianBlur stdDeviation="1" result="effect1_foregroundBlur_2471_1547"/>
</filter>
<filter id="filter17_f_2471_1547" x="20" y="29.3921" width="11" height="15" filterUnits="userSpaceOnUse" color-interpolation-filters="sRGB">
<feFlood flood-opacity="0" result="BackgroundImageFix"/>
<feBlend mode="normal" in="SourceGraphic" in2="BackgroundImageFix" result="shape"/>
<feGaussianBlur stdDeviation="1" result="effect1_foregroundBlur_2471_1547"/>
</filter>
<filter id="filter18_f_2471_1547" x="3" y="37.3921" width="15" height="12" filterUnits="userSpaceOnUse" color-interpolation-filters="sRGB">
<feFlood flood-opacity="0" result="BackgroundImageFix"/>
<feBlend mode="normal" in="SourceGraphic" in2="BackgroundImageFix" result="shape"/>
<feGaussianBlur stdDeviation="1" result="effect1_foregroundBlur_2471_1547"/>
</filter>
<filter id="filter19_f_2471_1547" x="27.1052" y="37.0278" width="15.842" height="12.6841" filterUnits="userSpaceOnUse" color-interpolation-filters="sRGB">
<feFlood flood-opacity="0" result="BackgroundImageFix"/>
<feBlend mode="normal" in="SourceGraphic" in2="BackgroundImageFix" result="shape"/>
<feGaussianBlur stdDeviation="1" result="effect1_foregroundBlur_2471_1547"/>
</filter>
<filter id="filter20_ii_2471_1547" x="8.65503" y="32.2822" width="13.9692" height="8.07422" filterUnits="userSpaceOnUse" color-interpolation-filters="sRGB">
<feFlood flood-opacity="0" result="BackgroundImageFix"/>
<feBlend mode="normal" in="SourceGraphic" in2="BackgroundImageFix" result="shape"/>
<feColorMatrix in="SourceAlpha" type="matrix" values="0 0 0 0 0 0 0 0 0 0 0 0 0 0 0 0 0 0 127 0" result="hardAlpha"/>
<feOffset dy="-1"/>
<feGaussianBlur stdDeviation="1"/>
<feComposite in2="hardAlpha" operator="arithmetic" k2="-1" k3="1"/>
<feColorMatrix type="matrix" values="0 0 0 0 0.218698 0 0 0 0 0.714874 0 0 0 0 0.920833 0 0 0 0.5 0"/>
<feBlend mode="normal" in2="shape" result="effect1_innerShadow_2471_1547"/>
<feColorMatrix in="SourceAlpha" type="matrix" values="0 0 0 0 0 0 0 0 0 0 0 0 0 0 0 0 0 0 127 0" result="hardAlpha"/>
<feOffset dx="1"/>
<feGaussianBlur stdDeviation="1"/>
<feComposite in2="hardAlpha" operator="arithmetic" k2="-1" k3="1"/>
<feColorMatrix type="matrix" values="0 0 0 0 0.388235 0 0 0 0 0.905882 0 0 0 0 0.964706 0 0 0 1 0"/>
<feBlend mode="normal" in2="effect1_innerShadow_2471_1547" result="effect2_innerShadow_2471_1547"/>
</filter>
<linearGradient id="paint0_linear_2471_1547" x1="40.2376" y1="19.6719" x2="40.2376" y2="22.956" gradientUnits="userSpaceOnUse">
<stop stop-color="#10BFCF"/>
<stop offset="1" stop-color="#A7F7FB"/>
</linearGradient>
<linearGradient id="paint1_linear_2471_1547" x1="24.3643" y1="33.6294" x2="24.0907" y2="44.5764" gradientUnits="userSpaceOnUse">
<stop stop-color="#5FC7F5"/>
<stop offset="1" stop-color="#ACF0FC"/>
</linearGradient>
<linearGradient id="paint2_linear_2471_1547" x1="24.9924" y1="1.4936" x2="24.9924" y2="55.3489" gradientUnits="userSpaceOnUse">
<stop offset="0.116667" stop-color="#EEF8FF"/>
<stop offset="0.486667" stop-color="#5AB4F3"/>
<stop offset="0.791667" stop-color="#68F0F8"/>
</linearGradient>
<linearGradient id="paint3_linear_2471_1547" x1="24.7749" y1="25.7141" x2="24.7749" y2="30.0329" gradientUnits="userSpaceOnUse">
<stop stop-color="#011F44"/>
<stop offset="1" stop-color="#44B5ED"/>
</linearGradient>
<linearGradient id="paint4_linear_2471_1547" x1="24.6381" y1="22.7769" x2="24.6381" y2="28.7977" gradientUnits="userSpaceOnUse">
<stop stop-color="#5BB7F4"/>
<stop offset="1" stop-color="#B5E0FF"/>
</linearGradient>
<linearGradient id="paint5_linear_2471_1547" x1="15.6069" y1="12.5566" x2="15.6069" y2="26.7878" gradientUnits="userSpaceOnUse">
<stop stop-color="#E0F2FF"/>
<stop offset="1" stop-color="#1465E1"/>
</linearGradient>
<linearGradient id="paint6_linear_2471_1547" x1="35.0377" y1="14.7456" x2="35.0377" y2="28.9767" gradientUnits="userSpaceOnUse">
<stop stop-color="#E0F2FF"/>
<stop offset="1" stop-color="#1465E1"/>
</linearGradient>
<linearGradient id="paint7_linear_2471_1547" x1="2.19671" y1="11.7349" x2="6.18608" y2="19.4744" gradientUnits="userSpaceOnUse">
<stop stop-color="#08E5F4"/>
<stop offset="1" stop-color="#94F8FF"/>
</linearGradient>
<linearGradient id="paint8_linear_2471_1547" x1="25.748" y1="21.5015" x2="25.748" y2="22.6067" gradientUnits="userSpaceOnUse">
<stop stop-color="#E0F2FF"/>
<stop offset="1" stop-color="#1465E1"/>
</linearGradient>
<linearGradient id="paint9_linear_2471_1547" x1="15.0298" y1="16.2063" x2="16.9752" y2="22.9559" gradientUnits="userSpaceOnUse">
<stop stop-color="#173F66"/>
<stop offset="0.693722" stop-color="white"/>
</linearGradient>
<linearGradient id="paint10_linear_2471_1547" x1="15.0001" y1="16.5352" x2="14.7858" y2="21.314" gradientUnits="userSpaceOnUse">
<stop stop-color="#054878"/>
<stop offset="1" stop-color="#A3C9ED"/>
</linearGradient>
<linearGradient id="paint11_linear_2471_1547" x1="15.0001" y1="16.6719" x2="14.804" y2="21.2437" gradientUnits="userSpaceOnUse">
<stop stop-color="#054878"/>
<stop offset="1" stop-color="#B4DBFF"/>
</linearGradient>
<linearGradient id="paint12_linear_2471_1547" x1="15.0001" y1="17.2192" x2="15.0001" y2="22.1454" gradientUnits="userSpaceOnUse">
<stop stop-color="#0F6FB3"/>
<stop offset="1" stop-color="#2A8CD2"/>
</linearGradient>
<linearGradient id="paint13_linear_2471_1547" x1="33.3958" y1="18.0298" x2="36.0205" y2="23.8093" gradientUnits="userSpaceOnUse">
<stop stop-color="#173F66"/>
<stop offset="0.693722" stop-color="white"/>
</linearGradient>
<linearGradient id="paint14_linear_2471_1547" x1="33.3956" y1="17.7563" x2="33.18" y2="22.3264" gradientUnits="userSpaceOnUse">
<stop stop-color="#054878"/>
<stop offset="1" stop-color="#B4DBFF"/>
</linearGradient>
<linearGradient id="paint15_linear_2471_1547" x1="33.1221" y1="17.7563" x2="33.1221" y2="22.6825" gradientUnits="userSpaceOnUse">
<stop stop-color="#173F66"/>
<stop offset="1" stop-color="#2A8CD2"/>
</linearGradient>
<linearGradient id="paint16_linear_2471_1547" x1="30.6053" y1="29.8701" x2="30.7632" y2="47.2385" gradientUnits="userSpaceOnUse">
<stop stop-color="#FF8F66"/>
<stop offset="1" stop-color="#9F350E"/>
</linearGradient>
<linearGradient id="paint17_linear_2471_1547" x1="40.1905" y1="32.5225" x2="34.6032" y2="41.9644" gradientUnits="userSpaceOnUse">
<stop stop-color="#FF7440"/>
<stop offset="1" stop-color="#B13B10"/>
</linearGradient>
<linearGradient id="paint18_linear_2471_1547" x1="18.8564" y1="28.8731" x2="26.7434" y2="45.6358" gradientUnits="userSpaceOnUse">
<stop stop-color="#FD703C"/>
<stop offset="1" stop-color="#E06032"/>
</linearGradient>
<linearGradient id="paint19_linear_2471_1547" x1="8.57901" y1="45.0281" x2="29.6579" y2="48.0281" gradientUnits="userSpaceOnUse">
<stop offset="0.0292509" stop-color="#63D9F6"/>
<stop offset="0.598817" stop-color="#64DDF7"/>
<stop offset="1" stop-color="#68F0F8"/>
</linearGradient>
<linearGradient id="paint20_linear_2471_1547" x1="9.59412" y1="44.2688" x2="9.49776" y2="44.3903" gradientUnits="userSpaceOnUse">
<stop stop-color="#62D5F6"/>
<stop offset="1" stop-color="#61C8F2"/>
</linearGradient>
<linearGradient id="paint21_linear_2471_1547" x1="8.90401" y1="37.5081" x2="21.2598" y2="36.0243" gradientUnits="userSpaceOnUse">
<stop stop-color="#60CCF6"/>
<stop offset="1" stop-color="#BEF8FF"/>
</linearGradient>
</defs>
</svg>
