<svg width="81" height="80" viewBox="0 0 81 80" fill="none" xmlns="http://www.w3.org/2000/svg">
<g clip-path="url(#clip0_2509_329)">
<path d="M39.0541 13.509L43.3601 6.47436L38.2506 0L34.5606 2.91189L35.8846 4.58971C28.0958 5.58876 20.8952 9.10876 15.2514 14.7525C8.50726 21.4967 4.79297 30.4636 4.79297 40.0014C4.79297 48.2741 7.68731 56.3387 12.9428 62.7096C18.1273 68.9944 25.3538 73.3522 33.2908 74.9802L34.2352 70.3753C27.3464 68.9624 21.0723 65.1778 16.5687 59.7184C12.0061 54.1873 9.49346 47.1852 9.49346 40.0014C9.49346 24.3928 21.0873 11.4433 36.1149 9.30634L35.0446 11.0548L39.0541 13.509Z" fill="#FF7F50"/>
<path d="M76.2071 40.0013C76.2071 31.7286 73.3127 23.6641 68.0573 17.2931C62.8728 11.0084 55.6463 6.65054 47.7093 5.02271L46.7649 9.62762C53.6537 11.0405 59.9278 14.8251 64.4313 20.2843C68.9939 25.8154 71.5066 32.8175 71.5066 40.0013C71.5066 55.6125 59.9092 68.5635 44.8779 70.6973L45.95 68.9412L41.9378 66.492L37.6406 73.5318L42.7581 79.9999L46.4445 77.0835L45.1222 75.4121C52.9085 74.4119 60.1067 70.8924 65.7489 65.2502C72.4928 58.506 76.2071 49.5391 76.2071 40.0013Z" fill="#FFA071"/>
<path d="M40.4998 38.9884L42.2452 48.466L40.4998 60.5227L23.124 51.8348V30.2327L35.1577 34.7332L40.4998 38.9884Z" fill="#24DEEC"/>
<path d="M40.5 38.9884V60.5227L57.8758 51.8348V30.2327L47.7462 33.4253L40.5 38.9884Z" fill="#0A9AB0"/>
<path d="M23.124 30.2326L40.4998 38.9883L41.5393 29.6455L40.4998 21.5447L23.124 30.2326Z" fill="#08C1D2"/>
<path d="M40.5 21.5447V38.9883L57.8758 30.2326L40.5 21.5447Z" fill="#24DEEC"/>
</g>
<defs>
<clipPath id="clip0_2509_329">
<rect width="80" height="80" fill="white" transform="translate(0.5)"/>
</clipPath>
</defs>
</svg>
