<svg width="81" height="80" viewBox="0 0 81 80" fill="none" xmlns="http://www.w3.org/2000/svg">
<path d="M4.24805 61.25V68.7524C4.24805 73.0913 6.52314 75.3441 8.69629 76.4307C10.8694 77.5172 13.0054 77.5 13.0054 77.5H68.0005C68.0005 77.5 70.1364 77.517 72.3096 76.4307C74.4827 75.3441 76.748 73.1603 76.748 68.7524V61.2524L4.24805 61.25Z" fill="#08C1D2"/>
<path d="M13.0054 10.0025C13.0054 10.0025 10.8694 9.98498 8.69629 11.0718C6.52315 12.1584 4.24805 14.4176 4.24805 18.75V61.2525C4.24805 65.4191 6.52315 67.8417 8.69629 68.9282C10.8694 70.0148 13.0054 69.9976 13.0054 69.9976H68.0005C68.0005 69.9976 70.1364 70.0146 72.3096 68.9282C74.4827 67.8417 76.748 65.4536 76.748 61.2525V18.75C76.748 14.3624 74.4827 12.1584 72.3096 11.0718C70.1364 9.98522 68.0005 10.0025 68.0005 10.0025H66.7554H14.2505H13.0054Z" fill="white"/>
<path d="M13.0054 10.0025C13.0054 10.0025 10.8694 9.98498 8.69629 11.0718C6.52315 12.1584 4.24805 14.4176 4.24805 18.75L4.25277 25C5.50401 24.9969 76.7528 25 76.7528 25L76.7481 18.75C76.7481 14.3624 74.4827 12.1584 72.3096 11.0718C70.1365 9.98522 68.0006 10.0025 68.0006 10.0025H66.7552H14.2503H13.0054Z" fill="#08C1D2"/>
<path d="M18.0024 2.5C15.5055 2.49939 14.2282 3.83028 13.6104 5.06592C12.9925 6.30156 13 7.50244 13 7.50244V15.0049C13 15.0049 12.9924 16.196 13.6104 17.4316C14.2282 18.6673 15.5055 19.9994 18.0024 19.9951C20.5055 19.9907 21.7865 18.6673 22.4043 17.4316C23.0221 16.196 23.0049 15.0049 23.0049 15.0049V7.50244C23.0049 7.50244 23.0219 6.30156 22.4043 5.06592C21.7865 3.83028 20.5055 2.50062 18.0024 2.5Z" fill="#FF7F50"/>
<path d="M40.5024 2.5C38.0055 2.49939 36.7282 3.83028 36.1104 5.06592C35.4925 6.30156 35.5 7.50244 35.5 7.50244V15.0049C35.5 15.0049 35.4924 16.196 36.1104 17.4316C36.7282 18.6673 38.0055 19.9994 40.5024 19.9951C43.0055 19.9907 44.2865 18.6673 44.9043 17.4316C45.5221 16.196 45.5049 15.0049 45.5049 15.0049V7.50244C45.5049 7.50244 45.5219 6.30156 44.9043 5.06592C44.2865 3.83028 43.0055 2.50062 40.5024 2.5Z" fill="#FF7F50"/>
<path d="M62.9995 2.5C60.5026 2.49939 59.2252 3.83028 58.6074 5.06592C57.9896 6.30156 57.9971 7.50244 57.9971 7.50244V15.0049C57.9971 15.0049 57.9895 16.196 58.6074 17.4316C59.2252 18.6673 60.5026 19.9994 62.9995 19.9951C65.5026 19.9907 66.7836 18.6673 67.4014 17.4316C68.0192 16.196 67.9995 15.0049 67.9995 15.0049V7.50244C67.9995 7.50244 68.0189 6.30156 67.4014 5.06592C66.7836 3.83028 65.5026 2.50062 62.9995 2.5Z" fill="#FF7F50"/>
<path d="M24.25 41.2451C24.25 41.2451 23.0493 41.2374 21.8135 41.8555C20.5777 42.4736 19.25 43.75 19.25 46.2476C19.25 48.75 20.5777 50.0313 21.8135 50.6494C23.0493 51.2675 24.25 51.2476 24.25 51.2476H56.75C56.75 51.2476 57.9507 51.2674 59.1865 50.6494C60.4223 50.0313 61.75 48.75 61.75 46.2476C61.75 43.75 60.4223 42.4736 59.1865 41.8555C57.9507 41.2373 56.75 41.2451 56.75 41.2451H24.25Z" fill="#08C1D2"/>
</svg>
