<svg width="81" height="80" viewBox="0 0 81 80" fill="none" xmlns="http://www.w3.org/2000/svg">
<g clip-path="url(#clip0_2492_2375)">
<path d="M47.6516 39.3688L20.2888 53.0844C19.0967 53.6819 17.6458 53.2001 17.0483 52.0079L3.33268 24.6451C2.73518 23.453 3.21705 22.0021 4.40924 21.4046L25.168 10.9991L30.1624 9.2985C31.3546 8.701 32.8053 9.18287 33.4028 10.3751L48.7281 36.1282C49.3256 37.3204 48.8436 38.7713 47.6516 39.3688Z" fill="#EB3700"/>
<path d="M63.2936 56.458L34.2467 46.808C32.9813 46.3875 32.2961 45.0208 32.7166 43.7555L42.3666 14.7086C42.7871 13.4431 44.1538 12.7581 45.4192 13.1784L67.2227 20.422L73.6613 23.3114C74.9267 23.7319 75.6117 25.0986 75.1914 26.3639L66.3463 54.9278C65.9258 56.1933 64.5591 56.8784 63.2936 56.458Z" fill="#71DB75"/>
<path d="M75.9962 25.8813L66.3463 54.9276C65.9262 56.1927 64.5596 56.8785 63.2927 56.4584L56.0605 54.0552C57.3226 54.4641 58.6795 53.7799 59.098 52.5196L68.7479 23.4734C69.168 22.2066 68.4823 20.8399 67.2171 20.4199L74.4654 22.828C75.7307 23.2479 76.4163 24.6145 75.9962 25.8813Z" fill="#19D07C"/>
<path d="M35.0129 8.76538L48.7282 36.1277C49.3257 37.3194 48.8443 38.7707 47.6515 39.3693L40.8382 42.7838C42.0196 42.1805 42.4954 40.7373 41.9002 39.5502L28.1849 12.188C27.5862 10.9952 26.1351 10.5138 24.9434 11.1113L31.7715 7.68881C32.963 7.09116 34.4143 7.57256 35.0129 8.76538Z" fill="#D50000"/>
<path d="M61.4976 79.4613H14.6739C12.6886 79.4613 11.0115 77.988 10.7557 76.0192L5.27637 33.8481H70.8953L65.4159 76.0192C65.16 77.988 63.4829 79.4613 61.4976 79.4613Z" fill="#48E4EF"/>
<path d="M75.7245 33.8477L70.2452 76.0191C69.9893 77.9877 68.3121 79.4605 66.3273 79.4605H59.8887C61.8734 79.4605 63.5507 77.9877 63.8066 76.0191L69.2859 33.8477H75.7245Z" fill="#0A9BB0"/>
<path d="M69.578 38.7836H4.98328C2.50734 38.7836 0.5 36.7763 0.5 34.3002C0.5 31.8241 2.50734 29.8169 4.98328 29.8169H69.578C72.0541 29.8169 74.0614 31.8242 74.0614 34.3002C74.0614 36.7763 72.0541 38.7836 69.578 38.7836Z" fill="#F8EFF4"/>
<path d="M76.017 29.8169H67.9688C70.4448 29.8169 72.452 31.8242 72.452 34.3003C72.452 36.7764 70.4448 38.7836 67.9688 38.7836H76.017C78.4931 38.7836 80.5003 36.7764 80.5003 34.3003C80.5003 31.8241 78.493 29.8169 76.017 29.8169Z" fill="#E6DFE3"/>
<path d="M40.5002 70.3556C38.5908 70.3556 37.043 68.8078 37.043 66.8984V50.402C37.043 48.4926 38.5908 46.9448 40.5002 46.9448C42.4095 46.9448 43.9573 48.4926 43.9573 50.402V66.8986C43.9573 68.8078 42.4095 70.3556 40.5002 70.3556Z" fill="#0A9BB0"/>
<path d="M57.8136 70.3556C55.9043 70.3556 54.3564 68.8078 54.3564 66.8984V50.402C54.3564 48.4926 55.9043 46.9448 57.8136 46.9448C59.723 46.9448 61.2708 48.4926 61.2708 50.402V66.8986C61.271 68.8078 59.723 70.3556 57.8136 70.3556Z" fill="#0A9BB0"/>
<path d="M23.1867 70.3556C21.2773 70.3556 19.7295 68.8078 19.7295 66.8984V50.402C19.7295 48.4926 21.2773 46.9448 23.1867 46.9448C25.0961 46.9448 26.6439 48.4926 26.6439 50.402V66.8986C26.6439 68.8078 25.0961 70.3556 23.1867 70.3556Z" fill="#0A9BB0"/>
<path d="M61.5063 32.1977C63.1977 31.1876 62.1402 30.6073 61.13 28.9159L45.2197 2.27711C44.2095 0.585707 43.6291 0.516488 41.9378 1.52664C41.5202 1.77602 41.172 1.61446 40.8997 1.98258C40.0691 3.10508 39.9436 4.66164 40.7044 5.93539L56.6147 32.5741C57.2817 33.691 58.4633 34.3112 59.6758 34.3127C60.2997 34.3134 60.9317 32.5409 61.5063 32.1977Z" fill="#FFE06C"/>
<path d="M62.7394 28.9159L46.8289 2.27719C45.8188 0.58578 43.6288 0.0335929 41.9374 1.04375C41.5197 1.29328 41.1718 1.61484 40.8994 1.98312C42.1088 1.98797 43.2858 2.60734 43.9511 3.72141L59.8614 30.3602C60.6221 31.6337 60.4966 33.19 59.6661 34.3123C60.293 34.3148 60.9286 34.1523 61.506 33.8075C63.1974 32.7973 63.7496 30.6073 62.7394 28.9159Z" fill="#FFCF53"/>
<path d="M21.264 32.1979C20.9468 32.0085 18.8992 33.3872 18.6649 33.126C17.6499 31.9936 17.4393 30.2902 18.2601 28.916L34.1702 2.27723C34.7057 1.38082 35.5726 0.804415 36.5209 0.610978C37.3618 0.439415 38.2668 2.17879 39.0618 2.65363C40.7532 3.66379 39.6957 4.24426 38.6856 5.93551L22.7752 32.5741C21.7651 34.2655 22.9552 33.208 21.264 32.1979Z" fill="#FFE06C"/>
<path d="M39.0618 1.04407C38.2668 0.56923 37.3616 0.439855 36.5205 0.611417C37.5262 1.74376 37.7327 3.4397 36.9149 4.80892L21.0046 31.4475C20.4693 32.3439 19.6026 32.92 18.6543 33.1136C18.8909 33.38 19.1713 33.6153 19.4934 33.8077C21.1848 34.8178 23.3748 34.2656 24.3849 32.5742L40.2952 5.93548C41.3054 4.24423 40.7532 2.05423 39.0618 1.04407Z" fill="#FFCF53"/>
</g>
<defs>
<clipPath id="clip0_2492_2375">
<rect width="80" height="80" fill="white" transform="translate(0.5)"/>
</clipPath>
</defs>
</svg>
