<svg width="81" height="80" viewBox="0 0 81 80" fill="none" xmlns="http://www.w3.org/2000/svg">
<path d="M40.4855 33C44.4083 30.0528 49.2758 28.3055 54.5424 28.3055C57.8473 28.3055 60.9941 28.9948 63.8499 30.2357C63.9479 29.3631 64 28.4768 64 27.5785C64 14.5774 53.458 4 40.5 4C27.542 4 17 14.5772 17 27.5785C17 28.4727 17.0516 29.3548 17.1488 30.2234C19.9971 28.9902 23.1344 28.3055 26.4285 28.3055C31.6951 28.3055 36.5625 30.0528 40.4855 33Z" fill="#FF7F50"/>
<path d="M30.6971 52.0249C30.6971 51.1114 30.7484 50.2103 30.845 49.323C23.386 45.9781 17.9497 38.6832 17.0093 30C8.77706 33.6788 3 42.1658 3 52.0249C3 65.2447 13.3857 76 26.1514 76C31.34 76 36.1352 74.2232 40 71.2265C34.3561 66.8501 30.6971 59.8718 30.6971 52.0249Z" fill="#1B7CF5"/>
<path d="M30.8413 50C31.5743 43.036 35.0111 36.9356 40 32.9366C36.1338 29.8375 31.3365 28 26.1459 28C22.8993 28 19.8072 28.7201 17 30.0169C17.9408 38.9967 23.3793 46.5408 30.8413 50Z" fill="#B36A50"/>
<path d="M63.6398 30C62.6688 38.6907 57.075 45.9895 49.4038 49.3283C49.502 50.2117 49.5543 51.109 49.5543 52.0185C49.5543 59.8673 45.7963 66.8476 40 71.2252C43.9691 74.2228 48.894 76 54.2228 76C67.3335 76 78 65.2419 78 52.0183C77.9997 42.1675 72.0794 33.6861 63.6398 30Z" fill="#08C1D2"/>
<path d="M40 32.9339C45.2028 36.933 48.7861 43.0348 49.5472 50C57.3354 46.5501 63.0143 39.0086 64 30.0285C61.0667 28.7246 57.834 28 54.4393 28C49.0294 28.0002 44.0295 29.8365 40 32.9339Z" fill="#6BBDC5"/>
<path d="M50 52.5903C50 51.7186 49.948 50.8586 49.8503 50.0118C46.9848 51.214 43.8286 51.8816 40.5145 51.8816C37.1899 51.8816 34.0239 51.2096 31.151 50C31.0524 50.8507 31 51.7147 31 52.5905C31 60.1136 34.7366 66.8041 40.4999 71C46.2634 66.8041 50 60.1136 50 52.5903Z" fill="#B1DCFF"/>
<path d="M40.4993 33C35.3248 36.9796 31.7603 43.0503 31 49.9803C33.9191 51.2787 37.1358 52 40.5141 52C43.8814 52 47.0884 51.2834 50 49.993C49.2427 43.0577 45.6768 36.982 40.4993 33Z" fill="#FAA182"/>
</svg>
