<svg width="81" height="80" viewBox="0 0 81 80" fill="none" xmlns="http://www.w3.org/2000/svg">
<g clip-path="url(#clip0_2510_594)">
<path d="M40.5 80C40.5 80 58.2703 76.1875 67.8438 65.5609C67.8438 65.5609 65.9297 45.3625 67.8438 20.625H13.1562C15.0703 45.3625 13.1562 65.5609 13.1562 65.5609C22.7297 76.1875 40.5 80 40.5 80Z" fill="#C4003D"/>
<path d="M49.6139 20.625V77.1484C44.442 79.1547 40.4998 80 40.4998 80C40.4998 80 36.5576 79.1547 31.3857 77.1484V20.625H49.6139Z" fill="#F9CB38"/>
<path d="M31.3859 20.625V77.1484C25.5781 74.8969 18.2203 71.1828 13.1562 65.5609C13.1562 65.5609 15.0703 45.3625 13.1562 20.625H31.3859Z" fill="black"/>
<path d="M73.2688 19.0828C60.3438 18.2828 44.3906 8.13906 40.5 5.54219C36.6094 8.13906 20.6547 18.2828 7.73125 19.0828C6.87187 19.1359 6.14844 18.4438 6.14844 17.5828C6.14844 16.7875 6.76875 16.1344 7.56406 16.0844C21.2188 15.2328 40.5047 1.89844 40.5047 1.89844C40.5047 1.89844 59.7844 15.2328 73.4391 16.0844C74.2328 16.1344 74.8547 16.7859 74.8547 17.5828C74.8547 18.4438 74.1312 19.1359 73.2719 19.0828H73.2688Z" fill="#FFE5D4"/>
<path d="M74.5904 18.4328C74.3201 18.8266 73.8685 19.0859 73.3607 19.0859C73.331 19.0859 73.2998 19.0859 73.2685 19.0828C60.3451 18.2828 44.3904 8.13906 40.4998 5.54062C36.6092 8.13906 20.6545 18.2828 7.73105 19.0828C7.18574 19.1172 6.69512 18.8516 6.40918 18.4328C6.45293 18.3672 6.50293 18.3063 6.55605 18.25C6.8123 17.9813 7.16543 17.8047 7.5623 17.7797C21.217 16.9281 40.5029 3.59375 40.5029 3.59375C40.5029 3.59375 59.7826 16.9281 73.4373 17.7797C73.9185 17.8094 74.3357 18.0609 74.5904 18.4328Z" fill="#FFA071"/>
<path d="M78.1562 15.9375H2.84375C1.54933 15.9375 0.5 16.9868 0.5 18.2812C0.5 19.5757 1.54933 20.625 2.84375 20.625H78.1562C79.4507 20.625 80.5 19.5757 80.5 18.2812C80.5 16.9868 79.4507 15.9375 78.1562 15.9375Z" fill="#FFE5D4"/>
<path d="M80.5 18.2812C80.5 18.9281 80.2375 19.5141 79.8125 19.9375C79.3891 20.3625 78.8031 20.625 78.1562 20.625H2.84375C1.55 20.625 0.5 19.575 0.5 18.2812H80.5Z" fill="#FFA071"/>
<path d="M40.5004 8.02812C42.7173 8.02812 44.5145 6.23097 44.5145 4.01406C44.5145 1.79716 42.7173 0 40.5004 0C38.2835 0 36.4863 1.79716 36.4863 4.01406C36.4863 6.23097 38.2835 8.02812 40.5004 8.02812Z" fill="#FFE5D4"/>
<path d="M42.4465 0.504883C42.7668 1.08145 42.9512 1.74551 42.9512 2.45176C42.9512 4.66895 41.1543 6.46582 38.9371 6.46582C38.2309 6.46582 37.5668 6.28301 36.9902 5.96113C37.6762 7.19395 38.9902 8.02832 40.4996 8.02832C42.7168 8.02832 44.5137 6.23145 44.5137 4.01426C44.5137 2.50488 43.6793 1.18926 42.4465 0.504883Z" fill="#FFA071"/>
<path opacity="0.15" d="M67.8438 20.625C67.8438 20.625 45.8828 21.8219 31.0422 32.9125C16.2938 43.9344 13.2594 64.7859 13.1578 65.5422C13.2219 64.8547 15.0375 44.9312 13.1562 20.625H67.8438Z" fill="black"/>
</g>
<defs>
<clipPath id="clip0_2510_594">
<rect width="80" height="80" fill="white" transform="translate(0.5)"/>
</clipPath>
</defs>
</svg>
