<svg width="81" height="80" viewBox="0 0 81 80" fill="none" xmlns="http://www.w3.org/2000/svg">
<g clip-path="url(#clip0_2492_2295)">
<path d="M40.5 79.3599C62.5914 79.3599 80.5 70.7583 80.5 60.1476C80.5 49.5369 62.5914 40.9353 40.5 40.9353C18.4086 40.9353 0.5 49.5369 0.5 60.1476C0.5 70.7583 18.4086 79.3599 40.5 79.3599Z" fill="#08C1D2"/>
<path opacity="0.15" d="M80.5004 60.1478C80.5004 70.757 62.5879 79.3601 40.5004 79.3601C21.1004 79.3601 4.91289 72.7263 1.27539 63.9139C6.08789 71.9263 21.4754 77.7847 39.7004 77.7847C61.7879 77.7847 79.7004 69.1693 79.7004 58.5724C79.6974 57.2749 79.434 55.9909 78.9254 54.7939C79.9354 56.4042 80.4799 58.2553 80.5004 60.1478Z" fill="black"/>
<path d="M40.4998 71.9999C58.3524 71.9999 72.8248 65.0459 72.8248 56.4676C72.8248 47.8894 58.3524 40.9353 40.4998 40.9353C22.6472 40.9353 8.1748 47.8894 8.1748 56.4676C8.1748 65.0459 22.6472 71.9999 40.4998 71.9999Z" fill="#68F0F8"/>
<path opacity="0.1" d="M40.9627 55.5447C32.9932 51.8706 24.7832 48.7252 16.3877 46.1293C21.4024 43.6023 26.8478 42.0084 32.4502 41.4277L40.9627 55.5447Z" fill="black"/>
<path opacity="0.3" d="M8.17482 56.4678C8.79982 63.1016 15.9248 66.4124 21.5873 68.4062C33.9017 72.1973 47.0979 72.1973 59.4123 68.4062C65.0748 66.4124 72.1873 63.1016 72.8248 56.4678C72.9998 59.7909 70.8623 62.7201 68.4123 64.8001C56.2873 74.2278 35.2498 74.6462 21.1748 69.5632C15.4998 67.3478 8.16232 63.3478 8.17482 56.4678Z" fill="white"/>
<path d="M66.9621 64.8984C65.8176 65.6273 64.6182 66.2691 63.3746 66.8184L41.9496 57.9569L28.4496 70.1538C27.4496 69.9692 26.4621 69.7477 25.4746 69.5015L24.6496 69.3046L33.3996 61.4769L9.72461 51.6923C10.3539 50.787 11.0927 49.9605 11.9246 49.2308L35.9496 59.0769L54.4121 42.4492C55.6621 42.7323 56.9121 43.0523 58.0496 43.4338L44.5496 55.6061L66.9621 64.8984Z" fill="white"/>
<path d="M52.2997 1.51386C52.2997 1.51386 38.7747 -4.28307 30.0622 13.92C26.4497 21.4277 25.8497 29.3415 28.1872 34.3631L40.9622 55.5446L45.0497 56.2092L32.9997 35.0277C30.6747 30.0062 31.2247 22.0677 34.8747 14.5846C39.2497 5.66155 46.5872 0.356934 52.2997 1.51386Z" fill="#EF2D07"/>
<path d="M54.5624 2.37531C48.6749 -1.03392 39.8749 4.43069 34.9249 14.5845C31.2749 22.0676 30.7249 30.0061 33.0499 35.0276L45.0499 56.2092L56.2999 26.9415C59.9124 15.9999 60.4999 5.78454 54.5624 2.37531ZM52.8624 24.9722C49.4874 31.9015 43.4874 35.6184 39.4749 33.3045C38.2299 32.5409 37.2931 31.3749 36.8249 30.0061C36.7124 29.7107 36.6124 29.3907 36.5249 29.0707V29.0092C36.4462 28.7264 36.3878 28.4385 36.3499 28.1476C36.3429 28.0328 36.3429 27.9178 36.3499 27.803C36.2999 27.4994 36.2624 27.1794 36.2374 26.843C36.2374 26.4615 36.2374 26.0676 36.2374 25.6122C36.2941 22.4724 37.0538 19.3836 38.4624 16.5661C39.1103 15.2673 39.8804 14.0311 40.7624 12.8738C40.9749 12.603 41.1999 12.3322 41.4124 12.0861C41.9436 11.3788 42.5286 10.7122 43.1624 10.0922L43.5999 9.74761L44.0374 9.41531C44.2419 9.26058 44.4547 9.11678 44.6749 8.98454L44.9374 8.82454L45.4374 8.54146C45.8377 8.3195 46.2558 8.13015 46.6874 7.97531C46.8519 7.90399 47.0237 7.85035 47.1999 7.81531C47.2579 7.80589 47.317 7.80589 47.3749 7.81531C47.5665 7.75672 47.7632 7.71552 47.9624 7.69223C47.9741 7.68676 47.987 7.68392 47.9999 7.68392C48.0129 7.68392 48.0257 7.68676 48.0374 7.69223C48.2124 7.69223 48.3874 7.69223 48.5749 7.61838H48.6749C49.7387 7.49818 50.8141 7.70907 51.7499 8.22146C55.7249 10.5476 56.2374 18.043 52.8624 24.9722Z" fill="#FE4711"/>
<path d="M52.8627 24.9723C49.4877 31.9016 43.4877 35.6185 39.4752 33.3046C38.2301 32.541 37.2933 31.375 36.8252 30.0062C40.4502 29.8093 44.6252 26.3139 47.2502 21.0093C49.6252 16.0862 50.0627 10.9908 48.7252 7.54465C49.7803 7.45718 50.8371 7.69366 51.7502 8.22157C55.7252 10.5477 56.2377 18.0431 52.8627 24.9723Z" fill="#FF7F50"/>
<path opacity="0.2" d="M52.85 24.9846C49.4875 31.9016 43.5 35.6185 39.475 33.3047C38.9102 32.9574 38.411 32.5159 38 32C38.2115 32.174 38.4373 32.3304 38.675 32.4677C42.7 34.7816 48.675 31.0647 52.05 24.1477C54.9625 18.1908 54.9875 11.84 52.3875 8.65234C55.7625 11.4462 56.0375 18.4616 52.85 24.9846Z" fill="black"/>
<path opacity="0.15" d="M45.0498 56.2091V33.3291C46.7058 32.56 48.1826 31.4621 49.3873 30.1045L49.5623 30.363C50.6498 32.0983 45.0498 56.2091 45.0498 56.2091Z" fill="white"/>
</g>
<defs>
<clipPath id="clip0_2492_2295">
<rect width="80" height="80" fill="white" transform="translate(0.5)"/>
</clipPath>
</defs>
</svg>
