<svg width="81" height="80" viewBox="0 0 81 80" fill="none" xmlns="http://www.w3.org/2000/svg">
<path d="M66.4567 39.2793C65.0518 42.6709 64.9634 46.8639 66.3683 50.2555L67.5772 52.6237H15.3941C15.3941 52.6237 5.6787 47.1649 15.3941 37.4494L67.1266 36.3833L66.4567 39.2793Z" fill="#F1F2F2"/>
<path d="M67.5769 52.6238H15.394C15.394 52.6238 5.67886 47.1645 15.394 37.4494L67.1268 36.3828L66.456 39.2794C66.1456 40.0311 65.8984 40.8211 65.7189 41.6332H18.3671C16.5327 41.6332 15.041 43.1249 15.041 44.9579C15.041 46.7923 16.5327 48.284 18.3671 48.284H65.7366C65.8955 48.9622 66.1058 49.6227 66.3677 50.2553L67.5769 52.6238Z" fill="#DEE1E1"/>
<path d="M66.7866 54.8391L19.0876 54.764C13.3731 54.764 8.46554 51.1186 8.46554 45.4041C8.46554 44.1419 8.24575 42.4869 8.65958 41.3685C10.1191 37.4235 13.9145 34.6113 18.3669 34.6113H67.3015C68.5905 34.6113 69.6354 35.6563 69.6354 36.9452C69.6354 38.2342 68.5905 39.2791 67.3015 39.2791H30.2665L26.6497 40.1281L23.5042 39.2791H18.3668C15.2303 39.2791 12.6876 41.8218 12.6876 44.9583C12.6876 48.0949 15.2303 50.6375 18.3668 50.6375H67.3014C68.5903 50.6375 69.6353 51.6824 69.6353 52.9714C69.6353 53.0644 69.6298 53.156 69.6192 53.2462C69.4833 54.4057 67.9826 54.8391 66.7866 54.8391Z" fill="#24DEEC"/>
<path d="M69.619 53.2464C69.5557 53.7804 69.313 54.26 68.9526 54.6219C68.5289 55.0441 67.9463 55.306 67.302 55.306L43.1263 56.7549L18.3673 55.306C12.652 55.306 8.01953 50.6735 8.01953 44.9582C8.01953 43.468 8.33435 42.0513 8.90219 40.7715V42.8987C8.90219 48.6139 13.5347 53.2464 19.2499 53.2464H69.619Z" fill="#0A9AB0"/>
<path d="M30.2669 46.0833V39.2793H25.4172L23.6953 39.4522L23.7987 45.7891C23.7987 45.9964 24.0072 46.1386 24.2002 46.063L25.4171 45.7655L26.7784 45.2326C26.8474 45.2055 26.9241 45.2055 26.9929 45.2326L29.8654 46.3574C30.0584 46.4328 30.2669 46.2906 30.2669 46.0833Z" fill="#FDCD08"/>
<path d="M25.4173 39.2798V45.7659L23.9065 46.3573C23.7138 46.4323 23.5049 46.2911 23.5049 46.0836V39.2798H25.4173Z" fill="#FAAB18"/>
<path d="M59.7492 28.6698V31.9872L59.6021 33.4583C59.6021 34.0276 59.1402 34.488 58.5723 34.488L19.366 34.3409C18.7967 34.3409 18.3362 33.8805 18.3362 33.3111L18.042 28.6698L38.1686 27.708L59.7492 28.6698Z" fill="#FFA071"/>
<path d="M71.8289 28.903C71.2194 28.903 70.7256 28.409 70.7256 27.7997V16.3548C70.7256 15.7455 71.2194 15.2515 71.8289 15.2515C72.4384 15.2515 72.9322 15.7455 72.9322 16.3548V27.7995C72.9322 28.409 72.4382 28.903 71.8289 28.903Z" fill="#77777F"/>
<path d="M69.8567 31.4396C68.9357 33.7097 68.0091 35.9494 67.088 38.2196C66.5376 39.5766 67.5264 41.0635 68.9794 41.0635L70.6824 41.2107H74.8249C76.2779 41.2107 77.2667 39.7237 76.7163 38.3666L74.7957 33.6323L73.5878 31.4395L69.8567 31.4396Z" fill="#FFA071"/>
<path d="M71.3396 34.4688C72.55 34.579 73.8196 34.2612 74.7957 33.6322L73.763 31.0513L72.0563 31.5614L72.0565 31.561L69.8317 31.2641C69.5507 31.957 69.1422 32.9409 68.8612 33.6338L68.8614 33.6339C68.2215 35.2114 67.5814 36.7889 66.9415 38.3663C66.3913 39.7242 67.3798 41.21 68.8318 41.21H71.1856C69.7336 41.21 68.745 39.7242 69.2952 38.3663C69.7735 37.1883 70.2513 36.0104 70.7293 34.8323C70.8283 34.5878 71.077 34.4448 71.3396 34.4688Z" fill="#FF7F50"/>
<path d="M75.2243 28.8547C75.2243 27.3513 74.2654 26.074 72.9314 25.6118C72.5856 25.4919 72.0829 25.7052 71.6969 25.7052C69.8214 25.7052 68.667 26.9616 68.667 28.8548C68.667 30.748 70.0701 31.8838 71.9456 31.8838C72.3318 31.8838 72.5856 32.2175 72.9314 32.0977C74.2654 31.6353 75.2243 30.358 75.2243 28.8547Z" fill="#FFA071"/>
<path d="M72.9312 32.0982C72.5855 32.2188 72.2133 32.2836 71.8279 32.2836C69.9523 32.2836 68.4326 30.7477 68.4326 28.8544C68.4326 26.9626 69.9523 25.4268 71.8279 25.4268C72.2133 25.4268 72.5855 25.4915 72.9312 25.6121C71.597 26.074 70.6393 27.3524 70.6393 28.8544C70.6393 30.3579 71.597 31.6363 72.9312 32.0982Z" fill="#FF7F50"/>
<path d="M72.1004 17.5345L62.3972 20.8936L59.7493 20.6221L40.915 28.3303C39.6067 28.7833 38.1842 28.7833 36.8759 28.3303L18.042 20.9226L15.394 20.8938L5.69018 17.5345C4.58244 17.151 4.58244 15.5844 5.69018 15.201L37.2438 4.27782C38.3136 3.90739 39.477 3.90739 40.5468 4.27782L72.1004 15.201C73.208 15.5844 73.208 17.151 72.1004 17.5345Z" fill="#868491"/>
<path d="M62.3967 19.8977V20.8937L40.9142 28.3301C39.6064 28.7832 38.1839 28.7832 36.8746 28.3301L15.3936 20.8937V19.8977C15.3936 17.7985 16.8926 16.0067 18.9595 15.6345C25.5265 14.4576 32.2333 13.8618 38.8944 13.8618C45.5556 13.8618 52.2638 14.4576 58.8308 15.6345C59.8311 15.8154 60.7388 16.3421 61.389 17.1203C62.0363 17.8926 62.3967 18.8812 62.3967 19.8977Z" fill="#77777F"/>
<path d="M59.7489 19.8977V28.6699H18.483L18.3359 20.1919C18.3359 19.3769 18.92 18.6796 19.7217 18.5355C20.142 18.4602 20.2685 18.0931 20.6896 18.0226C26.7159 17.0148 32.8058 16.5098 38.8946 16.5098C45.4101 16.5098 51.9256 17.0879 58.3631 18.2413C58.7633 18.3133 59.1105 18.5237 59.3561 18.8179C59.6033 19.1121 59.7489 19.4902 59.7489 19.8977Z" fill="#868491"/>
<path d="M59.7492 31.9872V33.6054C59.7492 34.1747 59.2873 34.6351 58.7194 34.6351H19.0718C18.503 34.6351 18.042 34.1741 18.042 33.6054V28.6698L19.366 27.708L20.69 28.6698V31.2516C20.69 31.6578 21.0194 31.9872 21.4255 31.9872H59.7492Z" fill="#FF7F50"/>
<path d="M20.69 18.0239V28.6703H18.042V19.8981C18.042 19.0831 18.626 18.3858 19.4278 18.2416C19.8485 18.1666 20.2692 18.0931 20.69 18.0239Z" fill="#77777F"/>
<path d="M70.3438 70.9156C68.9389 67.524 68.9389 63.7133 70.3438 60.3216L70.7914 58.333H10.6363C10.6363 58.333 3.86466 65.6948 11.0763 72.9063L71.1832 73.3571L70.3438 70.9156Z" fill="#F1F2F2"/>
<path d="M71.1831 73.3564L11.0768 72.9062C3.86396 65.6949 10.6369 58.3335 10.6369 58.3335L71.0807 58.4452L70.3445 60.321C70.0724 60.9771 69.8532 61.6479 69.6869 62.3275H14.478C12.6435 62.3275 11.1518 63.8192 11.1518 65.6522C11.1518 67.4867 12.6435 68.9784 14.478 68.9784H69.7046C69.8694 69.6345 70.0827 70.2833 70.3445 70.9158L71.1831 73.3564Z" fill="#DEE1E1"/>
<path d="M70.1698 75.4851L15.7828 75.3851C10.0683 75.3851 5.04071 72.1603 5.04071 66.4458C5.04071 64.6322 4.59717 62.1349 5.41687 60.6527C7.17999 57.4648 10.5768 55.3062 14.4775 55.3062H71.1919C72.4809 55.3062 73.5258 56.3511 73.5258 57.6401C73.5258 58.929 72.4809 59.974 71.1919 59.974H57.1399L53.4682 60.7867L50.3777 59.974H14.4777C11.3411 59.974 8.79849 62.5166 8.79849 65.6531C8.79849 68.7897 11.3411 71.3323 14.4777 71.3323H71.1919C72.4809 71.3323 73.5258 72.3773 73.5258 73.6662C73.5258 73.8103 73.5127 73.951 73.4878 74.0879C73.2894 75.1756 71.3149 75.4851 70.1698 75.4851Z" fill="#3FA1FF"/>
<path d="M73.4879 74.0874C73.4011 74.564 73.1702 74.9877 72.8421 75.3157C72.4199 75.7379 71.8359 75.9998 71.1915 75.9998H14.4776C8.76238 75.9998 4.12988 71.3673 4.12988 65.6521C4.12988 63.6072 4.72274 61.7007 5.74809 60.0942V63.7396C5.74809 69.4549 10.3806 74.0874 16.0958 74.0874H73.4879Z" fill="#1751B6"/>
<path d="M57.1399 66.8302V59.9712H52.5842L50.5635 60.0942L50.6718 66.536C50.6718 66.7433 50.8804 66.8855 51.0732 66.8099L52.584 66.3974L53.6515 65.9795C53.7205 65.9524 53.7971 65.9524 53.866 65.9795L56.7384 67.1043C56.9313 67.1797 57.1399 67.0375 57.1399 66.8302Z" fill="#FDCD08"/>
<path d="M52.5836 59.9707V66.3979L50.7786 67.1041C50.5858 67.1791 50.377 67.0379 50.377 66.8305V59.9707H52.5836Z" fill="#FAAB18"/>
</svg>
