<svg width="81" height="80" viewBox="0 0 81 80" fill="none" xmlns="http://www.w3.org/2000/svg">
<g clip-path="url(#clip0_2510_631)">
<path d="M10.3746 64.9375H7.86426C6.56988 64.9375 5.52051 63.8881 5.52051 62.5938C5.52051 61.2994 6.56988 60.25 7.86426 60.25H10.3746C11.6689 60.25 12.7183 61.2994 12.7183 62.5938C12.7183 63.8881 11.6689 64.9375 10.3746 64.9375Z" fill="#294464"/>
<path d="M73.1353 64.9375H70.625C69.3306 64.9375 68.2812 63.8881 68.2812 62.5938C68.2812 61.2994 69.3306 60.25 70.625 60.25H73.1353C74.4297 60.25 75.4791 61.2994 75.4791 62.5938C75.4791 63.8881 74.4297 64.9375 73.1353 64.9375Z" fill="#0C1638"/>
<path d="M55.5625 49.8752H25.4375C24.1431 49.8752 23.0938 48.8258 23.0938 47.5315C23.0938 46.2421 24.1348 45.196 25.4223 45.1877H25.4375C27.3167 45.1877 28.9466 43.9152 29.4019 42.0933L29.982 39.7737C30.6633 37.049 33.1005 35.146 35.9089 35.146H45.0914C47.8998 35.146 50.3369 37.049 51.0183 39.7737L51.5983 42.0929C52.0537 43.9154 53.6836 45.1879 55.5617 45.1879H55.5628C56.8572 45.1879 57.9066 46.2372 57.9066 47.5316C57.9066 48.821 56.8655 49.8672 55.578 49.8754C55.5727 49.8752 55.5677 49.8752 55.5625 49.8752Z" fill="#294464"/>
<path d="M55.5777 49.8749C56.8652 49.8668 57.9062 48.8205 57.9062 47.5311C57.9062 46.2368 56.8569 45.1874 55.5625 45.1874H55.5614C53.6831 45.1874 52.0534 43.9149 51.598 42.0924L51.018 39.7732C50.3367 37.0485 47.8995 35.1455 45.0911 35.1455H40.5V49.8749H55.5625H55.5777Z" fill="#0C1638"/>
<path d="M65.6042 45.1875H15.3958C11.3288 45.1875 8.03125 48.4777 8.03125 52.552V72.6353C8.03125 76.7025 11.3214 80 15.3958 80H29.4188C32.3339 80 35.0747 78.8647 37.1364 76.8033C37.7308 76.2231 38.8292 75.4095 40.5 75.4095C42.1708 75.4095 43.2694 76.2231 43.8636 76.8033C45.9253 78.8647 48.6661 80 51.5813 80H65.6042C69.6786 80 72.9688 76.7025 72.9688 72.6355V52.552C72.9688 48.4778 69.6713 45.1875 65.6042 45.1875Z" fill="#EDEDED"/>
<path d="M51.5813 80H65.6042C69.6786 80 72.9688 76.7025 72.9688 72.6355V52.552C72.9688 48.4777 69.6713 45.1875 65.6042 45.1875H40.5V75.4094C42.1708 75.4094 43.2694 76.223 43.8636 76.8031C45.9253 78.8647 48.6661 80 51.5813 80Z" fill="#DFDFDF"/>
<path d="M60.5835 59.9165H20.417C19.1226 59.9165 18.0732 58.8671 18.0732 57.5728C18.0732 56.2784 19.1226 55.229 20.417 55.229H60.5835C61.8779 55.229 62.9273 56.2784 62.9273 57.5728C62.9273 58.8671 61.8779 59.9165 60.5835 59.9165Z" fill="#D6E4F3"/>
<path d="M79.3276 18.0671L69.2859 12.2696C68.5607 11.8509 67.6673 11.8509 66.9421 12.2696L56.9004 18.0671C56.1752 18.4857 55.7285 19.2595 55.7285 20.0968V31.692C55.7285 32.5293 56.1752 33.3031 56.9004 33.7217L66.9421 39.5192C67.6673 39.9379 68.5607 39.9379 69.2859 39.5192L79.3276 33.7217C80.0527 33.3031 80.4995 32.5293 80.4995 31.692V20.0968C80.4995 19.2595 80.0527 18.4857 79.3276 18.0671Z" fill="#3FA1FF"/>
<path d="M68.1143 25.8943V39.8331C68.5189 39.8331 68.9236 39.7284 69.2861 39.519L79.3279 33.7215C80.053 33.3029 80.4997 32.5292 80.4997 31.6918V20.0967C80.4997 19.6781 80.388 19.2753 80.1857 18.9248L68.1143 25.8943Z" fill="#1B7CF5"/>
<path d="M68.1144 11.9556C67.7097 11.9556 67.305 12.0603 66.9425 12.2696L56.9008 18.0671C56.5383 18.2765 56.2453 18.5746 56.043 18.9249L68.1144 25.8943V11.9556Z" fill="#8ED4FF"/>
<path d="M12.885 39.8336C19.0321 39.8336 24.0152 34.8504 24.0152 28.7034C24.0152 22.5564 19.0321 17.5732 12.885 17.5732C6.73802 17.5732 1.75488 22.5564 1.75488 28.7034C1.75488 34.8504 6.73802 39.8336 12.885 39.8336Z" fill="#FFC7A8"/>
<path d="M12.8857 17.5732C19.0229 17.5732 24.0159 22.5662 24.0159 28.7034C24.0159 34.8406 19.0229 39.8336 12.8857 39.8336V17.5732Z" fill="#FFA071"/>
<path d="M1.18648 40.4022C0.271172 39.4869 0.271172 38.0029 1.18648 37.0876L21.2698 17.0044C22.1849 16.089 23.669 16.089 24.5843 17.0044C25.4996 17.9197 25.4996 19.4036 24.5843 20.3189L4.50102 40.4022C3.5857 41.3176 2.10148 41.3173 1.18648 40.4022Z" fill="#FFA071"/>
<path d="M21.2701 17.0044L12.8857 25.3887V32.0178L24.5846 20.3189C25.5 19.4036 25.5 17.9197 24.5846 17.0044C23.6693 16.089 22.1853 16.089 21.2701 17.0044Z" fill="#FF7F50"/>
<path d="M62.927 57.5728C62.927 56.2784 61.8777 55.229 60.5833 55.229H40.5V59.9165H60.5833C61.8777 59.9165 62.927 58.8671 62.927 57.5728Z" fill="#BBD0E9"/>
<path d="M29.2243 14.3783L34.9574 17.9275L38.5068 23.6608C38.9339 24.3509 39.688 24.7708 40.4996 24.7708C41.3111 24.7708 42.0652 24.3508 42.4924 23.6608L46.0418 17.9275L51.7749 14.3783C52.465 13.9511 52.8849 13.1972 52.8849 12.3855C52.8849 11.5737 52.4649 10.8198 51.7749 10.3927L46.0416 6.84344L42.4924 1.11C42.0652 0.42 41.3111 0 40.4996 0C39.688 0 38.9339 0.42 38.5068 1.11L34.9575 6.84328L29.2243 10.3925C28.5341 10.8197 28.1143 11.5736 28.1143 12.3853C28.1143 13.197 28.5341 13.9509 29.2243 14.3783Z" fill="#25F5EB"/>
<path d="M40.5 24.7708C41.3116 24.7708 42.0656 24.3508 42.4928 23.6608L46.0422 17.9275L51.7753 14.3783C52.4655 13.9511 52.8853 13.1972 52.8853 12.3855C52.8853 11.5737 52.4653 10.8198 51.7753 10.3927L46.042 6.84344L42.4928 1.11C42.0656 0.42 41.3116 0 40.5 0V24.7708Z" fill="#01D2E3"/>
</g>
<defs>
<clipPath id="clip0_2510_631">
<rect width="80" height="80" fill="white" transform="translate(0.5)"/>
</clipPath>
</defs>
</svg>
