<svg width="81" height="80" viewBox="0 0 81 80" fill="none" xmlns="http://www.w3.org/2000/svg">
<g clip-path="url(#clip0_2492_1879)">
<path d="M3.61827 68.0273C3.61827 68.0273 2.29686 77.6566 10.0703 79.9548H32.6292C40.4026 77.6566 39.0812 68.0273 39.0812 68.0273L21.6823 62.1716L3.61827 68.0273Z" fill="#FFB983"/>
<path d="M24.1059 62.1724H18.5955C16.1276 62.1724 14.127 60.1718 14.127 57.7038V51.0132H28.5746V57.7038C28.5746 60.1718 26.5738 62.1724 24.1059 62.1724Z" fill="#FCD0A3"/>
<path d="M38.3934 42.564H38.4173C40.4667 42.564 42.1273 40.902 42.1273 38.854C42.1273 36.8046 40.4667 35.1426 38.4173 35.1426C38.3906 35.1426 38.3641 35.1426 38.3373 35.144H4.36422C4.3375 35.1426 4.31094 35.1426 4.28422 35.1426C2.23484 35.1426 0.574219 36.8046 0.574219 38.854C0.574219 40.902 2.23484 42.564 4.28422 42.564H4.30813" fill="#FFB983"/>
<path d="M28.5746 54.6189C28.5746 54.6189 39.0823 55.94 39.0823 60.9758C39.0823 66.0116 39.0823 68.0273 39.0823 68.0273H32.6301V79.9548H10.0712V68.0273H3.61914C3.61914 68.0273 3.61914 66.0114 3.61914 60.9758C3.61914 55.9401 14.1268 54.6189 14.1268 54.6189" fill="#3FA1FF"/>
<path d="M15.0605 79.9553H10.0723V68.0278H3.61914C3.61914 68.0278 3.61914 66.0125 3.61914 60.9759C3.61914 55.9409 14.127 54.6194 14.127 54.6194H16.5463L16.6623 54.7095C14.127 54.7094 10.6566 62.9733 15.0605 79.9553Z" fill="#1F84E4"/>
<path d="M28.5736 57.1504V57.7043C28.5736 60.1726 26.5739 62.1724 24.1055 62.1724H21.6839C19.2172 62.1724 17.2158 60.1727 17.2158 57.7043V57.2551C21.0013 57.3501 24.7883 57.3148 28.5736 57.1504Z" fill="#FCD0A3"/>
<path d="M28.5743 51.0137V57.1513L28.5727 57.1498C24.7874 57.314 21.0004 57.3494 17.2151 57.2544V57.7037C17.2151 60.1719 19.2165 62.1718 21.6832 62.1718H18.5951C16.1284 62.1718 14.127 60.1721 14.127 57.7037V51.0137H28.5743Z" fill="#FFB983"/>
<path d="M37.5393 25.454C26.7465 24.4076 15.9537 24.4076 5.16089 25.454C4.32339 32.1646 4.07667 38.8751 4.42089 45.5857C4.67136 50.4707 8.58042 54.3588 13.4662 54.5896C18.7221 54.8377 23.9781 54.8377 29.234 54.5896C34.12 54.359 38.0289 50.4707 38.2793 45.5857C38.6235 38.8752 38.377 32.1646 37.5393 25.454Z" fill="#FCD0A3"/>
<path d="M5.16176 25.453C10.5572 24.9297 15.9543 24.6689 21.3514 24.6689C18.6191 24.6689 15.8868 24.933 13.1544 25.4611C12.7294 32.2364 12.6054 39.0118 12.7793 45.7855C12.8936 50.2439 14.523 53.8796 16.6613 54.7088C15.5971 54.6799 14.5311 54.6396 13.4668 54.5896C8.58176 54.3593 4.67238 50.471 4.42113 45.5858C4.07817 38.8749 4.32457 32.1639 5.16176 25.453Z" fill="#FFB983"/>
<path d="M21.3498 47.1984C19.4103 47.1984 17.6195 46.066 16.7878 44.3134C16.5019 43.711 16.7584 42.991 17.3608 42.7051C17.9636 42.4192 18.6833 42.6757 18.9691 43.2781C19.4033 44.1929 20.3378 44.7839 21.3498 44.7839C22.362 44.7839 23.2964 44.1928 23.7305 43.2781C24.0164 42.6757 24.7363 42.4192 25.3388 42.705C25.9411 42.9907 26.1977 43.7109 25.9119 44.3132C25.0802 46.0659 23.2895 47.1984 21.3498 47.1984Z" fill="#E7AB8A"/>
<path d="M38.2457 32.1368C34.8001 35.584 27.9765 28.6911 27.9765 28.6911C28.1698 29.939 27.8187 31.1546 26.4662 32.1207C25.5082 32.8049 24.4246 33.106 23.3023 33.1511C18.8053 33.3315 13.7076 29.3771 13.7076 29.3771C12.7995 31.8744 10.1203 31.8244 7.89995 31.2771C5.85667 30.7732 4.13073 29.4207 3.14527 27.561C1.45152 24.3647 -0.844422 18.958 1.49667 16.6169C4.9262 13.1874 9.18011 16.6169 9.18011 16.6169C9.18011 16.6169 13.3117 15.0665 18.5848 13.9683C18.5864 13.9683 18.5896 13.9668 18.5912 13.9668C24.9012 12.6529 32.8439 11.9832 37.3054 15.3836C41.9103 18.8936 41.6929 28.6911 38.2457 32.1368Z" fill="#3C5959"/>
<path d="M23.3023 33.1513C18.8053 33.3316 13.7076 29.3773 13.7076 29.3773C12.7995 31.8746 10.1203 31.8246 7.89995 31.2773C5.85667 30.7733 4.13073 29.4209 3.14527 27.5612C1.45152 24.3649 -0.844422 18.9582 1.49667 16.6171C4.9262 13.1876 9.18011 16.6171 9.18011 16.6171C9.18011 16.6171 13.3117 15.0666 18.5848 13.9685C11.7675 15.759 17.3562 31.0163 23.3023 33.1513Z" fill="#394949"/>
<path d="M71.8516 45.5862C79.2407 45.5862 79.4505 54.8498 80.4996 57.7873C80.4996 57.7873 72.5568 56.4088 70.0762 50.646" fill="#FCB143"/>
<path d="M37.1905 68.0277C37.1905 68.0277 35.8691 77.6571 43.6426 79.9552H66.2013C73.9748 77.6571 72.6533 68.0277 72.6533 68.0277L55.2544 62.1721L37.1905 68.0277Z" fill="#FFB983"/>
<path d="M57.6781 62.1726H52.1678C49.6998 62.1726 47.6992 60.172 47.6992 57.7041V51.0134H62.1469V57.7041C62.1467 60.172 60.1461 62.1726 57.6781 62.1726Z" fill="#FCD0A3"/>
<path d="M71.9647 42.5645H71.9886C74.038 42.5645 75.6986 40.9024 75.6986 38.8545C75.6986 36.8051 74.038 35.1431 71.9886 35.1431C71.9619 35.1431 71.9354 35.1431 71.9086 35.1445H37.9355C37.9088 35.1431 37.8822 35.1431 37.8555 35.1431C35.8061 35.1431 34.1455 36.8051 34.1455 38.8545C34.1455 40.9024 35.8061 42.5645 37.8555 42.5645H37.8794" fill="#FFB983"/>
<path d="M72.6545 60.9757V68.0276H66.2014V79.9551H43.6436V68.0276H37.1904C37.1904 68.0276 37.1904 66.0123 37.1904 60.9757C37.1904 55.9407 47.6982 54.6191 47.6982 54.6191H62.1465C62.1465 54.6191 72.6545 55.9407 72.6545 60.9757Z" fill="#48E4EF"/>
<path d="M48.6318 79.9551H43.6436V68.0276H37.1904C37.1904 68.0276 37.1904 66.0123 37.1904 60.9757C37.1904 55.9407 47.6982 54.6191 47.6982 54.6191H50.1176L50.2336 54.7093C47.6982 54.7091 44.2278 62.9732 48.6318 79.9551Z" fill="#046B74"/>
<path d="M62.1459 57.1509V57.7048C62.1459 60.1731 60.1462 62.1729 57.6778 62.1729H55.2562C52.7895 62.1729 50.7881 60.1732 50.7881 57.7048V57.2556C54.5736 57.3506 58.3604 57.3151 62.1459 57.1509Z" fill="#FCD0A3"/>
<path d="M62.1466 51.0142V57.1518L62.145 57.1503C58.3597 57.3145 54.5727 57.3499 50.7873 57.2549V57.7042C50.7873 60.1724 52.7888 62.1723 55.2555 62.1723H52.1673C49.7006 62.1723 47.6992 60.1726 47.6992 57.7042V51.0142H62.1466Z" fill="#FFB983"/>
<path d="M71.1116 25.4545C60.3188 24.4081 49.526 24.4081 38.7332 25.4545C37.8957 32.1651 37.6489 38.8756 37.9932 45.5862C38.2436 50.4712 42.1527 54.3593 47.0385 54.5901C52.2944 54.8382 57.5503 54.8382 62.8063 54.5901C67.6922 54.3595 71.6011 50.4712 71.8517 45.5862C72.1958 38.8756 71.9491 32.165 71.1116 25.4545Z" fill="#FCD0A3"/>
<path d="M38.7341 25.4535C44.1295 24.9302 49.5266 24.6694 54.9237 24.6694C52.1914 24.6694 49.4591 24.9335 46.7267 25.4616C46.3017 32.2369 46.1776 39.0122 46.3516 45.786C46.4659 50.2444 48.0953 53.8801 50.2336 54.7093C49.1694 54.6804 48.1034 54.6401 47.0391 54.5901C42.1541 54.3597 38.2447 50.4715 37.9934 45.5863C37.6505 38.8754 37.8967 32.1644 38.7341 25.4535Z" fill="#FFB983"/>
<path d="M54.9221 47.1989C52.9826 47.1989 51.1918 46.0665 50.3601 44.3139C50.0741 43.7115 50.3307 42.9915 50.9331 42.7056C51.5354 42.4195 52.2554 42.6764 52.5413 43.2786C52.9756 44.1934 53.9101 44.7843 54.9221 44.7843C55.9341 44.7843 56.8687 44.1932 57.3027 43.2786C57.5885 42.6762 58.3085 42.4198 58.911 42.7054C59.5134 42.9912 59.7699 43.7114 59.4841 44.3137C58.6524 46.0664 56.8616 47.1989 54.9221 47.1989Z" fill="#E7AB8A"/>
<path d="M71.7954 32.8293C71.7954 32.8293 59.5005 32.2577 54.923 24.6693C52.9796 27.8943 49.6419 29.8505 46.4458 31.0339C42.1179 32.6408 38.0507 32.8293 38.0507 32.8293C38.0507 32.8293 32.2399 13.9346 54.9232 13.9346C77.6065 13.9346 71.7954 32.8293 71.7954 32.8293Z" fill="#FCB143"/>
<path d="M54.9231 13.9346C48.9673 16.5591 46.726 25.4597 46.4459 31.0339C42.1179 32.6408 38.0507 32.8293 38.0507 32.8293C38.0507 32.8293 32.2398 13.9346 54.9231 13.9346Z" fill="#FA9801"/>
<path d="M44.0246 44.3061C45.7194 44.3061 47.0932 43.6721 47.0932 42.8899C47.0932 42.1077 45.7194 41.4736 44.0246 41.4736C42.3299 41.4736 40.9561 42.1077 40.9561 42.8899C40.9561 43.6721 42.3299 44.3061 44.0246 44.3061Z" fill="#EC6161"/>
<path d="M65.8205 44.3061C67.5153 44.3061 68.8891 43.6721 68.8891 42.8899C68.8891 42.1077 67.5153 41.4736 65.8205 41.4736C64.1258 41.4736 62.752 42.1077 62.752 42.8899C62.752 43.6721 64.1258 44.3061 65.8205 44.3061Z" fill="#EC6161"/>
<path d="M39.5 20.2571C28.5602 16.2417 27.2783 7.70467 29.2946 4.2617C30.6862 1.88553 33.8977 1.32734 36.5271 2.8231C36.5303 2.82483 36.5337 2.82664 36.5369 2.82887C36.5612 2.84256 36.586 2.85675 36.6104 2.87134C36.6139 2.87308 36.6174 2.8753 36.621 2.87753C37.7643 3.55258 38.7909 4.62071 39.5 6.10186C41.4654 1.99844 45.8654 1.064 48.435 2.87753C48.9401 3.2339 49.3743 3.69642 49.7055 4.2617C51.7217 7.70467 50.4398 16.2417 39.5 20.2571Z" fill="#EF2D07"/>
<path d="M39.5 20.2571C28.5602 16.2417 27.2783 7.70467 29.2946 4.2617C30.6862 1.88553 33.8977 1.32734 36.5271 2.8231C33.7592 1.30128 29.4979 7.46005 32.8531 12.4695C35.4572 16.3575 39.5 20.2571 39.5 20.2571Z" fill="#C61C08"/>
<path d="M52.1355 70.3701H52.1543C53.7629 70.3701 55.0663 69.0655 55.0663 67.458C55.0663 65.8495 53.7629 64.5449 52.1543 64.5449C52.1333 64.5449 52.1124 64.5449 52.0914 64.546H22.2063C22.1854 64.5449 22.1644 64.5449 22.1435 64.5449C20.5349 64.5449 19.2314 65.8495 19.2314 67.458C19.2314 69.0655 20.5349 70.3701 22.1435 70.3701H22.1622" fill="#FFB983"/>
<path d="M49.8563 56.9404C41.3849 56.1192 32.9134 56.1192 24.442 56.9404C23.7847 62.2076 23.5911 67.4748 23.8611 72.742C24.0578 76.5762 27.1259 79.6282 30.9609 79.8092C35.0864 80.004 39.2119 80.004 43.3372 79.8092C47.1722 79.6281 50.2403 76.5762 50.437 72.742C50.7073 67.4748 50.5136 62.2076 49.8563 56.9404Z" fill="#FCD0A3"/>
<path d="M24.4429 56.9394C28.6779 56.5287 32.9141 56.324 37.1504 56.324C35.0057 56.324 32.861 56.5312 30.7165 56.9457C30.3829 62.2637 30.2855 67.5818 30.422 72.8985C30.5116 76.3979 31.7907 79.2516 33.469 79.9024C32.6337 79.8796 31.797 79.848 30.9616 79.8088C27.1273 79.628 24.0588 76.576 23.8616 72.7416C23.5924 67.4743 23.7857 62.2069 24.4429 56.9394Z" fill="#FFB983"/>
<path d="M37.1489 74.0258C35.6195 74.0258 34.2075 73.1328 33.5515 71.7509C33.3228 71.2691 33.5281 70.693 34.01 70.4644C34.4918 70.2358 35.0679 70.4409 35.2965 70.9228C35.6343 71.6345 36.3614 72.0944 37.1489 72.0944C37.9364 72.0944 38.6634 71.6345 39.0012 70.9228C39.23 70.4409 39.8057 70.2356 40.2878 70.4644C40.7697 70.693 40.9748 71.2691 40.7462 71.7509C40.0903 73.133 38.6784 74.0258 37.1489 74.0258Z" fill="#E7AB8A"/>
<path d="M13.4507 39.8546C14.3064 39.8546 15.0001 38.8231 15.0001 37.5507C15.0001 36.2783 14.3064 35.2468 13.4507 35.2468C12.595 35.2468 11.9014 36.2783 11.9014 37.5507C11.9014 38.8231 12.595 39.8546 13.4507 39.8546Z" fill="#394949"/>
<path d="M30.8001 37.5507C30.8001 36.2803 30.1051 35.2468 29.2507 35.2468C28.3963 35.2468 27.7012 36.2804 27.7012 37.5507C27.7012 38.821 28.3963 39.8546 29.2507 39.8546C30.1051 39.8546 30.8001 38.8212 30.8001 37.5507Z" fill="#394949"/>
<path d="M47.023 39.8549C47.8787 39.8549 48.5724 38.8234 48.5724 37.551C48.5724 36.2786 47.8787 35.2471 47.023 35.2471C46.1673 35.2471 45.4736 36.2786 45.4736 37.551C45.4736 38.8234 46.1673 39.8549 47.023 39.8549Z" fill="#394949"/>
<path d="M62.823 35.2471C61.9686 35.2471 61.2734 36.2807 61.2734 37.551C61.2734 38.8213 61.9686 39.8549 62.823 39.8549C63.6773 39.8549 64.3723 38.8213 64.3723 37.551C64.3723 36.2807 63.6773 35.2471 62.823 35.2471Z" fill="#394949"/>
<path d="M30.9485 68.2522C31.6249 68.2522 32.1733 67.4387 32.1733 66.4352C32.1733 65.4317 31.6249 64.6182 30.9485 64.6182C30.272 64.6182 29.7236 65.4317 29.7236 66.4352C29.7236 67.4387 30.272 68.2522 30.9485 68.2522Z" fill="#394949"/>
<path d="M43.3498 64.6182C42.6745 64.6182 42.125 65.4333 42.125 66.4352C42.125 67.4371 42.6745 68.2522 43.3498 68.2522C44.0252 68.2522 44.5747 67.4371 44.5747 66.4352C44.5747 65.4333 44.0252 64.6182 43.3498 64.6182Z" fill="#394949"/>
<path d="M50.3929 62.7288C50.3929 62.7288 40.7425 62.2802 37.1496 56.324C35.6241 58.8554 33.0044 60.3908 30.4957 61.3198C27.0986 62.581 23.9063 62.7288 23.9063 62.7288C23.9063 62.7288 19.3452 47.8982 37.1496 47.8982C54.954 47.8982 50.3929 62.7288 50.3929 62.7288Z" fill="#D5694C"/>
<path d="M37.1496 47.8982C32.4749 49.9582 30.7157 56.9444 30.4957 61.3196C27.0986 62.5808 23.9063 62.7287 23.9063 62.7287C23.9063 62.7287 19.3452 47.8982 37.1496 47.8982Z" fill="#A64C31"/>
</g>
<defs>
<clipPath id="clip0_2492_1879">
<rect width="80" height="80" fill="white" transform="translate(0.5)"/>
</clipPath>
</defs>
</svg>
