<svg width="81" height="80" viewBox="0 0 81 80" fill="none" xmlns="http://www.w3.org/2000/svg">
<g clip-path="url(#clip0_2492_1925)">
<path d="M6.09277 59.3644H47.2628C47.2628 59.3644 46.7937 49.2908 26.6778 49.2908C6.56184 49.2908 6.09277 59.3644 6.09277 59.3644Z" fill="#F2B643"/>
<path d="M47.7874 62.3782C47.7874 63.3473 47.0022 64.1328 46.0332 64.1328H7.32191C6.35332 64.1328 5.56738 63.3473 5.56738 62.3782C5.56738 61.4096 6.35316 60.624 7.32191 60.624H46.0332C47.0021 60.624 47.7874 61.4096 47.7874 62.3782Z" fill="#FFB983"/>
<path d="M6.24707 71.2642H47.3347V74.6598C47.3347 74.6598 46.7686 79.9793 41.9014 79.9793C37.0346 79.9793 11.0008 79.9793 11.0008 79.9793C11.0008 79.9793 6.24707 79.5265 6.24707 75.112V71.2642Z" fill="#F2B643"/>
<path d="M7.03385 69.0626C7.85167 68.1893 9.1912 67.8532 10.3132 67.6332C12.4403 67.2167 13.9543 67.7967 15.6953 68.8893C19.071 71.009 23.7315 70.9479 27.1751 69.0303C28.9348 68.0506 30.3221 67.4767 32.3982 67.52C34.629 67.5667 36.2481 68.7923 38.1728 69.7009C41.2757 71.1656 45.676 70.3904 48.1209 67.949C49.1381 66.9337 47.5637 65.3592 46.5471 66.3746C45.4976 67.4223 43.894 67.9612 42.4623 68.1506C40.2107 68.4498 38.697 67.4142 36.8037 66.4335C34.8778 65.4365 32.7082 65.1398 30.5646 65.3598C28.7639 65.5446 27.3448 66.3873 25.8015 67.2467C23.8132 68.354 21.2917 68.4331 19.1084 67.9595C17.472 67.6048 16.2657 66.4346 14.7532 65.8064C12.0085 64.6656 7.57542 65.2304 5.45948 67.4884C4.47901 68.534 6.05026 70.1115 7.03385 69.0626Z" fill="#08D334"/>
<path d="M43.5659 59.3644H47.2627C47.2627 59.3644 46.7937 49.2908 26.6777 49.2908C26.6777 49.2908 40.4655 49.6616 43.5659 59.3644Z" fill="#D89932"/>
<path d="M44.0429 71.2642H47.3341V74.6598C47.3341 74.6598 46.768 79.9793 41.9009 79.9793C40.6787 79.9793 38.1218 79.9793 34.9785 79.9793C34.9785 79.9793 45.3151 80.8549 44.0429 71.2642Z" fill="#D89932"/>
<path d="M43.9234 64.1328H46.0325C47.0014 64.1328 47.7867 63.3473 47.7867 62.3782C47.7867 61.4096 47.0015 60.624 46.0325 60.624H7.32121C7.0523 60.624 6.79699 60.6846 6.56934 60.7926C6.56934 60.7926 40.2553 60.9832 42.0018 61.1692C44.4932 61.4343 43.9234 64.1328 43.9234 64.1328Z" fill="#CE6515"/>
<path d="M42.4534 68.7494C41.027 68.6323 40.0678 68.7316 38.0006 67.6671C35.9334 66.6026 35.4564 66.0465 31.5604 65.8869C27.6639 65.728 25.1196 69.8629 20.0306 68.8291C14.9418 67.7952 16.0551 65.8869 11.6023 65.8077C7.14981 65.728 5.45996 67.488 5.45996 67.488C7.57605 65.2302 12.009 64.6654 14.7537 65.806C16.2662 66.4343 17.4725 67.6046 19.1089 67.9591C21.2921 68.4327 23.8137 68.3537 25.802 67.2463C27.3453 66.3869 28.7643 65.5441 30.5651 65.3594C32.7087 65.1394 34.8782 65.4362 36.8042 66.4332C38.6975 67.4138 40.2112 68.4494 42.4628 68.1502C43.8943 67.9609 45.4981 67.4219 46.5476 66.3743C46.929 65.9935 47.3887 65.9768 47.7607 66.1582C47.7607 66.1585 44.5964 68.9268 42.4534 68.7494Z" fill="#0AEF3C"/>
<path opacity="0.25" d="M8.18311 72.646C8.18311 72.646 7.3881 77.239 10.6479 78.6094C10.6479 78.6094 8.26264 76.3829 9.93264 72.646H8.18311Z" fill="white"/>
<path d="M63.4714 73.8141C63.7496 69.7104 64.5478 51.9054 65.0723 39.9512C64.1239 40.3999 63.1195 40.7713 62.0862 40.9984C59.4968 41.5679 56.3028 41.2766 52.9218 40.969C49.6057 40.6671 46.1768 40.3552 43.3304 40.8923C39.8881 41.5416 36.5589 43.5737 34.5264 45.0234L34.7332 47.6745C38.7457 48.2504 48.4653 50.6929 49.4111 59.9759C49.4111 59.9759 52.4653 61.4296 49.7992 64.1327C49.7992 64.1327 53.1854 65.917 49.9657 69.5643L49.7796 74.4559C49.7796 74.4559 49.7006 78.0149 47.1759 80.0001H51.4328C51.4328 80.0001 55.47 80.0001 59.9417 80.0001H59.9651C60.2389 79.9966 63.0639 79.8182 63.4714 73.8141Z" fill="#48E4EF"/>
<path d="M59.4922 15.2202L60.9967 5.64484C60.9967 5.64484 60.9967 3.66937 62.7844 3.29281C64.572 2.91625 74.5434 0 74.5434 0C74.5434 0 76.4245 0.752656 75.672 3.01047L64.2902 6.30297L62.6905 15.0516L59.4922 15.2202Z" fill="#FE4711"/>
<path d="M61.8721 15.0944L62.6905 15.0514L64.2902 6.30285L75.6721 3.01035C75.7996 2.62863 75.8518 2.28894 75.8507 1.98988C75.8494 1.84722 63.4858 5.7741 63.4858 5.7741L61.8721 15.0944Z" fill="#C61C08"/>
<path opacity="0.46" d="M47.1938 80.0001C49.7182 78.0149 49.7975 74.4558 49.7975 74.4558L49.9657 69.5643C53.2838 65.843 49.7991 64.1327 49.7991 64.1327C52.4707 61.4072 49.411 59.9758 49.411 59.9758C48.4652 50.693 38.7633 48.2504 34.751 47.6744C34.751 47.6744 66.0113 46.7515 61.8396 79.9999H47.1938V80.0001Z" fill="#0A9BB0"/>
<path d="M15.0193 56.556C15.3606 56.556 15.6373 56.2793 15.6373 55.938C15.6373 55.5967 15.3606 55.3201 15.0193 55.3201C14.678 55.3201 14.4014 55.5967 14.4014 55.938C14.4014 56.2793 14.678 56.556 15.0193 56.556Z" fill="white"/>
<path d="M16.9966 54.6401C17.3377 54.6401 17.6142 54.3636 17.6142 54.0224C17.6142 53.6813 17.3377 53.4048 16.9966 53.4048C16.6554 53.4048 16.3789 53.6813 16.3789 54.0224C16.3789 54.3636 16.6554 54.6401 16.9966 54.6401Z" fill="white"/>
<path d="M22.9275 53.0958C23.2688 53.0958 23.5455 52.8191 23.5455 52.4778C23.5455 52.1365 23.2688 51.8599 22.9275 51.8599C22.5862 51.8599 22.3096 52.1365 22.3096 52.4778C22.3096 52.8191 22.5862 53.0958 22.9275 53.0958Z" fill="white"/>
<path d="M26.8823 53.0954C27.2234 53.0954 27.5 52.8189 27.5 52.4778C27.5 52.1366 27.2234 51.8601 26.8823 51.8601C26.5412 51.8601 26.2646 52.1366 26.2646 52.4778C26.2646 52.8189 26.5412 53.0954 26.8823 53.0954Z" fill="white"/>
<path d="M30.8364 53.0954C31.1775 53.0954 31.4541 52.8189 31.4541 52.4778C31.4541 52.1366 31.1775 51.8601 30.8364 51.8601C30.4953 51.8601 30.2188 52.1366 30.2188 52.4778C30.2188 52.8189 30.4953 53.0954 30.8364 53.0954Z" fill="white"/>
<path d="M21.0123 54.6402C21.3536 54.6402 21.6302 54.3636 21.6302 54.0224C21.6302 53.6811 21.3536 53.4045 21.0123 53.4045C20.6711 53.4045 20.3945 53.6811 20.3945 54.0224C20.3945 54.3636 20.6711 54.6402 21.0123 54.6402Z" fill="white"/>
<path d="M25.0288 54.6401C25.3699 54.6401 25.6464 54.3636 25.6464 54.0224C25.6464 53.6813 25.3699 53.4048 25.0288 53.4048C24.6877 53.4048 24.4111 53.6813 24.4111 54.0224C24.4111 54.3636 24.6877 54.6401 25.0288 54.6401Z" fill="white"/>
<path d="M29.0444 54.6401C29.3855 54.6401 29.6621 54.3636 29.6621 54.0224C29.6621 53.6813 29.3855 53.4048 29.0444 53.4048C28.7033 53.4048 28.4268 53.6813 28.4268 54.0224C28.4268 54.3636 28.7033 54.6401 29.0444 54.6401Z" fill="white"/>
<path d="M33.0613 54.6402C33.4026 54.6402 33.6793 54.3636 33.6793 54.0223C33.6793 53.681 33.4026 53.4043 33.0613 53.4043C32.72 53.4043 32.4434 53.681 32.4434 54.0223C32.4434 54.3636 32.72 54.6402 33.0613 54.6402Z" fill="white"/>
<path d="M37.077 54.6402C37.4182 54.6402 37.6949 54.3636 37.6949 54.0223C37.6949 53.681 37.4182 53.4043 37.077 53.4043C36.7357 53.4043 36.459 53.681 36.459 54.0223C36.459 54.3636 36.7357 54.6402 37.077 54.6402Z" fill="white"/>
<path d="M18.9733 56.5559C19.3145 56.5559 19.5911 56.2793 19.5911 55.9381C19.5911 55.5969 19.3145 55.3203 18.9733 55.3203C18.6321 55.3203 18.3555 55.5969 18.3555 55.9381C18.3555 56.2793 18.6321 56.5559 18.9733 56.5559Z" fill="white"/>
<path d="M22.9275 56.556C23.2688 56.556 23.5455 56.2793 23.5455 55.938C23.5455 55.5967 23.2688 55.3201 22.9275 55.3201C22.5862 55.3201 22.3096 55.5967 22.3096 55.938C22.3096 56.2793 22.5862 56.556 22.9275 56.556Z" fill="white"/>
<path d="M26.8823 56.5559C27.2234 56.5559 27.5 56.2793 27.5 55.9382C27.5 55.5971 27.2234 55.3206 26.8823 55.3206C26.5412 55.3206 26.2646 55.5971 26.2646 55.9382C26.2646 56.2793 26.5412 56.5559 26.8823 56.5559Z" fill="white"/>
<path d="M30.8364 56.5559C31.1775 56.5559 31.4541 56.2793 31.4541 55.9382C31.4541 55.5971 31.1775 55.3206 30.8364 55.3206C30.4953 55.3206 30.2188 55.5971 30.2188 55.9382C30.2188 56.2793 30.4953 56.5559 30.8364 56.5559Z" fill="white"/>
<path d="M34.7908 56.556C35.1321 56.556 35.4088 56.2793 35.4088 55.938C35.4088 55.5967 35.1321 55.3201 34.7908 55.3201C34.4495 55.3201 34.1729 55.5967 34.1729 55.938C34.1729 56.2793 34.4495 56.556 34.7908 56.556Z" fill="white"/>
<path d="M38.7457 56.5559C39.087 56.5559 39.3636 56.2793 39.3636 55.9381C39.3636 55.5969 39.087 55.3203 38.7457 55.3203C38.4045 55.3203 38.1279 55.5969 38.1279 55.9381C38.1279 56.2793 38.4045 56.5559 38.7457 56.5559Z" fill="white"/>
<path d="M73.2548 24.3033C73.2548 25.4198 72.3506 26.3244 71.2345 26.3244H31.6303C30.5139 26.3244 29.6094 25.4198 29.6094 24.3033C29.6094 23.1873 30.5139 22.283 31.6303 22.283H71.2345C72.3506 22.283 73.2548 23.1873 73.2548 24.3033Z" fill="#E2E5E7"/>
<path d="M68.9455 21.5668L65.038 15.9092C65.038 15.9092 56.417 15.9092 54.5308 16.7175C52.6442 17.5259 47.6597 18.7382 46.1784 18.7382C44.6973 18.7382 38.9036 18.7382 38.9036 18.7382C38.9036 18.7382 36.2105 18.604 35.5356 19.5465C34.862 20.4892 33.7852 21.567 33.7852 21.567H68.9455V21.5668Z" fill="#E2E5E7"/>
<path d="M53.1014 38.9851C56.3256 39.2782 59.37 39.5554 61.6586 39.0528C62.8823 38.7839 64.0762 38.2695 65.1717 37.6606C65.4006 32.4289 65.5565 28.7842 65.5565 28.7842L33.2646 28.8592L34.3462 42.7206C36.5429 41.2614 39.6603 39.5575 42.9604 38.9347C46.0806 38.3461 49.65 38.6712 53.1014 38.9851Z" fill="#48E4EF"/>
<path d="M33.2638 28.8594H33.2644L33.1455 27.3398L33.2638 28.8594Z" fill="#0A9BB0"/>
<path d="M65.0719 39.9514C64.5473 51.9056 63.7492 69.7106 63.4709 73.8144C63.0636 79.8184 60.2384 79.9967 59.9648 80.0003H61.8212C66.9723 80.0003 66.1133 73.5297 66.1133 73.5297L68.9203 37.5759C67.8355 38.3994 66.5198 39.2664 65.0719 39.9514Z" fill="#0A9BB0"/>
<path d="M65.1714 37.6606C66.7819 36.7652 68.1777 35.6633 69.1344 34.8236L69.7188 27.3398H51.4322H33.1455L33.2646 28.8595L65.5138 29.7773C65.5136 29.7772 65.4004 32.4289 65.1714 37.6606Z" fill="#0A9BB0"/>
<path d="M34.2927 21.0371C33.9979 21.3554 33.7861 21.5668 33.7861 21.5668H68.9463L65.0388 15.9092L63.6313 15.9221L66.2747 20.0471L34.2927 21.0371Z" fill="#D1D5D5"/>
<path d="M67.6719 26.3244H71.2348C72.3509 26.3244 73.2552 25.4198 73.2552 24.3033C73.2552 23.1873 72.3509 22.283 71.2348 22.283H67.9575C67.9575 22.283 68.8614 22.5723 68.8614 24.3033C68.8616 26.0347 67.6719 26.3244 67.6719 26.3244Z" fill="#D1D5D5"/>
</g>
<defs>
<clipPath id="clip0_2492_1925">
<rect width="80" height="80" fill="white" transform="translate(0.5)"/>
</clipPath>
</defs>
</svg>
