<svg width="81" height="80" viewBox="0 0 81 80" fill="none" xmlns="http://www.w3.org/2000/svg">
<path d="M57.1245 73.3567C56.4989 73.3315 56.0478 72.8919 56.0488 72.3031C56.0499 71.7227 56.5199 71.2527 57.1003 71.2527H57.1234C61.0686 71.2527 64.7772 69.7154 67.5699 66.9227C70.3679 64.1247 71.9051 60.413 71.8978 56.472C71.8967 55.8916 72.3667 55.4195 72.9472 55.4185H72.9493C73.5297 55.4185 73.9997 55.8885 74.0007 56.4689C74.0081 60.9734 72.2521 65.214 69.0567 68.4095C65.8675 71.6007 61.6311 73.3567 57.1245 73.3567Z" fill="#19468F"/>
<path d="M57.1259 68.0238C56.5518 68.0459 56.0566 67.558 56.0576 66.9702C56.0587 66.3898 56.5287 65.9198 57.1091 65.9198H57.1259C59.6453 65.9198 62.0153 64.9377 63.7997 63.1523C65.5882 61.3637 66.5703 58.9884 66.5682 56.4628C66.5672 55.8823 67.0372 55.4102 67.6186 55.4092C68.1991 55.4092 68.6701 55.8792 68.6712 56.4596C68.6754 59.5478 67.4735 62.453 65.2865 64.6391C63.1046 66.823 60.2068 68.0238 57.1259 68.0238Z" fill="#19468F"/>
<path d="M8.05053 24.3066C7.47011 24.3066 7.0001 23.8366 6.99905 23.2562C6.99169 18.7411 8.74871 14.4942 11.9452 11.2967C15.1406 8.10015 19.4296 6.34103 23.8858 6.3526C24.4662 6.35365 24.9362 6.82576 24.9352 7.40618C24.9341 7.98765 24.4431 8.42716 23.8816 8.45555C23.8721 8.45555 23.8627 8.45555 23.8543 8.45555C19.9249 8.45555 16.2247 9.99177 13.432 12.7834C10.634 15.5825 9.0957 19.2995 9.102 23.252C9.10306 23.8334 8.63199 24.3055 8.05053 24.3066Z" fill="#19468F"/>
<path d="M13.3825 24.2971C12.8021 24.2971 12.3321 23.8271 12.3311 23.2467C12.3269 20.1585 13.5287 17.2543 15.7158 15.0673C17.8986 12.8854 20.7955 11.6836 23.8774 11.6836C24.4904 11.6952 24.9467 12.1504 24.9457 12.7372C24.9446 13.3176 24.4746 13.7876 23.8942 13.7876C23.8889 13.7876 23.8837 13.7876 23.8774 13.7876C21.358 13.7876 18.988 14.7697 17.2036 16.5551C15.4151 18.3437 14.433 20.719 14.4351 23.2436C14.4351 23.825 13.9651 24.2971 13.3825 24.2971Z" fill="#19468F"/>
<path d="M70.6315 43.4497L45.5474 68.5338C43.1385 70.9533 40.1102 72.5936 36.7865 73.2875V73.2665C34.3565 73.7817 31.8329 73.7712 29.403 73.2455V73.256C26.1423 72.541 23.1866 70.9207 20.7998 68.5338L12.8064 60.5405C8.2304 55.976 6.55855 49.298 8.42072 43.1132C9.80867 38.5172 12.3438 34.2892 15.7411 30.8919L21.2099 25.4126C23.3454 23.2771 26.3106 22.2151 29.3083 22.5095L33.2735 22.888L27.4998 28.6617L25.3432 30.8183C25.3117 30.8498 25.3117 30.8814 25.2801 30.9129C25.2381 30.9445 25.175 30.976 25.1329 31.0181C24.7439 31.4492 24.7859 32.1116 25.217 32.5007C25.2486 32.5322 28.8036 35.8034 28.8667 39.8947C28.8983 42.1143 27.8783 44.2278 25.8479 46.1741C25.4273 46.5737 25.4063 47.2361 25.8164 47.6567C26.0162 47.8775 26.2896 47.9827 26.5735 47.9827C26.8363 47.9827 27.0992 47.888 27.299 47.6882C29.7815 45.3214 31.0117 42.6821 30.9697 39.8526C30.9066 36.1293 28.6343 33.1105 27.4041 31.7331L30.139 28.9982L36.3343 22.8039L47.9448 11.203C49.4799 9.65728 52.1517 9.65728 53.6869 11.203C54.465 11.9705 54.8856 12.9905 54.8856 14.0745C54.8856 15.1576 54.465 16.1786 53.6974 16.9461H53.6869C53.6448 16.9987 53.6133 17.0618 53.5817 17.1144L36.9757 33.7214C36.5657 34.1315 36.5657 34.8045 36.9757 35.2145C37.186 35.4143 37.4489 35.5195 37.7223 35.5195C37.9852 35.5195 38.2585 35.4143 38.4583 35.2145L55.5701 18.1028C55.6121 18.0607 55.6437 17.9976 55.6752 17.945L58.4417 15.1786C60.0294 13.5909 62.6066 13.5909 64.1943 15.1786C64.9619 15.9462 65.3825 16.9661 65.3825 18.0502C65.3825 19.1437 64.9619 20.1647 64.1943 20.9323L61.2912 23.8354L44.1899 40.9367C43.7799 41.3468 43.7799 42.0092 44.1899 42.4193C44.3897 42.6296 44.6631 42.7347 44.926 42.7347C45.1994 42.7347 45.4727 42.6296 45.6725 42.4193L62.4163 25.686C62.4163 25.686 62.4163 25.686 62.4163 25.6755H62.4268C63.9619 24.1404 66.6443 24.1404 68.1689 25.6755C68.9365 26.4431 69.3676 27.4735 69.3676 28.5576C69.3676 29.6406 68.9365 30.6616 68.1689 31.4292L63.3941 36.2145L51.4262 48.1824C51.0161 48.5925 51.0161 49.2549 51.4262 49.665C51.6365 49.8648 51.8994 49.9699 52.1728 49.9699C52.4461 49.9699 52.709 49.8648 52.9193 49.665L64.8778 37.6971C66.4655 36.1199 69.0427 36.1199 70.6304 37.6971C71.398 38.4752 71.8186 39.4951 71.8186 40.5792C71.8196 41.6622 71.3991 42.6821 70.6315 43.4497Z" fill="#FFCBBE"/>
<path d="M70.6317 37.6972C70.2321 37.3081 69.78 37.0137 69.2963 36.8245L45.5476 60.5721C43.1386 62.9916 40.1104 64.6319 36.7867 65.3259V65.3048C34.3567 65.8201 31.8331 65.8095 29.4032 65.2838V65.2943C26.1425 64.5793 23.1868 62.959 20.8 60.5721L12.8066 52.5788C10.4503 50.2224 8.86253 47.3098 8.13701 44.1964C6.75957 50.0647 8.49451 56.239 12.8066 60.5406L20.8 68.5339C23.1879 70.9218 26.1425 72.5411 29.4032 73.2561V73.2456C31.8331 73.7713 34.3567 73.7819 36.7867 73.2666V73.2877C40.1104 72.5937 43.1397 70.9523 45.5476 68.5339L70.6317 43.4498C71.3992 42.6823 71.8198 41.6623 71.8198 40.5782C71.8198 39.4952 71.3992 38.4753 70.6317 37.6972Z" fill="#EAAC9D"/>
</svg>
