<svg width="81" height="80" viewBox="0 0 81 80" fill="none" xmlns="http://www.w3.org/2000/svg">
<path fill-rule="evenodd" clip-rule="evenodd" d="M46.5098 64.9462L67.2873 70.5135C69.1599 62.8637 72.4898 60.5565 77.0834 55.963C78.4715 54.5751 79.1718 52.884 79.172 50.9207L79.1715 20.8744C79.1718 18.7105 77.4004 16.9393 75.2355 16.939C73.0712 16.9388 71.2995 18.7097 71.2995 20.8751L71.2998 36.9187C70.732 35.7605 69.6876 34.8426 68.3515 34.4844C65.9015 33.828 63.3521 35.2997 62.6957 37.7497L61.4323 42.4655C60.8776 44.5357 59.6624 46.1193 57.8066 47.1908L51.5201 50.8204C47.898 52.9115 49.4695 58.2912 46.5099 64.9463L46.5098 64.9462Z" fill="#FECBAA"/>
<path fill-rule="evenodd" clip-rule="evenodd" d="M69.5635 47.8005C69.154 49.3288 68.3754 50.748 67.2516 51.8679C66.724 52.3963 65.8677 52.3968 65.3391 51.8691C64.8107 51.3415 64.8101 50.4852 65.3377 49.9566C66.1524 49.1447 66.6546 48.2052 66.9513 47.0985C67.6352 44.5457 68.3194 41.9929 69.0033 39.4402C69.5391 37.4408 68.6621 35.3807 66.9916 34.3308C67.4394 34.3141 67.8965 34.3627 68.3504 34.4843C70.8037 35.1416 72.2732 37.6868 71.6157 40.1402C70.9318 42.6936 70.2476 45.2472 69.5635 47.8005Z" fill="#FECBAA"/>
<path fill-rule="evenodd" clip-rule="evenodd" d="M46.5098 64.9459L56.1246 67.5222C61.6727 64.084 66.4773 59.2669 69.9693 53.2184C76.4252 42.0364 76.9987 29.074 72.6541 17.9097C71.8254 18.6328 71.2996 19.695 71.2995 20.8748L71.2998 36.9184C70.7318 35.7603 69.6876 34.8423 68.3515 34.4842C65.9016 33.8279 63.3523 35.2995 62.6957 37.7495L61.4323 42.4653C60.8776 44.5354 59.6624 46.119 57.8065 47.1904L51.5199 50.82C47.8979 52.9112 49.4693 58.2908 46.5098 64.9461V64.9459Z" fill="#FEDFC5"/>
<path fill-rule="evenodd" clip-rule="evenodd" d="M69.5635 47.8005C69.1538 49.3288 68.3753 50.748 67.2516 51.8679C66.7239 52.3963 65.8677 52.3968 65.3391 51.8691C64.8107 51.3413 64.81 50.4852 65.3379 49.9566C66.1525 49.1447 66.6547 48.2052 66.9514 47.0985C67.6355 44.5457 68.3196 41.9929 69.0036 39.4402C69.5394 37.4408 68.6625 35.3805 66.9919 34.3308C67.4397 34.3141 67.8968 34.3626 68.3507 34.4843C70.8041 35.1416 72.2733 37.6869 71.616 40.1402C70.9318 42.694 70.2477 45.2472 69.5635 47.8005Z" fill="#FECBAA"/>
<path fill-rule="evenodd" clip-rule="evenodd" d="M45.4042 63.789L68.5994 70.0042C69.057 70.1269 69.3311 70.6016 69.2086 71.0592L68.2794 74.5273C68.1569 74.9848 67.6819 75.2589 67.2244 75.1364L44.0291 68.9212C43.5714 68.7987 43.2973 68.3237 43.4198 67.8662L44.3491 64.3983C44.4716 63.9405 44.9464 63.6664 45.4042 63.789Z" fill="#0A9AB0"/>
<path fill-rule="evenodd" clip-rule="evenodd" d="M45.4041 63.789L57.0726 66.9156C54.8848 68.3564 52.5726 69.5764 50.1717 70.567L44.0291 68.9211C43.5716 68.7986 43.2973 68.3236 43.4198 67.8661L44.3491 64.3981C44.4714 63.9406 44.9464 63.6664 45.4041 63.789Z" fill="#08C1D2"/>
<path fill-rule="evenodd" clip-rule="evenodd" d="M34.4905 64.9462L13.713 70.5133C11.8403 62.8635 8.51047 60.5563 3.91672 55.9629C2.52859 54.5751 1.82828 52.884 1.82812 50.9207L1.82859 20.8744C1.82828 18.7105 3.59969 16.9393 5.76453 16.939C7.92891 16.9388 9.70063 18.7097 9.70063 20.8751L9.70031 36.9187C10.2681 35.7605 11.3125 34.8426 12.6486 34.4844C15.0986 33.828 17.648 35.2997 18.3044 37.7497L19.5678 42.4655C20.1225 44.5357 21.3377 46.1193 23.1934 47.1908L29.48 50.8204C33.102 52.9115 31.5306 58.2912 34.4902 64.9463L34.4905 64.9462Z" fill="#FECBAA"/>
<path fill-rule="evenodd" clip-rule="evenodd" d="M11.4357 47.8005C11.8454 49.3288 12.6238 50.748 13.7476 51.8679C14.2752 52.3963 15.1315 52.3968 15.6601 51.8691C16.1885 51.3415 16.1891 50.4852 15.6615 49.9566C14.8468 49.1447 14.3446 48.2052 14.0479 47.0985C13.364 44.5457 12.6798 41.9929 11.9958 39.4402C11.4601 37.4408 12.3369 35.3807 14.0076 34.3308C13.5598 34.3141 13.1027 34.3627 12.6488 34.4843C10.1955 35.1416 8.726 37.6868 9.3835 40.1402C10.0674 42.6936 10.7516 45.2472 11.4357 47.8005Z" fill="#FECBAA"/>
<path fill-rule="evenodd" clip-rule="evenodd" d="M34.4906 64.9459L24.8758 67.5222C19.3275 64.084 14.5231 59.2669 11.0311 53.2184C4.57513 42.0364 4.00169 29.074 8.34622 17.9097C9.17497 18.6328 9.70091 19.695 9.70091 20.8748L9.7006 36.9184C10.2684 35.7603 11.3128 34.8423 12.6489 34.4842C15.0987 33.8279 17.6481 35.2995 18.3047 37.7495L19.5681 42.4653C20.1228 44.5354 21.3379 46.119 23.1939 47.1904L29.4804 50.82C33.1025 52.9112 31.5311 58.2908 34.4906 64.9461V64.9459Z" fill="#FEDFC5"/>
<path fill-rule="evenodd" clip-rule="evenodd" d="M11.4358 47.8005C11.8455 49.3288 12.6239 50.748 13.7477 51.8679C14.2753 52.3963 15.1316 52.3968 15.6602 51.8691C16.1886 51.3413 16.1892 50.4852 15.6614 49.9566C14.8467 49.1447 14.3446 48.2052 14.0478 47.0985C13.3638 44.5457 12.6797 41.9929 11.9958 39.4402C11.46 37.4408 12.3369 35.3805 14.0075 34.3308C13.5599 34.3141 13.1027 34.3626 12.6488 34.4843C10.1953 35.1416 8.72612 37.6869 9.38346 40.1402C10.0674 42.694 10.7516 45.2472 11.4358 47.8005Z" fill="#FECBAA"/>
<path fill-rule="evenodd" clip-rule="evenodd" d="M35.5953 63.789L12.4002 70.0042C11.9425 70.1269 11.6684 70.6016 11.7909 71.0592L12.7202 74.5273C12.8427 74.9848 13.3177 75.2589 13.7753 75.1364L36.9705 68.9212C37.4281 68.7987 37.7022 68.3237 37.5797 67.8662L36.6505 64.3983C36.528 63.9405 36.0531 63.6664 35.5953 63.789Z" fill="#0A9AB0"/>
<path fill-rule="evenodd" clip-rule="evenodd" d="M35.5954 63.789L23.9268 66.9156C26.1146 68.3564 28.4268 69.5764 30.8277 70.567L36.9704 68.9211C37.4279 68.7986 37.7021 68.3236 37.5796 67.8661L36.6504 64.3981C36.528 63.9406 36.053 63.6664 35.5954 63.789Z" fill="#08C1D2"/>
<path fill-rule="evenodd" clip-rule="evenodd" d="M40.5 49.0649C49.6487 39.8685 60.7737 33.6401 63.3879 20.4738C65.9883 7.3774 50.1201 -1.64619 40.5 10.6951C30.8798 -1.64619 15.0117 7.3774 17.612 20.4738C20.2262 33.6402 31.3511 39.8685 40.5 49.0649Z" fill="#FE4711"/>
<path fill-rule="evenodd" clip-rule="evenodd" d="M56.9567 33.4323C59.9965 29.7874 62.3556 25.6712 63.3876 20.4732C65.9881 7.3768 50.1201 -1.64664 40.4998 10.6946C35.6956 4.53164 29.3336 3.69696 24.4912 6.03649C27.2782 21.5023 40.7282 33.2613 56.9567 33.4323Z" fill="#FF7F50"/>
<path fill-rule="evenodd" clip-rule="evenodd" d="M64.649 25.945C65.2962 25.945 65.8209 26.4697 65.8209 27.1168C65.8209 27.764 65.2962 28.2887 64.649 28.2887H51.4068C50.9384 28.2887 50.5342 28.0137 50.3467 27.6165L47.269 22.2258L42.5846 36.9158C42.39 37.5301 41.7342 37.8703 41.1198 37.6756C40.7589 37.5612 40.4926 37.2876 40.3739 36.9568L33.5329 17.8778L30.7146 27.4462C30.565 27.9558 30.0987 28.2861 29.5931 28.2859V28.2886H16.3506C15.7034 28.2886 15.1787 27.7639 15.1787 27.1167C15.1787 26.4695 15.7034 25.9448 16.3506 25.9448H28.7196L32.3015 13.784L32.3034 13.7845C32.4051 13.4392 32.6646 13.1456 33.0295 13.015C33.6362 12.7976 34.3045 13.1133 34.5218 13.72L41.4078 32.9251L45.8357 19.0393C45.9131 18.7458 46.104 18.4825 46.3889 18.3208C46.9501 18.0022 47.6634 18.1989 47.9818 18.7601L52.0836 25.9448L64.649 25.945Z" fill="#EEF8FF"/>
</svg>
