<svg width="81" height="80" viewBox="0 0 81 80" fill="none" xmlns="http://www.w3.org/2000/svg">
<g clip-path="url(#clip0_2495_326)">
<path d="M61.4508 70.5029C60.7409 71.2127 59.8122 71.567 58.8834 71.567C57.9531 71.567 57.0227 71.2127 56.3144 70.5029C57.7325 71.921 57.7325 74.2196 56.3144 75.6393C55.6061 76.3476 54.6758 76.7034 53.7453 76.7034C52.8166 76.7034 51.8878 76.3476 51.178 75.6393L48.8166 73.2779C50.2347 74.696 50.2347 76.9962 48.8166 78.4143C48.1083 79.1226 47.178 79.4782 46.2492 79.4782C45.3205 79.4782 44.3917 79.1224 43.6819 78.4159V78.4143H43.6803C35.4614 84.5729 17.6988 63.7423 12.9053 57.8156L11.0977 49.579L21.9966 36.8304C29.8034 34.9954 37.1756 36.1834 37.1756 36.1834L50.5953 44.6245L61.4508 65.3665C62.8689 66.7846 62.8689 69.0849 61.4508 70.5029Z" fill="#FFCBBE"/>
<path d="M43.6803 78.4144C35.4614 84.573 17.6987 63.7424 12.9053 57.8157L14.8481 53.3296C21.8276 63.4512 31.9282 74.2182 37.8807 72.6133L43.6803 78.4144Z" fill="#EAAC9D"/>
<path d="M68.8764 56.3895C68.3533 57.9862 68.0731 59.5284 68.73 60.8724V60.874C65.7763 65.1751 62.4878 66.9601 62.396 67.0101C62.2381 66.4081 61.9227 65.8382 61.4511 65.3666L42.6422 46.5577C40.3163 47.3337 37.8406 49.4116 36.0394 51.179C35.1556 52.0451 33.9983 52.4876 32.833 52.4876C31.88 52.4876 30.9224 52.1913 30.1078 51.5895C30.0467 51.5445 29.9855 51.4977 29.9275 51.4495C29.926 51.4479 29.9242 51.4462 29.9227 51.4446C28.2777 50.0957 27.7641 47.7729 28.7299 45.8559C32.6333 38.1021 39.101 34.8393 41.1 33.9846C41.488 33.8188 41.9064 33.7384 42.3281 33.7545C44.2661 33.8237 46.1833 34.2132 48.0055 34.7879C54.1657 36.7259 59.2522 40.779 60.4369 41.7706C61.4944 44.544 69.1516 45.9187 70.3138 48.647C71.2877 50.9312 69.7457 53.7335 68.8764 56.3895Z" fill="#A55E4D"/>
<path d="M68.7291 60.8723V60.8738C65.7754 65.1749 62.487 66.9599 62.3951 67.0099C62.2373 66.4079 61.9218 65.8381 61.4502 65.3665L50.041 53.9573C54.0555 57.9718 62.7412 59.6877 66.7573 56.7323C67.2949 56.3379 68.0209 56.2477 68.8755 56.3895C68.3526 57.986 68.0724 59.5282 68.7291 60.8723Z" fill="#904F40"/>
<path d="M29.9227 51.4446C28.2777 50.0957 27.7641 47.7729 28.7299 45.8559C32.6333 38.1021 39.101 34.8393 41.1 33.9846C41.488 33.8188 41.9064 33.7384 42.3281 33.7545C44.2661 33.8237 46.1833 34.2132 48.0055 34.7879C39.4519 34.7927 27.4116 48.977 29.9227 51.4446Z" fill="#904F40"/>
<path d="M62.077 69.6638C61.9145 69.9648 61.7052 70.2482 61.4509 70.5024C60.7411 71.2123 59.8123 71.5665 58.8836 71.5665C57.9533 71.5665 57.0228 71.2123 56.3145 70.5024L44.3164 58.5041C44.8417 57.5601 46.1242 57.381 46.8881 58.1449L57.7792 69.0376C58.4875 69.7474 59.4178 70.1015 60.3483 70.1015C60.9437 70.1016 61.5394 69.9568 62.077 69.6638Z" fill="#EAAC9D"/>
<path d="M49.5021 77.4657C49.33 77.8085 49.1029 78.1288 48.8181 78.4138C48.1098 79.1221 47.1795 79.4777 46.249 79.4777C45.3203 79.4777 44.3915 79.1219 43.6817 78.4138L33.9287 68.6592C35.0939 67.9172 36.6182 68.0842 37.595 69.0611L45.3154 76.7816C46.0237 77.4899 46.954 77.8457 47.8828 77.8457C48.4382 77.8457 48.9936 77.7185 49.5021 77.4657Z" fill="#EAAC9D"/>
<path d="M56.9135 74.8452C56.7557 75.13 56.5546 75.3972 56.313 75.6388C55.6032 76.3471 54.6745 76.7028 53.7457 76.7028C52.8154 76.7028 51.8849 76.3471 51.1766 75.6388L40.2051 64.665C41.0541 63.9422 42.316 63.993 43.1045 64.7814L50.2076 71.885L52.5673 74.2464C53.2771 74.9563 54.2059 75.3105 55.1363 75.3105C55.7498 75.3103 56.363 75.1558 56.9135 74.8452Z" fill="#EAAC9D"/>
<path d="M69.5917 62.6172C65.8698 55.1675 62.5175 47.4299 59.6279 39.6191C63.049 37.14 66.8871 35.4772 71.0357 34.6768C74.7578 42.1266 78.1101 49.8643 80.9996 57.6749C77.5784 60.1538 73.7403 61.8168 69.5917 62.6172Z" fill="#3FA1FF"/>
<path d="M80.9997 57.6747C77.563 60.167 73.7609 61.8141 69.592 62.6176C68.6184 60.6675 67.6744 58.7058 66.7578 56.7326C71.1 55.8886 75.0683 54.1847 78.6628 51.6189C79.47 53.6262 80.2495 55.6447 80.9997 57.6747Z" fill="#19468F"/>
<path d="M12.4078 58.8225C8.25938 58.0221 4.42125 56.3593 1 53.8802C3.88938 46.0697 7.24172 38.3319 10.9639 30.8821C15.1123 31.6825 18.9505 33.3454 22.3717 35.8244C19.4822 43.6352 16.1298 51.3729 12.4078 58.8225Z" fill="#48E4EF"/>
<path d="M1 53.8802C4.43672 56.3726 8.23875 58.0196 12.4077 58.8232C13.3813 56.8731 14.3253 54.9113 15.2419 52.9382C10.8997 52.0942 6.93141 50.3902 3.33687 47.8245C2.52969 49.8317 1.75016 51.8502 1 53.8802Z" fill="#0A9BB0"/>
<path d="M40.6371 35.1448C20.1129 27.6116 17.708 11.5952 21.4907 5.13579C24.1016 0.677853 30.1266 -0.369361 35.0597 2.43683C35.0656 2.44008 35.0721 2.44348 35.078 2.44766C35.1236 2.47334 35.1702 2.49996 35.2159 2.52734C35.2225 2.53059 35.2292 2.53477 35.2358 2.53895C37.3808 3.80542 39.3068 5.80933 40.6371 8.58813C44.3244 0.889679 52.5792 -0.863415 57.4001 2.53895C58.3477 3.20754 59.1624 4.07527 59.7836 5.13579C63.5663 11.5952 61.1613 27.6116 40.6371 35.1448Z" fill="#FF7440"/>
<path d="M40.6371 35.1448C20.1129 27.6116 17.708 11.5952 21.4907 5.13579C24.1016 0.677853 30.1266 -0.369361 35.0597 2.43683C29.8668 -0.418256 21.8722 11.1362 28.1668 20.5344C33.0524 27.8287 40.6371 35.1448 40.6371 35.1448Z" fill="#ED561E"/>
</g>
<defs>
<clipPath id="clip0_2495_326">
<rect width="80" height="80" fill="white" transform="translate(0.5)"/>
</clipPath>
</defs>
</svg>
