<svg width="81" height="80" viewBox="0 0 81 80" fill="none" xmlns="http://www.w3.org/2000/svg">
<path d="M77.8281 35.1875V70.75C77.8281 75.1719 74.25 78.75 69.8281 78.75H11.1719C6.75 78.75 3.17188 75.1719 3.17188 70.75V35.1875L34.8594 3.59375C37.9844 0.484375 43.0312 0.484375 46.1562 3.59375L77.8281 35.1875Z" fill="#1B7CF5"/>
<path d="M17.4219 10.1719H63.6406C68.0625 10.1719 71.6406 13.75 71.6406 18.1719V64.3906C71.6406 68.8125 68.0625 72.3906 63.6406 72.3906H17.4219C13 72.3906 9.42188 68.8125 9.42188 64.3906V18.1719C9.42188 13.75 13 10.1719 17.4219 10.1719Z" fill="#F4EEE6"/>
<path d="M77.8281 35.1875V70.75C77.8281 75.1719 74.25 78.75 69.8281 78.75H11.1719C6.75 78.75 3.17188 75.1719 3.17188 70.75V35.2813L40.4531 72.5625L77.8281 35.1875Z" fill="#3FA1FF"/>
<path d="M75.5156 76.375C74.25 77.6406 72.5625 78.5 70.6875 78.7031L10.875 78.7344C8.76562 78.6562 6.85938 77.7656 5.48438 76.375L34.8438 47.0156C37.9688 43.8906 43.0313 43.8906 46.1563 47.0156L75.5156 76.375Z" fill="#59BAFF"/>
<path d="M59.6406 20.75H21.4219C20.6875 20.75 20.0938 20.1563 20.0938 19.4219C20.0938 18.6875 20.6875 18.0938 21.4219 18.0938H59.6406C60.375 18.0938 60.9688 18.6875 60.9688 19.4219C60.9688 20.1563 60.375 20.75 59.6406 20.75ZM60.9688 27.4219C60.9688 26.6875 60.375 26.0938 59.6406 26.0938H21.4219C20.6875 26.0938 20.0938 26.6875 20.0938 27.4219C20.0938 28.1562 20.6875 28.75 21.4219 28.75H59.6406C60.375 28.75 60.9688 28.1562 60.9688 27.4219ZM60.9688 35.4219C60.9688 34.6875 60.375 34.0938 59.6406 34.0938H21.4219C20.6875 34.0938 20.0938 34.6875 20.0938 35.4219C20.0938 36.1562 20.6875 36.75 21.4219 36.75H59.6406C60.375 36.75 60.9688 36.1562 60.9688 35.4219Z" fill="#BCB3AA"/>
</svg>
