<svg width="81" height="80" viewBox="0 0 81 80" fill="none" xmlns="http://www.w3.org/2000/svg">
<g clip-path="url(#clip0_2495_295)">
<path d="M70.5308 5.87481L8.42141 13.0311C3.51516 13.5936 -0.000467598 18.0311 0.562032 22.9373C0.577657 23.1092 0.608907 23.2811 0.640157 23.4529L5.43703 50.9998C6.12453 54.9217 9.32766 57.9217 13.2964 58.3592L21.0777 59.1873L37.9683 73.5936C39.8433 75.2029 42.6558 73.3436 41.937 70.9842L38.8589 61.0936L60.312 63.3904C64.7183 63.8592 68.812 61.0311 69.9214 56.7342L80.2027 16.9998C81.7808 10.9217 76.7652 5.15606 70.5308 5.87481Z" fill="#59BAFF"/>
<path d="M64.1561 59.5469L17.1249 54.5H17.0936C16.9374 54.4844 16.7967 54.4687 16.6405 54.4375L16.5155 54.4219C16.1874 54.3594 15.8749 54.2812 15.5467 54.1875L15.453 54.1562C15.2967 54.1094 15.1405 54.0469 14.9842 54C11.9999 52.8906 9.828 50.2812 9.28112 47.1406L4.48425 19.5938C4.1405 17.6719 4.453 15.6875 5.34362 13.9531C1.87487 15.75 -0.0313799 19.5938 0.640495 23.4531L5.43737 51C6.12487 54.9219 9.328 57.9219 13.2967 58.3594L21.078 59.1875L37.9686 73.5938C39.8436 75.2031 42.6561 73.3438 41.9374 70.9844L38.8592 61.0938L60.3124 63.3906C63.9842 63.7813 67.5311 61.875 69.2186 58.5938C67.6561 59.4062 65.9061 59.7344 64.1561 59.5469Z" fill="#1B7CF5"/>
<path d="M56.7812 38.7183C59.5858 38.7183 61.8594 36.4447 61.8594 33.6401C61.8594 30.8356 59.5858 28.562 56.7812 28.562C53.9767 28.562 51.7031 30.8356 51.7031 33.6401C51.7031 36.4447 53.9767 38.7183 56.7812 38.7183Z" fill="#E4EAD3"/>
<path d="M45.4969 34.4542C45.9456 31.6861 44.0654 29.0783 41.2973 28.6296C38.5292 28.1809 35.9214 30.0611 35.4727 32.8292C35.0239 35.5973 36.9042 38.2051 39.6723 38.6538C42.4404 39.1025 45.0481 37.2223 45.4969 34.4542Z" fill="#E4EAD3"/>
<path d="M24.2188 38.7183C27.0233 38.7183 29.2969 36.4447 29.2969 33.6401C29.2969 30.8356 27.0233 28.562 24.2188 28.562C21.4142 28.562 19.1406 30.8356 19.1406 33.6401C19.1406 36.4447 21.4142 38.7183 24.2188 38.7183Z" fill="#E4EAD3"/>
</g>
<defs>
<clipPath id="clip0_2495_295">
<rect width="80" height="80" fill="white" transform="translate(0.5)"/>
</clipPath>
</defs>
</svg>
