<svg width="81" height="80" viewBox="0 0 81 80" fill="none" xmlns="http://www.w3.org/2000/svg">
<g clip-path="url(#clip0_2510_467)">
<path d="M78.6132 48.388L56.1254 51.4067L31.751 48.388C31.751 39.8208 31.751 39.8302 31.7604 38.4819L31.7666 37.5475C31.7713 36.8538 32.0822 36.1975 32.6166 35.7553C34.0088 34.6038 35.2838 33.4272 36.4416 32.2194C42.0963 26.3366 45.0354 19.7196 45.6104 11.7274C45.8527 8.36658 49.1311 6.08986 52.3619 7.04299C56.1213 8.15549 58.9666 10.3883 60.5916 13.5008C62.4244 17.0102 62.6713 21.5336 61.3338 26.9803L73.3024 26.9819C79.4883 26.9819 82.7258 34.335 78.6118 38.9036C81.1288 41.6396 81.1288 45.6505 78.6132 48.388Z" fill="#FFBDA9"/>
<path d="M75.646 60.0926C77.7538 64.9286 74.0554 70.0972 69.0069 70.0972H50.0979C47.1635 70.0972 44.3838 68.9769 42.2697 66.9456C41.0322 65.755 39.4057 65.1003 37.6885 65.1003H34.0947C32.801 65.1003 31.751 64.0519 31.751 62.7565V48.388H78.6132C79.7538 49.6551 80.4491 51.5083 80.4491 53.3426C80.4491 56.4629 78.4382 59.1208 75.646 60.0926Z" fill="#FFB59E"/>
<path d="M21.9452 29.6677V48.388L11.2227 51.4067L0.5 48.388V32.0116C0.5 29.4272 2.60312 27.3241 5.1875 27.3241H19.6014C20.8952 27.3241 21.9452 28.3741 21.9452 29.6677Z" fill="#48E4EF"/>
<path d="M21.9452 48.3878V67.1079C21.9452 68.4017 20.8952 69.4517 19.6014 69.4517H5.1875C2.60312 69.4517 0.5 67.3485 0.5 64.7642V48.3878H21.9452Z" fill="#08C1D2"/>
<path d="M36.45 28.2991C36.4469 29.346 36.4454 30.6225 36.4422 32.2194C36.4391 35.7413 36.4391 40.8163 36.4391 48.388L26.8535 51.4067L17.258 48.388C17.2564 39.6536 17.2564 32.6147 17.258 28.2835C17.258 27.9553 17.2924 27.6335 17.358 27.3241C17.8018 25.2006 19.6908 23.5991 21.9455 23.5991H31.7627C33.0174 23.5991 34.1955 24.0881 35.0814 24.9772C35.9672 25.8649 36.4532 27.0446 36.45 28.2991Z" fill="white"/>
<path d="M36.4391 48.388V68.4862C36.4391 69.7394 35.9516 70.9159 35.0672 71.8019C34.1812 72.6878 33.0031 73.1753 31.7516 73.1753H21.9453C19.6906 73.1753 17.8031 71.5753 17.3578 69.4519C17.2922 69.1409 17.2578 68.8175 17.2578 68.4878V48.388H36.4391Z" fill="#E1EBF2"/>
</g>
<defs>
<clipPath id="clip0_2510_467">
<rect width="80" height="80" fill="white" transform="matrix(1 0 0 -1 0.5 80)"/>
</clipPath>
</defs>
</svg>
