<svg width="81" height="80" viewBox="0 0 81 80" fill="none" xmlns="http://www.w3.org/2000/svg">
<path d="M19.5961 60.5521L16.7889 58.9616L19.5961 57.3711C19.9244 57.1851 20.1639 56.8787 20.262 56.5194C20.3601 56.1601 20.3088 55.7773 20.1193 55.4552C19.9297 55.133 19.6175 54.898 19.2514 54.8017C18.8852 54.7054 18.4951 54.7558 18.1668 54.9418L15.3596 56.5323V53.3513C15.3596 52.9793 15.209 52.6226 14.941 52.3595C14.6729 52.0965 14.3094 51.9487 13.9303 51.9487C13.5512 51.9487 13.1876 52.0965 12.9196 52.3595C12.6515 52.6226 12.5009 52.9793 12.5009 53.3513V56.5323L9.69375 54.9418C9.36547 54.7558 8.97534 54.7054 8.60918 54.8017C8.24303 54.898 7.93084 55.133 7.7413 55.4552C7.55176 55.7773 7.5004 56.1601 7.59851 56.5194C7.69661 56.8787 7.93615 57.1851 8.26443 57.3711L11.0716 58.9616L8.26443 60.5521C7.93615 60.7381 7.69661 61.0444 7.59851 61.4037C7.5004 61.763 7.55176 62.1459 7.7413 62.468C7.93084 62.7901 8.24303 63.0252 8.60918 63.1215C8.97534 63.2177 9.36547 63.1673 9.69375 62.9813L12.5009 61.3908V64.5718C12.5009 64.9438 12.6515 65.3006 12.9196 65.5636C13.1876 65.8266 13.5512 65.9744 13.9303 65.9744C14.3094 65.9744 14.6729 65.8266 14.941 65.5636C15.209 65.3006 15.3596 64.9438 15.3596 64.5718V61.3908L18.1668 62.9813C18.4951 63.1673 18.8852 63.2177 19.2514 63.1215C19.6175 63.0252 19.9297 62.7901 20.1193 62.468C20.3088 62.1459 20.3601 61.763 20.262 61.4037C20.1639 61.0444 19.9244 60.7381 19.5961 60.5521Z" fill="#8ED4FF"/>
<path d="M47.519 60.5521L44.7118 58.9616L47.519 57.3711C47.8472 57.1851 48.0868 56.8787 48.1849 56.5194C48.283 56.1601 48.2316 55.7773 48.0421 55.4552C47.8526 55.133 47.5404 54.898 47.1742 54.8017C46.8081 54.7054 46.4179 54.7558 46.0896 54.9418L43.2824 56.5323V53.3513C43.2824 52.9793 43.1319 52.6226 42.8638 52.3595C42.5958 52.0965 42.2322 51.9487 41.8531 51.9487C41.474 51.9487 41.1105 52.0965 40.8424 52.3595C40.5744 52.6226 40.4238 52.9793 40.4238 53.3513V56.5323L37.6166 54.9418C37.2883 54.7558 36.8982 54.7054 36.532 54.8017C36.1659 54.898 35.8537 55.133 35.6641 55.4552C35.4746 55.7773 35.4233 56.1601 35.5214 56.5194C35.6195 56.8787 35.859 57.1851 36.1873 57.3711L38.9945 58.9616L36.1873 60.5521C35.859 60.7381 35.6195 61.0444 35.5214 61.4037C35.4233 61.763 35.4746 62.1459 35.6641 62.468C35.8537 62.7901 36.1659 63.0252 36.532 63.1215C36.8982 63.2177 37.2883 63.1673 37.6166 62.9813L40.4238 61.3908V64.5718C40.4238 64.9438 40.5744 65.3006 40.8424 65.5636C41.1105 65.8266 41.474 65.9744 41.8531 65.9744C42.2322 65.9744 42.5958 65.8266 42.8638 65.5636C43.1319 65.3006 43.2824 64.9438 43.2824 64.5718V61.3908L46.0896 62.9813C46.4179 63.1673 46.8081 63.2177 47.1742 63.1215C47.5404 63.0252 47.8526 62.7901 48.0421 62.468C48.2316 62.1459 48.283 61.763 48.1849 61.4037C48.0868 61.0444 47.8472 60.7381 47.519 60.5521Z" fill="#8ED4FF"/>
<path d="M61.4823 74.5777L58.6736 72.9872L61.4823 71.3967C61.6449 71.3047 61.7875 71.1822 61.9019 71.0361C62.0163 70.89 62.1003 70.7233 62.149 70.5454C62.1977 70.3675 62.2102 70.1819 62.1858 69.9992C62.1614 69.8165 62.1006 69.6404 62.0068 69.4808C61.8173 69.1587 61.5051 68.9236 61.1389 68.8273C60.7728 68.7311 60.3827 68.7815 60.0544 68.9674L57.2457 70.558V67.3769C57.2457 67.0049 57.0952 66.6482 56.8271 66.3852C56.5591 66.1221 56.1955 65.9744 55.8164 65.9744C55.4373 65.9744 55.0738 66.1221 54.8057 66.3852C54.5377 66.6482 54.3871 67.0049 54.3871 67.3769V70.558L51.5728 68.9674C51.2445 68.7815 50.8543 68.7311 50.4882 68.8273C50.122 68.9236 49.8098 69.1587 49.6203 69.4808C49.5265 69.6404 49.4657 69.8165 49.4413 69.9992C49.4169 70.1819 49.4294 70.3675 49.4781 70.5454C49.5268 70.7233 49.6108 70.89 49.7252 71.0361C49.8396 71.1822 49.9822 71.3047 50.1449 71.3967L52.9563 72.9872L50.1434 74.5777C49.9808 74.6697 49.8382 74.7922 49.7238 74.9383C49.6094 75.0844 49.5254 75.2511 49.4767 75.429C49.428 75.607 49.4155 75.7926 49.4399 75.9752C49.4642 76.1579 49.5251 76.334 49.6189 76.4936C49.8084 76.8158 50.1206 77.0508 50.4868 77.1471C50.8529 77.2434 51.243 77.193 51.5713 77.007L54.3785 75.4165V78.5975C54.3785 78.9695 54.5291 79.3262 54.7972 79.5892C55.0652 79.8523 55.4288 80.0001 55.8078 80.0001C56.1869 80.0001 56.5505 79.8523 56.8185 79.5892C57.0866 79.3262 57.2372 78.9695 57.2372 78.5975V75.4165L60.0458 77.007C60.2087 77.1004 60.3889 77.1612 60.5758 77.186C60.7628 77.2107 60.953 77.1989 61.1353 77.1511C61.3176 77.1034 61.4885 77.0207 61.638 76.9079C61.7876 76.795 61.913 76.6543 62.0068 76.4936C62.1006 76.334 62.1614 76.1579 62.1858 75.9752C62.2102 75.7926 62.1977 75.607 62.149 75.429C62.1003 75.2511 62.0163 75.0844 61.9019 74.9383C61.7875 74.7922 61.6449 74.6697 61.4823 74.5777Z" fill="#8ED4FF"/>
<path d="M33.5637 74.5777L30.7508 72.9872L33.5637 71.3967C33.7263 71.3047 33.8689 71.1822 33.9833 71.0361C34.0978 70.89 34.1817 70.7233 34.2304 70.5454C34.2791 70.3675 34.2916 70.1819 34.2673 69.9992C34.2429 69.8165 34.182 69.6404 34.0882 69.4808C33.8987 69.1587 33.5865 68.9236 33.2204 68.8273C32.8542 68.7311 32.4641 68.7815 32.1358 68.9674L29.3286 70.558V67.3769C29.3286 67.0049 29.178 66.6482 28.9099 66.3852C28.6419 66.1221 28.2783 65.9744 27.8993 65.9744C27.5202 65.9744 27.1566 66.1221 26.8886 66.3852C26.6205 66.6482 26.4699 67.0049 26.4699 67.3769V70.558L23.6613 68.9674C23.4984 68.874 23.3183 68.8132 23.1313 68.7885C22.9443 68.7637 22.7541 68.7756 22.5718 68.8233C22.3895 68.871 22.2186 68.9537 22.0691 69.0665C21.9195 69.1794 21.7941 69.3202 21.7003 69.4808C21.5107 69.8029 21.4594 70.1858 21.5575 70.5451C21.6556 70.9044 21.8951 71.2107 22.2234 71.3967L25.0335 72.9872L22.2248 74.5777C22.0622 74.6697 21.9196 74.7922 21.8052 74.9383C21.6908 75.0844 21.6068 75.2511 21.5581 75.429C21.5094 75.607 21.4969 75.7926 21.5213 75.9752C21.5457 76.1579 21.6065 76.334 21.7003 76.4936C21.8898 76.8158 22.202 77.0508 22.5682 77.1471C22.9343 77.2434 23.3245 77.193 23.6527 77.007L26.4614 75.4165V78.5975C26.4614 78.9695 26.612 79.3262 26.88 79.5892C27.1481 79.8523 27.5116 80.0001 27.8907 80.0001C28.2698 80.0001 28.6333 79.8523 28.9014 79.5892C29.1694 79.3262 29.32 78.9695 29.32 78.5975V75.4165L32.1344 77.007C32.4626 77.193 32.8528 77.2434 33.2189 77.1471C33.5851 77.0508 33.8973 76.8158 34.0868 76.4936C34.2763 76.1715 34.3277 75.7887 34.2296 75.4294C34.1315 75.0701 33.892 74.7637 33.5637 74.5777Z" fill="#8ED4FF"/>
<path d="M75.4428 60.5521L72.6356 58.9616L75.4428 57.3711C75.7711 57.1851 76.0106 56.8787 76.1087 56.5194C76.2068 56.1601 76.1555 55.7773 75.9659 55.4552C75.7764 55.133 75.4642 54.898 75.098 54.8017C74.7319 54.7054 74.3418 54.7558 74.0135 54.9418L71.2063 56.5323V53.3513C71.2063 52.9793 71.0557 52.6226 70.7876 52.3595C70.5196 52.0965 70.156 51.9487 69.7769 51.9487C69.3979 51.9487 69.0343 52.0965 68.7663 52.3595C68.4982 52.6226 68.3476 52.9793 68.3476 53.3513V56.5323L65.5404 54.9418C65.2121 54.7558 64.822 54.7054 64.4559 54.8017C64.0897 54.898 63.7775 55.133 63.588 55.4552C63.3984 55.7773 63.3471 56.1601 63.4452 56.5194C63.5433 56.8787 63.7828 57.1851 64.1111 57.3711L66.9183 58.9616L64.1111 60.5521C63.7828 60.7381 63.5433 61.0444 63.4452 61.4037C63.3471 61.763 63.3984 62.1459 63.588 62.468C63.7775 62.7901 64.0897 63.0252 64.4559 63.1215C64.822 63.2177 65.2121 63.1673 65.5404 62.9813L68.3476 61.3908V64.5718C68.3476 64.9438 68.4982 65.3006 68.7663 65.5636C69.0343 65.8266 69.3979 65.9744 69.7769 65.9744C70.156 65.9744 70.5196 65.8266 70.7876 65.5636C71.0557 65.3006 71.2063 64.9438 71.2063 64.5718V61.3908L74.0135 62.9813C74.3418 63.1673 74.7319 63.2177 75.098 63.1215C75.4642 63.0252 75.7764 62.7901 75.9659 62.468C76.1555 62.1459 76.2068 61.763 76.1087 61.4037C76.0106 61.0444 75.7711 60.7381 75.4428 60.5521Z" fill="#8ED4FF"/>
<path d="M66.1522 19.6896C65.027 19.6938 63.9062 19.8284 62.8133 20.0907C63.5061 17.8233 63.4495 15.3988 62.6515 13.1649C61.8535 10.931 60.3551 9.00247 58.3712 7.65578C56.3873 6.30909 54.0198 5.61344 51.6081 5.66858C49.1965 5.72371 46.8645 6.5268 44.9467 7.96269C42.852 4.63881 39.6418 2.13567 35.8688 0.884331C32.0959 -0.367008 27.9964 -0.28822 24.2762 1.10713C20.5561 2.50247 17.4482 5.12704 15.4878 8.52886C13.5274 11.9307 12.8371 15.8968 13.5359 19.7443C9.87661 20.0614 6.48227 21.7488 4.0572 24.4564C1.63212 27.164 0.362511 30.6839 0.511823 34.2857C0.661134 37.8874 2.2179 41.2945 4.85908 43.7998C7.50026 46.3052 11.0231 47.7165 14.6965 47.7409H66.1522C69.943 47.7409 73.5785 46.2632 76.259 43.6329C78.9395 41.0026 80.4454 37.4351 80.4454 33.7153C80.4454 29.9954 78.9395 26.4279 76.259 23.7976C73.5785 21.1673 69.943 19.6896 66.1522 19.6896Z" fill="#8ED4FF"/>
<path d="M6.13173 44.9245C8.5984 46.7524 11.6052 47.7412 14.6962 47.7409H66.1519C68.1755 47.7485 70.1776 47.3343 72.0259 46.5259C73.8741 45.7174 75.5264 44.5331 76.8733 43.0512C78.2203 41.5693 79.2312 39.8237 79.8393 37.9297C80.4473 36.0358 80.6386 34.0368 80.4005 32.0649C80.1624 30.093 79.5003 28.1932 78.458 26.4911C77.4157 24.7891 76.017 23.3236 74.3545 22.1917C72.6919 21.0597 70.8033 20.2871 68.8137 19.9249C66.8241 19.5627 64.7788 19.6192 62.813 20.0906C63.5059 17.8232 63.4492 15.3987 62.6512 13.1649C61.8532 10.931 60.3549 9.00241 58.371 7.65572C56.3871 6.30903 54.0196 5.61338 51.6079 5.66852C49.1962 5.72365 46.8643 6.52674 44.9465 7.96263C44.6102 7.44622 44.2457 6.94804 43.8545 6.4703C41.3282 4.51397 38.2913 3.29587 35.0919 2.95569C31.8924 2.61551 28.6601 3.16702 25.7654 4.54698C22.8708 5.92693 20.4311 8.07947 18.7261 10.7577C17.0211 13.436 16.1198 16.5316 16.1256 19.6895C16.1312 20.6494 16.2201 21.6071 16.3914 22.5522C13.8445 22.7514 11.3989 23.6183 9.31026 25.0623C7.22158 26.5062 5.5665 28.4742 4.51802 30.7605C3.46955 33.0468 3.06616 35.5676 3.35003 38.0592C3.63391 40.5508 4.59461 42.9219 6.13173 44.9245Z" fill="#3FA1FF"/>
</svg>
