<svg width="81" height="80" viewBox="0 0 81 80" fill="none" xmlns="http://www.w3.org/2000/svg">
<g clip-path="url(#clip0_2510_511)">
<path d="M76.2722 66.8542H4.72754V19.6998C4.72754 17.9037 6.18348 16.4478 7.97957 16.4478H73.0202C74.8163 16.4478 76.2722 17.9037 76.2722 19.6998V66.8542Z" fill="#68F0F8"/>
<path d="M73.0206 16.4478H68.4678C70.2639 16.4478 71.7198 17.9037 71.7198 19.6998V66.8543H76.2726V19.6998C76.2726 17.9037 74.8167 16.4478 73.0206 16.4478Z" fill="#08C1D2"/>
<path d="M9.93164 60.0249V23.277C9.93164 22.379 10.6596 21.6509 11.5577 21.6509H69.444C70.342 21.6509 71.0699 22.3788 71.0699 23.277V60.0249C71.0699 60.9229 70.342 61.651 69.444 61.651H11.5577C10.6596 61.651 9.93164 60.9229 9.93164 60.0249Z" fill="#F7F7F7"/>
<path d="M66.8418 61.6509V21.6509H69.4434C70.3413 21.6509 71.0693 22.3788 71.0693 23.277V60.0249C71.0693 60.9229 70.3413 61.651 69.4434 61.651L66.8418 61.6509Z" fill="#24DEEC"/>
<path d="M77.248 74.6593H3.75203C1.95594 74.6593 0.5 73.2032 0.5 71.4073V68.1553C0.5 67.4368 1.08234 66.8545 1.80078 66.8545H79.1992C79.9177 66.8545 80.5 67.4368 80.5 68.1553V71.4073C80.5 73.2032 79.0441 74.6593 77.248 74.6593Z" fill="#0A9AB0"/>
<path d="M79.1995 66.854H74.3214C75.0398 66.854 75.6221 67.4363 75.6221 68.1548V71.4068C75.6221 73.2029 74.1662 74.6588 72.3701 74.6588H77.2482C79.0443 74.6588 80.5003 73.2029 80.5003 71.4068V68.1548C80.5003 67.4365 79.9179 66.854 79.1995 66.854Z" fill="#30569F"/>
<path d="M40.5 27.5539V50.3183C40.7853 50.3183 41.0708 50.2402 41.3228 50.0841L58.1344 39.6699C58.5942 39.385 58.8741 38.8825 58.8741 38.3416V17.3175C58.8741 17.0506 58.8055 16.7935 58.6812 16.5669L41.323 27.3199L40.5 27.5539Z" fill="#59BAFF"/>
<path d="M22.3188 16.5669C22.1946 16.7935 22.126 17.0506 22.126 17.3175V38.3416C22.126 38.8825 22.4058 39.385 22.8657 39.6699L39.6772 50.0841C39.9293 50.2402 40.2147 50.3183 40.5 50.3183V27.8296L22.3188 16.5669Z" fill="#FFC7A8"/>
<path d="M38.1568 26.3784C37.7019 26.8717 37.2339 27.3604 36.7514 27.8429C32.1419 32.4525 27.0039 35.8022 22.126 37.6786V38.3419C22.126 38.8828 22.4058 39.3853 22.8657 39.6701L39.6772 50.0844C39.9293 50.2404 40.2147 50.3186 40.5 50.3186V27.5542L39.6772 27.3201L38.1568 26.3784Z" fill="#FF7F50"/>
<path d="M40.5 41.6342V50.3186C40.7853 50.3186 41.0708 50.2405 41.3228 50.0844L58.1344 39.6702C58.5942 39.3853 58.8741 38.8828 58.8741 38.3419V23.3945C56.9503 26.8986 54.3237 30.4169 51.0691 33.6716C47.7237 37.0167 44.1005 39.6973 40.5 41.6342Z" fill="#3FA1FF"/>
<path d="M41.3224 27.3199L58.6807 16.567C58.5532 16.3341 58.367 16.1337 58.1338 15.9893L41.3224 5.57508C40.8184 5.26273 40.1809 5.26273 39.6768 5.57508L22.8652 15.9893C22.6323 16.1337 22.446 16.3341 22.3184 16.567L39.6766 27.3199C40.1809 27.6323 40.8184 27.6323 41.3224 27.3199Z" fill="#FFA071"/>
</g>
<defs>
<clipPath id="clip0_2510_511">
<rect width="80" height="80" fill="white" transform="translate(0.5)"/>
</clipPath>
</defs>
</svg>
