<svg width="81" height="80" viewBox="0 0 81 80" fill="none" xmlns="http://www.w3.org/2000/svg">
<path d="M18 32.5C26.2843 32.5 33 25.7843 33 17.5C33 9.21573 26.2843 2.5 18 2.5C9.71573 2.5 3 9.21573 3 17.5C3 25.7843 9.71573 32.5 18 32.5Z" fill="#F56249"/>
<path d="M63 32.5C71.2843 32.5 78 25.7843 78 17.5C78 9.21573 71.2843 2.5 63 2.5C54.7157 2.5 48 9.21573 48 17.5C48 25.7843 54.7157 32.5 63 32.5Z" fill="#F56249"/>
<path d="M22.9996 7.50006C25.7522 7.50382 28.4507 8.26494 30.7996 9.70006C29.6217 7.75432 28.0167 6.10194 26.106 4.86791C24.1954 3.63387 22.0291 2.8505 19.7711 2.57706C17.5131 2.30361 15.2225 2.54725 13.0725 3.28954C10.9225 4.03183 8.96949 5.25334 7.36117 6.86166C5.75285 8.46998 4.53135 10.423 3.78905 12.573C3.04676 14.723 2.80312 17.0136 3.07657 19.2716C3.35002 21.5296 4.13339 23.6959 5.36742 25.6065C6.60145 27.5172 8.25384 29.1221 10.1996 30.3001C8.81556 28.0266 8.06137 25.4259 8.0144 22.7648C7.96743 20.1036 8.62938 17.4779 9.93231 15.157C11.2352 12.8362 13.1322 10.9038 15.4286 9.55823C17.725 8.21263 20.338 7.50228 22.9996 7.50006Z" fill="#DF5C45"/>
<path d="M67.9996 7.50006C70.7522 7.50382 73.4507 8.26494 75.7996 9.70006C74.6217 7.75432 73.0167 6.10194 71.106 4.86791C69.1954 3.63387 67.0291 2.8505 64.7711 2.57706C62.5131 2.30361 60.2225 2.54725 58.0725 3.28954C55.9225 4.03183 53.9695 5.25334 52.3612 6.86166C50.7529 8.46998 49.5313 10.423 48.7891 12.573C48.0468 14.723 47.8031 17.0136 48.0766 19.2716C48.35 21.5296 49.1334 23.6959 50.3674 25.6065C51.6015 27.5172 53.2538 29.1221 55.1996 30.3001C53.8156 28.0266 53.0614 25.4259 53.0144 22.7648C52.9674 20.1036 53.6294 17.4779 54.9323 15.157C56.2352 12.8362 58.1322 10.9038 60.4286 9.55823C62.725 8.21263 65.338 7.50228 67.9996 7.50006Z" fill="#DF5C45"/>
<path d="M40.5 77.5C59.83 77.5 75.5 61.83 75.5 42.5C75.5 23.17 59.83 7.5 40.5 7.5C21.17 7.5 5.5 23.17 5.5 42.5C5.5 61.83 21.17 77.5 40.5 77.5Z" fill="#3FA1FF"/>
<path d="M10.5003 47.5C10.5079 40.8849 12.39 34.4073 15.9286 28.8181C19.4671 23.2289 24.5172 18.757 30.4934 15.9207C36.4697 13.0843 43.1273 11.9997 49.6948 12.7924C56.2623 13.5852 62.4706 16.223 67.6003 20.4C64.5233 16.5615 60.6718 13.4147 56.2968 11.165C51.9218 8.91525 47.1217 7.61308 42.2096 7.3434C37.2975 7.07372 32.3837 7.84261 27.7887 9.5999C23.1938 11.3572 19.0209 14.0634 15.5423 17.542C12.0637 21.0207 9.35743 25.1935 7.60014 29.7885C5.84285 34.3835 5.07397 39.2973 5.34364 44.2094C5.61332 49.1215 6.9155 53.9216 9.16524 58.2966C11.415 62.6715 14.5617 66.5231 18.4003 69.6C13.2892 63.3693 10.4972 55.5589 10.5003 47.5Z" fill="#1B7CF5"/>
<path d="M40.5 67.5C54.3071 67.5 65.5 56.3071 65.5 42.5C65.5 28.6929 54.3071 17.5 40.5 17.5C26.6929 17.5 15.5 28.6929 15.5 42.5C15.5 56.3071 26.6929 67.5 40.5 67.5Z" fill="#FAF7F5"/>
<path d="M55.5 22.5C58.7619 26.8188 60.5182 32.0878 60.5 37.5C60.5 40.783 59.8534 44.0339 58.597 47.0671C57.3406 50.1002 55.4991 52.8562 53.1777 55.1777C50.8562 57.4991 48.1002 59.3406 45.0671 60.597C42.0339 61.8534 38.783 62.5 35.5 62.5C30.0878 62.5182 24.8188 60.7619 20.5 57.5C22.6491 60.3654 25.3888 62.7356 28.5336 64.4501C31.6785 66.1645 35.155 67.1832 38.7278 67.4371C42.3006 67.691 45.8862 67.1742 49.2419 65.9218C52.5976 64.6693 55.645 62.7104 58.1777 60.1777C60.7104 57.645 62.6693 54.5976 63.9218 51.2419C65.1742 47.8862 65.691 44.3006 65.4371 40.7278C65.1832 37.155 64.1645 33.6785 62.4501 30.5336C60.7356 27.3888 58.3654 24.6491 55.5 22.5Z" fill="#F0E6E2"/>
<path d="M50.5 51.1499C50.0513 51.1498 49.6109 51.0289 49.225 50.7999L39.225 44.7999C38.8518 44.5786 38.5426 44.2641 38.3278 43.8871C38.1131 43.5101 38.0001 43.0838 38 42.6499V33.6499C38 32.9869 38.2634 32.351 38.7322 31.8821C39.2011 31.4133 39.837 31.1499 40.5 31.1499C41.163 31.1499 41.7989 31.4133 42.2678 31.8821C42.7366 32.351 43 32.9869 43 33.6499V41.1499L51.775 46.4249C52.2869 46.6848 52.6938 47.113 52.9272 47.6376C53.1606 48.1621 53.2064 48.751 53.0568 49.3053C52.9072 49.8596 52.5714 50.3455 52.1058 50.6814C51.6402 51.0174 51.0732 51.1828 50.5 51.1499Z" fill="#08C1D2"/>
</svg>
