<svg width="81" height="80" viewBox="0 0 81 80" fill="none" xmlns="http://www.w3.org/2000/svg">
<g clip-path="url(#clip0_2509_365)">
<path d="M2.77723 78.98C2.45557 78.98 2.13392 78.8568 1.88855 78.6114C0.35169 77.0751 0.0892396 74.5086 1.10792 70.9826C1.9917 67.9241 3.81726 64.1564 6.53455 59.7857C12.046 50.9192 20.6666 40.451 30.8088 30.3088C40.951 20.1672 51.4192 11.546 60.2857 6.03455C64.6564 3.31726 68.4235 1.4917 71.4826 0.607916C75.0074 -0.41076 77.5745 -0.14831 79.1114 1.38855C79.6021 1.87928 79.6021 2.67579 79.1114 3.16651C78.6201 3.65784 77.8242 3.65784 77.3328 3.16651C75.9119 1.745 71.0352 2.31324 61.6132 8.17017C52.9054 13.5834 42.5971 22.077 32.5868 32.0868C22.577 42.0971 14.0834 52.406 8.67017 61.1138C2.81324 70.5358 2.245 75.4119 3.66651 76.8334C4.15784 77.3242 4.15784 78.1201 3.66651 78.6114C3.42115 78.8568 3.09949 78.98 2.77723 78.98Z" fill="#AAB6B7"/>
<path d="M70.6781 40C70.6781 56.6668 57.1667 70.1782 40.4999 70.1782C23.833 70.1782 10.3223 56.6668 10.3223 40C10.3223 23.3331 23.833 9.82178 40.4999 9.82178C57.1667 9.82178 70.6781 23.3331 70.6781 40Z" fill="#6398FF"/>
<path d="M48.0444 63.8908C31.3775 63.8908 17.8662 50.3795 17.8662 33.7126C17.8662 26.1669 20.6366 19.2675 25.2148 13.9763C16.3037 19.2217 10.3223 28.9116 10.3223 39.9999C10.3223 56.6667 23.833 70.1781 40.4999 70.1781C49.6203 70.1781 57.796 66.1314 63.3294 59.7368C58.8464 62.3753 53.623 63.8908 48.0444 63.8908Z" fill="#2157C2"/>
<path d="M40.4999 70.1782C48.1988 70.1782 55.2227 67.2937 60.5542 62.5482L49.6789 48.0475C49.4415 47.7307 49.0686 47.5445 48.6731 47.5445H40.3076C39.693 47.5445 39.1687 47.1002 39.0674 46.4935L37.9852 40C37.9852 40 36.7279 36.228 35.47 36.228C34.5605 36.228 33.6505 33.595 33.2171 32.1393C33.0536 31.59 33.2849 31.0004 33.7762 30.7056L39.2425 27.4255C39.2425 27.4255 50.5591 23.6536 51.8164 22.3962C52.442 21.7712 54.931 18.3502 57.2766 14.9127C52.4786 11.698 46.7084 9.82178 40.4999 9.82178C29.3298 9.82178 19.5782 15.8911 14.3604 24.9109H20.3815L25.1965 28.5223C25.3381 28.6285 25.4553 28.7628 25.5414 28.9178L31.698 40L32.9022 50.8386C32.9364 51.1462 32.8558 51.4563 32.6758 51.7083L26.6681 60.1184L19.3481 61.5222C24.7943 66.8744 32.2607 70.1782 40.4999 70.1782Z" fill="#74D8F3"/>
<path d="M14.3604 24.9108H19.1717C20.4144 20.8312 22.4957 17.1178 25.2173 13.9727C20.7227 16.6185 16.9727 20.3948 14.3604 24.9108Z" fill="#3DB5D4"/>
<path d="M28.8793 57.0239L26.6686 60.1184L19.3486 61.5222C24.7948 66.8744 32.2612 70.1782 40.5004 70.1782C48.1993 70.1782 55.2232 67.2937 60.5547 62.5482L59.7856 61.5216C56.1766 63.0475 52.2093 63.891 48.0449 63.891C40.7671 63.891 34.0917 61.3147 28.8793 57.0239Z" fill="#3DB5D4"/>
<path d="M59.3168 23.9197L58.2792 30.1471C58.1779 30.7538 57.6536 31.1981 57.039 31.1981H51.5903C50.991 31.1981 50.4746 31.6211 50.3574 32.2089L49.4199 36.8957C49.3455 37.2687 49.4431 37.655 49.6867 37.9474L55.3654 44.7613C55.5094 44.9341 55.6962 45.0647 55.9074 45.1404C56.843 45.4742 59.5835 46.5094 60.6187 47.5445C61.2644 48.1903 64.5664 50.8282 67.6243 53.2403C69.5792 49.2425 70.6779 44.7497 70.6779 40C70.6779 31.9269 67.5077 24.5941 62.3441 19.1785L59.5109 23.429C59.4126 23.5773 59.3461 23.7445 59.3168 23.9197Z" fill="#74D8F3"/>
<path d="M5.7684 79.9999C4.11252 79.9999 2.81369 79.5367 1.88901 78.6114C1.39767 78.1207 1.39767 77.3248 1.88901 76.8334C2.38034 76.3421 3.17624 76.3427 3.66696 76.8334C5.08847 78.2549 9.96456 77.6867 19.3866 71.8298C28.0944 66.4172 38.4033 57.9229 48.413 47.9132C58.4234 37.9028 66.917 27.5946 72.3302 18.8861C78.1872 9.46409 78.7548 4.58799 77.3333 3.16649C76.8426 2.67576 76.8426 1.87926 77.3333 1.38853C77.8246 0.897202 78.6211 0.897812 79.1118 1.38853C80.6481 2.9254 80.9112 5.49192 79.8925 9.01731C79.0087 12.0758 77.1831 15.8435 74.4659 20.2142C68.9544 29.0808 60.3338 39.5489 50.1916 49.6911C40.0494 59.8333 29.5806 68.4539 20.7147 73.9654C16.344 76.6827 12.5769 78.5082 9.51779 79.392C8.11459 79.7973 6.86337 79.9999 5.7684 79.9999Z" fill="#949D9D"/>
<path d="M60.0044 64.5452L55.5586 45.8734C55.5062 45.6518 55.3377 45.476 55.1186 45.4138C54.8989 45.3515 54.6639 45.4131 54.5027 45.5743L46.5004 53.5766C46.2935 53.7835 46.2569 54.1058 46.4119 54.3542L55.3035 68.5802C55.5141 68.9178 55.9993 68.9733 56.2807 68.6919L59.8372 65.1354C59.9916 64.981 60.0551 64.7576 60.0044 64.5452Z" fill="#FF7F50"/>
<path d="M50.2169 40.5132C50.1546 40.2935 49.9794 40.125 49.7579 40.0725L31.086 35.6267C30.8736 35.5761 30.6502 35.6396 30.4958 35.794L26.9393 39.3505C26.6579 39.6319 26.7135 40.1171 27.0504 40.3283L41.2764 49.2193C41.3796 49.284 41.4949 49.3151 41.6097 49.3151C41.772 49.3151 41.9332 49.2522 42.054 49.1308L50.0563 41.1291C50.2175 40.9679 50.2791 40.7323 50.2169 40.5132Z" fill="#FF7F50"/>
<path d="M40.4445 69.8839L37.7773 58.3251C37.726 58.1023 37.5576 57.9253 37.3379 57.8625C37.1187 57.7996 36.8819 57.8606 36.7202 58.0224L31.3857 63.3568C31.1812 63.5607 31.1422 63.8775 31.2911 64.1247L36.6256 73.0162C36.8325 73.3611 37.3244 73.4221 37.6095 73.1371L40.2767 70.4699C40.4299 70.3167 40.494 70.0951 40.4445 69.8839Z" fill="#FF7F50"/>
<path d="M37.7689 58.2933C37.7061 58.0735 37.5284 57.9051 37.3057 57.8538L25.7474 55.1866C25.5363 55.1377 25.3147 55.2012 25.1615 55.3544L22.4937 58.0223C22.2092 58.3067 22.2703 58.7986 22.6151 59.0055L31.5061 64.3406C31.6068 64.4004 31.7185 64.4303 31.8296 64.4303C31.9919 64.4303 32.1531 64.3675 32.2739 64.246L37.609 58.9115C37.7708 58.7498 37.8318 58.513 37.7689 58.2933Z" fill="#FF7F50"/>
<path d="M64.2832 31.3482C63.4537 30.5188 61.9657 30.3875 60.0931 30.9778C58.6179 31.4428 57.1213 32.2863 56.2809 33.1268L31.3859 58.0224C29.6696 59.7381 29.6696 62.5299 31.3859 64.2462C32.2434 65.1037 33.3707 65.5328 34.4974 65.5328C35.6248 65.5328 36.7515 65.1043 37.6096 64.2462L62.5052 39.3506C63.3457 38.5101 64.1892 37.0141 64.6543 35.5383C65.2445 33.6657 65.1126 32.1777 64.2832 31.3482Z" fill="#F9F2F9"/>
<path d="M64.2832 31.3481C63.9591 31.0247 63.5337 30.8086 63.0252 30.6987C63.1968 31.4928 63.1064 32.4895 62.7463 33.6309C62.2812 35.1067 61.4377 36.6027 60.5973 37.4431L35.7023 62.3387C34.8441 63.1963 33.7168 63.6253 32.5901 63.6253C31.8998 63.6253 31.2101 63.4636 30.582 63.1419C30.7859 63.5399 31.0532 63.9134 31.3859 64.2461C32.2434 65.1042 33.3707 65.5333 34.4974 65.5333C35.6248 65.5333 36.7515 65.1042 37.6096 64.2461L62.5052 39.3505C63.3457 38.51 64.1892 37.014 64.6543 35.5388C65.2445 33.6656 65.1126 32.1776 64.2832 31.3481Z" fill="#D6CED6"/>
<path d="M31.8298 65.0592C31.5094 65.0592 31.189 64.9371 30.9436 64.6936C30.451 64.2047 30.448 63.4082 30.9375 62.9156L37.0929 56.7175C37.5824 56.225 38.3783 56.2219 38.8708 56.7114C39.3634 57.2009 39.3664 57.9974 38.8769 58.49L32.7222 64.6875C32.4762 64.9353 32.1533 65.0592 31.8298 65.0592Z" fill="#FF7F50"/>
</g>
<defs>
<clipPath id="clip0_2509_365">
<rect width="80" height="80" fill="white" transform="translate(0.5)"/>
</clipPath>
</defs>
</svg>
