<svg width="81" height="80" viewBox="0 0 81 80" fill="none" xmlns="http://www.w3.org/2000/svg">
<path d="M47.7482 41.7695H33.2512C32.5845 41.7695 32.0391 42.315 32.0391 42.9817V50.0604C32.0391 50.7271 32.5845 51.2726 33.2512 51.2726H47.7603C48.4269 51.2726 48.9724 50.7271 48.9724 50.0604V42.9817C48.9603 42.315 48.4269 41.7695 47.7482 41.7695Z" fill="#FF7F50"/>
<path opacity="0.1" d="M47.7486 41.7695H45.3243V46.4241C45.3243 47.0907 44.7789 47.6362 44.1122 47.6362H32.0273V50.0604C32.0273 50.7271 32.5728 51.2726 33.2395 51.2726H47.7486C48.4152 51.2726 48.9607 50.7271 48.9607 50.0604V42.9817C48.9607 42.315 48.4273 41.7695 47.7486 41.7695Z" fill="black"/>
<path d="M48.9603 46.8726V50.0604C48.9603 50.7271 48.4148 51.2726 47.7482 51.2726H33.2512C32.5845 51.2726 32.0391 50.7271 32.0391 50.0604V46.8726H5.00879V68.8241C5.00879 71.5029 7.17849 73.6726 9.85727 73.6726H71.1542C73.833 73.6726 76.0027 71.5029 76.0027 68.8241V46.8726H48.9603Z" fill="#1751B6"/>
<path opacity="0.1" d="M67.7845 46.8726C67.7845 57.1392 59.4573 65.4544 49.2027 65.4544H5.00879V68.8241C5.00879 71.5029 7.17849 73.6726 9.85727 73.6726H71.1542C73.833 73.6726 76.0027 71.5029 76.0027 68.8241V46.8726H67.7845Z" fill="black"/>
<path d="M73.2269 18.1333H7.77231C5.09353 18.1333 2.92383 20.303 2.92383 22.9818V46.8727H32.039V42.9818C32.039 42.3151 32.5844 41.7697 33.2511 41.7697H47.7602C48.4269 41.7697 48.9723 42.3151 48.9723 42.9818V46.8727H78.0753V22.9818C78.0753 20.303 75.9056 18.1333 73.2269 18.1333Z" fill="#3FA1FF"/>
<g opacity="0.3">
<path opacity="0.5" d="M73.2269 18.1333H7.77231C5.09353 18.1333 2.92383 20.303 2.92383 22.9818V46.8727H7.77231C7.77231 33.6727 18.4632 22.9818 31.6632 22.9818H78.0753C78.0753 20.303 75.9056 18.1333 73.2269 18.1333Z" fill="white"/>
<path d="M52.609 46.6182H48.9727V46.8727H53.312C53.106 46.7273 52.8757 46.6182 52.609 46.6182Z" fill="#F56356"/>
</g>
<path d="M28.8143 18.1332V11.1756H52.184V18.1332H57.0325V11.1756C57.0325 8.49685 54.8628 6.32715 52.184 6.32715H28.8143C26.1355 6.32715 23.9658 8.49685 23.9658 11.1756V18.1332H28.8143Z" fill="#175362"/>
</svg>
