<svg width="36" height="36" viewBox="0 0 36 36" fill="none" xmlns="http://www.w3.org/2000/svg">
<rect x="0.5" y="0.5" width="35" height="35" rx="17.5" fill="#142C57"/>
<rect x="0.5" y="0.5" width="35" height="35" rx="17.5" stroke="#8ED4FF"/>
<path d="M28 19.9669V16.0332C25.1433 16.0332 23.2857 12.9304 24.732 10.4669L21.2679 8.5001C19.8038 10.994 16.1978 10.9939 14.7336 8.5L11.2695 10.4668C12.7159 12.9304 10.8567 16.0332 8 16.0332V19.9669C10.8567 19.9669 12.7143 23.0697 11.268 25.5332L14.732 27.5C16.1969 25.0048 19.8046 25.0047 21.2695 27.4999L24.7336 25.5331C23.2874 23.0696 25.1434 19.9669 28 19.9669Z" fill="url(#paint0_linear_2398_1303)"/>
<path d="M21.5 18C21.5 19.933 19.933 21.5 18 21.5C16.067 21.5 14.5 19.933 14.5 18C14.5 16.067 16.067 14.5 18 14.5C19.933 14.5 21.5 16.067 21.5 18Z" fill="#142C57"/>
<defs>
<linearGradient id="paint0_linear_2398_1303" x1="9.5999" y1="10.8001" x2="20.1268" y2="8.35352" gradientUnits="userSpaceOnUse">
<stop stop-color="#68F0F8"/>
<stop offset="1" stop-color="#59BAFF"/>
</linearGradient>
</defs>
</svg>
