<svg width="32" height="32" viewBox="0 0 32 32" fill="none" xmlns="http://www.w3.org/2000/svg">
<rect width="32" height="32" rx="16" fill="#142C57"/>
<path d="M22.008 17.3979C22.3559 17.3041 22.5299 17.2571 22.5986 17.1674C22.6673 17.0777 22.6673 16.9334 22.6673 16.6448V15.3557C22.6673 15.0671 22.6673 14.9227 22.5986 14.8331C22.5299 14.7433 22.3559 14.6964 22.008 14.6026C20.7077 14.2519 19.8939 12.8925 20.2295 11.6008C20.3218 11.2455 20.3679 11.0679 20.3239 10.9637C20.2798 10.8596 20.1534 10.7878 19.9005 10.6442L18.7507 9.99136C18.5025 9.85047 18.3785 9.78002 18.2671 9.79502C18.1557 9.81002 18.0301 9.93536 17.7788 10.186C16.806 11.1565 15.1964 11.1565 14.2235 10.186C13.9723 9.93529 13.8466 9.80996 13.7353 9.79495C13.6239 9.77995 13.4998 9.8504 13.2517 9.99129L12.1019 10.6441C11.849 10.7877 11.7226 10.8595 11.6785 10.9636C11.6344 11.0678 11.6806 11.2455 11.7728 11.6007C12.1082 12.8925 11.2938 14.252 9.99333 14.6026C9.6454 14.6964 9.47143 14.7433 9.4027 14.833C9.33398 14.9227 9.33398 15.0671 9.33398 15.3557V16.6448C9.33398 16.9334 9.33398 17.0777 9.4027 17.1674C9.47142 17.2571 9.64539 17.3041 9.99333 17.3979C11.2936 17.7485 12.1074 19.1079 11.7718 20.3997C11.6795 20.7549 11.6334 20.9325 11.6774 21.0367C11.7215 21.1409 11.8479 21.2127 12.1008 21.3563L13.2506 22.0091C13.4988 22.15 13.6229 22.2205 13.7343 22.2055C13.8456 22.1905 13.9712 22.0651 14.2225 21.8144C15.1958 20.8431 16.8065 20.8431 17.7799 21.8143C18.0311 22.0651 18.1567 22.1904 18.2681 22.2054C18.3795 22.2204 18.5036 22.1499 18.7517 22.0091L19.9015 21.3562C20.1545 21.2127 20.2809 21.1409 20.3249 21.0367C20.369 20.9325 20.3229 20.7549 20.2305 20.3996C19.8948 19.1079 20.7079 17.7486 22.008 17.3979Z" fill="white" stroke="white" stroke-width="1.5" stroke-linecap="round"/>
<path d="M18.3327 16.0003C18.3327 17.289 17.288 18.3337 15.9993 18.3337C14.7107 18.3337 13.666 17.289 13.666 16.0003C13.666 14.7117 14.7107 13.667 15.9993 13.667C17.288 13.667 18.3327 14.7117 18.3327 16.0003Z" fill="#142C57" stroke="#142C57" stroke-width="1.5"/>
</svg>
