<svg width="32" height="32" viewBox="0 0 32 32" fill="none" xmlns="http://www.w3.org/2000/svg">
<rect x="0.5" y="0.5" width="31" height="31" rx="15.5" fill="#EEF8FF"/>
<rect x="0.5" y="0.5" width="31" height="31" rx="15.5" stroke="#D9EFFF"/>
<path d="M13.0833 19.7501C13.6654 18.7437 14.7536 18.0665 15.9999 18.0665C17.2462 18.0665 18.3344 18.7437 18.9166 19.7501M17.6666 14.3334C17.6666 15.2539 16.9204 16.0001 16 16.0001C15.0795 16.0001 14.3333 15.2539 14.3333 14.3334C14.3333 13.4129 15.0795 12.6667 16 12.6667C16.9204 12.6667 17.6666 13.4129 17.6666 14.3334Z" stroke="#1B7CF5" stroke-width="1.5" stroke-linecap="round"/>
<path d="M24.3334 17.639V14.3609C21.9528 14.3609 20.4048 11.7753 21.6101 9.72234L18.7233 8.08334C17.5032 10.1616 14.4982 10.1615 13.2781 8.08325L10.3914 9.72226C11.5966 11.7752 10.0474 14.3609 7.66675 14.3609V17.639C10.0473 17.639 11.5953 20.2247 10.39 22.2776L13.2768 23.9166C14.4975 21.8373 17.5039 21.8372 18.7247 23.9165L21.6114 22.2775C20.4062 20.2246 21.9529 17.639 24.3334 17.639Z" stroke="#1B7CF5" stroke-width="1.5" stroke-linecap="round" stroke-linejoin="round"/>
</svg>
