<svg width="40" height="40" viewBox="0 0 40 40" fill="none" xmlns="http://www.w3.org/2000/svg">
<g filter="url(#filter0_d_3241_15242)">
<rect x="4" y="4" width="32" height="32" rx="16" fill="white" shape-rendering="crispEdges"/>
<path d="M26.008 21.3977C26.3559 21.3039 26.5299 21.2569 26.5986 21.1672C26.6673 21.0775 26.6673 20.9332 26.6673 20.6446V19.3555C26.6673 19.0669 26.6673 18.9225 26.5986 18.8329C26.5299 18.7431 26.3559 18.6962 26.008 18.6024C24.7077 18.2517 23.8939 16.8923 24.2295 15.6006C24.3218 15.2453 24.3679 15.0677 24.3239 14.9635C24.2798 14.8593 24.1534 14.7876 23.9005 14.644L22.7507 13.9911C22.5025 13.8503 22.3785 13.7798 22.2671 13.7948C22.1557 13.8098 22.0301 13.9351 21.7788 14.1858C20.806 15.1563 19.1964 15.1563 18.2235 14.1858C17.9723 13.9351 17.8466 13.8097 17.7353 13.7947C17.6239 13.7797 17.4998 13.8502 17.2517 13.9911L16.1019 14.6439C15.849 14.7875 15.7226 14.8593 15.6785 14.9634C15.6344 15.0676 15.6806 15.2452 15.7728 15.6005C16.1082 16.8923 15.2938 18.2517 13.9933 18.6024C13.6454 18.6962 13.4714 18.7431 13.4027 18.8328C13.334 18.9225 13.334 19.0669 13.334 19.3555V20.6446C13.334 20.9332 13.334 21.0775 13.4027 21.1672C13.4714 21.2569 13.6454 21.3039 13.9933 21.3977C15.2936 21.7483 16.1074 23.1077 15.7718 24.3995C15.6795 24.7547 15.6334 24.9323 15.6774 25.0365C15.7215 25.1407 15.8479 25.2125 16.1008 25.3561L17.2506 26.0089C17.4988 26.1498 17.6229 26.2203 17.7343 26.2053C17.8456 26.1903 17.9712 26.0649 18.2225 25.8142C19.1958 24.8429 20.8065 24.8429 21.7799 25.8141C22.0311 26.0649 22.1567 26.1902 22.2681 26.2052C22.3794 26.2202 22.5036 26.1497 22.7517 26.0089L23.9015 25.356C24.1545 25.2125 24.2809 25.1407 24.3249 25.0365C24.369 24.9323 24.3229 24.7547 24.2305 24.3994C23.8948 23.1077 24.7079 21.7484 26.008 21.3977Z" fill="#142C57" stroke="#142C57" stroke-width="1.5" stroke-linecap="round"/>
<path d="M22.3327 20C22.3327 21.2887 21.288 22.3334 19.9993 22.3334C18.7107 22.3334 17.666 21.2887 17.666 20C17.666 18.7114 18.7107 17.6667 19.9993 17.6667C21.288 17.6667 22.3327 18.7114 22.3327 20Z" fill="white" stroke="white" stroke-width="1.5"/>
</g>
<defs>
<filter id="filter0_d_3241_15242" x="0" y="0" width="40" height="40" filterUnits="userSpaceOnUse" color-interpolation-filters="sRGB">
<feFlood flood-opacity="0" result="BackgroundImageFix"/>
<feColorMatrix in="SourceAlpha" type="matrix" values="0 0 0 0 0 0 0 0 0 0 0 0 0 0 0 0 0 0 127 0" result="hardAlpha"/>
<feOffset/>
<feGaussianBlur stdDeviation="2"/>
<feComposite in2="hardAlpha" operator="out"/>
<feColorMatrix type="matrix" values="0 0 0 0 0 0 0 0 0 0 0 0 0 0 0 0 0 0 0.06 0"/>
<feBlend mode="normal" in2="BackgroundImageFix" result="effect1_dropShadow_3241_15242"/>
<feBlend mode="normal" in="SourceGraphic" in2="effect1_dropShadow_3241_15242" result="shape"/>
</filter>
</defs>
</svg>
