<svg width="40" height="40" viewBox="0 0 40 40" fill="none" xmlns="http://www.w3.org/2000/svg">
<g filter="url(#filter0_d_3262_313)">
<rect x="4" y="4" width="32" height="32" rx="16" fill="#142C57" shape-rendering="crispEdges"/>
<path d="M26.008 21.3979C26.3559 21.3041 26.5299 21.2571 26.5986 21.1674C26.6673 21.0777 26.6673 20.9334 26.6673 20.6448V19.3557C26.6673 19.0671 26.6673 18.9227 26.5986 18.8331C26.5299 18.7433 26.3559 18.6964 26.008 18.6026C24.7077 18.2519 23.8939 16.8925 24.2295 15.6008C24.3218 15.2455 24.3679 15.0679 24.3239 14.9637C24.2798 14.8596 24.1534 14.7878 23.9005 14.6442L22.7507 13.9914C22.5025 13.8505 22.3785 13.78 22.2671 13.795C22.1557 13.81 22.0301 13.9354 21.7788 14.186C20.806 15.1565 19.1964 15.1565 18.2235 14.186C17.9723 13.9353 17.8466 13.81 17.7353 13.795C17.6239 13.78 17.4998 13.8504 17.2517 13.9913L16.1019 14.6441C15.849 14.7877 15.7226 14.8595 15.6785 14.9636C15.6344 15.0678 15.6806 15.2455 15.7728 15.6007C16.1082 16.8925 15.2938 18.252 13.9933 18.6026C13.6454 18.6964 13.4714 18.7433 13.4027 18.833C13.334 18.9227 13.334 19.0671 13.334 19.3557V20.6448C13.334 20.9334 13.334 21.0777 13.4027 21.1674C13.4714 21.2571 13.6454 21.3041 13.9933 21.3979C15.2936 21.7485 16.1074 23.1079 15.7718 24.3997C15.6795 24.7549 15.6334 24.9325 15.6774 25.0367C15.7215 25.1409 15.8479 25.2127 16.1008 25.3563L17.2506 26.0091C17.4988 26.15 17.6229 26.2205 17.7343 26.2055C17.8456 26.1905 17.9712 26.0651 18.2225 25.8144C19.1958 24.8431 20.8065 24.8431 21.7799 25.8143C22.0311 26.0651 22.1567 26.1904 22.2681 26.2054C22.3795 26.2204 22.5036 26.1499 22.7517 26.0091L23.9015 25.3562C24.1545 25.2127 24.2809 25.1409 24.3249 25.0367C24.369 24.9325 24.3229 24.7549 24.2305 24.3996C23.8948 23.1079 24.7079 21.7486 26.008 21.3979Z" fill="white" stroke="white" stroke-width="1.5" stroke-linecap="round"/>
<path d="M22.3327 20.0003C22.3327 21.289 21.288 22.3337 19.9993 22.3337C18.7107 22.3337 17.666 21.289 17.666 20.0003C17.666 18.7117 18.7107 17.667 19.9993 17.667C21.288 17.667 22.3327 18.7117 22.3327 20.0003Z" fill="#142C57" stroke="#142C57" stroke-width="1.5"/>
</g>
<defs>
<filter id="filter0_d_3262_313" x="0" y="0" width="40" height="40" filterUnits="userSpaceOnUse" color-interpolation-filters="sRGB">
<feFlood flood-opacity="0" result="BackgroundImageFix"/>
<feColorMatrix in="SourceAlpha" type="matrix" values="0 0 0 0 0 0 0 0 0 0 0 0 0 0 0 0 0 0 127 0" result="hardAlpha"/>
<feOffset/>
<feGaussianBlur stdDeviation="2"/>
<feComposite in2="hardAlpha" operator="out"/>
<feColorMatrix type="matrix" values="0 0 0 0 0 0 0 0 0 0 0 0 0 0 0 0 0 0 0.06 0"/>
<feBlend mode="normal" in2="BackgroundImageFix" result="effect1_dropShadow_3262_313"/>
<feBlend mode="normal" in="SourceGraphic" in2="effect1_dropShadow_3262_313" result="shape"/>
</filter>
</defs>
</svg>
