<svg width="20" height="32" viewBox="0 0 20 32" fill="none" xmlns="http://www.w3.org/2000/svg">
<path d="M16.0197 28.868L16.0197 28.868C18.5937 26.8108 20.0782 23.4982 19.2868 19.1244C18.5009 14.7811 15.4794 9.41739 9.13798 3.14453L7.98257 2.00161L8.29572 3.59634C8.67894 5.54785 8.1957 7.40555 7.23856 9.22842C6.27705 11.0596 4.86005 12.814 3.42313 14.5524C-0.784349 19.5994 -0.111835 25.2784 3.29542 28.5082L3.29544 28.5082C6.72556 31.7591 12.3806 31.7762 16.0197 28.868ZM13.8637 25.9702C15.6092 24.5753 16.7543 22.4713 16.73 19.7474C16.7276 19.472 16.7132 19.1908 16.6864 18.9037C16.8712 19.6032 16.9808 20.2642 17.0244 20.8862C17.2125 23.5708 16.1752 25.5669 14.5554 26.8615C12.2555 28.6996 8.84573 28.9043 6.39505 27.3894C8.90659 28.134 11.7847 27.6318 13.8637 25.9702Z" fill="url(#paint0_linear_2316_1196)" stroke="white"/>
<defs>
<linearGradient id="paint0_linear_2316_1196" x1="5.5" y1="14.4687" x2="13.6643" y2="29.2734" gradientUnits="userSpaceOnUse">
<stop offset="0.201793" stop-color="#48E4EF"/>
<stop offset="1" stop-color="#1465E1"/>
</linearGradient>
</defs>
</svg>
