<svg width="167" height="56" viewBox="0 0 167 56" fill="none" xmlns="http://www.w3.org/2000/svg">
<rect width="167" height="56" rx="28" fill="url(#paint0_linear_2398_1474)"/>
<path d="M49.652 34V22.08H51.348L57.908 30.912L57.028 31.088V22.08H59.204V34H57.492L51.028 25.104L51.828 24.928V34H49.652ZM65.4634 34.192C64.5674 34.192 63.7834 33.9893 63.1114 33.584C62.4394 33.1787 61.9167 32.6293 61.5434 31.936C61.17 31.2427 60.9834 30.4747 60.9834 29.632C60.9834 28.7573 61.17 27.984 61.5434 27.312C61.9274 26.6293 62.4447 26.0907 63.0954 25.696C63.7567 25.3013 64.4927 25.104 65.3034 25.104C65.986 25.104 66.5834 25.216 67.0954 25.44C67.618 25.664 68.0607 25.9733 68.4234 26.368C68.786 26.7627 69.0634 27.216 69.2554 27.728C69.4474 28.2293 69.5434 28.7733 69.5434 29.36C69.5434 29.5093 69.5327 29.664 69.5114 29.824C69.5007 29.984 69.474 30.1227 69.4314 30.24H62.7114V28.64H68.2474L67.2554 29.392C67.3514 28.9013 67.3247 28.464 67.1754 28.08C67.0367 27.696 66.802 27.392 66.4714 27.168C66.1514 26.944 65.762 26.832 65.3034 26.832C64.866 26.832 64.4767 26.944 64.1354 27.168C63.794 27.3813 63.5327 27.7013 63.3514 28.128C63.1807 28.544 63.1167 29.0507 63.1594 29.648C63.1167 30.1813 63.186 30.656 63.3674 31.072C63.5594 31.4773 63.8367 31.792 64.1994 32.016C64.5727 32.24 64.9994 32.352 65.4794 32.352C65.9594 32.352 66.3647 32.2507 66.6954 32.048C67.0367 31.8453 67.3034 31.5733 67.4954 31.232L69.1914 32.064C69.0207 32.48 68.754 32.848 68.3914 33.168C68.0287 33.488 67.5967 33.7387 67.0954 33.92C66.6047 34.1013 66.0607 34.192 65.4634 34.192ZM70.192 34L73.232 29.632L70.176 25.296H72.64L75.024 28.816H73.92L76.304 25.296H78.752L75.712 29.632L78.736 34H76.288L73.936 30.496H75.008L72.656 34H70.192ZM83.8659 34.096C82.8845 34.096 82.1219 33.8293 81.5779 33.296C81.0445 32.752 80.7779 31.9893 80.7779 31.008V27.168H79.2739V25.296H79.4339C79.8605 25.296 80.1912 25.184 80.4259 24.96C80.6605 24.736 80.7779 24.4107 80.7779 23.984V23.312H82.8739V25.296H84.8739V27.168H82.8739V30.896C82.8739 31.184 82.9219 31.4293 83.0179 31.632C83.1245 31.8347 83.2845 31.9893 83.4979 32.096C83.7219 32.2027 84.0045 32.256 84.3459 32.256C84.4205 32.256 84.5059 32.2507 84.6019 32.24C84.7085 32.2293 84.8099 32.2187 84.9059 32.208V34C84.7565 34.0213 84.5859 34.0427 84.3939 34.064C84.2019 34.0853 84.0259 34.096 83.8659 34.096Z" fill="white"/>
<path d="M103.5 34C103.5 34 109.5 29.5811 109.5 28C109.5 26.4188 103.5 22 103.5 22" stroke="white" stroke-width="1.5" stroke-linecap="round" stroke-linejoin="round"/>
<defs>
<linearGradient id="paint0_linear_2398_1474" x1="7.63429" y1="5.00987e-07" x2="152.473" y2="24.6996" gradientUnits="userSpaceOnUse">
<stop stop-color="#48E4EF"/>
<stop offset="1" stop-color="#1B7CF5"/>
</linearGradient>
</defs>
</svg>
