<svg width="167" height="56" viewBox="0 0 167 56" fill="none" xmlns="http://www.w3.org/2000/svg">
<rect x="1" y="1" width="165" height="54" rx="27" stroke="url(#paint0_linear_2398_1470)" stroke-width="2"/>
<path d="M49.5 22C49.5 22 43.5 26.4189 43.5 28C43.5 29.5812 49.5 34 49.5 34" stroke="#8ED4FF" stroke-width="1.5" stroke-linecap="round" stroke-linejoin="round"/>
<path d="M67.828 34V22.08H72.036C72.8253 22.08 73.5187 22.2293 74.116 22.528C74.7133 22.8267 75.1773 23.2533 75.508 23.808C75.8493 24.3627 76.02 25.0133 76.02 25.76C76.02 26.5067 75.8493 27.1573 75.508 27.712C75.1773 28.256 74.7133 28.6827 74.116 28.992C73.5293 29.2907 72.836 29.44 72.036 29.44H69.396V34H67.828ZM69.396 28H72.084C72.564 28 72.98 27.9093 73.332 27.728C73.684 27.5467 73.956 27.2853 74.148 26.944C74.34 26.6027 74.436 26.208 74.436 25.76C74.436 25.3013 74.34 24.9067 74.148 24.576C73.956 24.2347 73.684 23.9733 73.332 23.792C72.98 23.6107 72.564 23.52 72.084 23.52H69.396V28ZM77.9645 34V25.376H79.4205V26.96L79.2605 26.736C79.4632 26.2453 79.7725 25.8827 80.1885 25.648C80.6045 25.4027 81.1112 25.28 81.7085 25.28H82.2365V26.688H81.4845C80.8765 26.688 80.3858 26.88 80.0125 27.264C79.6392 27.6373 79.4525 28.1707 79.4525 28.864V34H77.9645ZM87.5263 34.192C86.6943 34.192 85.9529 33.9947 85.3023 33.6C84.6516 33.2053 84.1396 32.6667 83.7663 31.984C83.3929 31.2907 83.2063 30.5173 83.2063 29.664C83.2063 28.8 83.3876 28.032 83.7503 27.36C84.1236 26.688 84.6249 26.16 85.2543 25.776C85.8943 25.3813 86.6089 25.184 87.3983 25.184C88.0383 25.184 88.6036 25.3013 89.0943 25.536C89.5956 25.76 90.0169 26.0693 90.3583 26.464C90.7103 26.848 90.9769 27.2907 91.1583 27.792C91.3503 28.2827 91.4462 28.7947 91.4462 29.328C91.4462 29.4453 91.4356 29.5787 91.4143 29.728C91.4036 29.8667 91.3876 30 91.3663 30.128H84.2943V28.848H90.5023L89.7983 29.424C89.8943 28.8693 89.8409 28.3733 89.6383 27.936C89.4356 27.4987 89.1369 27.152 88.7423 26.896C88.3476 26.64 87.8996 26.512 87.3983 26.512C86.8969 26.512 86.4383 26.64 86.0223 26.896C85.6063 27.152 85.2809 27.52 85.0463 28C84.8223 28.4693 84.7316 29.0293 84.7743 29.68C84.7316 30.3093 84.8276 30.864 85.0623 31.344C85.3076 31.8133 85.6489 32.1813 86.0863 32.448C86.5343 32.704 87.0196 32.832 87.5423 32.832C88.1183 32.832 88.6036 32.6987 88.9983 32.432C89.3929 32.1653 89.7129 31.824 89.9583 31.408L91.2063 32.048C91.0356 32.4427 90.7689 32.8053 90.4062 33.136C90.0543 33.456 89.6329 33.712 89.1423 33.904C88.6623 34.096 88.1236 34.192 87.5263 34.192ZM95.6301 34L92.2541 25.376H93.9181L96.6221 32.672H96.0461L98.7661 25.376H100.43L97.0381 34H95.6301ZM101.761 34V25.376H103.249V34H101.761ZM101.761 24V22.08H103.249V24H101.761ZM109.654 34.192C108.822 34.192 108.07 34 107.398 33.616C106.726 33.2213 106.193 32.6827 105.798 32C105.404 31.3173 105.206 30.544 105.206 29.68C105.206 28.816 105.398 28.048 105.782 27.376C106.177 26.704 106.71 26.1707 107.382 25.776C108.054 25.3813 108.812 25.184 109.654 25.184C110.486 25.184 111.238 25.3813 111.91 25.776C112.582 26.16 113.11 26.688 113.494 27.36C113.889 28.032 114.086 28.8053 114.086 29.68C114.086 30.5547 113.884 31.3333 113.478 32.016C113.073 32.688 112.534 33.2213 111.862 33.616C111.201 34 110.465 34.192 109.654 34.192ZM109.654 32.752C110.188 32.752 110.668 32.6187 111.094 32.352C111.532 32.0853 111.873 31.7173 112.118 31.248C112.374 30.7787 112.502 30.256 112.502 29.68C112.502 29.0933 112.374 28.576 112.118 28.128C111.873 27.6693 111.532 27.3067 111.094 27.04C110.668 26.7627 110.188 26.624 109.654 26.624C109.11 26.624 108.62 26.7627 108.182 27.04C107.756 27.3067 107.414 27.6693 107.158 28.128C106.902 28.576 106.774 29.0933 106.774 29.68C106.774 30.256 106.902 30.7787 107.158 31.248C107.414 31.7173 107.756 32.0853 108.182 32.352C108.62 32.6187 109.11 32.752 109.654 32.752ZM119.083 34.192C118.464 34.192 117.904 34.048 117.403 33.76C116.912 33.472 116.528 33.072 116.251 32.56C115.984 32.0373 115.851 31.44 115.851 30.768V25.376H117.339V30.608C117.339 31.0347 117.424 31.408 117.595 31.728C117.776 32.048 118.022 32.2987 118.331 32.48C118.651 32.6613 119.014 32.752 119.419 32.752C119.824 32.752 120.182 32.6613 120.491 32.48C120.811 32.2987 121.056 32.0373 121.227 31.696C121.408 31.3547 121.499 30.9493 121.499 30.48V25.376H123.003V34H121.547V32.32L121.787 32.464C121.584 33.008 121.238 33.4347 120.747 33.744C120.267 34.0427 119.712 34.192 119.083 34.192ZM128.396 34.192C127.532 34.192 126.78 33.9787 126.14 33.552C125.5 33.1253 125.047 32.5493 124.78 31.824L125.964 31.248C126.21 31.76 126.546 32.1653 126.972 32.464C127.399 32.7627 127.874 32.912 128.396 32.912C128.866 32.912 129.255 32.8 129.564 32.576C129.874 32.352 130.028 32.0587 130.028 31.696C130.028 31.44 129.954 31.2373 129.804 31.088C129.666 30.928 129.495 30.8053 129.292 30.72C129.09 30.624 128.903 30.5547 128.732 30.512L127.436 30.144C126.658 29.92 126.087 29.6 125.724 29.184C125.372 28.768 125.196 28.2827 125.196 27.728C125.196 27.216 125.324 26.7733 125.58 26.4C125.847 26.016 126.204 25.7173 126.652 25.504C127.111 25.2907 127.623 25.184 128.188 25.184C128.946 25.184 129.623 25.376 130.22 25.76C130.828 26.144 131.26 26.6827 131.516 27.376L130.3 27.936C130.108 27.488 129.82 27.136 129.436 26.88C129.052 26.6133 128.62 26.48 128.14 26.48C127.703 26.48 127.356 26.592 127.1 26.816C126.844 27.0293 126.716 27.3013 126.716 27.632C126.716 27.8773 126.78 28.08 126.908 28.24C127.036 28.3893 127.191 28.5067 127.372 28.592C127.554 28.6667 127.73 28.7307 127.9 28.784L129.308 29.2C130.012 29.4027 130.556 29.7173 130.94 30.144C131.335 30.5707 131.532 31.0827 131.532 31.68C131.532 32.16 131.399 32.592 131.132 32.976C130.866 33.36 130.498 33.6587 130.028 33.872C129.559 34.0853 129.015 34.192 128.396 34.192Z" fill="#ECFFFF"/>
<defs>
<linearGradient id="paint0_linear_2398_1470" x1="19.5" y1="2.5" x2="150" y2="56" gradientUnits="userSpaceOnUse">
<stop stop-color="#68F0F8"/>
<stop offset="1" stop-color="#1B7CF5"/>
</linearGradient>
</defs>
</svg>
