<svg width="209" height="211" viewBox="0 0 209 211" fill="none" xmlns="http://www.w3.org/2000/svg">
<path fill-rule="evenodd" clip-rule="evenodd" d="M80.5842 186.197C66.0314 179.284 47.0416 174.97 37.3892 187.109C32.508 193.553 41.7822 199.941 46.5923 195.113C53.5763 185.555 62.4809 181.134 80.5842 186.197Z" fill="#42BCF8"/>
<path fill-rule="evenodd" clip-rule="evenodd" d="M62.6436 175.299C58.8046 169.138 52.0621 162.852 43.2352 164.912C38.6493 166.085 40.3256 170.762 44.2694 170.148C50.9413 168.377 56.5366 168.951 62.6436 175.299Z" fill="#5AE6F1"/>
<path fill-rule="evenodd" clip-rule="evenodd" d="M157.816 164.238C175.422 163.788 196.857 157.419 203.403 136.429C206.589 125.397 194.748 123.151 191.182 132.152C186.681 148.281 178.6 159.275 157.816 164.238Z" fill="#5AE6F1"/>
<path fill-rule="evenodd" clip-rule="evenodd" d="M135.068 183.755C146.562 172.465 163.098 162.18 176.188 170.497C182.908 174.992 176.231 184.06 170.107 181.069C160.382 174.32 150.522 173.053 135.068 183.755Z" fill="#42BCF8"/>
<path d="M105.475 12.6156C105.335 12.7175 101.89 12.5442 97.8203 12.3961C67.3335 10.6709 35.6677 27.3638 21.5127 52.5341C10.6527 71.7764 13.8633 102.424 28.3211 116.868L32.7075 121.283L30.5066 130.485C27.9741 140.999 28.6599 146.069 32.8748 149.217C35.186 151.071 36.2941 151.123 40.1923 150.003C44.1096 148.763 45.8872 146.936 51.3994 138.754C64.0936 119.678 71.1092 110.618 76.7092 105.799C92.9297 91.8704 119.582 95.0971 132.714 112.432C139.799 121.739 141.426 128.695 139.434 141.279C137.902 150.959 135.632 156.677 131.3 161.324C130.102 162.623 129.969 161.114 131.022 154.459C132.325 146.231 131.569 140.034 129.149 139.651C128.544 139.555 126.27 142.172 124.122 145.553C118.75 153.632 112.907 150.304 102.898 164.891C94.4521 161.499 89.5765 164.766 81.3485 163.464C75.1775 162.487 70.2105 160.957 67.498 159.287C62.417 156.126 60.7543 157.227 62.9113 162.406C71.8195 182.917 92.1526 189.236 120.217 180.407C142.676 173.296 161.795 156.725 172.854 134.662C177.411 125.461 181.215 105.35 180.455 93.6944C179.784 83.0455 176.987 70.9437 173.073 62.7583C171.782 59.9491 170.904 56.0893 171.191 54.2743C171.804 50.4023 178.169 45.4562 185.621 43.039C192.29 40.8699 192.623 37.2016 186.587 33.0213C179.417 28.1655 171.101 25.8567 148.958 22.3515C137.342 20.5127 125.802 18.19 123.115 17.1444C118.932 15.3659 106.297 12.1256 105.475 12.6156ZM73.0137 77.4309C71.1282 78.3727 68.6307 80.8301 67.4581 82.753C64.7942 87.0445 62.4569 86.9226 64.3948 82.5162C66.1541 78.4536 70.9768 74.6278 74.0018 75.1067C76.1798 75.4514 76.0205 75.6743 73.0137 77.4309Z" fill="url(#paint0_linear_2271_189)"/>
<ellipse cx="69.1592" cy="75.5652" rx="11.3742" ry="12.7959" fill="#085988"/>
<path d="M77.69 69.8781C77.69 72.2338 75.78 74.1434 73.4247 74.1434C71.0695 74.1434 69.1594 72.2338 69.1594 69.8781C69.1594 67.5225 71.0695 65.6128 73.4247 65.6128C75.78 65.6139 77.69 67.5235 77.69 69.8781Z" fill="#FDFFFF"/>
<path d="M59.7921 52.5315C64.8656 50.8293 70.6999 50.8467 74.359 55.5864C75.325 49.8243 61.2455 47.6027 59.7921 52.5315Z" fill="#085988"/>
<defs>
<linearGradient id="paint0_linear_2271_189" x1="151.917" y1="63.8327" x2="47.3222" y2="31.1515" gradientUnits="userSpaceOnUse">
<stop stop-color="#48E4EF"/>
<stop offset="1" stop-color="#3FA1FF"/>
</linearGradient>
</defs>
</svg>
