<svg width="57" height="56" viewBox="0 0 57 56" fill="none" xmlns="http://www.w3.org/2000/svg">
<path d="M7.5 10.5C7.5 8.567 9.067 7 11 7H15.6667C17.5997 7 19.1667 8.567 19.1667 10.5V15.1667C19.1667 17.0997 17.5997 18.6667 15.6667 18.6667H11C9.067 18.6667 7.5 17.0997 7.5 15.1667V10.5Z" fill="#24DEEC" stroke="#0A9AB0" stroke-width="1.5"/>
<path d="M7.5 40.8333C7.5 38.9003 9.067 37.3333 11 37.3333H15.6667C17.5997 37.3333 19.1667 38.9003 19.1667 40.8333V45.4999C19.1667 47.4329 17.5997 48.9999 15.6667 48.9999H11C9.067 48.9999 7.5 47.4329 7.5 45.4999V40.8333Z" fill="#24DEEC" stroke="#0A9AB0" stroke-width="1.5"/>
<path d="M19.1665 43.1666H49.4998M37.8331 12.8333H19.1665M38.5879 17.9117L18.3467 38.153" stroke="#0A9AB0" stroke-width="1.5" stroke-linecap="round" stroke-linejoin="round"/>
<path d="M37.833 10.5C37.833 8.567 39.4001 7 41.333 7H45.9997C47.9326 7 49.4997 8.567 49.4997 10.5V15.1667C49.4997 17.0997 47.9326 18.6667 45.9997 18.6667H41.333C39.4001 18.6667 37.833 17.0997 37.833 15.1667V10.5Z" fill="#24DEEC" stroke="#0A9AB0" stroke-width="1.5"/>
<path d="M42.5 48.9999L45.7394 46.7919C48.2465 45.083 49.5 44.2285 49.5 43.1666C49.5 42.1047 48.2465 41.2502 45.7394 39.5413L42.5 37.3333" stroke="#0A9AB0" stroke-width="1.5" stroke-linecap="round" stroke-linejoin="round"/>
</svg>
