<svg width="57" height="56" viewBox="0 0 57 56" fill="none" xmlns="http://www.w3.org/2000/svg">
<path d="M6.33301 28.5675C6.33301 18.4005 6.33301 13.317 9.25462 10.1585C12.1762 7 16.8785 7 26.283 7H30.7163C40.1208 7 44.8232 7 47.7448 10.1585C50.6663 13.317 50.6663 18.4005 50.6663 28.5675V29.7659C50.6663 39.9329 50.6663 45.0163 47.7448 48.1749C44.8232 51.3333 40.1208 51.3333 30.7163 51.3333H26.283C16.8785 51.3333 12.1762 51.3333 9.25462 48.1749C6.33301 45.0163 6.33301 39.9329 6.33301 29.7659V28.5675Z" fill="#24DEEC" stroke="#0A9AB0" stroke-width="1.5" stroke-linecap="round" stroke-linejoin="round"/>
<path d="M42.5 4.66675V9.33341M14.5 4.66675V9.33341" stroke="#0A9AB0" stroke-width="1.5" stroke-linecap="round" stroke-linejoin="round"/>
<path d="M28.4898 30.3333H28.5108M28.4898 39.6666H28.5108M37.8127 30.3333H37.8337M19.167 30.3333H19.1879M19.167 39.6666H19.1879" stroke="#F9FAFB" stroke-width="4" stroke-linecap="round" stroke-linejoin="round"/>
<path d="M8.66699 18.6667H48.3337" stroke="#0A9AB0" stroke-width="1.5" stroke-linecap="round" stroke-linejoin="round"/>
<path d="M7.5 18.6667H49.5" stroke="#0A9AB0" stroke-width="1.5" stroke-linecap="round" stroke-linejoin="round"/>
</svg>
