<svg width="57" height="56" viewBox="0 0 57 56" fill="none" xmlns="http://www.w3.org/2000/svg">
<path d="M51.8337 28.0001C51.8337 15.1134 41.3869 4.66675 28.5003 4.66675C15.6137 4.66675 5.16699 15.1134 5.16699 28.0001C5.16699 40.8866 15.6137 51.3334 28.5003 51.3334C30.4643 51.3334 33.167 51.6048 33.167 49.0001C33.167 47.5791 32.4278 46.4829 31.6937 45.3937C30.6195 43.8002 29.5557 42.2224 30.8337 39.6667C32.3893 36.5557 34.9819 36.5557 38.9572 36.5557C40.9449 36.5557 43.2783 36.5557 46.0003 36.1667C50.9027 35.4665 51.8337 32.453 51.8337 28.0001Z" fill="#24DEEC" stroke="#0A9AB0" stroke-width="1.5"/>
<path d="M16.833 35.0046L16.8533 34.999" stroke="white" stroke-width="3" stroke-linecap="round" stroke-linejoin="round"/>
<path d="M22.667 23.3333C24.6 23.3333 26.167 21.7662 26.167 19.8333C26.167 17.9003 24.6 16.3333 22.667 16.3333C20.734 16.3333 19.167 17.9003 19.167 19.8333C19.167 21.7662 20.734 23.3333 22.667 23.3333Z" fill="#F9FAFB"/>
<path d="M39 25.6667C40.933 25.6667 42.5 24.0997 42.5 22.1667C42.5 20.2338 40.933 18.6667 39 18.6667C37.067 18.6667 35.5 20.2338 35.5 22.1667C35.5 24.0997 37.067 25.6667 39 25.6667Z" fill="#F9FAFB"/>
</svg>
