<svg width="57" height="56" viewBox="0 0 57 56" fill="none" xmlns="http://www.w3.org/2000/svg">
<mask id="path-1-inside-1_2537_2418" fill="white">
<path d="M41.3856 11.581C41.8513 9.0399 44.7555 6.77376 47.2412 9.25931C49.6855 11.7036 47.5345 14.5528 45.0459 15.0897C42.698 15.5962 40.948 13.969 41.3857 11.581H41.3856ZM44.9195 40.8852C42.5314 40.4475 40.9043 42.1975 41.4108 44.5454C41.9477 47.034 44.7969 49.185 47.2412 46.7407C49.7267 44.2552 47.4606 41.3508 44.9195 40.8852ZM11.9551 40.9105C9.46645 41.4474 7.31549 44.2965 9.7598 46.7408C12.2453 49.2264 15.1497 46.9602 15.6153 44.4191C16.053 42.031 14.3029 40.4039 11.9551 40.9105ZM36.4162 20.0843C37.8148 21.4828 38.8449 23.2498 39.3488 25.2269L42.0569 22.5186C42.4946 22.0809 43.0159 21.8492 43.6341 21.8175L48.4275 21.2731C48.9868 21.2444 49.4678 21.1176 49.945 20.8245L54.2978 18.1507C56.3404 16.9715 54.9712 14.9155 53.3129 15.712L48.7172 17.9799C48.479 18.0975 48.2514 18.1505 47.9857 18.1505H44.679C44.2238 18.1505 43.832 17.9883 43.5101 17.6664L41.172 15.3283L38.8339 12.9902C38.512 12.6683 38.3497 12.2765 38.3497 11.8213V8.51458C38.3497 8.2489 38.4028 8.02129 38.5204 7.78307L40.7883 3.18736C41.5846 1.52923 39.5288 0.159856 38.3495 2.20243L35.6758 6.55523C35.3826 7.03243 35.2558 7.51347 35.2272 8.07281L34.6827 12.8662C34.6511 13.4844 34.4194 14.0056 33.9817 14.4434L31.2734 17.1516C33.2506 17.6555 35.0177 18.6857 36.4162 20.0843ZM2.70281 18.1508L7.05561 20.8246C7.53281 21.1177 8.01384 21.2446 8.57319 21.2732L13.3665 21.8176C13.9847 21.8492 14.506 22.081 14.9437 22.5187L17.652 25.227C18.1559 23.2498 19.1861 21.4828 20.5846 20.0843C21.9831 18.6858 23.7501 17.6556 25.7272 17.1516L23.0191 14.4434C22.5814 14.0056 22.3496 13.4844 22.318 12.8662L21.7735 8.07281C21.7449 7.51347 21.6181 7.03243 21.325 6.55523L18.6512 2.20243C17.4719 0.159856 15.416 1.52912 16.2125 3.18736L18.4804 7.78307C18.598 8.02129 18.651 8.2489 18.651 8.51458V11.8213C18.651 12.2765 18.4888 12.6683 18.1669 12.9902L15.8288 15.3283L13.4907 17.6664C13.1688 17.9883 12.777 18.1506 12.3218 18.1506H9.01506C8.74939 18.1506 8.52178 18.0975 8.28356 17.98L3.68784 15.7121C2.02972 14.9156 0.660235 16.9716 2.70281 18.1508ZM54.2981 37.8493L49.9452 35.1755C49.468 34.8824 48.9869 34.7555 48.4276 34.7269L43.6342 34.1825C43.016 34.1509 42.4948 33.9191 42.057 33.4814L39.3489 30.7732C38.845 32.7503 37.8148 34.5172 36.4163 35.9157C35.0179 37.3143 33.2509 38.3444 31.2736 38.8484L33.9819 41.5567C34.4196 41.9944 34.6514 42.5157 34.683 43.1338L35.2274 47.9272C35.2561 48.4865 35.3829 48.9676 35.676 49.4448L38.3498 53.7976C39.529 55.8402 41.585 54.4709 40.7885 52.8127L38.5206 48.2169C38.403 47.9787 38.35 47.7511 38.35 47.4854V44.1787C38.35 43.7235 38.5122 43.3317 38.8341 43.0098L41.1722 40.6717L43.5103 38.3336C43.8322 38.0117 44.224 37.8494 44.6792 37.8494H47.9859C48.2516 37.8494 48.4792 37.9025 48.7174 38.02L53.3131 40.2879C54.9713 41.0844 56.3406 39.0286 54.2981 37.8493ZM20.5846 35.9159C19.1861 34.5173 18.156 32.7504 17.652 30.7732L14.9437 33.4814C14.5061 33.9191 13.9848 34.1508 13.3667 34.1825L8.5733 34.7269C8.01395 34.7556 7.53292 34.8824 7.05572 35.1755L2.70292 37.8493C0.660344 39.0286 2.02961 41.0845 3.68784 40.288L8.28356 38.0201C8.52178 37.9025 8.74939 37.8495 9.01506 37.8495H12.3218C12.777 37.8495 13.1688 38.0117 13.4907 38.3336L15.8288 40.6717L18.1669 43.0098C18.4888 43.3317 18.6511 43.7235 18.6511 44.1787V47.4854C18.6511 47.7511 18.598 47.9787 18.4804 48.2169L16.2125 52.8127C15.416 54.4708 17.4719 55.8402 18.6512 53.7976L21.325 49.4448C21.6181 48.9676 21.745 48.4865 21.7735 47.9272L22.318 43.1338C22.3496 42.5157 22.5814 41.9944 23.0191 41.5567L25.7272 38.8484C23.7501 38.3445 21.9832 37.3144 20.5846 35.9159ZM12.0814 15.1149C14.4695 15.5526 16.0965 13.8025 15.59 11.4547C15.0532 8.96597 12.204 6.81511 9.75969 9.25942C7.27414 11.745 9.54028 14.6493 12.0814 15.1149ZM24.3989 7.24747C24.4463 7.24747 24.4938 7.2432 24.5413 7.23434C27.1509 6.73986 29.8659 6.74193 32.4597 7.2327C32.8762 7.31178 33.2768 7.03867 33.3559 6.62326C33.435 6.20786 33.1609 5.80722 32.7444 5.72803C29.9661 5.20193 27.0508 5.19975 24.2566 5.72967C23.8401 5.8082 23.566 6.20884 23.6451 6.62436C23.7189 6.99131 24.0352 7.24747 24.399 7.24747H24.3989ZM49.8781 32.8531C49.9256 32.8616 49.9729 32.8663 50.0204 32.8663C50.3789 32.8663 50.7005 32.6101 50.7691 32.2426C51.0327 30.8514 51.1697 29.4231 51.1697 27.9986C51.1697 26.5741 51.0327 25.1502 50.7691 23.7548C50.69 23.3394 50.2894 23.0657 49.8729 23.1448C49.4617 23.2239 49.1875 23.624 49.2666 24.0399C49.5091 25.3416 49.6356 26.6732 49.6356 27.9986C49.6356 29.324 49.5143 30.66 49.2666 31.9583C49.1875 32.3737 49.4617 32.7739 49.8781 32.8529V32.8531ZM7.12277 23.145C6.71152 23.0665 6.30563 23.3396 6.2318 23.755C5.9682 25.1473 5.83116 26.5749 5.83116 27.9989C5.83116 29.4228 5.9682 30.8468 6.2318 32.2428C6.30038 32.6103 6.62194 32.8665 6.98047 32.8665C7.02794 32.8665 7.07541 32.8618 7.12277 32.8534C7.53927 32.7743 7.81336 32.3742 7.73428 31.9588C7.48655 30.6561 7.36525 29.3238 7.36525 27.9991C7.36525 26.6743 7.48655 25.3389 7.73428 24.0399C7.81336 23.6245 7.53927 23.2243 7.12277 23.1452V23.145ZM32.4596 48.7639C29.8553 49.2579 27.1349 49.2558 24.5412 48.765C24.1247 48.6859 23.724 48.9596 23.645 49.375C23.5659 49.791 23.84 50.191 24.2565 50.2702C25.6483 50.5338 27.0769 50.6673 28.5003 50.6673C29.9237 50.6673 31.3471 50.5328 32.7443 50.2692C33.1608 50.1902 33.4349 49.789 33.3558 49.3741C33.2767 48.9587 32.8761 48.6851 32.4596 48.7641V48.7639ZM29.266 18.6221V22.1874C30.207 22.1145 31.1074 21.9078 31.9482 21.5867C31.8693 21.4163 31.7873 21.2512 31.7023 21.0919C31.0285 19.8283 30.1836 18.9436 29.266 18.6221ZM33.3251 35.0694C33.2362 35.2608 33.1438 35.4465 33.0481 35.6261C32.795 36.1007 32.5178 36.5345 32.2193 36.922C32.969 36.6092 33.6708 36.2046 34.3108 35.7224C33.9964 35.4854 33.6673 35.2672 33.3252 35.0694H33.3251ZM29.266 37.3781C30.1836 37.0567 31.0285 36.1719 31.7023 34.9083C31.7873 34.7489 31.8692 34.5839 31.9482 34.4135C31.1074 34.0924 30.207 33.8857 29.266 33.8128V37.3782V37.3781ZM33.1991 28.7657H29.266V32.2779C30.3934 32.3547 31.4781 32.5998 32.495 32.9885C32.8877 31.7395 33.1366 30.305 33.1991 28.7657ZM29.266 27.2344H33.1991C33.1366 25.6951 32.8877 24.2605 32.4949 23.0116C31.478 23.4003 30.3933 23.6454 29.2658 23.7222V27.2344H29.266ZM38.1339 28.7657H34.7312C34.6638 30.5361 34.3645 32.194 33.8893 33.6346C34.4486 33.9421 34.9783 34.2957 35.4734 34.6903C36.9743 33.1264 37.9542 31.0584 38.1339 28.7657ZM33.3251 20.9307C33.6672 20.733 33.9963 20.5148 34.3105 20.2777C33.6706 19.7955 32.9687 19.391 32.2191 19.0782C32.5176 19.4657 32.7949 19.8995 33.048 20.3741C33.1437 20.5537 33.2362 20.7393 33.325 20.9307H33.3251ZM23.9525 35.626C23.8568 35.4464 23.7644 35.2607 23.6756 35.0693C23.3335 35.267 23.0045 35.4852 22.6901 35.7223C23.3301 36.2045 24.0318 36.609 24.7815 36.9218C24.483 36.5343 24.2056 36.1005 23.9526 35.6259L23.9525 35.626ZM21.5272 34.6903C22.0224 34.2957 22.5521 33.9421 23.1113 33.6346C22.6361 32.194 22.3368 30.5361 22.2695 28.7657H18.8668C19.0465 31.0584 20.0264 33.1264 21.5272 34.6903ZM35.4733 21.3098C34.9782 21.7043 34.4485 22.058 33.8892 22.3655C34.3645 23.8061 34.6637 25.464 34.7311 27.2344H38.1338C37.954 24.9416 36.9742 22.8738 35.4733 21.3098ZM27.7347 18.6221C26.8172 18.9436 25.9721 19.8283 25.2984 21.0919C25.2134 21.2513 25.1315 21.4163 25.0525 21.5867C25.8933 21.9079 26.7936 22.1145 27.7346 22.1874L27.7347 18.6221ZM27.7347 23.7222C26.6074 23.6454 25.5226 23.4003 24.5057 23.0116C24.113 24.2606 23.864 25.6951 23.8016 27.2344H27.7347V23.7222ZM23.9525 20.3741C24.2056 19.8995 24.483 19.4657 24.7814 19.0782C24.0317 19.391 23.33 19.7955 22.69 20.2777C23.0043 20.5148 23.3333 20.733 23.6755 20.9307C23.7644 20.7393 23.8567 20.5537 23.9524 20.3741H23.9525ZM27.7347 28.7657H23.8016C23.864 30.305 24.113 31.7395 24.5057 32.9885C25.5227 32.5998 26.6074 32.3547 27.7347 32.2779V28.7657ZM27.7347 37.3781V33.8128C26.7936 33.8857 25.8934 34.0924 25.0526 34.4135C25.1315 34.5839 25.2135 34.749 25.2985 34.9083C25.9722 36.1719 26.8172 37.0566 27.7348 37.3781H27.7347ZM18.8668 27.2344H22.2695C22.3368 25.464 22.6361 23.8061 23.1113 22.3655C22.5521 22.058 22.0224 21.7043 21.5272 21.3098C20.0263 22.8738 19.0464 24.9417 18.8668 27.2344Z"/>
</mask>
<path d="M41.3856 11.581C41.8513 9.0399 44.7555 6.77376 47.2412 9.25931C49.6855 11.7036 47.5345 14.5528 45.0459 15.0897C42.698 15.5962 40.948 13.969 41.3857 11.581H41.3856ZM44.9195 40.8852C42.5314 40.4475 40.9043 42.1975 41.4108 44.5454C41.9477 47.034 44.7969 49.185 47.2412 46.7407C49.7267 44.2552 47.4606 41.3508 44.9195 40.8852ZM11.9551 40.9105C9.46645 41.4474 7.31549 44.2965 9.7598 46.7408C12.2453 49.2264 15.1497 46.9602 15.6153 44.4191C16.053 42.031 14.3029 40.4039 11.9551 40.9105ZM36.4162 20.0843C37.8148 21.4828 38.8449 23.2498 39.3488 25.2269L42.0569 22.5186C42.4946 22.0809 43.0159 21.8492 43.6341 21.8175L48.4275 21.2731C48.9868 21.2444 49.4678 21.1176 49.945 20.8245L54.2978 18.1507C56.3404 16.9715 54.9712 14.9155 53.3129 15.712L48.7172 17.9799C48.479 18.0975 48.2514 18.1505 47.9857 18.1505H44.679C44.2238 18.1505 43.832 17.9883 43.5101 17.6664L41.172 15.3283L38.8339 12.9902C38.512 12.6683 38.3497 12.2765 38.3497 11.8213V8.51458C38.3497 8.2489 38.4028 8.02129 38.5204 7.78307L40.7883 3.18736C41.5846 1.52923 39.5288 0.159856 38.3495 2.20243L35.6758 6.55523C35.3826 7.03243 35.2558 7.51347 35.2272 8.07281L34.6827 12.8662C34.6511 13.4844 34.4194 14.0056 33.9817 14.4434L31.2734 17.1516C33.2506 17.6555 35.0177 18.6857 36.4162 20.0843ZM2.70281 18.1508L7.05561 20.8246C7.53281 21.1177 8.01384 21.2446 8.57319 21.2732L13.3665 21.8176C13.9847 21.8492 14.506 22.081 14.9437 22.5187L17.652 25.227C18.1559 23.2498 19.1861 21.4828 20.5846 20.0843C21.9831 18.6858 23.7501 17.6556 25.7272 17.1516L23.0191 14.4434C22.5814 14.0056 22.3496 13.4844 22.318 12.8662L21.7735 8.07281C21.7449 7.51347 21.6181 7.03243 21.325 6.55523L18.6512 2.20243C17.4719 0.159856 15.416 1.52912 16.2125 3.18736L18.4804 7.78307C18.598 8.02129 18.651 8.2489 18.651 8.51458V11.8213C18.651 12.2765 18.4888 12.6683 18.1669 12.9902L15.8288 15.3283L13.4907 17.6664C13.1688 17.9883 12.777 18.1506 12.3218 18.1506H9.01506C8.74939 18.1506 8.52178 18.0975 8.28356 17.98L3.68784 15.7121C2.02972 14.9156 0.660235 16.9716 2.70281 18.1508ZM54.2981 37.8493L49.9452 35.1755C49.468 34.8824 48.9869 34.7555 48.4276 34.7269L43.6342 34.1825C43.016 34.1509 42.4948 33.9191 42.057 33.4814L39.3489 30.7732C38.845 32.7503 37.8148 34.5172 36.4163 35.9157C35.0179 37.3143 33.2509 38.3444 31.2736 38.8484L33.9819 41.5567C34.4196 41.9944 34.6514 42.5157 34.683 43.1338L35.2274 47.9272C35.2561 48.4865 35.3829 48.9676 35.676 49.4448L38.3498 53.7976C39.529 55.8402 41.585 54.4709 40.7885 52.8127L38.5206 48.2169C38.403 47.9787 38.35 47.7511 38.35 47.4854V44.1787C38.35 43.7235 38.5122 43.3317 38.8341 43.0098L41.1722 40.6717L43.5103 38.3336C43.8322 38.0117 44.224 37.8494 44.6792 37.8494H47.9859C48.2516 37.8494 48.4792 37.9025 48.7174 38.02L53.3131 40.2879C54.9713 41.0844 56.3406 39.0286 54.2981 37.8493ZM20.5846 35.9159C19.1861 34.5173 18.156 32.7504 17.652 30.7732L14.9437 33.4814C14.5061 33.9191 13.9848 34.1508 13.3667 34.1825L8.5733 34.7269C8.01395 34.7556 7.53292 34.8824 7.05572 35.1755L2.70292 37.8493C0.660344 39.0286 2.02961 41.0845 3.68784 40.288L8.28356 38.0201C8.52178 37.9025 8.74939 37.8495 9.01506 37.8495H12.3218C12.777 37.8495 13.1688 38.0117 13.4907 38.3336L15.8288 40.6717L18.1669 43.0098C18.4888 43.3317 18.6511 43.7235 18.6511 44.1787V47.4854C18.6511 47.7511 18.598 47.9787 18.4804 48.2169L16.2125 52.8127C15.416 54.4708 17.4719 55.8402 18.6512 53.7976L21.325 49.4448C21.6181 48.9676 21.745 48.4865 21.7735 47.9272L22.318 43.1338C22.3496 42.5157 22.5814 41.9944 23.0191 41.5567L25.7272 38.8484C23.7501 38.3445 21.9832 37.3144 20.5846 35.9159ZM12.0814 15.1149C14.4695 15.5526 16.0965 13.8025 15.59 11.4547C15.0532 8.96597 12.204 6.81511 9.75969 9.25942C7.27414 11.745 9.54028 14.6493 12.0814 15.1149ZM24.3989 7.24747C24.4463 7.24747 24.4938 7.2432 24.5413 7.23434C27.1509 6.73986 29.8659 6.74193 32.4597 7.2327C32.8762 7.31178 33.2768 7.03867 33.3559 6.62326C33.435 6.20786 33.1609 5.80722 32.7444 5.72803C29.9661 5.20193 27.0508 5.19975 24.2566 5.72967C23.8401 5.8082 23.566 6.20884 23.6451 6.62436C23.7189 6.99131 24.0352 7.24747 24.399 7.24747H24.3989ZM49.8781 32.8531C49.9256 32.8616 49.9729 32.8663 50.0204 32.8663C50.3789 32.8663 50.7005 32.6101 50.7691 32.2426C51.0327 30.8514 51.1697 29.4231 51.1697 27.9986C51.1697 26.5741 51.0327 25.1502 50.7691 23.7548C50.69 23.3394 50.2894 23.0657 49.8729 23.1448C49.4617 23.2239 49.1875 23.624 49.2666 24.0399C49.5091 25.3416 49.6356 26.6732 49.6356 27.9986C49.6356 29.324 49.5143 30.66 49.2666 31.9583C49.1875 32.3737 49.4617 32.7739 49.8781 32.8529V32.8531ZM7.12277 23.145C6.71152 23.0665 6.30563 23.3396 6.2318 23.755C5.9682 25.1473 5.83116 26.5749 5.83116 27.9989C5.83116 29.4228 5.9682 30.8468 6.2318 32.2428C6.30038 32.6103 6.62194 32.8665 6.98047 32.8665C7.02794 32.8665 7.07541 32.8618 7.12277 32.8534C7.53927 32.7743 7.81336 32.3742 7.73428 31.9588C7.48655 30.6561 7.36525 29.3238 7.36525 27.9991C7.36525 26.6743 7.48655 25.3389 7.73428 24.0399C7.81336 23.6245 7.53927 23.2243 7.12277 23.1452V23.145ZM32.4596 48.7639C29.8553 49.2579 27.1349 49.2558 24.5412 48.765C24.1247 48.6859 23.724 48.9596 23.645 49.375C23.5659 49.791 23.84 50.191 24.2565 50.2702C25.6483 50.5338 27.0769 50.6673 28.5003 50.6673C29.9237 50.6673 31.3471 50.5328 32.7443 50.2692C33.1608 50.1902 33.4349 49.789 33.3558 49.3741C33.2767 48.9587 32.8761 48.6851 32.4596 48.7641V48.7639ZM29.266 18.6221V22.1874C30.207 22.1145 31.1074 21.9078 31.9482 21.5867C31.8693 21.4163 31.7873 21.2512 31.7023 21.0919C31.0285 19.8283 30.1836 18.9436 29.266 18.6221ZM33.3251 35.0694C33.2362 35.2608 33.1438 35.4465 33.0481 35.6261C32.795 36.1007 32.5178 36.5345 32.2193 36.922C32.969 36.6092 33.6708 36.2046 34.3108 35.7224C33.9964 35.4854 33.6673 35.2672 33.3252 35.0694H33.3251ZM29.266 37.3781C30.1836 37.0567 31.0285 36.1719 31.7023 34.9083C31.7873 34.7489 31.8692 34.5839 31.9482 34.4135C31.1074 34.0924 30.207 33.8857 29.266 33.8128V37.3782V37.3781ZM33.1991 28.7657H29.266V32.2779C30.3934 32.3547 31.4781 32.5998 32.495 32.9885C32.8877 31.7395 33.1366 30.305 33.1991 28.7657ZM29.266 27.2344H33.1991C33.1366 25.6951 32.8877 24.2605 32.4949 23.0116C31.478 23.4003 30.3933 23.6454 29.2658 23.7222V27.2344H29.266ZM38.1339 28.7657H34.7312C34.6638 30.5361 34.3645 32.194 33.8893 33.6346C34.4486 33.9421 34.9783 34.2957 35.4734 34.6903C36.9743 33.1264 37.9542 31.0584 38.1339 28.7657ZM33.3251 20.9307C33.6672 20.733 33.9963 20.5148 34.3105 20.2777C33.6706 19.7955 32.9687 19.391 32.2191 19.0782C32.5176 19.4657 32.7949 19.8995 33.048 20.3741C33.1437 20.5537 33.2362 20.7393 33.325 20.9307H33.3251ZM23.9525 35.626C23.8568 35.4464 23.7644 35.2607 23.6756 35.0693C23.3335 35.267 23.0045 35.4852 22.6901 35.7223C23.3301 36.2045 24.0318 36.609 24.7815 36.9218C24.483 36.5343 24.2056 36.1005 23.9526 35.6259L23.9525 35.626ZM21.5272 34.6903C22.0224 34.2957 22.5521 33.9421 23.1113 33.6346C22.6361 32.194 22.3368 30.5361 22.2695 28.7657H18.8668C19.0465 31.0584 20.0264 33.1264 21.5272 34.6903ZM35.4733 21.3098C34.9782 21.7043 34.4485 22.058 33.8892 22.3655C34.3645 23.8061 34.6637 25.464 34.7311 27.2344H38.1338C37.954 24.9416 36.9742 22.8738 35.4733 21.3098ZM27.7347 18.6221C26.8172 18.9436 25.9721 19.8283 25.2984 21.0919C25.2134 21.2513 25.1315 21.4163 25.0525 21.5867C25.8933 21.9079 26.7936 22.1145 27.7346 22.1874L27.7347 18.6221ZM27.7347 23.7222C26.6074 23.6454 25.5226 23.4003 24.5057 23.0116C24.113 24.2606 23.864 25.6951 23.8016 27.2344H27.7347V23.7222ZM23.9525 20.3741C24.2056 19.8995 24.483 19.4657 24.7814 19.0782C24.0317 19.391 23.33 19.7955 22.69 20.2777C23.0043 20.5148 23.3333 20.733 23.6755 20.9307C23.7644 20.7393 23.8567 20.5537 23.9524 20.3741H23.9525ZM27.7347 28.7657H23.8016C23.864 30.305 24.113 31.7395 24.5057 32.9885C25.5227 32.5998 26.6074 32.3547 27.7347 32.2779V28.7657ZM27.7347 37.3781V33.8128C26.7936 33.8857 25.8934 34.0924 25.0526 34.4135C25.1315 34.5839 25.2135 34.749 25.2985 34.9083C25.9722 36.1719 26.8172 37.0566 27.7348 37.3781H27.7347ZM18.8668 27.2344H22.2695C22.3368 25.464 22.6361 23.8061 23.1113 22.3655C22.5521 22.058 22.0224 21.7043 21.5272 21.3098C20.0263 22.8738 19.0464 24.9417 18.8668 27.2344Z" fill="#24DEEC" stroke="#0A9AB0" stroke-width="2" mask="url(#path-1-inside-1_2537_2418)"/>
</svg>
