<svg width="57" height="56" viewBox="0 0 57 56" fill="none" xmlns="http://www.w3.org/2000/svg">
<path d="M11.9767 10.3583C13.2424 8.70688 13.8752 7.88116 14.7404 7.44058C15.6055 7 16.5941 7 18.5711 7H24.2077C26.231 7 27.2425 7 27.8711 7.68341C28.4997 8.36684 28.4997 9.46678 28.4997 11.6667V21H18.5711C16.5941 21 15.6055 21 14.7404 20.5594C13.8752 20.1188 13.2424 19.2931 11.9767 17.6417L11.4753 16.9875C10.3804 15.559 9.83301 14.8448 9.83301 14C9.83301 13.1552 10.3804 12.441 11.4753 11.0125L11.9767 10.3583Z" fill="#24DEEC" stroke="#0A9AB0" stroke-width="1.5" stroke-linecap="round" stroke-linejoin="round"/>
<path d="M45.023 22.025C43.7572 20.3736 43.1244 19.5479 42.2592 19.1073C41.3942 18.6667 40.4056 18.6667 38.4286 18.6667H28.5V32.6667H38.4286C40.4056 32.6667 41.3942 32.6667 42.2592 32.2262C43.1244 31.7857 43.7572 30.9599 45.023 29.3084L45.5245 28.6543C46.6193 27.2259 47.1667 26.5114 47.1667 25.6667C47.1667 24.8221 46.6193 24.1076 45.5245 22.6792L45.023 22.025Z" fill="#24DEEC" stroke="#0A9AB0" stroke-width="1.5" stroke-linecap="round" stroke-linejoin="round"/>
<path d="M28.5 48.9999V9.33325" stroke="#0A9AB0" stroke-width="1.5" stroke-linecap="round" stroke-linejoin="round"/>
<path d="M21.5 49H35.5" stroke="#0A9AB0" stroke-width="1.5" stroke-linecap="round" stroke-linejoin="round"/>
</svg>
