<svg width="57" height="56" viewBox="0 0 57 56" fill="none" xmlns="http://www.w3.org/2000/svg">
<g clip-path="url(#clip0_2537_2393)">
<path d="M45.25 33.2451L33.8718 38.4461C33.8714 38.4463 33.871 38.4465 33.8706 38.4466C32.1776 39.2278 30.3556 39.6176 28.5 39.6176C26.6444 39.6176 24.8224 39.2278 23.1294 38.4466C23.129 38.4465 23.1286 38.4463 23.1282 38.4461L11.75 33.2451V39.6901C11.75 42.1532 13.1986 44.3593 15.4423 45.3958C18.4534 46.7642 22.9832 48.2501 28.5 48.2501C34.0178 48.2501 38.5478 46.7636 41.54 45.3958L45.25 33.2451ZM45.25 33.2451V39.6901C45.25 42.1531 43.8015 44.3593 41.5401 45.3958L45.25 33.2451Z" fill="#24DEEC" stroke="#0A9AB0" stroke-width="1.5"/>
<path d="M50.1 30.8694L52.4 29.8114V40.25C52.4 40.8811 51.8811 41.4 51.25 41.4C50.6189 41.4 50.1 40.8811 50.1 40.25V30.8694Z" fill="#24DEEC" stroke="#0A9AB0" stroke-width="1.2"/>
<path d="M31.7967 33.905L31.7966 33.9051C30.7478 34.3847 29.6258 34.6229 28.5 34.6229C27.3748 34.6229 26.251 34.3832 25.2033 33.905C25.2032 33.905 25.2031 33.9049 25.2029 33.9049L2.85474 23.6889C2.85467 23.6888 2.85459 23.6888 2.85452 23.6888C1.86159 23.2336 1.25 22.2804 1.25 21.1857C1.25 20.0908 1.86168 19.1376 2.85474 18.6825L25.2049 8.46982C25.2049 8.46982 25.2049 8.46981 25.205 8.46981C27.3012 7.51203 29.7005 7.51202 31.7967 8.46978C31.7968 8.46979 31.7968 8.46981 31.7968 8.46982L54.146 18.6845L54.146 18.6846C55.1379 19.1378 55.75 20.0919 55.75 21.1874C55.75 22.2824 55.1383 23.2351 54.146 23.6885L54.1459 23.6885L31.7967 33.905Z" fill="#24DEEC" stroke="#0A9AB0" stroke-width="1.5"/>
</g>
<defs>
<clipPath id="clip0_2537_2393">
<rect width="56" height="56" fill="white" transform="translate(0.5)"/>
</clipPath>
</defs>
</svg>
