<svg width="57" height="56" viewBox="0 0 57 56" fill="none" xmlns="http://www.w3.org/2000/svg">
<path d="M47.0156 29.46C46.422 32.2871 43.2633 34.3178 36.9465 38.3787C30.076 42.7957 26.6407 45.0042 23.8582 44.1533C22.9158 43.8651 22.0478 43.3585 21.319 42.6709C19.167 40.6414 19.167 36.4274 19.167 27.9998C19.167 19.5722 19.167 15.3584 21.319 13.3287C22.0478 12.6412 22.9158 12.1345 23.8582 11.8463C26.6407 10.9955 30.076 13.2039 36.9465 17.6208C43.2633 21.6819 46.422 23.7126 47.0156 26.5396C47.2174 27.5017 47.2174 28.498 47.0156 29.46Z" fill="#24DEEC" stroke="#0A9AB0" stroke-width="1.5" stroke-linejoin="round"/>
<path d="M9.83301 11.6665V44.3332" stroke="#0A9AB0" stroke-width="2" stroke-linecap="round"/>
</svg>
