<svg width="57" height="56" viewBox="0 0 57 56" fill="none" xmlns="http://www.w3.org/2000/svg">
<path d="M42.1659 46.2221V38.4443C44.6096 38.4443 45.99 38.4443 46.4839 37.3903C46.9778 36.3365 46.4315 34.8949 45.3384 32.0123L42.5441 24.6418C41.6205 22.2055 39.7323 20.6665 37.667 20.6665C35.6017 20.6665 33.7135 22.2055 32.7899 24.6418L29.9956 32.0123C28.9025 34.8949 28.3562 36.3365 28.8501 37.3903C29.344 38.4443 30.7219 38.4443 33.1658 38.4443V46.2221C33.1658 48.3172 33.1658 49.3647 33.8249 50.0156C34.4839 50.6665 35.5446 50.6665 37.6659 50.6665C39.7872 50.6665 40.8478 50.6665 41.5069 50.0156C42.1659 49.3647 42.1659 48.3172 42.1659 46.2221Z" fill="#24DEEC" stroke="#0A9AB0" stroke-width="1.5" stroke-linejoin="round"/>
<path d="M23.5003 9.33341C23.5003 11.9107 21.411 14.0001 18.8337 14.0001C16.2563 14.0001 14.167 11.9107 14.167 9.33341C14.167 6.75608 16.2563 4.66675 18.8337 4.66675C21.411 4.66675 23.5003 6.75608 23.5003 9.33341Z" fill="#24DEEC" stroke="#0A9AB0" stroke-width="1.5" stroke-linecap="round" stroke-linejoin="round"/>
<path d="M42.667 11.1665C42.667 13.6518 40.6523 15.6665 38.167 15.6665C35.6816 15.6665 33.667 13.6518 33.667 11.1665C33.667 8.68122 35.6816 6.6665 38.167 6.6665C40.6523 6.6665 42.667 8.68122 42.667 11.1665Z" fill="#24DEEC" stroke="#0A9AB0" stroke-width="1.5" stroke-linecap="round" stroke-linejoin="round"/>
<path d="M28.1667 29.1666C28.1667 24.7669 28.1667 22.5669 26.7998 21.2001C25.433 19.8333 23.2331 19.8333 18.8333 19.8333C14.4336 19.8333 12.2337 19.8333 10.8668 21.2001C9.5 22.5669 9.5 24.7669 9.5 29.1666V33.8333C9.5 36.0331 9.5 37.1331 10.1834 37.8165C10.8668 38.4999 11.9668 38.4999 14.1667 38.4999V46.6666C14.1667 48.8665 14.1667 49.9664 14.8501 50.6498C15.5335 51.3333 16.6334 51.3333 18.8333 51.3333C21.0332 51.3333 22.1332 51.3333 22.8166 50.6498C23.5 49.9664 23.5 48.8665 23.5 46.6666V38.4999C25.6999 38.4999 26.7998 38.4999 27.4832 37.8165C28.1667 37.1331 28.1667 36.0331 28.1667 33.8333V29.1666Z" fill="#24DEEC" stroke="#0A9AB0" stroke-width="1.5" stroke-linejoin="round"/>
<path d="M26.6665 50.0741V46.7037C27.7526 46.7037 28.3661 46.7037 28.5856 46.247C28.8051 45.7903 28.5623 45.1657 28.0765 43.9165L26.8346 40.7226C26.4241 39.6669 25.5849 39 24.667 39C23.7491 39 22.9099 39.6669 22.4994 40.7226L21.2575 43.9165C20.7717 45.1657 20.5289 45.7903 20.7484 46.247C20.9679 46.7037 21.5803 46.7037 22.6665 46.7037V50.0741C22.6665 50.982 22.6665 51.4359 22.9594 51.7179C23.2523 52 23.7237 52 24.6665 52C25.6093 52 26.0807 52 26.3736 51.7179C26.6665 51.4359 26.6665 50.982 26.6665 50.0741Z" fill="#68F0F8" stroke="#0A9AB0" stroke-linejoin="round"/>
<path d="M26.667 35C26.667 36.1046 25.7716 37 24.667 37C23.5624 37 22.667 36.1046 22.667 35C22.667 33.8954 23.5624 33 24.667 33C25.7716 33 26.667 33.8954 26.667 35Z" fill="#68F0F8" stroke="#0A9AB0" stroke-linecap="round" stroke-linejoin="round"/>
<path d="M34.667 34C34.667 35.1046 33.7716 36 32.667 36C31.5624 36 30.667 35.1046 30.667 34C30.667 32.8954 31.5624 32 32.667 32C33.7716 32 34.667 32.8954 34.667 34Z" fill="#68F0F8" stroke="#0A9AB0" stroke-linecap="round" stroke-linejoin="round"/>
<path d="M36.667 41.9814C36.667 40.026 36.667 39.0482 36.0812 38.4407C35.4954 37.8333 34.5526 37.8333 32.667 37.8333C30.7814 37.8333 29.8386 37.8333 29.2528 38.4407C28.667 39.0482 28.667 40.026 28.667 41.9814V44.0555C28.667 45.0332 28.667 45.5221 28.9599 45.8258C29.2528 46.1295 29.7242 46.1295 30.667 46.1295V49.7592C30.667 50.7369 30.667 51.2258 30.9599 51.5295C31.2528 51.8333 31.7242 51.8333 32.667 51.8333C33.6098 51.8333 34.0812 51.8333 34.3741 51.5295C34.667 51.2258 34.667 50.7369 34.667 49.7592V46.1295C35.6098 46.1295 36.0812 46.1295 36.3741 45.8258C36.667 45.5221 36.667 45.0332 36.667 44.0555V41.9814Z" fill="#68F0F8" stroke="#0A9AB0" stroke-linejoin="round"/>
</svg>
