<svg width="57" height="56" viewBox="0 0 57 56" fill="none" xmlns="http://www.w3.org/2000/svg">
<path d="M1 38H56" stroke="#0A9AB0" stroke-width="1.5" stroke-linecap="round"/>
<path d="M28 17C28 17 32 14.1575 32 10.6512C32 4.4496 24 4.4496 24 10.6512C24 14.1575 28 17 28 17Z" stroke="#0A9AB0" stroke-width="2" stroke-linejoin="round"/>
<path d="M3 38L4.72575 44.834C5.34403 47.2823 7.56617 49 10.1154 49H45.8844C48.4339 49 50.6558 47.2823 51.2742 44.834L53 38" fill="#24DEEC"/>
<path d="M3 38L4.72575 44.834C5.34403 47.2823 7.56617 49 10.1154 49H45.8844C48.4339 49 50.6558 47.2823 51.2742 44.834L53 38" stroke="#0A9AB0" stroke-width="1.5" stroke-linecap="round"/>
<path d="M52 37C50.6223 25.7381 40.6263 17 28.5 17C16.3736 17 6.37776 25.7381 5 37" fill="#24DEEC"/>
<path d="M52 37C50.6223 25.7381 40.6263 17 28.5 17C16.3736 17 6.37776 25.7381 5 37H52Z" stroke="#0A9AB0" stroke-width="1.5" stroke-linecap="round"/>
</svg>
