<svg width="57" height="56" viewBox="0 0 57 56" fill="none" xmlns="http://www.w3.org/2000/svg">
<path d="M47.7716 33.5669C49.0463 37.3828 47.1339 41.5616 43.5 42.9002" stroke="#0A9AB0" stroke-width="1.5" stroke-linecap="round"/>
<path d="M51.7405 31.7336C53.6526 37.8664 50.784 44.5823 45.333 46.7336" stroke="#0A9AB0" stroke-width="1.5" stroke-linecap="round"/>
<path d="M20.0416 13.2029L14.5416 27.2029C11.042 16.2027 4.93831 20.9788 5.54159 25.2027C6.54159 32.2027 10.725 41.4852 12.5416 43.2028C15.5 46 23.0416 47.7028 27.5416 48.7028C38.0416 49.7028 40.8749 33.3694 44.5416 25.2027C46.0416 22.2027 44.5416 16.7027 39.5416 19.2028C41.0416 15.7027 40 10.067 34.5416 13.2029C37.5 7.06689 29.5416 3.7028 27.5416 11.7029C27.0416 8.20284 22.5416 6.20282 20.0416 13.2029Z" fill="#24DEEC"/>
<path d="M27.5416 11.7029C27.0416 8.20284 22.5416 6.20282 20.0416 13.2029L14.5416 27.2029C11.042 16.2027 4.93831 20.9788 5.54159 25.2027C6.54159 32.2027 10.725 41.4852 12.5416 43.2028C15.5 46 23.0416 47.7028 27.5416 48.7028C38.0416 49.7028 40.8749 33.3694 44.5416 25.2027C46.0416 22.2027 44.5416 16.7027 39.5416 19.2028M27.5416 11.7029L24.0416 22.2028M27.5416 11.7029C29.5416 3.7028 37.5 7.06689 34.5416 13.2029M34.5416 13.2029L30.0416 24.7028M34.5416 13.2029C40 10.067 41.0416 15.7027 39.5416 19.2028M39.5416 19.2028L36.5416 26.7027" stroke="#0A9AB0" stroke-linecap="round"/>
</svg>
