<svg width="57" height="56" viewBox="0 0 57 56" fill="none" xmlns="http://www.w3.org/2000/svg">
<path d="M11 37.0838H4.5V16.5838H11C13.1667 16.7505 18.4267 17.5149 19.5 16.0838C22.5 12.0838 26.5 10.5838 31 13.5838L44.5 35.0838C42 37.5837 36 44.5837 32.5 44.0837C30.5 44.0837 23 39.5789 19.5 37.3265L11 37.0838Z" fill="#24DEEC"/>
<path d="M11 16.5838V37.0838M11 16.5838H4.5V37.0838H11M11 16.5838C13.1667 16.7505 18.4267 17.5149 19.5 16.0838C22.5 12.0838 26.5 10.5838 31 13.5838L44.5 35.0838C42 37.5837 36 44.5837 32.5 44.0837C30.5 44.0837 23 39.5789 19.5 37.3265L11 37.0838" stroke="#0A9AB0" stroke-linecap="round"/>
<path d="M53.4548 17.1103V37.1103H49.4548C47.6214 37.4436 43.4548 37.8103 41.4548 36.6103C39.4548 35.4103 33.2881 27.1103 30.4548 23.1103C23.955 29.1103 17.5481 24.9841 21.9548 19.1103C23.4551 17.1105 27.4551 12.1103 29.455 12.1103C30.9549 12.1101 35.0549 11.5103 37.4549 13.1103C38.7883 14.4436 41.6551 17.1104 42.4551 17.1104L49.4548 17.1103H53.4548Z" fill="#24DEEC"/>
<path d="M49.4548 37.1103H53.4548V17.1103H49.4548M49.4548 37.1103V17.1103M49.4548 37.1103C47.6214 37.4436 43.4548 37.8103 41.4548 36.6103C39.4548 35.4103 33.2881 27.1103 30.4548 23.1103C23.955 29.1103 17.5481 24.9841 21.9548 19.1103C23.4551 17.1105 27.4551 12.1103 29.455 12.1103C30.9549 12.1101 35.0549 11.5103 37.4549 13.1103C38.7883 14.4436 41.6551 17.1104 42.4551 17.1104C43.2551 17.1104 47.4549 17.1103 49.4548 17.1103" stroke="#0A9AB0" stroke-linecap="round"/>
</svg>
