<svg width="57" height="56" viewBox="0 0 57 56" fill="none" xmlns="http://www.w3.org/2000/svg">
<path d="M43.5 12.4998C34.7352 11.7187 11.333 11.287 8.23366 14.0207C5.5 16.7544 5.5 21.1542 5.5 29.9537C5.5 38.7531 5.5 43.1531 8.23366 45.8866C10.9674 48.6203 15.3671 48.6203 24.1667 48.6203H33.5C42.2995 48.6203 46.6994 48.6203 49.4329 45.8866C52.1667 43.1531 52.1667 38.7531 52.1667 29.9537C52.1667 27.2241 52.0817 18.4642 52 16.4998" fill="#24DEEC"/>
<path d="M43.5 12.4998C34.7352 11.7187 11.333 11.287 8.23366 14.0207C5.5 16.7544 5.5 21.1542 5.5 29.9537C5.5 38.7531 5.5 43.1531 8.23366 45.8866C10.9673 48.6203 15.3671 48.6203 24.1667 48.6203H33.5C42.2995 48.6203 46.6994 48.6203 49.4329 45.8866C52.1667 43.1531 52.1667 38.7531 52.1667 29.9537C52.1667 27.2241 52.0817 18.4642 52 16.4998" stroke="#0A9AB0" stroke-width="1.5" stroke-linecap="round" stroke-linejoin="round"/>
<path d="M47 7L47.5527 8.49363C48.2774 10.4522 48.6399 11.4315 49.3542 12.1458C50.0686 12.8602 51.0477 13.2226 53.0064 13.9473L54.5 14.5L53.0064 15.0527C51.0477 15.7774 50.0686 16.1398 49.3542 16.8542C48.6399 17.5685 48.2774 18.5478 47.5527 20.5064L47 22L46.4473 20.5064C45.7226 18.5478 45.3601 17.5685 44.6458 16.8542C43.9314 16.1398 42.9523 15.7774 40.9936 15.0527L39.5 14.5L40.9936 13.9473C42.9523 13.2226 43.9314 12.8602 44.6458 12.1458C45.3601 11.4315 45.7226 10.4522 46.4473 8.49363L47 7Z" fill="#F9FAFB" stroke="#0A9AB0" stroke-width="1.5" stroke-linejoin="round"/>
<path d="M16.5 26.8267C23 25.8267 38.3 25.6267 43.5 26.8267" stroke="#0A9AB0" stroke-linecap="round"/>
<path d="M16.5 29.8267C23 28.8267 38.3 28.6267 43.5 29.8267" stroke="#0A9AB0" stroke-linecap="round"/>
<path d="M35.5 37.9999C37.5 37.5 41 37.5 43.5 37.9999" stroke="#0A9AB0" stroke-linecap="round"/>
</svg>
