<svg width="57" height="56" viewBox="0 0 57 56" fill="none" xmlns="http://www.w3.org/2000/svg">
<path d="M51.8337 26.9888C51.8337 39.3163 41.3855 49.3111 28.5003 49.3111C26.9853 49.3132 25.4745 49.173 23.9863 48.8937C22.9151 48.6923 22.3795 48.5917 22.0056 48.6489C21.6316 48.7061 21.1017 48.9877 20.042 49.5514C17.044 51.1458 13.5482 51.7088 10.1862 51.0835C11.4641 49.5118 12.3367 47.626 12.7218 45.6044C12.9551 44.3677 12.377 43.1665 11.5111 42.2871C7.5781 38.2933 5.16699 32.9117 5.16699 26.9888C5.16699 14.6615 15.6151 4.6665 28.5003 4.6665C41.3855 4.6665 51.8337 14.6615 51.8337 26.9888Z" fill="#24DEEC" stroke="#0A9AB0" stroke-width="1.5" stroke-linejoin="round"/>
<path d="M28.4898 28H28.5108M37.8127 28H37.8337M19.167 28H19.1879" stroke="#F9FAFB" stroke-width="3" stroke-linecap="round" stroke-linejoin="round"/>
</svg>
