<svg width="57" height="56" viewBox="0 0 57 56" fill="none" xmlns="http://www.w3.org/2000/svg">
<path d="M18.3562 11.1681L17.9419 12.4667C17.6025 13.5307 17.4327 14.0628 17.5632 14.4829C17.6689 14.8229 17.9007 15.1159 18.2166 15.3087C18.607 15.547 19.1977 15.547 20.3789 15.547H21.0074C25.0052 15.547 27.0042 15.547 27.9483 16.6956C28.0563 16.8268 28.1522 16.9664 28.2353 17.1128C28.9616 18.3938 28.1359 20.1195 26.4843 23.5709C24.9688 26.7382 24.211 28.3218 22.8039 29.254C22.6677 29.3441 22.5277 29.4292 22.3843 29.509C20.9031 30.3332 19.0677 30.3332 15.397 30.3332H14.6008C10.1537 30.3332 7.9301 30.3332 6.54854 29.034C5.16699 27.7348 5.16699 25.6436 5.16699 21.4615V19.9915C5.16699 17.7937 5.16699 16.6948 5.56886 15.689C5.97071 14.6831 6.74022 13.8561 8.27919 12.2021L14.6436 5.36186C14.8032 5.19031 14.8831 5.10451 14.9534 5.04508C15.6103 4.49029 16.624 4.55273 17.1983 5.18338C17.2598 5.25093 17.327 5.34578 17.4615 5.53546C17.6718 5.83214 17.777 5.98049 17.8687 6.12747C18.6892 7.44324 18.9374 9.00622 18.5616 10.49C18.5196 10.6558 18.4651 10.8266 18.3562 11.1681Z" fill="#24DEEC" stroke="#0A9AB0" stroke-width="1.5" stroke-linecap="round" stroke-linejoin="round"/>
<path d="M38.6442 44.8316L39.0584 43.5331C39.3979 42.4688 39.5677 41.9368 39.4371 41.5168C39.3316 41.1769 39.0997 40.8838 38.7837 40.6911C38.3934 40.4526 37.8028 40.4526 36.6214 40.4526H35.9931C31.9951 40.4526 29.9962 40.4526 29.0521 39.3041C28.9441 39.1728 28.8482 39.0332 28.7651 38.8869C28.0387 37.6057 28.8645 35.8802 30.516 32.4287C32.0315 29.2615 32.7894 27.6778 34.1964 26.7457C34.3327 26.6556 34.4727 26.5704 34.6159 26.4906C36.0974 25.6665 37.9328 25.6665 41.6033 25.6665H42.3995C46.8468 25.6665 49.0702 25.6665 50.4518 26.9657C51.8334 28.2649 51.8334 30.356 51.8334 34.5383V36.0081C51.8334 38.2061 51.8334 39.3048 51.4316 40.3107C51.0295 41.3164 50.2602 42.1436 48.7212 43.7977L42.3568 50.6378C42.1972 50.8093 42.1174 50.8952 42.0469 50.9547C41.3901 51.5093 40.3762 51.447 39.802 50.8163C39.7406 50.7487 39.6732 50.6539 39.5388 50.4642C39.3286 50.1674 39.2233 50.0193 39.1316 49.8723C38.3112 48.5565 38.063 46.9934 38.4389 45.5096C38.4809 45.344 38.5352 45.1729 38.6442 44.8316Z" fill="#24DEEC" stroke="#0A9AB0" stroke-width="1.5" stroke-linecap="round" stroke-linejoin="round"/>
</svg>
