<svg width="57" height="56" viewBox="0 0 57 56" fill="none" xmlns="http://www.w3.org/2000/svg">
<path d="M24.1667 11.3227C23.9719 10.3198 23.6125 9.33181 23.0782 8.39731C21.8008 6.16309 19.7614 4.65016 17.4829 4C17.835 6.86148 16.5027 9.79026 13.8743 11.3227C11.2459 12.8551 8.068 12.5559 5.79004 10.8172C5.20836 13.1349 5.48615 15.6749 6.76353 17.9092C8.96529 21.7602 13.4311 23.4684 17.4829 22.3088" fill="#24DEEC"/>
<path d="M24.1667 11.3227C23.9719 10.3198 23.6125 9.33181 23.0782 8.39731C21.8008 6.16309 19.7614 4.65016 17.4829 4C17.835 6.86148 16.5027 9.79026 13.8743 11.3227C11.2459 12.8551 8.068 12.5559 5.79004 10.8172C5.20836 13.1349 5.48615 15.6749 6.76353 17.9092C8.96529 21.7602 13.4311 23.4684 17.4829 22.3088L24.1667 11.3227Z" stroke="#0A9AB0" stroke-linejoin="round"/>
<path d="M11.771 43.3484C23.2708 50.3484 37.4714 49.4484 46.271 43.8484C55.0707 38.2484 54.2715 26.3484 42.2713 23.8484C42.2713 7.84843 18.2715 3.84841 16.271 21.8484C6.27103 21.8484 0.271252 36.3484 11.771 43.3484Z" fill="#24DEEC" stroke="#0A9AB0" stroke-linecap="round"/>
<path d="M28.8282 40.6606L28.8385 40.6788M38.1562 36L38.1667 36.0182M19.5 36L19.5105 36.0182M38.1562 45.3212L38.1667 45.3394M19.5 45.3212L19.5105 45.3394M28.8282 49.9818L28.8385 50" stroke="#CFFDFE" stroke-width="3" stroke-linecap="round" stroke-linejoin="round"/>
</svg>
