<svg width="57" height="56" viewBox="0 0 57 56" fill="none" xmlns="http://www.w3.org/2000/svg">
<path d="M19.1667 37.3332H36.1141C46.5852 37.3332 48.1777 30.755 50.109 21.161C50.6662 18.3938 50.9448 17.0101 50.2749 16.0883C49.605 15.1665 48.321 15.1665 45.7529 15.1665H14.5" fill="#24DEEC"/>
<path d="M19.1667 37.3332H36.1141C46.5852 37.3332 48.1777 30.755 50.109 21.161C50.6662 18.3938 50.9448 17.0101 50.2749 16.0883C49.605 15.1665 48.321 15.1665 45.7529 15.1665H14.5" stroke="#0A9AB0" stroke-width="1.5" stroke-linecap="round"/>
<path d="M19.1663 37.3332L13.05 8.20134C12.5307 6.12388 10.6641 4.6665 8.52272 4.6665H6.33301" stroke="#0A9AB0" stroke-width="1.5" stroke-linecap="round"/>
<path d="M21.22 37.3335H20.26C17.0788 37.3335 14.5 40.0199 14.5 43.3334C14.5 43.8857 14.9298 44.3335 15.46 44.3335H41.3333" stroke="#0A9AB0" stroke-width="1.5" stroke-linecap="round" stroke-linejoin="round"/>
<path d="M25 51.3335C26.933 51.3335 28.5 49.7665 28.5 47.8335C28.5 45.9005 26.933 44.3335 25 44.3335C23.067 44.3335 21.5 45.9005 21.5 47.8335C21.5 49.7665 23.067 51.3335 25 51.3335Z" stroke="#0A9AB0" stroke-width="1.5"/>
<path d="M41.333 51.3335C43.266 51.3335 44.833 49.7665 44.833 47.8335C44.833 45.9005 43.266 44.3335 41.333 44.3335C39.4 44.3335 37.833 45.9005 37.833 47.8335C37.833 49.7665 39.4 51.3335 41.333 51.3335Z" stroke="#0A9AB0" stroke-width="1.5"/>
</svg>
