<svg width="57" height="56" viewBox="0 0 57 56" fill="none" xmlns="http://www.w3.org/2000/svg">
<path d="M8.66144 37.3693L9.87923 35H47.0545L48.339 37.3693C51.7058 43.5797 52.5444 46.6846 51.2646 49.0091C49.985 51.3333 46.5921 51.3333 39.8063 51.3333H17.1944C10.4086 51.3333 7.01571 51.3333 5.73602 49.0091C4.45633 46.6846 5.29472 43.5797 8.66144 37.3693Z" fill="#24DEEC" stroke="#0A9AB0" stroke-width="1.5" stroke-linecap="round" stroke-linejoin="round"/>
<path d="M10 10.4999C6.51724 14.7567 9.99994 34.9998 9.99994 34.9998H47.4999V8.99982C47.4999 5.99993 14.5 4.99976 10 10.4999Z" fill="#24DEEC" stroke="#0A9AB0" stroke-width="1.5" stroke-linecap="round"/>
<path d="M43.8333 4C48.2331 4 50.4329 4 51.7998 5.36684C53.1667 6.73366 53.1667 8.93355 53.1667 13.3333V18C53.1667 22.3998 53.1667 24.5996 51.7998 25.9665C50.4329 27.3333 48.2331 27.3333 43.8333 27.3333C39.4336 27.3333 37.2337 27.3333 35.8669 25.9665C34.5 24.5996 34.5 22.3998 34.5 18V13.3333C34.5 8.93355 34.5 6.73366 35.8669 5.36684C37.2337 4 39.4336 4 43.8333 4Z" fill="#24DEEC" stroke="#0A9AB0" stroke-width="1.5" stroke-linecap="round"/>
<path d="M43.833 20.333H43.854" stroke="#F9FAFB" stroke-width="2" stroke-linecap="round" stroke-linejoin="round"/>
</svg>
