<svg width="57" height="56" viewBox="0 0 57 56" fill="none" xmlns="http://www.w3.org/2000/svg">
<path d="M5.16699 46.6667H42.5003" stroke="#0A9AB0" stroke-width="1.5" stroke-linecap="round" stroke-linejoin="round"/>
<path d="M9.42459 28.3875C8.78293 27.9208 8.19959 27.3375 7.49961 25.2958C7.30975 24.7895 6.59221 22.251 5.98295 19.9291C5.46903 17.9705 5.01109 16.1829 5.22462 15.7291C5.39964 15.2625 5.63293 14.9125 6.39126 14.4458C6.85793 14.1586 9.24959 13.5708 9.71626 13.4541C10.1829 13.3375 10.8246 13.2791 11.3496 13.4541C12.3413 13.6291 14.3829 16.6041 14.9079 16.9541C15.1412 17.1875 15.8996 17.8663 16.7746 17.9458C17.4163 18.0041 18.0579 17.8291 18.7579 17.5375C19.3996 17.2701 32.058 11.1208 33.2247 10.5958C42.733 6.62913 49.6397 13.1508 50.6897 14.5508C51.7747 15.9041 52.008 16.3125 51.7163 17.4791C51.3393 18.7041 50.3163 18.9375 49.733 19.1125C49.1497 19.2875 41.0997 21.4458 37.9497 22.3208C37.2616 22.5448 36.9256 22.9947 36.8413 23.0791C36.433 23.6625 34.578 27.6291 34.053 28.5041C33.6913 29.4375 32.6997 30.6041 31.4163 31.0708C30.0747 31.5375 27.7413 32.0625 27.2163 32.2375C26.6913 32.4125 25.4663 32.7625 25.058 32.6458C24.533 32.5292 24.0313 32.0042 24.2647 31.1875C24.498 30.3708 24.9413 28.0958 24.9997 27.7458C25.058 27.3958 25.6413 25.9375 24.9997 25.8791C24.883 25.7041 23.6579 26.2291 21.8496 26.6375C20.5061 27.0157 19.0991 27.39 18.1163 27.6291C14.3246 28.7375 12.2711 29.0292 11.8163 29.0292C10.9413 29.0292 10.2996 28.9125 9.42459 28.3875Z" fill="#24DEEC" stroke="#0A9AB0" stroke-width="1.5"/>
</svg>
