<svg width="57" height="56" viewBox="0 0 57 56" fill="none" xmlns="http://www.w3.org/2000/svg">
<path d="M5.16699 32.6668C5.16699 26.1127 5.16699 22.8356 6.73994 20.4815C7.4209 19.4624 8.2959 18.5874 9.31501 17.9064C11.6691 16.3335 14.9462 16.3335 21.5003 16.3335H35.5003C42.0544 16.3335 45.3316 16.3335 47.6857 17.9064C48.7047 18.5874 49.5797 19.4624 50.2608 20.4815C51.8337 22.8356 51.8337 26.1127 51.8337 32.6668C51.8337 39.2209 51.8337 42.4981 50.2608 44.8522C49.5797 45.8712 48.7047 46.7462 47.6857 47.4273C45.3316 49.0002 42.0544 49.0002 35.5003 49.0002H21.5003C14.9462 49.0002 11.6691 49.0002 9.31501 47.4273C8.2959 46.7462 7.4209 45.8712 6.73994 44.8522C5.16699 42.4981 5.16699 39.2209 5.16699 32.6668Z" fill="#24DEEC" stroke="#0A9AB0" stroke-width="1.5" stroke-linecap="round" stroke-linejoin="round"/>
<path d="M38 16C38 11.7574 38 9.63603 36.6087 8.31803C35.2174 7 32.9783 7 28.5 7C24.0217 7 21.7825 7 20.3913 8.31803C19 9.63603 19 11.7574 19 16" stroke="#0A9AB0" stroke-width="2" stroke-linecap="round" stroke-linejoin="round"/>
<path d="M14.5 25.6665L16.0213 26.1378C24.0319 28.6205 32.9681 28.6205 40.9787 26.1378L42.5 25.6665M28.5 27.9998V32.6665" stroke="#F9FAFB" stroke-width="1.5" stroke-linecap="round" stroke-linejoin="round"/>
</svg>
