<svg width="16" height="16" viewBox="0 0 16 16" fill="none" xmlns="http://www.w3.org/2000/svg">
<path d="M10.3333 4.66699H5.66667M8.33267 7.33366H5.66602" stroke="white" stroke-width="1.5" stroke-linecap="round" stroke-linejoin="round"/>
<path d="M13.3327 14.6663H3.99935C3.26297 14.6663 2.66602 14.0694 2.66602 13.333M2.66602 13.333C2.66602 12.5966 3.26297 11.9997 3.99935 11.9997H13.3327V3.99967C13.3327 2.74259 13.3327 2.11405 12.9421 1.72353C12.5516 1.33301 11.9231 1.33301 10.666 1.33301H6.66602C4.7804 1.33301 3.83759 1.33301 3.2518 1.91879C2.66602 2.50458 2.66602 3.44739 2.66602 5.33301V13.333Z" stroke="white" stroke-width="1.5" stroke-linecap="round" stroke-linejoin="round"/>
<path d="M13.0007 12C13.0007 12 12.334 12.5085 12.334 13.3333C12.334 14.1581 13.0007 14.6667 13.0007 14.6667" stroke="white" stroke-width="1.5" stroke-linecap="round" stroke-linejoin="round"/>
</svg>
