<svg width="16" height="16" viewBox="0 0 16 16" fill="none" xmlns="http://www.w3.org/2000/svg">
<path d="M10.3333 4.66666H5.66667M8.33267 7.33332H5.66602" stroke="#142C57" stroke-width="1.5" stroke-linecap="round" stroke-linejoin="round"/>
<path d="M13.3327 14.6667H3.99935C3.26297 14.6667 2.66602 14.0697 2.66602 13.3333M2.66602 13.3333C2.66602 12.5969 3.26297 12 3.99935 12H13.3327V4.00001C13.3327 2.74293 13.3327 2.11439 12.9421 1.72387C12.5516 1.33334 11.9231 1.33334 10.666 1.33334H6.66602C4.7804 1.33334 3.83759 1.33334 3.2518 1.91913C2.66602 2.50492 2.66602 3.44772 2.66602 5.33334V13.3333Z" stroke="#142C57" stroke-width="1.5" stroke-linecap="round" stroke-linejoin="round"/>
<path d="M13.0007 12C13.0007 12 12.334 12.5085 12.334 13.3333C12.334 14.1581 13.0007 14.6667 13.0007 14.6667" stroke="#142C57" stroke-width="1.5" stroke-linecap="round" stroke-linejoin="round"/>
</svg>
