<svg width="16" height="16" viewBox="0 0 16 16" fill="none" xmlns="http://www.w3.org/2000/svg">
<path d="M8.00351 7H8.00951M10.6672 7H10.6732M5.33984 7H5.34582" stroke="white" stroke-width="2" stroke-linecap="round" stroke-linejoin="round"/>
<path d="M14.6673 7.00033C14.6673 6.48647 14.6583 5.98485 14.6412 5.50053C14.5854 3.91821 14.5575 3.12705 13.9139 2.47863C13.2704 1.8302 12.4568 1.79539 10.8298 1.72579C9.93718 1.68759 8.98672 1.66699 8.00065 1.66699C7.01458 1.66699 6.0641 1.68759 5.17145 1.72579C3.54445 1.79539 2.73095 1.8302 2.08736 2.47863C1.44378 3.12705 1.41586 3.91821 1.36004 5.50053C1.34296 5.98485 1.33398 6.48647 1.33398 7.00033C1.33398 7.51419 1.34296 8.01579 1.36004 8.50012C1.41586 10.0825 1.44378 10.8736 2.08736 11.5221C2.73095 12.1705 3.54447 12.2053 5.17152 12.2749C5.66078 12.2958 6.16742 12.3115 6.68778 12.3213C7.18185 12.3307 7.42892 12.3354 7.64598 12.4181C7.86305 12.5007 8.04565 12.6573 8.41098 12.9705L9.86398 14.2165C9.95218 14.2921 10.0645 14.3337 10.1807 14.3337C10.4495 14.3337 10.6673 14.1158 10.6673 13.8471V12.2816C10.7217 12.2794 10.7759 12.2772 10.8298 12.2749C12.4568 12.2053 13.2704 12.1705 13.9139 11.522C14.5575 10.8736 14.5854 10.0825 14.6412 8.50012C14.6583 8.01579 14.6673 7.51419 14.6673 7.00033Z" stroke="white" stroke-width="1.5" stroke-linecap="round" stroke-linejoin="round"/>
</svg>
