<svg width="16" height="16" viewBox="0 0 16 16" fill="none" xmlns="http://www.w3.org/2000/svg">
<path d="M8.00351 7H8.00951M10.6672 7H10.6732M5.33984 7H5.34582" stroke="#142C57" stroke-width="2" stroke-linecap="round" stroke-linejoin="round"/>
<path d="M14.6673 7.00002C14.6673 6.48616 14.6583 5.98455 14.6412 5.50022C14.5854 3.91791 14.5575 3.12675 13.9139 2.47832C13.2704 1.82989 12.4568 1.79509 10.8298 1.72548C9.93718 1.68729 8.98672 1.66669 8.00065 1.66669C7.01458 1.66669 6.0641 1.68729 5.17145 1.72548C3.54445 1.79509 2.73095 1.82989 2.08736 2.47832C1.44378 3.12675 1.41586 3.91791 1.36004 5.50022C1.34296 5.98455 1.33398 6.48616 1.33398 7.00002C1.33398 7.51389 1.34296 8.01549 1.36004 8.49982C1.41586 10.0822 1.44378 10.8733 2.08736 11.5218C2.73095 12.1702 3.54447 12.205 5.17152 12.2746C5.66078 12.2955 6.16742 12.3112 6.68778 12.321C7.18185 12.3304 7.42892 12.3351 7.64598 12.4178C7.86305 12.5004 8.04565 12.657 8.41098 12.9702L9.86398 14.2162C9.95218 14.2918 10.0645 14.3334 10.1807 14.3334C10.4495 14.3334 10.6673 14.1155 10.6673 13.8468V12.2813C10.7217 12.2791 10.7759 12.2769 10.8298 12.2746C12.4568 12.205 13.2704 12.1702 13.9139 11.5217C14.5575 10.8733 14.5854 10.0822 14.6412 8.49982C14.6583 8.01549 14.6673 7.51389 14.6673 7.00002Z" stroke="#142C57" stroke-width="1.5" stroke-linecap="round" stroke-linejoin="round"/>
</svg>
