<svg width="16" height="16" viewBox="0 0 16 16" fill="none" xmlns="http://www.w3.org/2000/svg">
<path d="M8 14C10.4998 14 11.7497 14 12.6259 13.3634C12.9089 13.1578 13.1578 12.9089 13.3634 12.6259C14 11.7497 14 10.4998 14 8C14 5.50018 14 4.25027 13.3634 3.37405C13.1578 3.09107 12.9089 2.84221 12.6259 2.63661C11.7497 2 10.4998 2 8 2C5.50018 2 4.25027 2 3.37405 2.63661C3.09107 2.84221 2.84221 3.09107 2.63661 3.37405C2 4.25027 2 5.50018 2 8C2 10.4998 2 11.7497 2.63661 12.6259C2.84221 12.9089 3.09107 13.1578 3.37405 13.3634C4.25027 14 5.50018 14 8 14Z" stroke="white" stroke-width="1.5" stroke-linecap="round" stroke-linejoin="round"/>
<path d="M10.6673 4.66699L5.33398 11.3337" stroke="white" stroke-width="1.5" stroke-linecap="round" stroke-linejoin="round"/>
</svg>
