<svg width="16" height="16" viewBox="0 0 16 16" fill="none" xmlns="http://www.w3.org/2000/svg">
<path d="M10.6673 5.33301C10.5048 5.82059 10.1704 6.19485 9.69705 6.40469C8.17678 7.07867 7.07965 8.17581 6.40567 9.69607C6.19583 10.1694 5.82156 10.5038 5.33398 10.6663" stroke="white" stroke-width="1.5" stroke-linejoin="round"/>
<path d="M2.13398 13.8663L1.33398 14.6663M13.8673 2.13301L14.6673 1.33301" stroke="white" stroke-width="1.5" stroke-linecap="round" stroke-linejoin="round"/>
<path d="M11.8577 1.61467L10.8496 2.58343L13.41 5.16775L14.3951 4.21126C14.6907 3.863 14.7813 3.60065 14.4132 3.11747L13.676 2.34219L12.9287 1.60499C12.4509 1.17649 12.0747 1.40705 11.8577 1.61467Z" stroke="white" stroke-width="1.5" stroke-linecap="round" stroke-linejoin="round"/>
<path d="M9.34036 2.50537C10.0808 1.72282 10.5878 2.27977 10.8482 2.58989L13.3867 5.13854C13.7026 5.39183 14.2806 5.87781 13.5167 6.63453C13.3934 6.75663 13.2726 6.88449 13.1386 6.99469C12.644 7.40156 12.1694 7.06429 11.9178 6.75436L9.33403 4.17058C9.06196 3.92621 8.5919 3.48344 8.9889 2.89159C9.0959 2.755 9.2211 2.6314 9.34036 2.50537Z" stroke="white" stroke-width="1.5" stroke-linecap="round" stroke-linejoin="round"/>
<path d="M3.05894 14.4138L2.29804 13.6618L1.5754 12.9003C1.14659 12.4715 1.39398 12.0427 1.60575 11.8298L2.5938 10.8405L5.16486 13.4227L4.15288 14.4168C3.79897 14.7057 3.5563 14.7941 3.08032 14.4168M4.14954 9.28325C3.88913 8.97312 3.38204 8.41619 2.64164 9.19872C2.5224 9.32472 2.39719 9.44832 2.2902 9.58492C1.8932 10.1768 2.36322 10.6196 2.63528 10.8639L5.21913 13.4477C5.47063 13.7577 5.9453 14.0949 6.43988 13.6881C6.57388 13.5779 6.69472 13.45 6.81798 13.3279C7.58192 12.5712 7.00392 12.0852 6.68798 11.8319L4.14954 9.28325Z" stroke="white" stroke-width="1.5" stroke-linecap="round" stroke-linejoin="round"/>
</svg>
