<svg width="16" height="16" viewBox="0 0 16 16" fill="none" xmlns="http://www.w3.org/2000/svg">
<path d="M10.6673 5.33334C10.5048 5.82092 10.1704 6.19519 9.69705 6.40503C8.17678 7.07901 7.07965 8.17614 6.40567 9.69641C6.19583 10.1697 5.82156 10.5041 5.33398 10.6667" stroke="#142C57" stroke-width="1.5" stroke-linejoin="round"/>
<path d="M2.13398 13.8667L1.33398 14.6667M13.8673 2.13334L14.6673 1.33334" stroke="#142C57" stroke-width="1.5" stroke-linecap="round" stroke-linejoin="round"/>
<path d="M11.8577 1.61467L10.8496 2.58343L13.41 5.16775L14.3951 4.21126C14.6907 3.863 14.7813 3.60065 14.4132 3.11747L13.676 2.34219L12.9287 1.60499C12.4509 1.17649 12.0747 1.40705 11.8577 1.61467Z" stroke="#142C57" stroke-width="1.5" stroke-linecap="round" stroke-linejoin="round"/>
<path d="M9.34036 2.50509C10.0808 1.72254 10.5878 2.27949 10.8482 2.58962L13.3867 5.13826C13.7026 5.39156 14.2806 5.87753 13.5167 6.63425C13.3934 6.75635 13.2726 6.88422 13.1386 6.99442C12.644 7.40128 12.1694 7.06402 11.9178 6.75408L9.33403 4.1703C9.06196 3.92593 8.5919 3.48316 8.9889 2.89131C9.0959 2.75472 9.2211 2.63112 9.34036 2.50509Z" stroke="#142C57" stroke-width="1.5" stroke-linecap="round" stroke-linejoin="round"/>
<path d="M3.05894 14.4134L2.29804 13.6615L1.5754 12.9C1.14659 12.4712 1.39398 12.0423 1.60575 11.8294L2.5938 10.8402L5.16486 13.4224L4.15288 14.4165C3.79897 14.7053 3.5563 14.7938 3.08032 14.4165M4.14954 9.28292C3.88913 8.97278 3.38204 8.41585 2.64164 9.19838C2.5224 9.32438 2.39719 9.44798 2.2902 9.58458C1.8932 10.1764 2.36322 10.6193 2.63528 10.8636L5.21913 13.4474C5.47063 13.7573 5.9453 14.0946 6.43988 13.6877C6.57388 13.5775 6.69472 13.4497 6.81798 13.3275C7.58192 12.5709 7.00392 12.0849 6.68798 11.8316L4.14954 9.28292Z" stroke="#142C57" stroke-width="1.5" stroke-linecap="round" stroke-linejoin="round"/>
</svg>
