<svg width="16" height="16" viewBox="0 0 16 16" fill="none" xmlns="http://www.w3.org/2000/svg">
<path d="M13.3899 11.3333C13.7233 10.3333 14 8.95787 14 8C14 4.68629 11.3137 2 8 2C4.68629 2 2 4.68629 2 8C2 8.95787 2.27675 10.3333 2.61008 11.3333" stroke="white" stroke-width="1.5" stroke-linecap="round" stroke-linejoin="round"/>
<path d="M5.98369 13.0692L4.82506 9.74147C4.70162 9.43074 4.30715 9.27507 3.98263 9.3528C2.97562 9.68854 2.43015 10.7809 2.76429 11.7927L3.0563 12.6769C3.39044 13.6886 4.47766 14.2367 5.48467 13.9009C5.79199 13.7701 6.06901 13.3928 5.98369 13.0692Z" stroke="white" stroke-width="1.5" stroke-linecap="round" stroke-linejoin="round"/>
<path d="M10.0157 13.0692L11.1743 9.74147C11.2977 9.43074 11.6922 9.27507 12.0167 9.3528C13.0237 9.68854 13.5692 10.7809 13.2351 11.7927L12.9431 12.6769C12.6089 13.6886 11.5217 14.2367 10.5147 13.9009C10.2073 13.7701 9.93033 13.3928 10.0157 13.0692Z" stroke="white" stroke-width="1.5" stroke-linecap="round" stroke-linejoin="round"/>
</svg>
