<svg width="16" height="16" viewBox="0 0 16 16" fill="none" xmlns="http://www.w3.org/2000/svg">
<path d="M13.3899 11.3333C13.7233 10.3333 14 8.95787 14 8C14 4.68629 11.3137 2 8 2C4.68629 2 2 4.68629 2 8C2 8.95787 2.27675 10.3333 2.61008 11.3333" stroke="#142C57" stroke-width="1.5" stroke-linecap="round" stroke-linejoin="round"/>
<path d="M5.98369 13.0695L4.82506 9.7418C4.70162 9.43107 4.30715 9.2754 3.98263 9.35314C2.97562 9.68887 2.43015 10.7812 2.76429 11.793L3.0563 12.6772C3.39044 13.6889 4.47766 14.237 5.48467 13.9013C5.79199 13.7704 6.06901 13.3931 5.98369 13.0695Z" stroke="#142C57" stroke-width="1.5" stroke-linecap="round" stroke-linejoin="round"/>
<path d="M10.0157 13.0695L11.1743 9.7418C11.2977 9.43107 11.6922 9.2754 12.0167 9.35314C13.0237 9.68887 13.5692 10.7812 13.2351 11.793L12.9431 12.6772C12.6089 13.6889 11.5217 14.237 10.5147 13.9013C10.2073 13.7704 9.93033 13.3931 10.0157 13.0695Z" stroke="#142C57" stroke-width="1.5" stroke-linecap="round" stroke-linejoin="round"/>
</svg>
