<svg width="16" height="16" viewBox="0 0 16 16" fill="none" xmlns="http://www.w3.org/2000/svg">
<path d="M11.3327 4.66634V7.33301C11.3327 9.17394 9.84028 10.6663 7.99935 10.6663C6.1584 10.6663 4.66602 9.17394 4.66602 7.33301V4.66634C4.66602 2.82539 6.1584 1.33301 7.99935 1.33301C9.84028 1.33301 11.3327 2.82539 11.3327 4.66634Z" stroke="white" stroke-width="1.5"/>
<path d="M11.334 4.66699H9.33398M11.334 7.33366H9.33398" stroke="white" stroke-width="1.5" stroke-linecap="round"/>
<path d="M13.3327 7.33301C13.3327 10.2785 10.9449 12.6663 7.99935 12.6663M7.99935 12.6663C5.05383 12.6663 2.66602 10.2785 2.66602 7.33301M7.99935 12.6663V14.6663M7.99935 14.6663H9.99935M7.99935 14.6663H5.99935" stroke="white" stroke-width="1.5" stroke-linecap="round"/>
</svg>
