<svg width="16" height="16" viewBox="0 0 16 16" fill="none" xmlns="http://www.w3.org/2000/svg">
<path d="M11.3327 4.66666V7.33333C11.3327 9.17426 9.84028 10.6667 7.99935 10.6667C6.1584 10.6667 4.66602 9.17426 4.66602 7.33333V4.66666C4.66602 2.82571 6.1584 1.33333 7.99935 1.33333C9.84028 1.33333 11.3327 2.82571 11.3327 4.66666Z" stroke="#142C57" stroke-width="1.5"/>
<path d="M11.334 4.66667H9.33398M11.334 7.33334H9.33398" stroke="#142C57" stroke-width="1.5" stroke-linecap="round"/>
<path d="M13.3327 7.33333C13.3327 10.2789 10.9449 12.6667 7.99935 12.6667M7.99935 12.6667C5.05383 12.6667 2.66602 10.2789 2.66602 7.33333M7.99935 12.6667V14.6667M7.99935 14.6667H9.99935M7.99935 14.6667H5.99935" stroke="#142C57" stroke-width="1.5" stroke-linecap="round"/>
</svg>
