<svg width="16" height="16" viewBox="0 0 16 16" fill="none" xmlns="http://www.w3.org/2000/svg">
<path d="M2.66602 9.33331H4.26256C4.45866 9.33331 4.65207 9.37751 4.82746 9.46238L6.18878 10.121C6.36418 10.2059 6.55758 10.25 6.75368 10.25H7.44875C8.12102 10.25 8.66602 10.7774 8.66602 11.428C8.66602 11.4542 8.64802 11.4774 8.62188 11.4846L6.92795 11.953C6.62406 12.037 6.29868 12.0077 6.01602 11.8709L4.56076 11.1668" stroke="#142C57" stroke-width="1.5" stroke-linecap="round" stroke-linejoin="round"/>
<path d="M8.66602 11L11.7279 10.0593C12.2707 9.89015 12.8574 10.0907 13.1974 10.5616C13.4433 10.902 13.3431 11.3895 12.985 11.5962L7.97462 14.487C7.65595 14.6709 7.27995 14.7158 6.92948 14.6118L2.66602 13.3466" stroke="#142C57" stroke-width="1.5" stroke-linecap="round" stroke-linejoin="round"/>
<path d="M10 7.99998H8.66667C7.4096 7.99998 6.78107 7.99998 6.39053 7.60945C6 7.21891 6 6.59039 6 5.33331V3.99998C6 2.7429 6 2.11436 6.39053 1.72384C6.78107 1.33331 7.4096 1.33331 8.66667 1.33331H10C11.2571 1.33331 11.8856 1.33331 12.2761 1.72384C12.6667 2.11436 12.6667 2.7429 12.6667 3.99998V5.33331C12.6667 6.59039 12.6667 7.21891 12.2761 7.60945C11.8856 7.99998 11.2571 7.99998 10 7.99998Z" stroke="#142C57" stroke-width="1.5" stroke-linecap="round" stroke-linejoin="round"/>
<path d="M8.66602 3.33331H9.99935" stroke="#142C57" stroke-width="1.5" stroke-linecap="round" stroke-linejoin="round"/>
</svg>
