<svg width="16" height="16" viewBox="0 0 16 16" fill="none" xmlns="http://www.w3.org/2000/svg">
<path d="M2.66602 9.33301H4.26256C4.45866 9.33301 4.65207 9.37721 4.82746 9.46207L6.18878 10.1207C6.36418 10.2056 6.55758 10.2497 6.75368 10.2497H7.44875C8.12102 10.2497 8.66602 10.7771 8.66602 11.4277C8.66602 11.4539 8.64802 11.4771 8.62188 11.4843L6.92795 11.9527C6.62406 12.0367 6.29868 12.0074 6.01602 11.8706L4.56076 11.1665" stroke="white" stroke-width="1.5" stroke-linecap="round" stroke-linejoin="round"/>
<path d="M8.66602 11L11.7279 10.0593C12.2707 9.89015 12.8574 10.0907 13.1974 10.5616C13.4433 10.902 13.3431 11.3895 12.985 11.5962L7.97462 14.487C7.65595 14.6709 7.27995 14.7158 6.92948 14.6118L2.66602 13.3466" stroke="white" stroke-width="1.5" stroke-linecap="round" stroke-linejoin="round"/>
<path d="M10 7.99967H8.66667C7.4096 7.99967 6.78107 7.99967 6.39053 7.60914C6 7.21861 6 6.59009 6 5.33301V3.99967C6 2.74259 6 2.11405 6.39053 1.72353C6.78107 1.33301 7.4096 1.33301 8.66667 1.33301H10C11.2571 1.33301 11.8856 1.33301 12.2761 1.72353C12.6667 2.11405 12.6667 2.74259 12.6667 3.99967V5.33301C12.6667 6.59009 12.6667 7.21861 12.2761 7.60914C11.8856 7.99967 11.2571 7.99967 10 7.99967Z" stroke="white" stroke-width="1.5" stroke-linecap="round" stroke-linejoin="round"/>
<path d="M8.66602 3.33301H9.99935" stroke="white" stroke-width="1.5" stroke-linecap="round" stroke-linejoin="round"/>
</svg>
