<svg width="16" height="16" viewBox="0 0 16 16" fill="none" xmlns="http://www.w3.org/2000/svg">
<path d="M12.4725 2.3299C11.211 1.70222 9.66727 1.33301 8 1.33301C6.33273 1.33301 4.789 1.70222 3.52744 2.3299C2.90879 2.63771 2.59946 2.79162 2.29973 3.27553C2 3.75944 2 4.22799 2 5.1651V7.49107C2 11.28 5.02824 13.3866 6.782 14.2889C7.27113 14.5405 7.51567 14.6663 8 14.6663C8.48433 14.6663 8.72887 14.5405 9.21793 14.2889C10.9717 13.3866 14 11.28 14 7.49107V5.1651C14 4.228 14 3.75945 13.7003 3.27553C13.4005 2.79161 13.0912 2.63771 12.4725 2.3299Z" stroke="white" stroke-width="1.5" stroke-linecap="round" stroke-linejoin="round"/>
<path d="M6 7.66634C6 7.66634 6.9386 7.83427 7.33333 8.99967C7.33333 8.99967 8.33333 6.99967 10 6.33301" stroke="white" stroke-width="1.5" stroke-linecap="round" stroke-linejoin="round"/>
</svg>
