<svg width="16" height="16" viewBox="0 0 16 16" fill="none" xmlns="http://www.w3.org/2000/svg">
<path d="M9.33399 9.87567V6.12431C9.33399 4.02751 9.33399 2.97911 8.71712 2.7182C8.10025 2.45729 7.37419 3.19862 5.9222 4.68128C5.17025 5.4491 4.74122 5.61913 3.67135 5.61913C2.7357 5.61913 2.26788 5.61913 1.93182 5.84841C1.23422 6.32437 1.33967 7.25467 1.33967 8C1.33967 8.74533 1.23422 9.6756 1.93182 10.1516C2.26788 10.3809 2.7357 10.3809 3.67135 10.3809C4.74122 10.3809 5.17025 10.5509 5.9222 11.3187C7.37419 12.8014 8.10025 13.5427 8.71712 13.2818C9.33399 13.0209 9.33399 11.9725 9.33399 9.87567Z" stroke="#142C57" stroke-width="1.5" stroke-linecap="round" stroke-linejoin="round"/>
<path d="M11.334 6C11.7509 6.54645 12.0007 7.24227 12.0007 8C12.0007 8.75773 11.7509 9.45353 11.334 10" stroke="#142C57" stroke-width="1.5" stroke-linecap="round" stroke-linejoin="round"/>
<path d="M13.334 4.66667C14.1679 5.57742 14.6673 6.73713 14.6673 8C14.6673 9.26287 14.1679 10.4226 13.334 11.3333" stroke="#142C57" stroke-width="1.5" stroke-linecap="round" stroke-linejoin="round"/>
</svg>
