<svg width="16" height="16" viewBox="0 0 16 16" fill="none" xmlns="http://www.w3.org/2000/svg">
<path d="M9.33399 9.87599V6.12463C9.33399 4.02783 9.33399 2.97943 8.71712 2.71853C8.10025 2.45761 7.37419 3.19895 5.9222 4.68161C5.17025 5.44943 4.74122 5.61945 3.67135 5.61945C2.7357 5.61945 2.26788 5.61945 1.93182 5.84874C1.23422 6.32469 1.33967 7.25499 1.33967 8.00033C1.33967 8.74566 1.23422 9.67592 1.93182 10.1519C2.26788 10.3812 2.7357 10.3812 3.67135 10.3812C4.74122 10.3812 5.17025 10.5513 5.9222 11.3191C7.37419 12.8017 8.10025 13.5431 8.71712 13.2821C9.33399 13.0212 9.33399 11.9728 9.33399 9.87599Z" stroke="white" stroke-width="1.5" stroke-linecap="round" stroke-linejoin="round"/>
<path d="M11.334 6C11.7509 6.54645 12.0007 7.24227 12.0007 8C12.0007 8.75773 11.7509 9.45353 11.334 10" stroke="white" stroke-width="1.5" stroke-linecap="round" stroke-linejoin="round"/>
<path d="M13.334 4.66699C14.1679 5.57775 14.6673 6.73746 14.6673 8.00033C14.6673 9.26319 14.1679 10.4229 13.334 11.3337" stroke="white" stroke-width="1.5" stroke-linecap="round" stroke-linejoin="round"/>
</svg>
