<svg width="16" height="16" viewBox="0 0 16 16" fill="none" xmlns="http://www.w3.org/2000/svg">
<path d="M8.8568 12.9098L3.88162 13.8337C2.92735 14.0109 2.45023 14.0995 2.17535 13.8247C1.90048 13.5497 1.98908 13.0726 2.16629 12.1183L3.09015 7.14287C3.2383 6.34508 3.31237 5.94617 3.57535 5.70513C3.83833 5.46411 4.31926 5.41707 5.28113 5.32299C6.20818 5.23231 7.08553 4.91451 8 4L12 8.00033C11.0855 8.91487 10.7675 9.7916 10.6767 10.7187C10.5825 11.6807 10.5354 12.1617 10.2944 12.4247C10.0534 12.6876 9.65453 12.7617 8.8568 12.9098Z" stroke="#142C57" stroke-width="1.5" stroke-linejoin="round"/>
<path d="M7.33268 10.1407C6.95968 10.0801 6.61865 9.91786 6.35023 9.64946M6.35023 9.64946C6.0818 9.38106 5.91955 9.03999 5.859 8.66699M6.35023 9.64946L2.66602 13.3337" stroke="#142C57" stroke-width="1.5" stroke-linecap="round"/>
<path d="M8 4C8.47487 3.2994 9.11807 2.1208 10.071 2.00732C10.7215 1.92986 11.2604 2.46875 12.3381 3.54652L12.4535 3.66185C13.5313 4.73963 14.0701 5.27851 13.9927 5.929C13.8792 6.88193 12.7006 7.52513 12 8" stroke="#142C57" stroke-width="1.5" stroke-linejoin="round"/>
</svg>
