<svg width="138" height="32" viewBox="0 0 138 32" fill="none" xmlns="http://www.w3.org/2000/svg">
<path d="M137.072 8.0823L129.329 26.2902H125.258L128.09 20.007L123.068 8.0823C123.068 8.0823 125.579 7.11662 127.515 9.22721C128.403 10.1951 130.147 15.8035 130.147 15.8035C130.147 15.8035 131.869 10.608 132.79 9.22721C134.037 7.35641 137.072 8.0823 137.072 8.0823Z" fill="#033A62"/>
<path d="M117.648 8.50268C119.064 8.50268 120.2 8.97465 121.055 9.9186C121.911 10.8478 122.338 12.131 122.338 13.7681V22.0867C122.338 22.0867 119.357 22.5015 118.942 20.5657C118.577 18.8646 118.577 14.277 118.577 14.277C118.577 13.451 118.363 12.8094 117.936 12.3522C117.508 11.895 116.933 11.6664 116.21 11.6664C115.487 11.6664 114.912 11.895 114.484 12.3522C114.057 12.8094 113.843 13.451 113.843 14.277V20.9805H110.06V4.60889H113.843V10.2947C114.226 9.74898 114.75 9.31388 115.414 8.9894C116.077 8.66492 116.822 8.50268 117.648 8.50268Z" fill="#033A62"/>
<path d="M98.8274 10.3833C99.1961 9.80805 99.7049 9.34345 100.354 8.98947C101.003 8.63549 101.762 8.4585 102.633 8.4585C103.65 8.4585 104.572 8.71661 105.398 9.23283C106.224 9.74905 106.873 10.4865 107.345 11.4452C107.832 12.4039 108.075 13.5175 108.075 14.7859C108.075 16.0543 107.832 17.1753 107.345 18.1487C106.873 19.1074 106.224 19.8523 105.398 20.3832C104.572 20.8994 103.65 21.1576 102.633 21.1576C101.777 21.1576 101.018 20.9806 100.354 20.6266C99.7049 20.2726 99.1961 19.8154 98.8274 19.2549V26.8655H95.0442V8.63549H99.3072L98.8274 10.3833ZM104.226 14.7859C104.226 13.842 103.96 13.1045 103.429 12.5735C102.913 12.0278 102.271 11.7549 101.504 11.7549C100.752 11.7549 100.111 12.0278 99.5796 12.5735C99.0633 13.1192 98.8052 13.8641 98.8052 14.808C98.8052 15.752 99.0633 16.4968 99.5796 17.0425C100.111 17.5883 100.752 17.8611 101.504 17.8611C102.257 17.8611 102.898 17.5883 103.429 17.0425C103.96 16.4821 104.226 15.7299 104.226 14.7859Z" fill="#033A62"/>
<path d="M84.7186 8.4585C85.5888 8.4585 86.3484 8.63549 86.9973 8.98947C87.661 9.34345 88.1699 9.80805 88.5239 10.3833L87.9685 8.63549H92.307V20.9584C92.307 22.0941 92.0784 23.1192 91.6212 24.0337C91.1787 24.9629 90.4929 25.7003 89.5637 26.246C88.6492 26.7918 87.5062 27.0646 86.1345 27.0646C84.3056 27.0646 82.8233 26.6295 81.6876 25.7593C80.5519 24.9039 80.2252 23.9889 80.2252 22.9164C80.2252 21.8439 83.0494 21.9098 83.2672 22.3633C83.4851 22.8168 83.8779 23.1045 84.3203 23.3699C84.7628 23.6502 85.3085 23.7903 85.9575 23.7903C86.7392 23.7903 87.3587 23.5617 87.8159 23.1045C88.2879 22.662 88.5239 21.9466 88.5239 20.9584V19.2107C88.1551 19.7859 87.6463 20.2579 86.9973 20.6266C86.3484 20.9806 85.5888 21.1576 84.7186 21.1576C83.7009 21.1576 82.7791 20.8994 81.9531 20.3832C81.1271 19.8523 80.4708 19.1074 79.9841 18.1487C79.5121 17.1753 79.2761 16.0543 79.2761 14.7859C79.2761 13.5175 79.5121 12.4039 79.9841 11.4452C80.4708 10.4865 81.1271 9.74905 81.9531 9.23283C82.7791 8.71661 83.7009 8.4585 84.7186 8.4585ZM88.5239 14.808C88.5239 13.8641 88.2584 13.1192 87.7274 12.5735C87.2112 12.0278 86.577 11.7549 85.8248 11.7549C85.0726 11.7549 84.431 12.0278 83.9 12.5735C83.3838 13.1045 83.1257 13.842 83.1257 14.7859C83.1257 15.7299 83.3838 16.4821 83.9 17.0425C84.431 17.5883 85.0726 17.8611 85.8248 17.8611C86.577 17.8611 87.2112 17.5883 87.7274 17.0425C88.2584 16.4968 88.5239 15.752 88.5239 14.808Z" fill="#033A62"/>
<path d="M72.6427 8.50269C74.0881 8.50269 75.2386 8.97466 76.094 9.91861C76.9642 10.8478 77.3993 12.131 77.3993 13.7682V21.9484C77.3993 21.9484 74.0028 22.225 73.7262 20.4274C73.514 19.0481 73.6383 14.277 73.6383 14.277C73.6383 13.451 73.4244 12.8095 72.9967 12.3522C72.569 11.895 71.9937 11.6664 71.271 11.6664C70.5483 11.6664 69.9731 11.895 69.5454 12.3522C69.1176 12.8095 68.9038 13.451 68.9038 14.277V20.9805H65.1206V8.63543H69.3015L68.9038 10.2726C69.2873 9.72687 69.8035 9.29914 70.4524 8.98941C71.1014 8.66493 71.8315 8.50269 72.6427 8.50269Z" fill="#033A62"/>
<path d="M49.3528 14.7859C49.3528 13.5175 49.5888 12.4039 50.0607 11.4452C50.5475 10.4865 51.2038 9.74905 52.0298 9.23283C52.8557 8.71661 53.7775 8.4585 54.7952 8.4585C55.6654 8.4585 56.425 8.63549 57.074 8.98947C57.7377 9.34345 58.2466 9.80805 58.6005 10.3833L58.2396 8.63549H62.3837V20.9806C62.3837 20.9806 59.5506 21.9678 58.931 20.6266C58.6447 20.007 58.6005 19.2328 58.6005 19.2328C58.2318 19.808 57.7156 20.2726 57.0519 20.6266C56.4029 20.9806 55.6433 21.1576 54.7731 21.1576C53.7702 21.1576 52.8557 20.8994 52.0298 20.3832C51.2038 19.8523 50.5475 19.1074 50.0607 18.1487C49.5888 17.1753 49.3528 16.0543 49.3528 14.7859ZM58.6005 14.808C58.6005 13.8641 58.335 13.1192 57.8041 12.5735C57.2879 12.0278 56.6536 11.7549 55.9014 11.7549C55.1492 11.7549 54.5076 12.0278 53.9767 12.5735C53.4604 13.1045 53.2023 13.842 53.2023 14.7859C53.2023 15.7299 53.4604 16.4821 53.9767 17.0425C54.5076 17.5883 55.1492 17.8611 55.9014 17.8611C56.6536 17.8611 57.2879 17.5883 57.8041 17.0425C58.335 16.4968 58.6005 15.752 58.6005 14.808Z" fill="#033A62"/>
<path d="M42.3383 17.3854H47.8692V20.9805H38.4556V2.59009C38.4556 2.59009 42.3041 3.57812 42.3383 5.05515C42.4379 9.36123 42.3383 17.3854 42.3383 17.3854Z" fill="#033A62"/>
<path d="M7.47021 13.0904H8.25892L8.5744 12.9327L10.3095 11.8285V11.1975L8.5744 12.3017L7.47021 12.6172V13.0904Z" fill="url(#paint0_linear_2321_2327)"/>
<path d="M18.9854 12.5661C17.7235 12.168 16.1461 12.4832 15.5151 12.6905V12.1441C16.0935 11.9338 17.5658 11.6078 18.8277 11.9864L18.9854 12.5661Z" fill="#B4DBFF"/>
<g filter="url(#filter0_i_2321_2327)">
<path d="M15.9493 20.8197L13.2677 18.6113C12.1635 19.2423 9.0087 24.921 10.9016 24.921C12.4159 24.921 14.8977 22.1868 15.9493 20.8197Z" fill="url(#paint1_linear_2321_2327)"/>
</g>
<g filter="url(#filter1_ii_2321_2327)">
<path d="M10.3776 12.733C10.5354 18.5694 12.2705 17.623 15.7408 20.9356C18.1069 26.2987 12.1127 26.772 10.2198 24.8791C13.3746 19.9891 9.27338 16.992 9.58886 17.7807C9.96744 18.4117 8.9579 21.1459 8.32694 22.3552C7.53823 20.9356 5.4876 18.8849 4.69891 16.6766C2.33279 22.3552 6.59179 24.7213 8.32694 25.3523C19.2111 36.8674 26.9404 30.0845 29.9374 25.0368C30.7239 23.7123 31.8303 17.623 31.6726 14.1527C31.6726 4.68825 24.8897 -1.34785 17.6337 0.744728C10.3776 2.8373 9.43114 9.26274 10.3776 12.733Z" fill="url(#paint2_linear_2321_2327)"/>
</g>
<path d="M23.4829 6.41189C22.7671 6.24581 22.4264 6.43854 21.8433 6.59293C21.7298 6.62299 21.6134 6.54052 21.6429 6.42688C21.8067 5.79779 23.0978 5.73545 23.6414 6.20269C23.7647 6.30867 23.6413 6.44863 23.4829 6.41189Z" fill="#55A4DD"/>
<g filter="url(#filter2_ii_2321_2327)">
<path d="M27.5961 19.9083C26.1765 18.3309 24.7568 19.9083 25.23 21.0125C25.9662 23.4838 27.7539 28.5525 29.0158 29.0573C30.5932 29.6882 29.6467 22.5899 27.5961 19.9083Z" fill="url(#paint3_linear_2321_2327)"/>
</g>
<path d="M14.7263 15.1905C15.3573 15.1905 16.7769 17.5071 20.7205 14.51C19.774 17.1916 16.6192 18.4535 14.7263 15.1905Z" fill="url(#paint4_linear_2321_2327)"/>
<path d="M15.8587 13.6198C13.4277 15.4835 16.8311 18.4343 20.7207 14.5516C19.9103 13.6198 17.8034 12.1289 15.8587 13.6198Z" fill="url(#paint5_linear_2321_2327)"/>
<path fill-rule="evenodd" clip-rule="evenodd" d="M23.0867 15.2987C25.526 15.2987 27.5034 13.4625 27.5034 11.1975C27.5034 8.93239 25.526 7.09619 23.0867 7.09619C20.6474 7.09619 18.6699 8.93239 18.6699 11.1975C18.6699 13.4625 20.6474 15.2987 23.0867 15.2987ZM23.0867 14.9834C25.3518 14.9834 27.188 13.2884 27.188 11.1976C27.188 9.10677 25.3518 7.41182 23.0867 7.41182C20.8217 7.41182 18.9855 9.10677 18.9855 11.1976C18.9855 13.2884 20.8217 14.9834 23.0867 14.9834Z" fill="url(#paint6_linear_2321_2327)"/>
<path fill-rule="evenodd" clip-rule="evenodd" d="M11.8871 16.5607C13.8908 16.5607 15.5151 14.7245 15.5151 12.4594C15.5151 10.1944 13.8908 8.35815 11.8871 8.35815C9.88336 8.35815 8.25903 10.1944 8.25903 12.4594C8.25903 14.7245 9.88336 16.5607 11.8871 16.5607ZM11.887 16.2452C13.7165 16.2452 15.1995 14.5502 15.1995 12.4594C15.1995 10.3686 13.7165 8.67364 11.887 8.67364C10.0575 8.67364 8.57442 10.3686 8.57442 12.4594C8.57442 14.5502 10.0575 16.2452 11.887 16.2452Z" fill="url(#paint7_linear_2321_2327)"/>
<path d="M26.8725 10.409H27.188L28.1345 10.2513L29.7119 6.93872H30.0273L30.3428 7.56968H29.8696L28.45 10.8822C28.45 10.8822 27.188 11.1977 26.8725 11.04C26.5571 10.8822 26.7148 10.409 26.8725 10.409Z" fill="url(#paint8_linear_2321_2327)"/>
<path d="M19.1432 12.8045C17.7666 12.5225 16.0457 12.7458 15.3574 12.8927V12.5055C15.9884 12.3565 17.7666 12.1139 19.1432 12.3821V12.8045Z" fill="url(#paint9_linear_2321_2327)"/>
<path d="M12.7534 7.11223C12.5589 7.01788 12.338 7.02512 12.1678 7.07216C12.0362 7.10853 11.8559 7.05059 11.9183 6.92917C12.1045 6.56672 13.0583 6.4538 13.1017 6.99542C13.1144 7.15374 12.8963 7.18155 12.7534 7.11223Z" fill="#55A4DD"/>
<g filter="url(#filter3_f_2321_2327)">
<path d="M11.6404 26.6639C12.4905 27.2681 11.9752 27.2324 11.1384 26.807C9.73456 26.0933 10.3567 25.7516 11.6404 26.6639Z" fill="white"/>
</g>
<g filter="url(#filter4_f_2321_2327)">
<path d="M15.375 14.6856C15.5469 14.065 16.0199 13.9099 16.2348 13.9099C16.8797 13.716 17.4171 14.4916 17.2022 14.7825C16.9872 15.0734 15.16 15.4612 15.375 14.6856Z" fill="white"/>
</g>
<g filter="url(#filter5_f_2321_2327)">
<path d="M25.7683 19.8733C26.3123 20.806 27.0505 22.8113 27.4002 24.0704C27.7689 25.3977 28.0996 20.293 25.7683 19.8733Z" fill="white"/>
</g>
<g filter="url(#filter6_f_2321_2327)">
<path d="M10.625 14.7724C10.9769 14.3986 12.3994 12.6279 14.0565 14.2118C14.4084 14.5481 12.2967 16.4543 10.625 14.7724Z" fill="#E0F3FF"/>
</g>
<path d="M26.2755 9.54723C26.1178 10.3359 25.6972 10.6514 25.4868 10.6514L25.1713 10.0205C25.7135 10.5665 26.4333 8.75853 26.2755 9.54723Z" fill="#173F66"/>
<path d="M25.3291 8.91627C25.1713 9.23175 24.8559 9.49465 24.6981 9.54723L25.1713 9.86271C25.8023 9.38949 25.5522 8.47011 25.3291 8.91627Z" fill="#173F66"/>
<path d="M24.5404 8.60079C24.3826 8.91627 24.0672 9.17917 23.9094 9.23175L24.5404 9.38949C24.8559 8.91627 24.6981 8.2853 24.5404 8.60079Z" fill="#173F66"/>
<path d="M25.792 10.6809C25.5981 13.426 23.7629 13.1288 22.24 13.0374C21.6133 12.9998 20.9861 12.5045 21.0622 11.8813C21.486 8.40765 24.9804 8.74522 25.7336 10.3234C25.7859 10.433 25.8005 10.5597 25.792 10.6809Z" fill="url(#paint10_linear_2321_2327)"/>
<path d="M25.1715 11.2825C25.1715 12.4151 24.5405 13.0177 23.2786 13.0177C22.0167 13.0177 21.7012 12.4151 21.7012 11.2825C21.7012 10.15 22.478 9.38965 23.4363 9.38965C24.3946 9.38965 25.1715 10.15 25.1715 11.2825Z" fill="url(#paint11_linear_2321_2327)"/>
<path d="M25.1715 11.2791C25.1715 12.3624 24.5405 12.9388 23.2786 12.9388C22.0167 12.9388 21.7012 12.3624 21.7012 11.2791C21.7012 10.1958 22.478 9.46851 23.4363 9.46851C24.3946 9.46851 25.1715 10.1958 25.1715 11.2791Z" fill="url(#paint12_linear_2321_2327)"/>
<path d="M24.8559 11.2653C24.8559 12.1517 24.3397 12.6233 23.3072 12.6233C22.2747 12.6233 22.0166 12.1517 22.0166 11.2653C22.0166 10.379 22.6522 9.78394 23.4363 9.78394C24.2203 9.78394 24.8559 10.379 24.8559 11.2653Z" fill="url(#paint13_linear_2321_2327)"/>
<path d="M24.1908 11.2455C24.1908 11.9348 24.0905 12.2843 23.4022 12.2843C22.7138 12.2843 22.5418 11.9174 22.5418 11.2281C22.5418 10.5387 22.7217 10.0933 23.2444 10.0933C23.7671 10.0933 24.1908 10.5561 24.1908 11.2455Z" fill="#142C57"/>
<path d="M21.0361 12.6173C20.8784 10.5667 22.7712 7.88509 25.7683 10.2512C24.5064 7.72735 20.0897 9.14701 21.0361 12.6173Z" fill="#173F66"/>
<path d="M25.1372 9.77783C25.2949 9.93557 25.7937 10.4088 25.6104 11.6707C26.2414 10.2511 25.5573 9.93557 25.1372 9.77783Z" fill="#173F66"/>
<ellipse cx="24.033" cy="12.1427" rx="0.157427" ry="0.156178" transform="rotate(-0.11512 24.033 12.1427)" fill="white"/>
<path d="M24.9795 10.4089C24.9797 10.5284 24.7572 10.4846 24.6531 10.4848C24.5491 10.485 24.5065 10.3706 24.5062 10.2512C24.506 10.1318 24.5599 9.93593 24.664 9.93572C24.768 9.93551 24.9792 10.2895 24.9795 10.4089Z" fill="#EEF8FF"/>
<path d="M22.7711 9.82199C23.2444 9.66425 23.2443 9.93557 23.2443 9.93557L22.9289 11.0398L21.9824 11.0839C21.9824 11.0839 22.2979 9.97974 22.7711 9.82199Z" fill="#F0F8FF"/>
<g filter="url(#filter7_f_2321_2327)">
<path d="M4.63078 18.6113C4.47304 19.7155 4.81291 22.1788 6.99689 23.8168C9.52077 25.7097 5.41951 21.6084 4.63078 18.6113Z" fill="#99E7F7"/>
</g>
<path d="M21.9824 13.0904C22.7185 12.88 23.2888 12.8058 24.664 12.7749C25.4527 12.7571 24.1908 13.2481 21.9824 13.0904Z" fill="#5BB5F4"/>
<g filter="url(#filter8_f_2321_2327)">
<path d="M20.8342 13.842C21.3461 13.4682 23.4151 11.6975 25.8254 13.2813C26.3374 13.6177 23.2658 15.5239 20.8342 13.842Z" fill="#E0F3FF"/>
</g>
<path d="M14.411 13.2483C14.4014 13.4977 11.2562 15.1412 10.9407 11.5131C11.0985 9.30474 14.5688 9.14701 14.411 13.2483Z" fill="url(#paint14_linear_2321_2327)"/>
<path d="M10.9406 11.6708C11.0983 11.2501 11.4951 10.1638 12.518 10.2511C13.6294 10.3459 10.6251 9.46239 10.9406 11.6708Z" fill="#173F66"/>
<path d="M14.4109 12.2284C14.2137 13.378 13.7047 13.5423 12.8335 13.5423C12.0448 13.7065 11.2561 12.8977 11.2561 11.8999C11.2561 10.9021 11.7652 10.0933 12.6363 10.0933C13.5075 10.0933 14.4109 10.9145 14.4109 12.2284Z" fill="url(#paint15_linear_2321_2327)"/>
<path d="M14.0953 11.8402C13.9573 12.7808 13.601 12.9152 12.9911 12.9152C12.4391 13.0496 11.887 12.3878 11.887 11.5714C11.887 10.7551 12.2433 10.0933 12.8531 10.0933C13.463 10.0933 14.0953 10.7651 14.0953 11.8402Z" fill="url(#paint16_linear_2321_2327)"/>
<path d="M13.78 11.5735C13.7011 12.2006 13.4975 12.2902 13.149 12.2902C12.8335 12.3798 12.5181 11.9386 12.5181 11.3944C12.5181 10.8501 12.7217 10.4089 13.0702 10.4089C13.4186 10.4089 13.78 10.8569 13.78 11.5735Z" fill="#142C57"/>
<path d="M10.3096 10.4089C10.6881 10.7875 10.9931 10.8821 11.0983 10.8821C10.9405 10.7244 10.6251 10.2512 10.6251 9.6202C10.8774 9.99877 11.4138 10.3563 11.5715 10.4089C11.5715 10.2512 11.0983 9.77794 11.0983 9.14697C11.3507 9.65174 11.6241 9.77794 11.7292 9.77794C12.0447 9.67278 12.9912 9.77794 13.6221 10.4089C13.6221 10.4089 12.9534 10.241 12.5179 10.2512C12.1433 10.2599 11.5715 10.4089 11.5715 10.4089L11.0983 10.8821L10.9247 11.6597C10.7606 11.5395 10.4317 11.1416 10.3096 10.4089Z" fill="#173F66"/>
<path d="M14.4109 12.6173C14.2531 11.0399 13.9377 10.7244 13.6222 10.409L12.9912 10.2512C13.4644 10.5141 14.2531 11.0399 14.4109 12.6173Z" fill="#173F66"/>
<path d="M11.0982 12.3017C11.0982 12.3017 10.9405 11.513 11.0982 11.1975C11.0456 11.2501 10.8774 11.4499 10.625 11.1975C10.9405 12.144 11.0982 12.3017 11.0982 12.3017Z" fill="#173F66"/>
<path d="M11.7292 13.5638C12.0447 13.406 12.8334 13.5638 14.0954 13.5638C13.0185 14.1986 11.887 13.7215 11.7292 13.5638Z" fill="#82C9F7"/>
<path d="M13.7799 10.8822C13.8302 11.0605 13.4069 11.1665 13.285 11.1665C13.1282 11.2107 13.0163 11.0577 12.9661 10.8794C12.9158 10.7011 12.9152 10.3859 13.072 10.3417C13.2219 10.3417 13.6222 10.7244 13.7799 10.8822Z" fill="#EEF8FF"/>
<path d="M12.8333 10.5666C12.8333 10.4795 12.7627 10.4089 12.6756 10.4089C12.5885 10.4089 12.3601 10.4795 12.3601 10.5666C12.3601 10.6537 12.3601 10.8821 12.6756 10.8821C12.7627 10.8821 12.8333 10.6537 12.8333 10.5666Z" fill="#EEF8FF"/>
<ellipse cx="12.4585" cy="12.901" rx="0.161519" ry="0.23476" transform="rotate(-29.3703 12.4585 12.901)" fill="#EEF8FF"/>
<ellipse cx="12.061" cy="10.9113" rx="0.158322" ry="0.172792" transform="rotate(-5.46049 12.061 10.9113)" fill="#EEF8FF"/>
<defs>
<filter id="filter0_i_2321_2327" x="10.3096" y="18.6113" width="5.63965" height="8.30957" filterUnits="userSpaceOnUse" color-interpolation-filters="sRGB">
<feFlood flood-opacity="0" result="BackgroundImageFix"/>
<feBlend mode="normal" in="SourceGraphic" in2="BackgroundImageFix" result="shape"/>
<feColorMatrix in="SourceAlpha" type="matrix" values="0 0 0 0 0 0 0 0 0 0 0 0 0 0 0 0 0 0 127 0" result="hardAlpha"/>
<feOffset dy="2"/>
<feGaussianBlur stdDeviation="2"/>
<feComposite in2="hardAlpha" operator="arithmetic" k2="-1" k3="1"/>
<feColorMatrix type="matrix" values="0 0 0 0 0.0425347 0 0 0 0 0.549444 0 0 0 0 0.729167 0 0 0 0.5 0"/>
<feBlend mode="normal" in2="shape" result="effect1_innerShadow_2321_2327"/>
</filter>
<filter id="filter1_ii_2321_2327" x="4" y="-1.66992" width="27.6877" height="38.3398" filterUnits="userSpaceOnUse" color-interpolation-filters="sRGB">
<feFlood flood-opacity="0" result="BackgroundImageFix"/>
<feBlend mode="normal" in="SourceGraphic" in2="BackgroundImageFix" result="shape"/>
<feColorMatrix in="SourceAlpha" type="matrix" values="0 0 0 0 0 0 0 0 0 0 0 0 0 0 0 0 0 0 127 0" result="hardAlpha"/>
<feOffset dy="5"/>
<feGaussianBlur stdDeviation="3"/>
<feComposite in2="hardAlpha" operator="arithmetic" k2="-1" k3="1"/>
<feColorMatrix type="matrix" values="0 0 0 0 0.34902 0 0 0 0 0.729412 0 0 0 0 1 0 0 0 0.47 0"/>
<feBlend mode="normal" in2="shape" result="effect1_innerShadow_2321_2327"/>
<feColorMatrix in="SourceAlpha" type="matrix" values="0 0 0 0 0 0 0 0 0 0 0 0 0 0 0 0 0 0 127 0" result="hardAlpha"/>
<feOffset dy="-2"/>
<feGaussianBlur stdDeviation="4"/>
<feComposite in2="hardAlpha" operator="arithmetic" k2="-1" k3="1"/>
<feColorMatrix type="matrix" values="0 0 0 0 0.168906 0 0 0 0 0.800316 0 0 0 0 0.8625 0 0 0 0.5 0"/>
<feBlend mode="normal" in2="effect1_innerShadow_2321_2327" result="effect2_innerShadow_2321_2327"/>
</filter>
<filter id="filter2_ii_2321_2327" x="25.1372" y="17.2424" width="6.66821" height="11.8542" filterUnits="userSpaceOnUse" color-interpolation-filters="sRGB">
<feFlood flood-opacity="0" result="BackgroundImageFix"/>
<feBlend mode="normal" in="SourceGraphic" in2="BackgroundImageFix" result="shape"/>
<feColorMatrix in="SourceAlpha" type="matrix" values="0 0 0 0 0 0 0 0 0 0 0 0 0 0 0 0 0 0 127 0" result="hardAlpha"/>
<feOffset dy="-2"/>
<feGaussianBlur stdDeviation="4"/>
<feComposite in2="hardAlpha" operator="arithmetic" k2="-1" k3="1"/>
<feColorMatrix type="matrix" values="0 0 0 0 0.218698 0 0 0 0 0.714874 0 0 0 0 0.920833 0 0 0 0.5 0"/>
<feBlend mode="normal" in2="shape" result="effect1_innerShadow_2321_2327"/>
<feColorMatrix in="SourceAlpha" type="matrix" values="0 0 0 0 0 0 0 0 0 0 0 0 0 0 0 0 0 0 127 0" result="hardAlpha"/>
<feOffset dx="2"/>
<feGaussianBlur stdDeviation="2"/>
<feComposite in2="hardAlpha" operator="arithmetic" k2="-1" k3="1"/>
<feColorMatrix type="matrix" values="0 0 0 0 0.388235 0 0 0 0 0.905882 0 0 0 0 0.964706 0 0 0 1 0"/>
<feBlend mode="normal" in2="effect1_innerShadow_2321_2327" result="effect2_innerShadow_2321_2327"/>
</filter>
<filter id="filter3_f_2321_2327" x="6.33887" y="22.1125" width="9.73755" height="9.01001" filterUnits="userSpaceOnUse" color-interpolation-filters="sRGB">
<feFlood flood-opacity="0" result="BackgroundImageFix"/>
<feBlend mode="normal" in="SourceGraphic" in2="BackgroundImageFix" result="shape"/>
<feGaussianBlur stdDeviation="2" result="effect1_foregroundBlur_2321_2327"/>
</filter>
<filter id="filter4_f_2321_2327" x="10.3574" y="8.87915" width="11.8928" height="11.262" filterUnits="userSpaceOnUse" color-interpolation-filters="sRGB">
<feFlood flood-opacity="0" result="BackgroundImageFix"/>
<feBlend mode="normal" in="SourceGraphic" in2="BackgroundImageFix" result="shape"/>
<feGaussianBlur stdDeviation="2.5" result="effect1_foregroundBlur_2321_2327"/>
</filter>
<filter id="filter5_f_2321_2327" x="20.7683" y="14.8733" width="11.8928" height="14.4167" filterUnits="userSpaceOnUse" color-interpolation-filters="sRGB">
<feFlood flood-opacity="0" result="BackgroundImageFix"/>
<feBlend mode="normal" in="SourceGraphic" in2="BackgroundImageFix" result="shape"/>
<feGaussianBlur stdDeviation="2.5" result="effect1_foregroundBlur_2321_2327"/>
</filter>
<filter id="filter6_f_2321_2327" x="2.625" y="5.56372" width="19.4702" height="17.8928" filterUnits="userSpaceOnUse" color-interpolation-filters="sRGB">
<feFlood flood-opacity="0" result="BackgroundImageFix"/>
<feBlend mode="normal" in="SourceGraphic" in2="BackgroundImageFix" result="shape"/>
<feGaussianBlur stdDeviation="4" result="effect1_foregroundBlur_2321_2327"/>
</filter>
<filter id="filter7_f_2321_2327" x="0.597412" y="14.6113" width="11.2104" height="13.6865" filterUnits="userSpaceOnUse" color-interpolation-filters="sRGB">
<feFlood flood-opacity="0" result="BackgroundImageFix"/>
<feBlend mode="normal" in="SourceGraphic" in2="BackgroundImageFix" result="shape"/>
<feGaussianBlur stdDeviation="2" result="effect1_foregroundBlur_2321_2327"/>
</filter>
<filter id="filter8_f_2321_2327" x="11.8342" y="3.6333" width="23.0476" height="19.8928" filterUnits="userSpaceOnUse" color-interpolation-filters="sRGB">
<feFlood flood-opacity="0" result="BackgroundImageFix"/>
<feBlend mode="normal" in="SourceGraphic" in2="BackgroundImageFix" result="shape"/>
<feGaussianBlur stdDeviation="4.5" result="effect1_foregroundBlur_2321_2327"/>
</filter>
<linearGradient id="paint0_linear_2321_2327" x1="8.88988" y1="11.1975" x2="8.88988" y2="13.0904" gradientUnits="userSpaceOnUse">
<stop stop-color="#10BFCF"/>
<stop offset="1" stop-color="#A7F7FB"/>
</linearGradient>
<linearGradient id="paint1_linear_2321_2327" x1="18.0389" y1="19.2423" x2="18.1966" y2="25.5519" gradientUnits="userSpaceOnUse">
<stop stop-color="#5FC7F5"/>
<stop offset="1" stop-color="#ACF0FC"/>
</linearGradient>
<linearGradient id="paint2_linear_2321_2327" x1="17.8439" y1="0.628933" x2="17.8439" y2="31.67" gradientUnits="userSpaceOnUse">
<stop offset="0.0292509" stop-color="#EEF8FF"/>
<stop offset="0.396124" stop-color="#5AB4F3"/>
<stop offset="1" stop-color="#68F0F8"/>
</linearGradient>
<linearGradient id="paint3_linear_2321_2327" x1="27.4714" y1="19.2424" x2="27.4714" y2="29.0968" gradientUnits="userSpaceOnUse">
<stop stop-color="#60CCF6"/>
<stop offset="1" stop-color="#BEF8FF"/>
</linearGradient>
<linearGradient id="paint4_linear_2321_2327" x1="17.8023" y1="14.6801" x2="17.8023" y2="17.1694" gradientUnits="userSpaceOnUse">
<stop stop-color="#011F44"/>
<stop offset="1" stop-color="#44B5ED"/>
</linearGradient>
<linearGradient id="paint5_linear_2321_2327" x1="17.8813" y1="12.9873" x2="17.8813" y2="16.4576" gradientUnits="userSpaceOnUse">
<stop stop-color="#5BB7F4"/>
<stop offset="1" stop-color="#B5E0FF"/>
</linearGradient>
<linearGradient id="paint6_linear_2321_2327" x1="23.0867" y1="7.09619" x2="23.0867" y2="15.2987" gradientUnits="userSpaceOnUse">
<stop stop-color="#E0F2FF"/>
<stop offset="1" stop-color="#1465E1"/>
</linearGradient>
<linearGradient id="paint7_linear_2321_2327" x1="11.8871" y1="8.35815" x2="11.8871" y2="16.5607" gradientUnits="userSpaceOnUse">
<stop stop-color="#E0F2FF"/>
<stop offset="1" stop-color="#1465E1"/>
</linearGradient>
<linearGradient id="paint8_linear_2321_2327" x1="30.816" y1="6.62324" x2="28.5166" y2="11.0841" gradientUnits="userSpaceOnUse">
<stop stop-color="#08E5F4"/>
<stop offset="1" stop-color="#94F8FF"/>
</linearGradient>
<linearGradient id="paint9_linear_2321_2327" x1="17.2503" y1="12.2617" x2="17.2503" y2="12.8927" gradientUnits="userSpaceOnUse">
<stop stop-color="#E0F2FF"/>
<stop offset="1" stop-color="#1465E1"/>
</linearGradient>
<linearGradient id="paint10_linear_2321_2327" x1="23.4193" y1="9.2001" x2="22.298" y2="13.0904" gradientUnits="userSpaceOnUse">
<stop stop-color="#173F66"/>
<stop offset="0.693722" stop-color="white"/>
</linearGradient>
<linearGradient id="paint11_linear_2321_2327" x1="23.4363" y1="9.38965" x2="23.5598" y2="12.1441" gradientUnits="userSpaceOnUse">
<stop stop-color="#054878"/>
<stop offset="1" stop-color="#A3C9ED"/>
</linearGradient>
<linearGradient id="paint12_linear_2321_2327" x1="23.4363" y1="9.46851" x2="23.5493" y2="12.1036" gradientUnits="userSpaceOnUse">
<stop stop-color="#054878"/>
<stop offset="1" stop-color="#B4DBFF"/>
</linearGradient>
<linearGradient id="paint13_linear_2321_2327" x1="23.4363" y1="9.78394" x2="23.4363" y2="12.6233" gradientUnits="userSpaceOnUse">
<stop stop-color="#0F6FB3"/>
<stop offset="1" stop-color="#2A8CD2"/>
</linearGradient>
<linearGradient id="paint14_linear_2321_2327" x1="12.8336" y1="10.2512" x2="11.3208" y2="13.5824" gradientUnits="userSpaceOnUse">
<stop stop-color="#173F66"/>
<stop offset="0.693722" stop-color="white"/>
</linearGradient>
<linearGradient id="paint15_linear_2321_2327" x1="12.8335" y1="10.0933" x2="12.9578" y2="12.7274" gradientUnits="userSpaceOnUse">
<stop stop-color="#054878"/>
<stop offset="1" stop-color="#B4DBFF"/>
</linearGradient>
<linearGradient id="paint16_linear_2321_2327" x1="12.9911" y1="10.0933" x2="12.9911" y2="12.9326" gradientUnits="userSpaceOnUse">
<stop stop-color="#173F66"/>
<stop offset="1" stop-color="#2A8CD2"/>
</linearGradient>
</defs>
</svg>
