<svg width="139" height="32" viewBox="0 0 139 32" fill="none" xmlns="http://www.w3.org/2000/svg">
<path d="M5.52686 13.0431H6.32842L6.64905 12.8828L8.4125 11.7606V11.1194L6.64905 12.2416L5.52686 12.5622V13.0431Z" fill="url(#paint0_linear_2345_3935)"/>
<path d="M17.23 12.51C15.9475 12.1055 14.3444 12.4258 13.7031 12.6365V12.0811C14.2909 11.8674 15.7872 11.5361 17.0697 11.9208L17.23 12.51Z" fill="#B4DBFF"/>
<g filter="url(#filter0_i_2345_3935)">
<path d="M14.1443 20.8984L11.419 18.6541C10.2968 19.2953 7.0905 25.0666 9.01427 25.0666C10.5533 25.0666 13.0756 22.2878 14.1443 20.8984Z" fill="url(#paint1_linear_2345_3935)"/>
</g>
<g filter="url(#filter1_f_2345_3935)">
<path d="M8.38232 24.7696C8.43131 24.6771 9.4111 23.2897 9.50908 21.2549C10.0969 23.0307 9.00285 24.3379 8.38232 24.7696Z" fill="#48B7E4"/>
</g>
<path d="M7.68854 17.6941C7.68854 19.1562 6.81337 21.3956 6.34741 22.3575L6.4406 22.5499C6.85996 22.117 8.33599 18.6653 7.68854 17.6941Z" fill="#42B3E1"/>
<g filter="url(#filter2_ii_2345_3935)">
<path d="M8.4816 12.6797C8.64195 18.6113 10.4054 17.6495 13.9323 21.016C16.337 26.4667 10.245 26.9477 8.32128 25.0239C11.5276 20.0542 7.3594 17.0082 7.68003 17.8098C8.06478 18.451 7.03877 21.2298 6.39751 22.4589C5.59595 21.016 3.51187 18.932 2.71031 16.6876C0.305596 22.4589 4.63406 24.8636 6.39752 25.5048C17.4592 37.2077 25.3145 30.3142 28.3605 25.1842C29.1598 23.8381 30.2843 17.6495 30.124 14.1226C30.124 4.50372 23.2305 -1.63083 15.856 0.495876C8.4816 2.62259 7.51973 9.15282 8.4816 12.6797Z" fill="url(#paint2_linear_2345_3935)"/>
</g>
<path d="M21.8078 6.25739C21.0744 6.08566 20.7278 6.28338 20.1312 6.44094C20.0177 6.47092 19.9013 6.38856 19.9301 6.27472C20.0931 5.62992 21.417 5.56697 21.9677 6.04751C22.0902 6.15441 21.9661 6.29446 21.8078 6.25739Z" fill="#55A4DD"/>
<path d="M12.9014 15.1774C13.5426 15.1774 14.9854 17.5318 18.9933 14.4858C18.0314 17.2112 14.8251 18.4937 12.9014 15.1774Z" fill="url(#paint3_linear_2345_3935)"/>
<path d="M14.0522 13.5808C11.5815 15.4749 15.0405 18.4738 18.9935 14.5278C18.1699 13.5808 16.0287 12.0656 14.0522 13.5808Z" fill="url(#paint4_linear_2345_3935)"/>
<g filter="url(#filter3_f_2345_3935)">
<path d="M25.8193 11.3206L26.1497 11.263L27.1114 10.9213L28.1449 7.08562L28.4753 7.02803L28.9235 7.64619L28.4279 7.73257L27.5596 11.5394C27.5596 11.5394 26.2969 12.1077 25.9371 11.9963C25.5773 11.885 25.6542 11.3494 25.8193 11.3206Z" fill="#50BCEA"/>
</g>
<g filter="url(#filter4_f_2345_3935)">
<path d="M17.3782 13.2595C16.0549 13.0596 14.5166 13.2135 13.7041 13.3501C13.5819 13.3707 13.4688 13.2775 13.4688 13.1536C13.4688 13.0614 13.5325 12.9815 13.6231 12.9642C14.3876 12.8183 16.0731 12.6284 17.4565 12.84C17.5578 12.8555 17.6309 12.9437 17.6309 13.0461C17.6309 13.1792 17.5098 13.2794 17.3782 13.2595Z" fill="#3BADF4"/>
</g>
<g filter="url(#filter5_f_2345_3935)">
<path fill-rule="evenodd" clip-rule="evenodd" d="M21.8428 15.6254C24.3219 15.6254 26.3316 13.7592 26.3316 11.4572C26.3316 9.15521 24.3219 7.28906 21.8428 7.28906C19.3637 7.28906 17.354 9.15521 17.354 11.4572C17.354 13.7592 19.3637 15.6254 21.8428 15.6254ZM21.8423 15.3051C24.1443 15.3051 26.0104 13.5825 26.0104 11.4576C26.0104 9.33262 24.1443 7.61002 21.8423 7.61002C19.5403 7.61002 17.6741 9.33262 17.6741 11.4576C17.6741 13.5825 19.5403 15.3051 21.8423 15.3051Z" fill="#4AB3EF"/>
</g>
<path fill-rule="evenodd" clip-rule="evenodd" d="M21.398 15.2875C23.8771 15.2875 25.8868 13.4213 25.8868 11.1193C25.8868 8.81732 23.8771 6.95117 21.398 6.95117C18.9189 6.95117 16.9092 8.81732 16.9092 11.1193C16.9092 13.4213 18.9189 15.2875 21.398 15.2875ZM21.3985 14.9668C23.7005 14.9668 25.5667 13.2442 25.5667 11.1193C25.5667 8.99435 23.7005 7.27176 21.3985 7.27176C19.0965 7.27176 17.2304 8.99435 17.2304 11.1193C17.2304 13.2442 19.0965 14.9668 21.3985 14.9668Z" fill="url(#paint5_linear_2345_3935)"/>
<path fill-rule="evenodd" clip-rule="evenodd" d="M10.0158 16.5697C12.0522 16.5697 13.703 14.7036 13.703 12.4016C13.703 10.0995 12.0522 8.2334 10.0158 8.2334C7.97944 8.2334 6.32861 10.0995 6.32861 12.4016C6.32861 14.7036 7.97944 16.5697 10.0158 16.5697ZM10.0159 16.2499C11.8752 16.2499 13.3825 14.5273 13.3825 12.4024C13.3825 10.2774 11.8752 8.55483 10.0159 8.55483C8.15659 8.55483 6.64932 10.2774 6.64932 12.4024C6.64932 14.5273 8.15659 16.2499 10.0159 16.2499Z" fill="url(#paint6_linear_2345_3935)"/>
<g filter="url(#filter6_f_2345_3935)">
<path fill-rule="evenodd" clip-rule="evenodd" d="M13.1781 10.6001C13.5283 11.2138 13.7146 11.9287 13.7146 12.659H13.4219C13.4217 10.7229 12.0483 9.15349 10.3541 9.15349C9.57242 9.15349 8.85901 9.48762 8.31728 10.0377L8.13696 9.80573C8.62232 9.32367 9.22033 9.01001 9.85935 8.90234C10.4984 8.79467 11.1513 8.89756 11.7399 9.19867C12.3285 9.49978 12.8279 9.98635 13.1781 10.6001Z" fill="#4AB3EF"/>
</g>
<path d="M25.2459 10.3174H25.5665L26.5284 10.1571L28.1315 6.79053H28.4521L28.7727 7.43178H28.2918L26.849 10.7984C26.849 10.7984 25.5665 11.119 25.2459 10.9587C24.9253 10.7984 25.0856 10.3174 25.2459 10.3174Z" fill="url(#paint7_linear_2345_3935)"/>
<path d="M17.0979 12.7009C15.9108 12.5093 14.5405 12.6568 13.7996 12.7913C13.6767 12.8137 13.5615 12.7204 13.5615 12.5954C13.5615 12.505 13.6228 12.4262 13.7113 12.4079C14.41 12.2626 15.9307 12.076 17.1834 12.2837C17.2828 12.3002 17.3537 12.3872 17.3537 12.488C17.3537 12.6221 17.2303 12.7222 17.0979 12.7009Z" fill="url(#paint8_linear_2345_3935)"/>
<path d="M10.9028 6.97003C10.702 6.87042 10.4726 6.87843 10.2974 6.92782C10.166 6.96486 9.98556 6.90772 10.0461 6.78538C10.2309 6.41216 11.2146 6.29493 11.2518 6.85494C11.2624 7.01342 11.0451 7.04061 10.9028 6.97003Z" fill="#55A4DD"/>
<g filter="url(#filter7_f_2345_3935)">
<path d="M9.76516 26.8382C10.6292 27.4523 10.1054 27.416 9.25498 26.9837C7.82824 26.2584 8.46052 25.9111 9.76516 26.8382Z" fill="white" fill-opacity="0.8"/>
</g>
<g filter="url(#filter8_f_2345_3935)">
<path d="M13.5606 14.6644C13.7354 14.0335 14.2162 13.8757 14.4348 13.8757C15.0904 13.6786 15.6368 14.4672 15.4183 14.7629C15.1997 15.0587 13.342 15.453 13.5606 14.6644Z" fill="#B9E0FA"/>
</g>
<g filter="url(#filter9_f_2345_3935)">
<path d="M24.1238 19.9365C24.6766 20.8844 25.4269 22.9224 25.7823 24.2021C26.157 25.551 26.4931 20.3631 24.1238 19.9365Z" fill="white" fill-opacity="0.5"/>
</g>
<g filter="url(#filter10_f_2345_3935)">
<path d="M8.73315 14.7523C9.09084 14.3724 10.5364 12.5728 12.2206 14.1825C12.5783 14.5244 10.4322 16.4617 8.73315 14.7523Z" fill="#FDFDFD" fill-opacity="0.5"/>
</g>
<path d="M24.6405 9.44262C24.4801 10.2445 24.0524 10.5652 23.8386 10.5652L23.5179 9.92374C24.0691 10.4789 24.8008 8.64075 24.6405 9.44262Z" fill="#173F66"/>
<path d="M23.6782 8.80112C23.5179 9.12187 23.1971 9.38916 23.0367 9.44262L23.5179 9.76337C24.1593 9.28225 23.905 8.34752 23.6782 8.80112Z" fill="#173F66"/>
<path d="M22.8764 8.48038C22.716 8.80113 22.3952 9.06842 22.2349 9.12187L22.8764 9.28224C23.1971 8.80112 23.0367 8.15963 22.8764 8.48038Z" fill="#173F66"/>
<path d="M24.1478 10.5908C23.9512 13.3957 22.0703 13.0791 20.5182 12.9876C19.8915 12.9506 19.2646 12.4563 19.3384 11.8328C19.7589 8.28027 23.3254 8.62407 24.0896 10.2332C24.1417 10.3429 24.1563 10.4696 24.1478 10.5908Z" fill="url(#paint9_linear_2345_3935)"/>
<path d="M23.5171 11.2057C23.5171 12.3568 22.8759 12.9692 21.5934 12.9692C20.3109 12.9692 19.9902 12.3568 19.9902 11.2057C19.9902 10.0547 20.7798 9.28198 21.7537 9.28198C22.7276 9.28198 23.5171 10.0547 23.5171 11.2057Z" fill="url(#paint10_linear_2345_3935)"/>
<path d="M23.5171 11.2022C23.5171 12.3031 22.8759 12.889 21.5934 12.889C20.3109 12.889 19.9902 12.3031 19.9902 11.2022C19.9902 10.1012 20.7798 9.36206 21.7537 9.36206C22.7276 9.36206 23.5171 10.1012 23.5171 11.2022Z" fill="url(#paint11_linear_2345_3935)"/>
<path d="M23.1962 11.1882C23.1962 12.089 22.6715 12.5683 21.6222 12.5683C20.5729 12.5683 20.3105 12.089 20.3105 11.1882C20.3105 10.2874 20.9565 9.68262 21.7534 9.68262C22.5502 9.68262 23.1962 10.2874 23.1962 11.1882Z" fill="url(#paint12_linear_2345_3935)"/>
<path d="M22.5209 11.1687C22.5209 11.8696 22.4188 12.2249 21.719 12.2249C21.0192 12.2249 20.8442 11.8519 20.8442 11.1511C20.8442 10.4502 21.0272 9.99731 21.5586 9.99731C22.09 9.99731 22.5209 10.4679 22.5209 11.1687Z" fill="#142C57"/>
<path d="M19.3141 12.5623C19.1538 10.4782 21.0776 7.7529 24.1236 10.1576C22.841 7.59259 18.3523 9.03541 19.3141 12.5623Z" fill="#173F66"/>
<path d="M23.4822 9.67651C23.6426 9.83689 24.1497 10.318 23.9633 11.601C24.6048 10.1576 23.9093 9.83689 23.4822 9.67651Z" fill="#173F66"/>
<ellipse cx="22.3606" cy="12.0798" rx="0.160055" ry="0.158785" transform="rotate(-0.11512 22.3606 12.0798)" fill="white"/>
<path d="M23.3218 10.318C23.3221 10.4394 23.0959 10.3949 22.9901 10.3951C22.8843 10.3953 22.841 10.279 22.8407 10.1576C22.8405 10.0362 22.8953 9.83705 23.0011 9.83683C23.1069 9.83662 23.3216 10.1965 23.3218 10.318Z" fill="#EEF8FF"/>
<path d="M21.0777 9.72126C21.5589 9.56088 21.5589 9.83672 21.5589 9.83672L21.2381 10.9593L20.2759 11.0042C20.2759 11.0042 20.5966 9.88163 21.0777 9.72126Z" fill="#F0F8FF"/>
<g filter="url(#filter11_f_2345_3935)">
<path d="M2.64158 18.6541C2.48126 19.7762 2.82668 22.2797 5.04628 23.9444C7.61133 25.8682 3.44317 21.7 2.64158 18.6541Z" fill="#99E7F7" fill-opacity="0.8"/>
</g>
<path d="M20.2759 13.0428C21.024 12.829 21.6036 12.7536 23.0012 12.7222C23.8028 12.7041 22.5203 13.2031 20.2759 13.0428Z" fill="#5BB5F4"/>
<g filter="url(#filter12_f_2345_3935)">
<path d="M19.1094 13.8067C19.6296 13.4269 21.7323 11.6273 24.182 13.237C24.7023 13.5788 21.5807 15.5161 19.1094 13.8067Z" fill="#EDF8FE" fill-opacity="0.5"/>
</g>
<path d="M12.5807 13.2035C12.5709 13.4569 9.37438 15.1272 9.05371 11.44C9.21406 9.19563 12.741 9.03532 12.5807 13.2035Z" fill="url(#paint13_linear_2345_3935)"/>
<path d="M9.05353 11.6011C9.21391 11.1734 9.6173 10.069 10.6573 10.1577C11.7872 10.2541 8.73276 9.35587 9.05353 11.6011Z" fill="#173F66"/>
<path d="M12.5808 12.1672C12.3804 13.3357 11.863 13.5026 10.9776 13.5026C10.1761 13.6695 9.37451 12.8475 9.37451 11.8334C9.37451 10.8194 9.89187 9.99731 10.7773 9.99731C11.6626 9.99731 12.5808 10.8319 12.5808 12.1672Z" fill="url(#paint14_linear_2345_3935)"/>
<path d="M12.26 11.7727C12.1197 12.7287 11.7576 12.8653 11.1378 12.8653C10.5767 13.0018 10.0156 12.3292 10.0156 11.4996C10.0156 10.6699 10.3778 9.99731 10.9975 9.99731C11.6173 9.99731 12.26 10.6802 12.26 11.7727Z" fill="url(#paint15_linear_2345_3935)"/>
<path d="M11.94 11.5017C11.8598 12.1392 11.6528 12.2303 11.2985 12.2303C10.9777 12.3214 10.657 11.8728 10.657 11.3195C10.657 10.7662 10.864 10.3176 11.2183 10.3176C11.5726 10.3176 11.94 10.773 11.94 11.5017Z" fill="#142C57"/>
<path d="M8.4126 10.3179C8.79735 10.7027 9.10729 10.7989 9.21417 10.7989C9.05385 10.6385 8.73323 10.1576 8.73323 9.51634C8.98973 9.90109 9.53479 10.2645 9.69511 10.3179C9.69511 10.1576 9.21417 9.67666 9.21417 9.0354C9.47067 9.5484 9.74855 9.67666 9.85542 9.67666C10.176 9.56978 11.1379 9.67666 11.7792 10.3179C11.7792 10.3179 11.0996 10.1473 10.657 10.1576C10.2763 10.1665 9.69511 10.3179 9.69511 10.3179L9.21417 10.7989L9.03775 11.5891C8.87101 11.467 8.53671 11.0626 8.4126 10.3179Z" fill="#173F66"/>
<path d="M12.5813 12.5628C12.4209 10.9591 12.1002 10.6383 11.7794 10.3176L11.1379 10.1572C11.6191 10.4245 12.4209 10.9591 12.5813 12.5628Z" fill="#173F66"/>
<g filter="url(#filter13_f_2345_3935)">
<path d="M28.361 21.7173H26.9731C27.0536 22.6925 27.2869 24.5472 27.5766 24.1642C27.8662 23.7812 28.2202 22.3733 28.361 21.7173Z" fill="#3DB4E4"/>
</g>
<path d="M9.21428 12.242C9.21428 12.242 9.0539 11.4401 9.21428 11.1194C9.16082 11.1728 8.98975 11.376 8.73315 11.1194C9.0539 12.0816 9.21428 12.242 9.21428 12.242Z" fill="#173F66"/>
<path d="M9.85571 13.5242C10.1765 13.3638 10.9783 13.5242 12.2613 13.5242C11.1665 14.1696 10.0161 13.6845 9.85571 13.5242Z" fill="#82C9F7"/>
<path d="M11.9398 10.7987C11.9909 10.98 11.5605 11.0878 11.4365 11.0878C11.2772 11.1327 11.1634 10.9772 11.1123 10.796C11.0613 10.6147 11.0606 10.2942 11.22 10.2493C11.3725 10.2493 11.7794 10.6384 11.9398 10.7987Z" fill="#EEF8FF"/>
<path d="M10.9779 10.4776C10.9779 10.389 10.9061 10.3172 10.8176 10.3172C10.729 10.3172 10.4968 10.389 10.4968 10.4776C10.4968 10.5662 10.4968 10.7983 10.8176 10.7983C10.9061 10.7983 10.9779 10.5662 10.9779 10.4776Z" fill="#EEF8FF"/>
<ellipse cx="10.5964" cy="12.8509" rx="0.164216" ry="0.238679" transform="rotate(-29.3703 10.5964 12.8509)" fill="#EEF8FF"/>
<ellipse cx="10.1933" cy="10.8285" rx="0.160965" ry="0.175677" transform="rotate(-5.46049 10.1933 10.8285)" fill="#EEF8FF"/>
<g filter="url(#filter14_f_2345_3935)">
<path d="M26.4178 27.2415L25.6187 28.0249L23.5749 19.7986L26.4178 27.2415Z" fill="#23A0D5"/>
</g>
<g filter="url(#filter15_ii_2345_3935)">
<path d="M26.3513 19.1579C24.9085 17.5548 23.4657 19.1579 23.9466 20.2801C24.6948 22.7917 26.5117 27.9431 27.7942 28.4561C29.3973 29.0974 28.4354 21.8833 26.3513 19.1579Z" fill="url(#paint16_linear_2345_3935)"/>
</g>
<path d="M138.981 9.06971L131.002 27.8304H126.808L129.726 21.3565L124.551 9.06971C124.551 9.06971 127.138 8.07471 129.133 10.2494C130.048 11.2467 131.846 17.0253 131.846 17.0253C131.846 17.0253 133.62 11.6721 134.568 10.2494C135.853 8.32178 138.981 9.06971 138.981 9.06971Z" fill="#142C57"/>
<path d="M118.966 9.50297C120.425 9.50297 121.595 9.98927 122.477 10.9619C123.358 11.9193 123.799 13.2414 123.799 14.9283V23.4994C123.799 23.4994 120.727 23.9268 120.299 21.9322C119.924 20.1795 119.924 15.4526 119.924 15.4526C119.924 14.6016 119.703 13.9405 119.263 13.4694C118.822 12.9983 118.229 12.7627 117.485 12.7627C116.74 12.7627 116.147 12.9983 115.707 13.4694C115.266 13.9405 115.045 14.6016 115.045 15.4526V22.3596H111.147V5.49097H115.045V11.3494C115.441 10.7871 115.98 10.3388 116.664 10.0045C117.348 9.67014 118.115 9.50297 118.966 9.50297Z" fill="#142C57"/>
<path d="M99.574 11.4405C99.954 10.8478 100.478 10.3691 101.147 10.0044C101.816 9.63964 102.598 9.45728 103.495 9.45728C104.543 9.45728 105.493 9.72322 106.344 10.2551C107.195 10.787 107.864 11.5469 108.35 12.5347C108.852 13.5225 109.103 14.6698 109.103 15.9768C109.103 17.2837 108.852 18.4387 108.35 19.4417C107.864 20.4295 107.195 21.1969 106.344 21.744C105.493 22.2759 104.543 22.5419 103.495 22.5419C102.613 22.5419 101.831 22.3595 101.147 21.9948C100.478 21.6301 99.954 21.159 99.574 20.5815V28.4231H95.676V9.63964H100.068L99.574 11.4405ZM105.136 15.9768C105.136 15.0042 104.863 14.2443 104.316 13.6972C103.784 13.1349 103.123 12.8538 102.332 12.8538C101.557 12.8538 100.896 13.1349 100.349 13.6972C99.8172 14.2595 99.5513 15.027 99.5513 15.9996C99.5513 16.9722 99.8172 17.7396 100.349 18.3019C100.896 18.8642 101.557 19.1454 102.332 19.1454C103.107 19.1454 103.768 18.8642 104.316 18.3019C104.863 17.7244 105.136 16.9494 105.136 15.9768Z" fill="#142C57"/>
<path d="M85.0374 9.45728C85.934 9.45728 86.7166 9.63964 87.3853 10.0044C88.0692 10.3691 88.5935 10.8478 88.9582 11.4405L88.386 9.63964H92.8562V22.3367C92.8562 23.5069 92.6207 24.5631 92.1496 25.5053C91.6937 26.4627 90.987 27.2226 90.0296 27.7848C89.0874 28.3471 87.9096 28.6283 86.4963 28.6283C84.6119 28.6283 83.0846 28.18 81.9144 27.2833C80.7442 26.4019 80.4076 25.4591 80.4076 24.3541C80.4076 23.2491 83.3175 23.3169 83.542 23.7842C83.7664 24.2515 84.1711 24.5479 84.6271 24.8214C85.083 25.1102 85.6452 25.2545 86.3139 25.2545C87.1194 25.2545 87.7576 25.019 88.2287 24.5479C88.715 24.092 88.9582 23.3549 88.9582 22.3367V20.5359C88.5783 21.1286 88.054 21.6149 87.3853 21.9948C86.7166 22.3595 85.934 22.5419 85.0374 22.5419C83.9888 22.5419 83.039 22.2759 82.1879 21.744C81.3369 21.1969 80.6606 20.4295 80.1591 19.4417C79.6728 18.4387 79.4297 17.2837 79.4297 15.9768C79.4297 14.6698 79.6728 13.5225 80.1591 12.5347C80.6606 11.5469 81.3369 10.787 82.1879 10.2551C83.039 9.72322 83.9888 9.45728 85.0374 9.45728ZM88.9582 15.9996C88.9582 15.027 88.6846 14.2595 88.1376 13.6972C87.6057 13.1349 86.9522 12.8538 86.1771 12.8538C85.4021 12.8538 84.741 13.1349 84.1939 13.6972C83.662 14.2443 83.3961 15.0042 83.3961 15.9768C83.3961 16.9494 83.662 17.7244 84.1939 18.3019C84.741 18.8642 85.4021 19.1454 86.1771 19.1454C86.9522 19.1454 87.6057 18.8642 88.1376 18.3019C88.6846 17.7396 88.9582 16.9722 88.9582 15.9996Z" fill="#142C57"/>
<path d="M72.5949 9.50293C74.0842 9.50293 75.2696 9.98923 76.151 10.9618C77.0477 11.9193 77.496 13.2414 77.496 14.9283V23.3569C77.496 23.3569 73.9963 23.6418 73.7114 21.7897C73.4927 20.3685 73.6207 15.4525 73.6207 15.4525C73.6207 14.6015 73.4004 13.9404 72.9597 13.4693C72.519 12.9982 71.9263 12.7627 71.1816 12.7627C70.437 12.7627 69.8443 12.9982 69.4036 13.4693C68.9629 13.9404 68.7425 14.6015 68.7425 15.4525V22.3596H64.8445V9.6397H69.1523L68.7425 11.3266C69.1376 10.7643 69.6695 10.3236 70.3382 10.0044C71.0069 9.6701 71.7591 9.50293 72.5949 9.50293Z" fill="#142C57"/>
<path d="M48.5981 15.9768C48.5981 14.6698 48.8413 13.5225 49.3276 12.5347C49.8291 11.5469 50.5054 10.787 51.3564 10.2551C52.2074 9.72322 53.1572 9.45728 54.2058 9.45728C55.1025 9.45728 55.8851 9.63964 56.5538 10.0044C57.2376 10.3691 57.7619 10.8478 58.1267 11.4405L57.7548 9.63964H62.0247V22.3595C62.0247 22.3595 59.1056 23.3767 58.4672 21.9948C58.1722 21.3564 58.1267 20.5587 58.1267 20.5587C57.7467 21.1514 57.2148 21.6301 56.531 21.9948C55.8623 22.3595 55.0797 22.5419 54.183 22.5419C53.1496 22.5419 52.2074 22.2759 51.3564 21.744C50.5054 21.1969 49.8291 20.4295 49.3276 19.4417C48.8413 18.4387 48.5981 17.2837 48.5981 15.9768ZM58.1267 15.9996C58.1267 15.027 57.8531 14.2595 57.306 13.6972C56.7741 13.1349 56.1207 12.8538 55.3456 12.8538C54.5706 12.8538 53.9095 13.1349 53.3624 13.6972C52.8305 14.2443 52.5646 15.0042 52.5646 15.9768C52.5646 16.9494 52.8305 17.7244 53.3624 18.3019C53.9095 18.8642 54.5706 19.1454 55.3456 19.1454C56.1207 19.1454 56.7741 18.8642 57.306 18.3019C57.8531 17.7396 58.1267 16.9722 58.1267 15.9996Z" fill="#142C57"/>
<path d="M41.3702 18.6554H47.0691V22.3596H37.3696V3.41089C37.3696 3.41089 41.335 4.42892 41.3702 5.95079C41.4728 10.3876 41.3702 18.6554 41.3702 18.6554Z" fill="#142C57"/>
<defs>
<filter id="filter0_i_2345_3935" x="8.4126" y="18.6541" width="5.73169" height="8.4126" filterUnits="userSpaceOnUse" color-interpolation-filters="sRGB">
<feFlood flood-opacity="0" result="BackgroundImageFix"/>
<feBlend mode="normal" in="SourceGraphic" in2="BackgroundImageFix" result="shape"/>
<feColorMatrix in="SourceAlpha" type="matrix" values="0 0 0 0 0 0 0 0 0 0 0 0 0 0 0 0 0 0 127 0" result="hardAlpha"/>
<feOffset dy="2"/>
<feGaussianBlur stdDeviation="2"/>
<feComposite in2="hardAlpha" operator="arithmetic" k2="-1" k3="1"/>
<feColorMatrix type="matrix" values="0 0 0 0 0.0425347 0 0 0 0 0.549444 0 0 0 0 0.729167 0 0 0 0.4 0"/>
<feBlend mode="normal" in2="shape" result="effect1_innerShadow_2345_3935"/>
</filter>
<filter id="filter1_f_2345_3935" x="6.38232" y="19.2549" width="5.29492" height="7.51465" filterUnits="userSpaceOnUse" color-interpolation-filters="sRGB">
<feFlood flood-opacity="0" result="BackgroundImageFix"/>
<feBlend mode="normal" in="SourceGraphic" in2="BackgroundImageFix" result="shape"/>
<feGaussianBlur stdDeviation="1" result="effect1_foregroundBlur_2345_3935"/>
</filter>
<filter id="filter2_ii_2345_3935" x="2" y="-1.92554" width="28.1394" height="35.8511" filterUnits="userSpaceOnUse" color-interpolation-filters="sRGB">
<feFlood flood-opacity="0" result="BackgroundImageFix"/>
<feBlend mode="normal" in="SourceGraphic" in2="BackgroundImageFix" result="shape"/>
<feColorMatrix in="SourceAlpha" type="matrix" values="0 0 0 0 0 0 0 0 0 0 0 0 0 0 0 0 0 0 127 0" result="hardAlpha"/>
<feOffset dy="2"/>
<feGaussianBlur stdDeviation="1"/>
<feComposite in2="hardAlpha" operator="arithmetic" k2="-1" k3="1"/>
<feColorMatrix type="matrix" values="0 0 0 0 0.34902 0 0 0 0 0.729412 0 0 0 0 1 0 0 0 0.6 0"/>
<feBlend mode="normal" in2="shape" result="effect1_innerShadow_2345_3935"/>
<feColorMatrix in="SourceAlpha" type="matrix" values="0 0 0 0 0 0 0 0 0 0 0 0 0 0 0 0 0 0 127 0" result="hardAlpha"/>
<feOffset dy="-2"/>
<feGaussianBlur stdDeviation="2.5"/>
<feComposite in2="hardAlpha" operator="arithmetic" k2="-1" k3="1"/>
<feColorMatrix type="matrix" values="0 0 0 0 0.380392 0 0 0 0 0.745098 0 0 0 0 0.937255 0 0 0 0.1 0"/>
<feBlend mode="normal" in2="effect1_innerShadow_2345_3935" result="effect2_innerShadow_2345_3935"/>
</filter>
<filter id="filter3_f_2345_3935" x="24.6812" y="6.02808" width="5.24243" height="6.98267" filterUnits="userSpaceOnUse" color-interpolation-filters="sRGB">
<feFlood flood-opacity="0" result="BackgroundImageFix"/>
<feBlend mode="normal" in="SourceGraphic" in2="BackgroundImageFix" result="shape"/>
<feGaussianBlur stdDeviation="0.5" result="effect1_foregroundBlur_2345_3935"/>
</filter>
<filter id="filter4_f_2345_3935" x="12.4688" y="11.7456" width="6.16211" height="2.60742" filterUnits="userSpaceOnUse" color-interpolation-filters="sRGB">
<feFlood flood-opacity="0" result="BackgroundImageFix"/>
<feBlend mode="normal" in="SourceGraphic" in2="BackgroundImageFix" result="shape"/>
<feGaussianBlur stdDeviation="0.5" result="effect1_foregroundBlur_2345_3935"/>
</filter>
<filter id="filter5_f_2345_3935" x="16.354" y="6.28906" width="10.9775" height="10.3364" filterUnits="userSpaceOnUse" color-interpolation-filters="sRGB">
<feFlood flood-opacity="0" result="BackgroundImageFix"/>
<feBlend mode="normal" in="SourceGraphic" in2="BackgroundImageFix" result="shape"/>
<feGaussianBlur stdDeviation="0.5" result="effect1_foregroundBlur_2345_3935"/>
</filter>
<filter id="filter6_f_2345_3935" x="7.13696" y="7.86084" width="7.57764" height="5.7981" filterUnits="userSpaceOnUse" color-interpolation-filters="sRGB">
<feFlood flood-opacity="0" result="BackgroundImageFix"/>
<feBlend mode="normal" in="SourceGraphic" in2="BackgroundImageFix" result="shape"/>
<feGaussianBlur stdDeviation="0.5" result="effect1_foregroundBlur_2345_3935"/>
</filter>
<filter id="filter7_f_2345_3935" x="5.44238" y="23.2778" width="7.76587" height="7.02661" filterUnits="userSpaceOnUse" color-interpolation-filters="sRGB">
<feFlood flood-opacity="0" result="BackgroundImageFix"/>
<feBlend mode="normal" in="SourceGraphic" in2="BackgroundImageFix" result="shape"/>
<feGaussianBlur stdDeviation="1.5" result="effect1_foregroundBlur_2345_3935"/>
</filter>
<filter id="filter8_f_2345_3935" x="11.5427" y="11.8445" width="5.92456" height="5.28296" filterUnits="userSpaceOnUse" color-interpolation-filters="sRGB">
<feFlood flood-opacity="0" result="BackgroundImageFix"/>
<feBlend mode="normal" in="SourceGraphic" in2="BackgroundImageFix" result="shape"/>
<feGaussianBlur stdDeviation="1" result="effect1_foregroundBlur_2345_3935"/>
</filter>
<filter id="filter9_f_2345_3935" x="19.1238" y="14.9365" width="11.9238" height="14.4888" filterUnits="userSpaceOnUse" color-interpolation-filters="sRGB">
<feFlood flood-opacity="0" result="BackgroundImageFix"/>
<feBlend mode="normal" in="SourceGraphic" in2="BackgroundImageFix" result="shape"/>
<feGaussianBlur stdDeviation="2.5" result="effect1_foregroundBlur_2345_3935"/>
</filter>
<filter id="filter10_f_2345_3935" x="6.73315" y="11.5239" width="7.52686" height="5.92383" filterUnits="userSpaceOnUse" color-interpolation-filters="sRGB">
<feFlood flood-opacity="0" result="BackgroundImageFix"/>
<feBlend mode="normal" in="SourceGraphic" in2="BackgroundImageFix" result="shape"/>
<feGaussianBlur stdDeviation="1" result="effect1_foregroundBlur_2345_3935"/>
</filter>
<filter id="filter11_f_2345_3935" x="0.607666" y="16.6541" width="7.26294" height="9.7793" filterUnits="userSpaceOnUse" color-interpolation-filters="sRGB">
<feFlood flood-opacity="0" result="BackgroundImageFix"/>
<feBlend mode="normal" in="SourceGraphic" in2="BackgroundImageFix" result="shape"/>
<feGaussianBlur stdDeviation="1" result="effect1_foregroundBlur_2345_3935"/>
</filter>
<filter id="filter12_f_2345_3935" x="17.1094" y="10.5784" width="9.13013" height="5.92383" filterUnits="userSpaceOnUse" color-interpolation-filters="sRGB">
<feFlood flood-opacity="0" result="BackgroundImageFix"/>
<feBlend mode="normal" in="SourceGraphic" in2="BackgroundImageFix" result="shape"/>
<feGaussianBlur stdDeviation="1" result="effect1_foregroundBlur_2345_3935"/>
</filter>
<filter id="filter13_f_2345_3935" x="24.9731" y="19.7173" width="5.38794" height="6.49829" filterUnits="userSpaceOnUse" color-interpolation-filters="sRGB">
<feFlood flood-opacity="0" result="BackgroundImageFix"/>
<feBlend mode="normal" in="SourceGraphic" in2="BackgroundImageFix" result="shape"/>
<feGaussianBlur stdDeviation="1" result="effect1_foregroundBlur_2345_3935"/>
</filter>
<filter id="filter14_f_2345_3935" x="21.575" y="17.7986" width="6.84277" height="12.2263" filterUnits="userSpaceOnUse" color-interpolation-filters="sRGB">
<feFlood flood-opacity="0" result="BackgroundImageFix"/>
<feBlend mode="normal" in="SourceGraphic" in2="BackgroundImageFix" result="shape"/>
<feGaussianBlur stdDeviation="1" result="effect1_foregroundBlur_2345_3935"/>
</filter>
<filter id="filter15_ii_2345_3935" x="23.8523" y="16.4812" width="6.74438" height="12.0151" filterUnits="userSpaceOnUse" color-interpolation-filters="sRGB">
<feFlood flood-opacity="0" result="BackgroundImageFix"/>
<feBlend mode="normal" in="SourceGraphic" in2="BackgroundImageFix" result="shape"/>
<feColorMatrix in="SourceAlpha" type="matrix" values="0 0 0 0 0 0 0 0 0 0 0 0 0 0 0 0 0 0 127 0" result="hardAlpha"/>
<feOffset dy="-2"/>
<feGaussianBlur stdDeviation="4"/>
<feComposite in2="hardAlpha" operator="arithmetic" k2="-1" k3="1"/>
<feColorMatrix type="matrix" values="0 0 0 0 0.218698 0 0 0 0 0.714874 0 0 0 0 0.920833 0 0 0 0.5 0"/>
<feBlend mode="normal" in2="shape" result="effect1_innerShadow_2345_3935"/>
<feColorMatrix in="SourceAlpha" type="matrix" values="0 0 0 0 0 0 0 0 0 0 0 0 0 0 0 0 0 0 127 0" result="hardAlpha"/>
<feOffset dx="2"/>
<feGaussianBlur stdDeviation="2"/>
<feComposite in2="hardAlpha" operator="arithmetic" k2="-1" k3="1"/>
<feColorMatrix type="matrix" values="0 0 0 0 0.388235 0 0 0 0 0.905882 0 0 0 0 0.964706 0 0 0 1 0"/>
<feBlend mode="normal" in2="effect1_innerShadow_2345_3935" result="effect2_innerShadow_2345_3935"/>
</filter>
<linearGradient id="paint0_linear_2345_3935" x1="6.96968" y1="11.1194" x2="6.96968" y2="13.0431" gradientUnits="userSpaceOnUse">
<stop stop-color="#10BFCF"/>
<stop offset="1" stop-color="#A7F7FB"/>
</linearGradient>
<linearGradient id="paint1_linear_2345_3935" x1="16.268" y1="19.2953" x2="16.4283" y2="25.7079" gradientUnits="userSpaceOnUse">
<stop stop-color="#5FC7F5"/>
<stop offset="1" stop-color="#ACF0FC"/>
</linearGradient>
<linearGradient id="paint2_linear_2345_3935" x1="16.0697" y1="0.378192" x2="16.0697" y2="31.9256" gradientUnits="userSpaceOnUse">
<stop offset="0.0292509" stop-color="#EEF8FF"/>
<stop offset="0.396124" stop-color="#5AB4F3"/>
<stop offset="1" stop-color="#68F0F8"/>
</linearGradient>
<linearGradient id="paint3_linear_2345_3935" x1="16.0275" y1="14.6587" x2="16.0275" y2="17.1886" gradientUnits="userSpaceOnUse">
<stop stop-color="#011F44"/>
<stop offset="1" stop-color="#44B5ED"/>
</linearGradient>
<linearGradient id="paint4_linear_2345_3935" x1="16.1078" y1="12.938" x2="16.1078" y2="16.4649" gradientUnits="userSpaceOnUse">
<stop stop-color="#5BB7F4"/>
<stop offset="1" stop-color="#B5E0FF"/>
</linearGradient>
<linearGradient id="paint5_linear_2345_3935" x1="21.398" y1="6.95117" x2="21.398" y2="15.2875" gradientUnits="userSpaceOnUse">
<stop stop-color="#E0F2FF"/>
<stop offset="1" stop-color="#1465E1"/>
</linearGradient>
<linearGradient id="paint6_linear_2345_3935" x1="10.0158" y1="8.2334" x2="10.0158" y2="16.5697" gradientUnits="userSpaceOnUse">
<stop stop-color="#E0F2FF"/>
<stop offset="1" stop-color="#1465E1"/>
</linearGradient>
<linearGradient id="paint7_linear_2345_3935" x1="29.2537" y1="6.4699" x2="26.9168" y2="11.0036" gradientUnits="userSpaceOnUse">
<stop stop-color="#08E5F4"/>
<stop offset="1" stop-color="#94F8FF"/>
</linearGradient>
<linearGradient id="paint8_linear_2345_3935" x1="15.4576" y1="12.1912" x2="15.4576" y2="12.8386" gradientUnits="userSpaceOnUse">
<stop stop-color="#E0F2FF"/>
<stop offset="1" stop-color="#1465E1"/>
</linearGradient>
<linearGradient id="paint9_linear_2345_3935" x1="21.7362" y1="9.08886" x2="20.5966" y2="13.0426" gradientUnits="userSpaceOnUse">
<stop stop-color="#173F66"/>
<stop offset="0.693722" stop-color="white"/>
</linearGradient>
<linearGradient id="paint10_linear_2345_3935" x1="21.7537" y1="9.28198" x2="21.8792" y2="12.0813" gradientUnits="userSpaceOnUse">
<stop stop-color="#054878"/>
<stop offset="1" stop-color="#A3C9ED"/>
</linearGradient>
<linearGradient id="paint11_linear_2345_3935" x1="21.7537" y1="9.36206" x2="21.8685" y2="12.0402" gradientUnits="userSpaceOnUse">
<stop stop-color="#054878"/>
<stop offset="1" stop-color="#B4DBFF"/>
</linearGradient>
<linearGradient id="paint12_linear_2345_3935" x1="21.7534" y1="9.68262" x2="21.7534" y2="12.5683" gradientUnits="userSpaceOnUse">
<stop stop-color="#0F6FB3"/>
<stop offset="1" stop-color="#2A8CD2"/>
</linearGradient>
<linearGradient id="paint13_linear_2345_3935" x1="10.9775" y1="10.1575" x2="9.44002" y2="13.5431" gradientUnits="userSpaceOnUse">
<stop stop-color="#173F66"/>
<stop offset="0.693722" stop-color="white"/>
</linearGradient>
<linearGradient id="paint14_linear_2345_3935" x1="10.9776" y1="9.99731" x2="11.1039" y2="12.6744" gradientUnits="userSpaceOnUse">
<stop stop-color="#054878"/>
<stop offset="1" stop-color="#B4DBFF"/>
</linearGradient>
<linearGradient id="paint15_linear_2345_3935" x1="11.1378" y1="9.99731" x2="11.1378" y2="12.883" gradientUnits="userSpaceOnUse">
<stop stop-color="#173F66"/>
<stop offset="1" stop-color="#2A8CD2"/>
</linearGradient>
<linearGradient id="paint16_linear_2345_3935" x1="26.2245" y1="18.4812" x2="26.2245" y2="28.4963" gradientUnits="userSpaceOnUse">
<stop stop-color="#60CCF6"/>
<stop offset="1" stop-color="#BEF8FF"/>
</linearGradient>
</defs>
</svg>
