<svg width="139" height="32" viewBox="0 0 139 32" fill="none" xmlns="http://www.w3.org/2000/svg">
<path d="M5.52698 13.0429H6.32855L6.64917 12.8826L8.41263 11.7604V11.1191L6.64917 12.2413L5.52698 12.562V13.0429Z" fill="url(#paint0_linear_2345_4069)"/>
<path d="M17.23 12.5098C15.9475 12.1052 14.3444 12.4255 13.7031 12.6362V12.0809C14.2909 11.8672 15.7872 11.5358 17.0697 11.9206L17.23 12.5098Z" fill="#B4DBFF"/>
<g filter="url(#filter0_i_2345_4069)">
<path d="M14.1444 20.8982L11.4191 18.6538C10.2969 19.2951 7.09063 25.0664 9.01439 25.0664C10.5534 25.0664 13.0757 22.2876 14.1444 20.8982Z" fill="url(#paint1_linear_2345_4069)"/>
</g>
<g filter="url(#filter1_f_2345_4069)">
<path d="M8.38232 24.7696C8.43131 24.6771 9.4111 23.2897 9.50908 21.2549C10.0969 23.0307 9.00285 24.3379 8.38232 24.7696Z" fill="#48B7E4"/>
</g>
<path d="M7.68842 17.6938C7.68842 19.156 6.81325 21.3954 6.34729 22.3573L6.44048 22.5497C6.85984 22.1168 8.33586 18.665 7.68842 17.6938Z" fill="#42B3E1"/>
<g filter="url(#filter2_ii_2345_4069)">
<path d="M8.4816 12.6795C8.64195 18.6111 10.4054 17.6492 13.9323 21.0158C16.337 26.4665 10.245 26.9474 8.32128 25.0236C11.5276 20.0539 7.3594 17.008 7.68003 17.8095C8.06478 18.4508 7.03877 21.2296 6.39751 22.4586C5.59595 21.0158 3.51187 18.9317 2.71031 16.6873C0.305596 22.4586 4.63406 24.8633 6.39752 25.5046C17.4592 37.2075 25.3145 30.314 28.3605 25.184C29.1598 23.8379 30.2843 17.6492 30.124 14.1223C30.124 4.50348 23.2305 -1.63108 15.856 0.495632C8.4816 2.62234 7.51973 9.15258 8.4816 12.6795Z" fill="url(#paint2_linear_2345_4069)"/>
</g>
<path d="M21.8077 6.25715C21.0743 6.08542 20.7277 6.28313 20.1311 6.44069C20.0176 6.47068 19.9011 6.38831 19.9299 6.27447C20.093 5.62968 21.4168 5.56672 21.9676 6.04727C22.0901 6.15416 21.966 6.29421 21.8077 6.25715Z" fill="#55A4DD"/>
<path d="M12.9014 15.177C13.5426 15.177 14.9854 17.5313 18.9933 14.4854C18.0314 17.2107 14.8251 18.4932 12.9014 15.177Z" fill="url(#paint3_linear_2345_4069)"/>
<path d="M14.0523 13.5808C11.5817 15.4749 15.0406 18.4738 18.9936 14.5278C18.17 13.5808 16.0288 12.0656 14.0523 13.5808Z" fill="url(#paint4_linear_2345_4069)"/>
<g filter="url(#filter3_f_2345_4069)">
<path d="M25.8192 11.3206L26.1496 11.263L27.1113 10.9213L28.1448 7.08562L28.4752 7.02803L28.9233 7.64619L28.4278 7.73257L27.5595 11.5394C27.5595 11.5394 26.2968 12.1077 25.937 11.9963C25.5772 11.885 25.654 11.3494 25.8192 11.3206Z" fill="#50BCEA"/>
</g>
<g filter="url(#filter4_f_2345_4069)">
<path d="M17.3782 13.2595C16.0549 13.0596 14.5166 13.2135 13.7041 13.3501C13.5819 13.3707 13.4688 13.2775 13.4688 13.1536C13.4688 13.0614 13.5325 12.9815 13.6231 12.9642C14.3876 12.8183 16.0731 12.6284 17.4565 12.84C17.5578 12.8555 17.6309 12.9437 17.6309 13.0461C17.6309 13.1792 17.5098 13.2794 17.3782 13.2595Z" fill="#3BADF4"/>
</g>
<g filter="url(#filter5_f_2345_4069)">
<path fill-rule="evenodd" clip-rule="evenodd" d="M21.8428 15.6254C24.3219 15.6254 26.3316 13.7592 26.3316 11.4572C26.3316 9.15521 24.3219 7.28906 21.8428 7.28906C19.3637 7.28906 17.354 9.15521 17.354 11.4572C17.354 13.7592 19.3637 15.6254 21.8428 15.6254ZM21.8423 15.3051C24.1443 15.3051 26.0104 13.5825 26.0104 11.4576C26.0104 9.33262 24.1443 7.61002 21.8423 7.61002C19.5403 7.61002 17.6741 9.33262 17.6741 11.4576C17.6741 13.5825 19.5403 15.3051 21.8423 15.3051Z" fill="#4AB3EF"/>
</g>
<path fill-rule="evenodd" clip-rule="evenodd" d="M21.398 15.287C23.8771 15.287 25.8868 13.4209 25.8868 11.1188C25.8868 8.81683 23.8771 6.95068 21.398 6.95068C18.9189 6.95068 16.9092 8.81683 16.9092 11.1188C16.9092 13.4209 18.9189 15.287 21.398 15.287ZM21.3985 14.9663C23.7005 14.9663 25.5667 13.2437 25.5667 11.1188C25.5667 8.99387 23.7005 7.27127 21.3985 7.27127C19.0965 7.27127 17.2304 8.99387 17.2304 11.1188C17.2304 13.2437 19.0965 14.9663 21.3985 14.9663Z" fill="url(#paint5_linear_2345_4069)"/>
<path fill-rule="evenodd" clip-rule="evenodd" d="M10.016 16.5697C12.0523 16.5697 13.7032 14.7036 13.7032 12.4016C13.7032 10.0995 12.0523 8.2334 10.016 8.2334C7.97956 8.2334 6.32874 10.0995 6.32874 12.4016C6.32874 14.7036 7.97956 16.5697 10.016 16.5697ZM10.016 16.2499C11.8753 16.2499 13.3826 14.5273 13.3826 12.4024C13.3826 10.2774 11.8753 8.55483 10.016 8.55483C8.15671 8.55483 6.64944 10.2774 6.64944 12.4024C6.64944 14.5273 8.15671 16.2499 10.016 16.2499Z" fill="url(#paint6_linear_2345_4069)"/>
<g filter="url(#filter6_f_2345_4069)">
<path fill-rule="evenodd" clip-rule="evenodd" d="M13.1781 10.6001C13.5283 11.2138 13.7146 11.9287 13.7146 12.659H13.4219C13.4217 10.7229 12.0483 9.15349 10.3541 9.15349C9.57242 9.15349 8.85901 9.48762 8.31728 10.0377L8.13696 9.80573C8.62232 9.32367 9.22033 9.01001 9.85935 8.90234C10.4984 8.79467 11.1513 8.89756 11.7399 9.19867C12.3285 9.49978 12.8279 9.98635 13.1781 10.6001Z" fill="#4AB3EF"/>
</g>
<path d="M25.2458 10.3169H25.5664L26.5283 10.1566L28.1314 6.79004H28.452L28.7726 7.43129H28.2917L26.8489 10.7979C26.8489 10.7979 25.5664 11.1185 25.2458 10.9582C24.9252 10.7979 25.0855 10.3169 25.2458 10.3169Z" fill="url(#paint7_linear_2345_4069)"/>
<path d="M17.0979 12.7006C15.9108 12.5091 14.5405 12.6565 13.7996 12.7911C13.6767 12.8134 13.5615 12.7201 13.5615 12.5951C13.5615 12.5047 13.6228 12.426 13.7113 12.4076C14.41 12.2624 15.9307 12.0758 17.1834 12.2834C17.2828 12.2999 17.3537 12.387 17.3537 12.4877C17.3537 12.6218 17.2303 12.722 17.0979 12.7006Z" fill="url(#paint8_linear_2345_4069)"/>
<path d="M10.9028 6.96978C10.702 6.87018 10.4726 6.87819 10.2974 6.92758C10.166 6.96461 9.98556 6.90747 10.0461 6.78514C10.2309 6.41191 11.2146 6.29468 11.2518 6.8547C11.2624 7.01317 11.0451 7.04037 10.9028 6.96978Z" fill="#55A4DD"/>
<g filter="url(#filter7_f_2345_4069)">
<path d="M9.76516 26.8382C10.6292 27.4523 10.1054 27.416 9.25498 26.9837C7.82824 26.2584 8.46052 25.9111 9.76516 26.8382Z" fill="white" fill-opacity="0.8"/>
</g>
<g filter="url(#filter8_f_2345_4069)">
<path d="M13.5604 14.6641C13.7353 14.0332 14.2161 13.8755 14.4347 13.8755C15.0903 13.6783 15.6367 14.467 15.4181 14.7627C15.1996 15.0584 13.3419 15.4527 13.5604 14.6641Z" fill="#B9E0FA"/>
</g>
<g filter="url(#filter9_f_2345_4069)">
<path d="M24.1237 19.9365C24.6765 20.8844 25.4268 22.9224 25.7822 24.2021C26.1568 25.551 26.493 20.3631 24.1237 19.9365Z" fill="white" fill-opacity="0.5"/>
</g>
<g filter="url(#filter10_f_2345_4069)">
<path d="M8.73303 14.7518C9.09072 14.372 10.5363 12.5723 12.2205 14.182C12.5781 14.5239 10.432 16.4612 8.73303 14.7518Z" fill="#FDFDFD" fill-opacity="0.5"/>
</g>
<path d="M24.6405 9.44262C24.4801 10.2445 24.0524 10.5652 23.8386 10.5652L23.5179 9.92374C24.0691 10.4789 24.8008 8.64075 24.6405 9.44262Z" fill="#173F66"/>
<path d="M23.6782 8.80112C23.5179 9.12187 23.1971 9.38916 23.0367 9.44262L23.5179 9.76337C24.1593 9.28225 23.905 8.34752 23.6782 8.80112Z" fill="#173F66"/>
<path d="M22.8764 8.48038C22.716 8.80113 22.3952 9.06842 22.2349 9.12187L22.8764 9.28224C23.1971 8.80112 23.0367 8.15963 22.8764 8.48038Z" fill="#173F66"/>
<path d="M24.1478 10.5906C23.9512 13.3955 22.0703 13.0788 20.5182 12.9873C19.8915 12.9504 19.2646 12.4561 19.3384 11.8326C19.7589 8.28002 23.3254 8.62382 24.0896 10.233C24.1417 10.3427 24.1563 10.4694 24.1478 10.5906Z" fill="url(#paint9_linear_2345_4069)"/>
<path d="M23.517 11.2055C23.517 12.3565 22.8758 12.969 21.5933 12.969C20.3107 12.969 19.9901 12.3565 19.9901 11.2055C19.9901 10.0545 20.7796 9.28174 21.7536 9.28174C22.7275 9.28174 23.517 10.0545 23.517 11.2055Z" fill="url(#paint10_linear_2345_4069)"/>
<path d="M23.517 11.2019C23.517 12.3029 22.8758 12.8887 21.5933 12.8887C20.3107 12.8887 19.9901 12.3029 19.9901 11.2019C19.9901 10.101 20.7796 9.36182 21.7536 9.36182C22.7275 9.36182 23.517 10.101 23.517 11.2019Z" fill="url(#paint11_linear_2345_4069)"/>
<path d="M23.1962 11.1882C23.1962 12.089 22.6715 12.5683 21.6222 12.5683C20.5729 12.5683 20.3105 12.089 20.3105 11.1882C20.3105 10.2874 20.9565 9.68262 21.7534 9.68262C22.5502 9.68262 23.1962 10.2874 23.1962 11.1882Z" fill="url(#paint12_linear_2345_4069)"/>
<path d="M22.5209 11.1685C22.5209 11.8694 22.4188 12.2246 21.719 12.2246C21.0192 12.2246 20.8442 11.8517 20.8442 11.1508C20.8442 10.45 21.0272 9.99707 21.5586 9.99707C22.09 9.99707 22.5209 10.4676 22.5209 11.1685Z" fill="#142C57"/>
<path d="M19.3141 12.5621C19.1538 10.478 21.0776 7.75266 24.1236 10.1574C22.841 7.59235 18.3523 9.03517 19.3141 12.5621Z" fill="#173F66"/>
<path d="M23.4822 9.67627C23.6426 9.83664 24.1497 10.3178 23.9633 11.6008C24.6048 10.1574 23.9093 9.83664 23.4822 9.67627Z" fill="#173F66"/>
<ellipse cx="22.3604" cy="12.0798" rx="0.160055" ry="0.158785" transform="rotate(-0.11512 22.3604 12.0798)" fill="white"/>
<path d="M23.3218 10.3177C23.3221 10.4391 23.0959 10.3946 22.9901 10.3948C22.8843 10.3951 22.841 10.2788 22.8407 10.1573C22.8405 10.0359 22.8953 9.8368 23.0011 9.83659C23.1069 9.83638 23.3216 10.1963 23.3218 10.3177Z" fill="#EEF8FF"/>
<path d="M21.0776 9.72101C21.5588 9.56064 21.5587 9.83648 21.5587 9.83648L21.238 10.9591L20.2758 11.004C20.2758 11.004 20.5965 9.88138 21.0776 9.72101Z" fill="#F0F8FF"/>
<g filter="url(#filter11_f_2345_4069)">
<path d="M2.6417 18.6538C2.48139 19.776 2.8268 22.2795 5.04641 23.9442C7.61145 25.8679 3.44329 21.6998 2.6417 18.6538Z" fill="#99E7F7" fill-opacity="0.8"/>
</g>
<path d="M20.2758 13.0423C21.0239 12.8285 21.6034 12.7531 23.0011 12.7217C23.8027 12.7036 22.5201 13.2026 20.2758 13.0423Z" fill="#5BB5F4"/>
<g filter="url(#filter12_f_2345_4069)">
<path d="M19.1094 13.8065C19.6296 13.4266 21.7323 11.627 24.182 13.2367C24.7023 13.5786 21.5807 15.5159 19.1094 13.8065Z" fill="#EDF8FE" fill-opacity="0.5"/>
</g>
<path d="M12.5808 13.203C12.571 13.4564 9.3745 15.1268 9.05383 11.4395C9.21419 9.19515 12.7411 9.03483 12.5808 13.203Z" fill="url(#paint13_linear_2345_4069)"/>
<path d="M9.05378 11.6009C9.21415 11.1732 9.61755 10.0688 10.6575 10.1575C11.7874 10.2539 8.73301 9.35562 9.05378 11.6009Z" fill="#173F66"/>
<path d="M12.581 12.167C12.3806 13.3354 11.8633 13.5023 10.9779 13.5023C10.1763 13.6693 9.37476 12.8472 9.37476 11.8332C9.37476 10.8191 9.89211 9.99707 10.7775 9.99707C11.6629 9.99707 12.581 10.8317 12.581 12.167Z" fill="url(#paint14_linear_2345_4069)"/>
<path d="M12.2601 11.7725C12.1199 12.7284 11.7577 12.865 11.1379 12.865C10.5768 13.0016 10.0157 12.329 10.0157 11.4993C10.0157 10.6697 10.3779 9.99707 10.9977 9.99707C11.6174 9.99707 12.2601 10.6799 12.2601 11.7725Z" fill="url(#paint15_linear_2345_4069)"/>
<path d="M11.94 11.5014C11.8598 12.139 11.6528 12.2301 11.2985 12.2301C10.9777 12.3211 10.657 11.8726 10.657 11.3193C10.657 10.7659 10.864 10.3174 11.2183 10.3174C11.5726 10.3174 11.94 10.7728 11.94 11.5014Z" fill="#142C57"/>
<path d="M8.41272 10.3177C8.79747 10.7024 9.10741 10.7986 9.21429 10.7986C9.05397 10.6383 8.73335 10.1574 8.73335 9.5161C8.98985 9.90085 9.53492 10.2642 9.69523 10.3177C9.69523 10.1574 9.21429 9.67641 9.21429 9.03516C9.47079 9.54816 9.74867 9.67641 9.85554 9.67641C10.1762 9.56954 11.1381 9.67641 11.7793 10.3177C11.7793 10.3177 11.0997 10.1471 10.6571 10.1574C10.2764 10.1662 9.69523 10.3177 9.69523 10.3177L9.21429 10.7986L9.03787 11.5889C8.87113 11.4667 8.53683 11.0623 8.41272 10.3177Z" fill="#173F66"/>
<path d="M12.5814 12.5628C12.4211 10.9591 12.1003 10.6383 11.7796 10.3176L11.1381 10.1572C11.6192 10.4245 12.4211 10.9591 12.5814 12.5628Z" fill="#173F66"/>
<g filter="url(#filter13_f_2345_4069)">
<path d="M28.361 21.7173H26.9731C27.0536 22.6925 27.2869 24.5472 27.5766 24.1642C27.8662 23.7812 28.2202 22.3733 28.361 21.7173Z" fill="#3DB4E4"/>
</g>
<path d="M9.21415 12.2418C9.21415 12.2418 9.05378 11.4399 9.21415 11.1191C9.1607 11.1726 8.98963 11.3757 8.73303 11.1191C9.05378 12.0814 9.21415 12.2418 9.21415 12.2418Z" fill="#173F66"/>
<path d="M9.85571 13.5239C10.1765 13.3635 10.9783 13.5239 12.2613 13.5239C11.1665 14.1694 10.0161 13.6843 9.85571 13.5239Z" fill="#82C9F7"/>
<path d="M11.9398 10.7985C11.9909 10.9798 11.5605 11.0876 11.4365 11.0876C11.2772 11.1325 11.1634 10.977 11.1123 10.7957C11.0613 10.6145 11.0606 10.294 11.22 10.2491C11.3725 10.2491 11.7794 10.6381 11.9398 10.7985Z" fill="#EEF8FF"/>
<path d="M10.9778 10.4771C10.9778 10.3885 10.906 10.3167 10.8175 10.3167C10.7289 10.3167 10.4967 10.3885 10.4967 10.4771C10.4967 10.5657 10.4967 10.7979 10.8175 10.7979C10.906 10.7979 10.9778 10.5657 10.9778 10.4771Z" fill="#EEF8FF"/>
<ellipse cx="10.5965" cy="12.8506" rx="0.164216" ry="0.238679" transform="rotate(-29.3703 10.5965 12.8506)" fill="#EEF8FF"/>
<ellipse cx="10.1933" cy="10.828" rx="0.160965" ry="0.175677" transform="rotate(-5.46049 10.1933 10.828)" fill="#EEF8FF"/>
<g filter="url(#filter14_f_2345_4069)">
<path d="M26.4178 27.2415L25.6187 28.0249L23.5749 19.7986L26.4178 27.2415Z" fill="#23A0D5"/>
</g>
<g filter="url(#filter15_ii_2345_4069)">
<path d="M26.3513 19.1577C24.9085 17.5545 23.4657 19.1577 23.9466 20.2799C24.6948 22.7915 26.5117 27.9429 27.7942 28.4559C29.3973 29.0971 28.4354 21.883 26.3513 19.1577Z" fill="url(#paint16_linear_2345_4069)"/>
</g>
<path d="M138.981 9.06947L131.002 27.8301H126.808L129.726 21.3562L124.551 9.06947C124.551 9.06947 127.138 8.07446 129.133 10.2491C130.048 11.2464 131.846 17.0251 131.846 17.0251C131.846 17.0251 133.62 11.6718 134.568 10.2491C135.853 8.32153 138.981 9.06947 138.981 9.06947Z" fill="#ECFFFF"/>
<path d="M118.966 9.50273C120.425 9.50273 121.595 9.98903 122.477 10.9616C123.358 11.919 123.799 13.2412 123.799 14.928V23.4991C123.799 23.4991 120.727 23.9266 120.299 21.932C119.924 20.1792 119.924 15.4523 119.924 15.4523C119.924 14.6013 119.703 13.9402 119.263 13.4691C118.822 12.998 118.229 12.7625 117.485 12.7625C116.74 12.7625 116.147 12.998 115.707 13.4691C115.266 13.9402 115.045 14.6013 115.045 15.4523V22.3594H111.147V5.49072H115.045V11.3492C115.441 10.7869 115.98 10.3386 116.664 10.0042C117.348 9.66989 118.115 9.50273 118.966 9.50273Z" fill="#ECFFFF"/>
<path d="M99.574 11.4402C99.954 10.8476 100.478 10.3689 101.147 10.0041C101.816 9.63939 102.598 9.45703 103.495 9.45703C104.543 9.45703 105.493 9.72298 106.344 10.2549C107.195 10.7868 107.864 11.5466 108.35 12.5344C108.852 13.5222 109.103 14.6696 109.103 15.9765C109.103 17.2835 108.852 18.4384 108.35 19.4414C107.864 20.4293 107.195 21.1967 106.344 21.7438C105.493 22.2757 104.543 22.5416 103.495 22.5416C102.613 22.5416 101.831 22.3593 101.147 21.9945C100.478 21.6298 99.954 21.1587 99.574 20.5812V28.4229H95.676V9.6394H100.068L99.574 11.4402ZM105.136 15.9765C105.136 15.0039 104.863 14.2441 104.316 13.697C103.784 13.1347 103.123 12.8536 102.332 12.8536C101.557 12.8536 100.896 13.1347 100.349 13.697C99.8172 14.2593 99.5513 15.0267 99.5513 15.9993C99.5513 16.9719 99.8172 17.7394 100.349 18.3017C100.896 18.864 101.557 19.1451 102.332 19.1451C103.107 19.1451 103.768 18.864 104.316 18.3017C104.863 17.7242 105.136 16.9491 105.136 15.9765Z" fill="#ECFFFF"/>
<path d="M85.0374 9.45703C85.934 9.45703 86.7166 9.63939 87.3853 10.0041C88.0692 10.3689 88.5935 10.8476 88.9582 11.4402L88.386 9.6394H92.8562V22.3365C92.8562 23.5066 92.6207 24.5628 92.1496 25.505C91.6937 26.4625 90.987 27.2223 90.0296 27.7846C89.0874 28.3469 87.9096 28.628 86.4963 28.628C84.6119 28.628 83.0846 28.1797 81.9144 27.2831C80.7442 26.4017 80.4076 25.4589 80.4076 24.3539C80.4076 23.2488 83.3175 23.3167 83.542 23.784C83.7664 24.2513 84.1711 24.5476 84.6271 24.8212C85.083 25.1099 85.6452 25.2543 86.3139 25.2543C87.1194 25.2543 87.7576 25.0187 88.2287 24.5476C88.715 24.0917 88.9582 23.3547 88.9582 22.3365V20.5356C88.5783 21.1283 88.054 21.6146 87.3853 21.9945C86.7166 22.3593 85.934 22.5416 85.0374 22.5416C83.9888 22.5416 83.039 22.2757 82.1879 21.7438C81.3369 21.1967 80.6606 20.4293 80.1591 19.4414C79.6728 18.4384 79.4297 17.2835 79.4297 15.9765C79.4297 14.6696 79.6728 13.5222 80.1591 12.5344C80.6606 11.5466 81.3369 10.7868 82.1879 10.2549C83.039 9.72298 83.9888 9.45703 85.0374 9.45703ZM88.9582 15.9993C88.9582 15.0267 88.6846 14.2593 88.1376 13.697C87.6057 13.1347 86.9522 12.8536 86.1771 12.8536C85.4021 12.8536 84.741 13.1347 84.1939 13.697C83.662 14.2441 83.3961 15.0039 83.3961 15.9765C83.3961 16.9491 83.662 17.7242 84.1939 18.3017C84.741 18.864 85.4021 19.1451 86.1771 19.1451C86.9522 19.1451 87.6057 18.864 88.1376 18.3017C88.6846 17.7394 88.9582 16.9719 88.9582 15.9993Z" fill="#ECFFFF"/>
<path d="M72.5949 9.50293C74.0842 9.50293 75.2696 9.98923 76.151 10.9618C77.0477 11.9193 77.496 13.2414 77.496 14.9283V23.3569C77.496 23.3569 73.9963 23.6418 73.7114 21.7897C73.4927 20.3685 73.6207 15.4525 73.6207 15.4525C73.6207 14.6015 73.4004 13.9404 72.9597 13.4693C72.519 12.9982 71.9263 12.7627 71.1816 12.7627C70.437 12.7627 69.8443 12.9982 69.4036 13.4693C68.9629 13.9404 68.7425 14.6015 68.7425 15.4525V22.3596H64.8445V9.6397H69.1523L68.7425 11.3266C69.1376 10.7643 69.6695 10.3236 70.3382 10.0044C71.0069 9.6701 71.7591 9.50293 72.5949 9.50293Z" fill="#ECFFFF"/>
<path d="M48.5981 15.9765C48.5981 14.6696 48.8413 13.5222 49.3276 12.5344C49.8291 11.5466 50.5054 10.7868 51.3564 10.2549C52.2074 9.72298 53.1572 9.45703 54.2058 9.45703C55.1025 9.45703 55.8851 9.63939 56.5538 10.0041C57.2376 10.3689 57.7619 10.8476 58.1267 11.4402L57.7548 9.6394H62.0247V22.3593C62.0247 22.3593 59.1056 23.3765 58.4672 21.9945C58.1722 21.3561 58.1267 20.5584 58.1267 20.5584C57.7467 21.1511 57.2148 21.6298 56.531 21.9945C55.8623 22.3593 55.0797 22.5416 54.183 22.5416C53.1496 22.5416 52.2074 22.2757 51.3564 21.7438C50.5054 21.1967 49.8291 20.4293 49.3276 19.4414C48.8413 18.4384 48.5981 17.2835 48.5981 15.9765ZM58.1267 15.9993C58.1267 15.0267 57.8531 14.2593 57.306 13.697C56.7741 13.1347 56.1207 12.8536 55.3456 12.8536C54.5706 12.8536 53.9095 13.1347 53.3624 13.697C52.8305 14.2441 52.5646 15.0039 52.5646 15.9765C52.5646 16.9491 52.8305 17.7242 53.3624 18.3017C53.9095 18.864 54.5706 19.1451 55.3456 19.1451C56.1207 19.1451 56.7741 18.864 57.306 18.3017C57.8531 17.7394 58.1267 16.9719 58.1267 15.9993Z" fill="#ECFFFF"/>
<path d="M41.3702 18.6551H47.0691V22.3594H37.3696V3.41064C37.3696 3.41064 41.335 4.42868 41.3702 5.95054C41.4728 10.3874 41.3702 18.6551 41.3702 18.6551Z" fill="#ECFFFF"/>
<defs>
<filter id="filter0_i_2345_4069" x="8.41272" y="18.6538" width="5.73169" height="8.4126" filterUnits="userSpaceOnUse" color-interpolation-filters="sRGB">
<feFlood flood-opacity="0" result="BackgroundImageFix"/>
<feBlend mode="normal" in="SourceGraphic" in2="BackgroundImageFix" result="shape"/>
<feColorMatrix in="SourceAlpha" type="matrix" values="0 0 0 0 0 0 0 0 0 0 0 0 0 0 0 0 0 0 127 0" result="hardAlpha"/>
<feOffset dy="2"/>
<feGaussianBlur stdDeviation="2"/>
<feComposite in2="hardAlpha" operator="arithmetic" k2="-1" k3="1"/>
<feColorMatrix type="matrix" values="0 0 0 0 0.0425347 0 0 0 0 0.549444 0 0 0 0 0.729167 0 0 0 0.4 0"/>
<feBlend mode="normal" in2="shape" result="effect1_innerShadow_2345_4069"/>
</filter>
<filter id="filter1_f_2345_4069" x="6.38232" y="19.2549" width="5.29492" height="7.51465" filterUnits="userSpaceOnUse" color-interpolation-filters="sRGB">
<feFlood flood-opacity="0" result="BackgroundImageFix"/>
<feBlend mode="normal" in="SourceGraphic" in2="BackgroundImageFix" result="shape"/>
<feGaussianBlur stdDeviation="1" result="effect1_foregroundBlur_2345_4069"/>
</filter>
<filter id="filter2_ii_2345_4069" x="2" y="-1.92578" width="28.1394" height="35.8511" filterUnits="userSpaceOnUse" color-interpolation-filters="sRGB">
<feFlood flood-opacity="0" result="BackgroundImageFix"/>
<feBlend mode="normal" in="SourceGraphic" in2="BackgroundImageFix" result="shape"/>
<feColorMatrix in="SourceAlpha" type="matrix" values="0 0 0 0 0 0 0 0 0 0 0 0 0 0 0 0 0 0 127 0" result="hardAlpha"/>
<feOffset dy="2"/>
<feGaussianBlur stdDeviation="1"/>
<feComposite in2="hardAlpha" operator="arithmetic" k2="-1" k3="1"/>
<feColorMatrix type="matrix" values="0 0 0 0 0.34902 0 0 0 0 0.729412 0 0 0 0 1 0 0 0 0.6 0"/>
<feBlend mode="normal" in2="shape" result="effect1_innerShadow_2345_4069"/>
<feColorMatrix in="SourceAlpha" type="matrix" values="0 0 0 0 0 0 0 0 0 0 0 0 0 0 0 0 0 0 127 0" result="hardAlpha"/>
<feOffset dy="-2"/>
<feGaussianBlur stdDeviation="2.5"/>
<feComposite in2="hardAlpha" operator="arithmetic" k2="-1" k3="1"/>
<feColorMatrix type="matrix" values="0 0 0 0 0.380392 0 0 0 0 0.745098 0 0 0 0 0.937255 0 0 0 0.1 0"/>
<feBlend mode="normal" in2="effect1_innerShadow_2345_4069" result="effect2_innerShadow_2345_4069"/>
</filter>
<filter id="filter3_f_2345_4069" x="24.6809" y="6.02783" width="5.24243" height="6.98291" filterUnits="userSpaceOnUse" color-interpolation-filters="sRGB">
<feFlood flood-opacity="0" result="BackgroundImageFix"/>
<feBlend mode="normal" in="SourceGraphic" in2="BackgroundImageFix" result="shape"/>
<feGaussianBlur stdDeviation="0.5" result="effect1_foregroundBlur_2345_4069"/>
</filter>
<filter id="filter4_f_2345_4069" x="12.4688" y="11.7456" width="6.16211" height="2.60742" filterUnits="userSpaceOnUse" color-interpolation-filters="sRGB">
<feFlood flood-opacity="0" result="BackgroundImageFix"/>
<feBlend mode="normal" in="SourceGraphic" in2="BackgroundImageFix" result="shape"/>
<feGaussianBlur stdDeviation="0.5" result="effect1_foregroundBlur_2345_4069"/>
</filter>
<filter id="filter5_f_2345_4069" x="16.354" y="6.28906" width="10.9775" height="10.3364" filterUnits="userSpaceOnUse" color-interpolation-filters="sRGB">
<feFlood flood-opacity="0" result="BackgroundImageFix"/>
<feBlend mode="normal" in="SourceGraphic" in2="BackgroundImageFix" result="shape"/>
<feGaussianBlur stdDeviation="0.5" result="effect1_foregroundBlur_2345_4069"/>
</filter>
<filter id="filter6_f_2345_4069" x="7.13696" y="7.86084" width="7.57764" height="5.79834" filterUnits="userSpaceOnUse" color-interpolation-filters="sRGB">
<feFlood flood-opacity="0" result="BackgroundImageFix"/>
<feBlend mode="normal" in="SourceGraphic" in2="BackgroundImageFix" result="shape"/>
<feGaussianBlur stdDeviation="0.5" result="effect1_foregroundBlur_2345_4069"/>
</filter>
<filter id="filter7_f_2345_4069" x="5.4425" y="23.2778" width="7.76575" height="7.02637" filterUnits="userSpaceOnUse" color-interpolation-filters="sRGB">
<feFlood flood-opacity="0" result="BackgroundImageFix"/>
<feBlend mode="normal" in="SourceGraphic" in2="BackgroundImageFix" result="shape"/>
<feGaussianBlur stdDeviation="1.5" result="effect1_foregroundBlur_2345_4069"/>
</filter>
<filter id="filter8_f_2345_4069" x="11.5426" y="11.8442" width="5.92444" height="5.2832" filterUnits="userSpaceOnUse" color-interpolation-filters="sRGB">
<feFlood flood-opacity="0" result="BackgroundImageFix"/>
<feBlend mode="normal" in="SourceGraphic" in2="BackgroundImageFix" result="shape"/>
<feGaussianBlur stdDeviation="1" result="effect1_foregroundBlur_2345_4069"/>
</filter>
<filter id="filter9_f_2345_4069" x="19.1237" y="14.9365" width="11.9237" height="14.4888" filterUnits="userSpaceOnUse" color-interpolation-filters="sRGB">
<feFlood flood-opacity="0" result="BackgroundImageFix"/>
<feBlend mode="normal" in="SourceGraphic" in2="BackgroundImageFix" result="shape"/>
<feGaussianBlur stdDeviation="2.5" result="effect1_foregroundBlur_2345_4069"/>
</filter>
<filter id="filter10_f_2345_4069" x="6.73303" y="11.5234" width="7.52686" height="5.92383" filterUnits="userSpaceOnUse" color-interpolation-filters="sRGB">
<feFlood flood-opacity="0" result="BackgroundImageFix"/>
<feBlend mode="normal" in="SourceGraphic" in2="BackgroundImageFix" result="shape"/>
<feGaussianBlur stdDeviation="1" result="effect1_foregroundBlur_2345_4069"/>
</filter>
<filter id="filter11_f_2345_4069" x="0.607788" y="16.6538" width="7.26282" height="9.7793" filterUnits="userSpaceOnUse" color-interpolation-filters="sRGB">
<feFlood flood-opacity="0" result="BackgroundImageFix"/>
<feBlend mode="normal" in="SourceGraphic" in2="BackgroundImageFix" result="shape"/>
<feGaussianBlur stdDeviation="1" result="effect1_foregroundBlur_2345_4069"/>
</filter>
<filter id="filter12_f_2345_4069" x="17.1094" y="10.5781" width="9.13" height="5.92383" filterUnits="userSpaceOnUse" color-interpolation-filters="sRGB">
<feFlood flood-opacity="0" result="BackgroundImageFix"/>
<feBlend mode="normal" in="SourceGraphic" in2="BackgroundImageFix" result="shape"/>
<feGaussianBlur stdDeviation="1" result="effect1_foregroundBlur_2345_4069"/>
</filter>
<filter id="filter13_f_2345_4069" x="24.9731" y="19.7173" width="5.38794" height="6.49805" filterUnits="userSpaceOnUse" color-interpolation-filters="sRGB">
<feFlood flood-opacity="0" result="BackgroundImageFix"/>
<feBlend mode="normal" in="SourceGraphic" in2="BackgroundImageFix" result="shape"/>
<feGaussianBlur stdDeviation="1" result="effect1_foregroundBlur_2345_4069"/>
</filter>
<filter id="filter14_f_2345_4069" x="21.5748" y="17.7988" width="6.8429" height="12.2261" filterUnits="userSpaceOnUse" color-interpolation-filters="sRGB">
<feFlood flood-opacity="0" result="BackgroundImageFix"/>
<feBlend mode="normal" in="SourceGraphic" in2="BackgroundImageFix" result="shape"/>
<feGaussianBlur stdDeviation="1" result="effect1_foregroundBlur_2345_4069"/>
</filter>
<filter id="filter15_ii_2345_4069" x="23.8523" y="16.481" width="6.74451" height="12.0151" filterUnits="userSpaceOnUse" color-interpolation-filters="sRGB">
<feFlood flood-opacity="0" result="BackgroundImageFix"/>
<feBlend mode="normal" in="SourceGraphic" in2="BackgroundImageFix" result="shape"/>
<feColorMatrix in="SourceAlpha" type="matrix" values="0 0 0 0 0 0 0 0 0 0 0 0 0 0 0 0 0 0 127 0" result="hardAlpha"/>
<feOffset dy="-2"/>
<feGaussianBlur stdDeviation="4"/>
<feComposite in2="hardAlpha" operator="arithmetic" k2="-1" k3="1"/>
<feColorMatrix type="matrix" values="0 0 0 0 0.218698 0 0 0 0 0.714874 0 0 0 0 0.920833 0 0 0 0.5 0"/>
<feBlend mode="normal" in2="shape" result="effect1_innerShadow_2345_4069"/>
<feColorMatrix in="SourceAlpha" type="matrix" values="0 0 0 0 0 0 0 0 0 0 0 0 0 0 0 0 0 0 127 0" result="hardAlpha"/>
<feOffset dx="2"/>
<feGaussianBlur stdDeviation="2"/>
<feComposite in2="hardAlpha" operator="arithmetic" k2="-1" k3="1"/>
<feColorMatrix type="matrix" values="0 0 0 0 0.388235 0 0 0 0 0.905882 0 0 0 0 0.964706 0 0 0 1 0"/>
<feBlend mode="normal" in2="effect1_innerShadow_2345_4069" result="effect2_innerShadow_2345_4069"/>
</filter>
<linearGradient id="paint0_linear_2345_4069" x1="6.9698" y1="11.1191" x2="6.9698" y2="13.0429" gradientUnits="userSpaceOnUse">
<stop stop-color="#10BFCF"/>
<stop offset="1" stop-color="#A7F7FB"/>
</linearGradient>
<linearGradient id="paint1_linear_2345_4069" x1="16.2681" y1="19.2951" x2="16.4284" y2="25.7076" gradientUnits="userSpaceOnUse">
<stop stop-color="#5FC7F5"/>
<stop offset="1" stop-color="#ACF0FC"/>
</linearGradient>
<linearGradient id="paint2_linear_2345_4069" x1="16.0697" y1="0.377948" x2="16.0697" y2="31.9253" gradientUnits="userSpaceOnUse">
<stop offset="0.0292509" stop-color="#EEF8FF"/>
<stop offset="0.396124" stop-color="#5AB4F3"/>
<stop offset="1" stop-color="#68F0F8"/>
</linearGradient>
<linearGradient id="paint3_linear_2345_4069" x1="16.0275" y1="14.6583" x2="16.0275" y2="17.1881" gradientUnits="userSpaceOnUse">
<stop stop-color="#011F44"/>
<stop offset="1" stop-color="#44B5ED"/>
</linearGradient>
<linearGradient id="paint4_linear_2345_4069" x1="16.1079" y1="12.938" x2="16.1079" y2="16.4649" gradientUnits="userSpaceOnUse">
<stop stop-color="#5BB7F4"/>
<stop offset="1" stop-color="#B5E0FF"/>
</linearGradient>
<linearGradient id="paint5_linear_2345_4069" x1="21.398" y1="6.95068" x2="21.398" y2="15.287" gradientUnits="userSpaceOnUse">
<stop stop-color="#E0F2FF"/>
<stop offset="1" stop-color="#1465E1"/>
</linearGradient>
<linearGradient id="paint6_linear_2345_4069" x1="10.016" y1="8.2334" x2="10.016" y2="16.5697" gradientUnits="userSpaceOnUse">
<stop stop-color="#E0F2FF"/>
<stop offset="1" stop-color="#1465E1"/>
</linearGradient>
<linearGradient id="paint7_linear_2345_4069" x1="29.2536" y1="6.46941" x2="26.9167" y2="11.0031" gradientUnits="userSpaceOnUse">
<stop stop-color="#08E5F4"/>
<stop offset="1" stop-color="#94F8FF"/>
</linearGradient>
<linearGradient id="paint8_linear_2345_4069" x1="15.4576" y1="12.1909" x2="15.4576" y2="12.8384" gradientUnits="userSpaceOnUse">
<stop stop-color="#E0F2FF"/>
<stop offset="1" stop-color="#1465E1"/>
</linearGradient>
<linearGradient id="paint9_linear_2345_4069" x1="21.7362" y1="9.08861" x2="20.5966" y2="13.0424" gradientUnits="userSpaceOnUse">
<stop stop-color="#173F66"/>
<stop offset="0.693722" stop-color="white"/>
</linearGradient>
<linearGradient id="paint10_linear_2345_4069" x1="21.7536" y1="9.28174" x2="21.8791" y2="12.0811" gradientUnits="userSpaceOnUse">
<stop stop-color="#054878"/>
<stop offset="1" stop-color="#A3C9ED"/>
</linearGradient>
<linearGradient id="paint11_linear_2345_4069" x1="21.7536" y1="9.36182" x2="21.8684" y2="12.0399" gradientUnits="userSpaceOnUse">
<stop stop-color="#054878"/>
<stop offset="1" stop-color="#B4DBFF"/>
</linearGradient>
<linearGradient id="paint12_linear_2345_4069" x1="21.7534" y1="9.68262" x2="21.7534" y2="12.5683" gradientUnits="userSpaceOnUse">
<stop stop-color="#0F6FB3"/>
<stop offset="1" stop-color="#2A8CD2"/>
</linearGradient>
<linearGradient id="paint13_linear_2345_4069" x1="10.9776" y1="10.157" x2="9.44014" y2="13.5426" gradientUnits="userSpaceOnUse">
<stop stop-color="#173F66"/>
<stop offset="0.693722" stop-color="white"/>
</linearGradient>
<linearGradient id="paint14_linear_2345_4069" x1="10.9779" y1="9.99707" x2="11.1042" y2="12.6741" gradientUnits="userSpaceOnUse">
<stop stop-color="#054878"/>
<stop offset="1" stop-color="#B4DBFF"/>
</linearGradient>
<linearGradient id="paint15_linear_2345_4069" x1="11.1379" y1="9.99707" x2="11.1379" y2="12.8827" gradientUnits="userSpaceOnUse">
<stop stop-color="#173F66"/>
<stop offset="1" stop-color="#2A8CD2"/>
</linearGradient>
<linearGradient id="paint16_linear_2345_4069" x1="26.2245" y1="18.481" x2="26.2245" y2="28.496" gradientUnits="userSpaceOnUse">
<stop stop-color="#60CCF6"/>
<stop offset="1" stop-color="#BEF8FF"/>
</linearGradient>
</defs>
</svg>
