<svg width="81" height="80" viewBox="0 0 81 80" fill="none" xmlns="http://www.w3.org/2000/svg">
<g clip-path="url(#clip0_2345_3209)">
<path d="M70.5313 5.87506L8.4219 13.0313C3.51565 13.5938 2.06828e-05 18.0313 0.562521 22.9376C0.578146 23.1094 0.609396 23.2813 0.640646 23.4532L5.43752 51.0001C6.12502 54.9219 9.32815 57.9219 13.2969 58.3594L21.0781 59.1876L37.9688 73.5938C39.8438 75.2032 42.6563 73.3438 41.9375 70.9844L38.8594 61.0938L60.3125 63.3907C64.7188 63.8594 68.8125 61.0313 69.9219 56.7344L80.2031 17.0001C81.7813 10.9219 76.7656 5.15631 70.5313 5.87506Z" fill="#59BAFF"/>
<path d="M64.1564 59.5469L17.1251 54.5H17.0939C16.9376 54.4844 16.797 54.4687 16.6407 54.4375L16.5157 54.4219C16.1876 54.3594 15.8751 54.2812 15.547 54.1875L15.4532 54.1562C15.297 54.1094 15.1407 54.0469 14.9845 54C12.0001 52.8906 9.82824 50.2812 9.28136 47.1406L4.48449 19.5938C4.14074 17.6719 4.45324 15.6875 5.34386 13.9531C1.87511 15.75 -0.0311357 19.5938 0.640739 23.4531L5.43761 51C6.12511 54.9219 9.32824 57.9219 13.297 58.3594L21.0782 59.1875L37.9689 73.5938C39.8439 75.2031 42.6564 73.3438 41.9376 70.9844L38.8595 61.0938L60.3126 63.3906C63.9845 63.7813 67.5314 61.875 69.2189 58.5938C67.6564 59.4062 65.9064 59.7344 64.1564 59.5469Z" fill="#1B7CF5"/>
<path d="M56.7812 38.7188C59.5858 38.7188 61.8594 36.4452 61.8594 33.6406C61.8594 30.8361 59.5858 28.5625 56.7812 28.5625C53.9767 28.5625 51.7031 30.8361 51.7031 33.6406C51.7031 36.4452 53.9767 38.7188 56.7812 38.7188Z" fill="#E4EAD3"/>
<path d="M45.4974 34.4544C45.9461 31.6863 44.0659 29.0786 41.2978 28.6298C38.5296 28.1811 35.9219 30.0613 35.4731 32.8294C35.0244 35.5976 36.9046 38.2053 39.6728 38.6541C42.4409 39.1028 45.0486 37.2226 45.4974 34.4544Z" fill="#E4EAD3"/>
<path d="M24.2188 38.7188C27.0233 38.7188 29.2969 36.4452 29.2969 33.6406C29.2969 30.8361 27.0233 28.5625 24.2188 28.5625C21.4142 28.5625 19.1406 30.8361 19.1406 33.6406C19.1406 36.4452 21.4142 38.7188 24.2188 38.7188Z" fill="#E4EAD3"/>
</g>
<defs>
<clipPath id="clip0_2345_3209">
<rect width="80" height="80" fill="white" transform="translate(0.5)"/>
</clipPath>
</defs>
</svg>
