<svg width="81" height="80" viewBox="0 0 81 80" fill="none" xmlns="http://www.w3.org/2000/svg">
<g clip-path="url(#clip0_2345_3267)">
<path d="M6.09253 59.3644H47.2625C47.2625 59.3644 46.7935 49.2908 26.6775 49.2908C6.56159 49.2908 6.09253 59.3644 6.09253 59.3644Z" fill="#F2B643"/>
<path d="M47.7871 62.3782C47.7871 63.3473 47.002 64.1328 46.0329 64.1328H7.32167C6.35308 64.1328 5.56714 63.3473 5.56714 62.3782C5.56714 61.4096 6.35292 60.624 7.32167 60.624H46.0329C47.0018 60.624 47.7871 61.4096 47.7871 62.3782Z" fill="#FFB983"/>
<path d="M6.24683 71.2642H47.3345V74.6598C47.3345 74.6598 46.7684 79.9793 41.9012 79.9793C37.0343 79.9793 11.0006 79.9793 11.0006 79.9793C11.0006 79.9793 6.24683 79.5265 6.24683 75.112V71.2642Z" fill="#F2B643"/>
<path d="M7.03385 69.0626C7.85167 68.1893 9.1912 67.8532 10.3132 67.6332C12.4403 67.2167 13.9543 67.7967 15.6953 68.8893C19.071 71.009 23.7315 70.9479 27.1751 69.0303C28.9348 68.0506 30.3221 67.4767 32.3982 67.52C34.629 67.5667 36.2481 68.7923 38.1728 69.7009C41.2757 71.1656 45.676 70.3904 48.1209 67.949C49.1381 66.9337 47.5637 65.3592 46.5471 66.3746C45.4976 67.4223 43.894 67.9612 42.4623 68.1506C40.2107 68.4498 38.697 67.4142 36.8037 66.4335C34.8778 65.4365 32.7082 65.1398 30.5646 65.3598C28.7639 65.5446 27.3448 66.3873 25.8015 67.2467C23.8132 68.354 21.2917 68.4331 19.1084 67.9595C17.472 67.6048 16.2657 66.4346 14.7532 65.8064C12.0085 64.6656 7.57542 65.2304 5.45948 67.4884C4.47901 68.534 6.05026 70.1115 7.03385 69.0626Z" fill="#08D334"/>
<path d="M43.5656 59.3644H47.2625C47.2625 59.3644 46.7934 49.2908 26.6775 49.2908C26.6775 49.2908 40.4653 49.6616 43.5656 59.3644Z" fill="#D89932"/>
<path d="M44.0431 71.2642H47.3344V74.6598C47.3344 74.6598 46.7683 79.9793 41.9011 79.9793C40.6789 79.9793 38.122 79.9793 34.9788 79.9793C34.9788 79.9793 45.3153 80.8549 44.0431 71.2642Z" fill="#D89932"/>
<path d="M43.9239 64.1328H46.0329C47.0019 64.1328 47.7872 63.3473 47.7872 62.3782C47.7872 61.4096 47.002 60.624 46.0329 60.624H7.3217C7.05279 60.624 6.79748 60.6846 6.56982 60.7926C6.56982 60.7926 40.2558 60.9832 42.0023 61.1692C44.4937 61.4343 43.9239 64.1328 43.9239 64.1328Z" fill="#CE6515"/>
<path d="M42.4529 68.7494C41.0265 68.6323 40.0673 68.7316 38.0001 67.6671C35.9329 66.6026 35.4559 66.0465 31.5599 65.8869C27.6634 65.728 25.1192 69.8629 20.0301 68.8291C14.9413 67.7952 16.0546 65.8869 11.6018 65.8077C7.14932 65.728 5.45947 67.488 5.45947 67.488C7.57557 65.2302 12.0085 64.6654 14.7532 65.806C16.2657 66.4343 17.472 67.6046 19.1084 67.9591C21.2917 68.4327 23.8132 68.3537 25.8015 67.2463C27.3448 66.3869 28.7638 65.5441 30.5646 65.3594C32.7082 65.1394 34.8778 65.4362 36.8037 66.4332C38.697 67.4138 40.2107 68.4494 42.4623 68.1502C43.8938 67.9609 45.4976 67.4219 46.5471 66.3743C46.9285 65.9935 47.3882 65.9768 47.7603 66.1582C47.7603 66.1585 44.5959 68.9268 42.4529 68.7494Z" fill="#0AEF3C"/>
<path opacity="0.25" d="M8.18286 72.646C8.18286 72.646 7.38786 77.239 10.6477 78.6094C10.6477 78.6094 8.26239 76.3829 9.93239 72.646H8.18286Z" fill="white"/>
<path d="M63.4711 73.8141C63.7494 69.7104 64.5475 51.9054 65.0721 39.9512C64.1236 40.3999 63.1192 40.7713 62.086 40.9984C59.4966 41.5679 56.3025 41.2766 52.9216 40.969C49.6055 40.6671 46.1766 40.3552 43.3302 40.8923C39.8878 41.5416 36.5586 43.5737 34.5261 45.0234L34.733 47.6745C38.7455 48.2504 48.465 50.6929 49.4108 59.9759C49.4108 59.9759 52.465 61.4296 49.7989 64.1327C49.7989 64.1327 53.1852 65.917 49.9655 69.5643L49.7794 74.4559C49.7794 74.4559 49.7003 78.0149 47.1757 80.0001H51.4325C51.4325 80.0001 55.4697 80.0001 59.9414 80.0001H59.9649C60.2386 79.9966 63.0636 79.8182 63.4711 73.8141Z" fill="#48E4EF"/>
<path d="M59.4924 15.2202L60.997 5.64484C60.997 5.64484 60.997 3.66937 62.7846 3.29281C64.5723 2.91625 74.5437 0 74.5437 0C74.5437 0 76.4248 0.752656 75.6723 3.01047L64.2904 6.30297L62.6907 15.0516L59.4924 15.2202Z" fill="#48E4EF"/>
<path d="M61.8721 15.0944L62.6905 15.0514L64.2902 6.30285L75.6721 3.01035C75.7996 2.62863 75.8518 2.28894 75.8507 1.98988C75.8494 1.84722 63.4858 5.7741 63.4858 5.7741L61.8721 15.0944Z" fill="#0A9BB0"/>
<path opacity="0.46" d="M47.1935 80.0001C49.7179 78.0149 49.7973 74.4558 49.7973 74.4558L49.9654 69.5643C53.2835 65.843 49.7989 64.1327 49.7989 64.1327C52.4704 61.4072 49.4107 59.9758 49.4107 59.9758C48.465 50.693 38.7631 48.2504 34.7507 47.6744C34.7507 47.6744 66.011 46.7515 61.8393 79.9999H47.1935V80.0001Z" fill="#0A9BB0"/>
<path d="M15.0198 56.556C15.3611 56.556 15.6378 56.2793 15.6378 55.938C15.6378 55.5967 15.3611 55.3201 15.0198 55.3201C14.6785 55.3201 14.4019 55.5967 14.4019 55.938C14.4019 56.2793 14.6785 56.556 15.0198 56.556Z" fill="white"/>
<path d="M16.9971 54.6401C17.3382 54.6401 17.6147 54.3636 17.6147 54.0224C17.6147 53.6813 17.3382 53.4048 16.9971 53.4048C16.6559 53.4048 16.3794 53.6813 16.3794 54.0224C16.3794 54.3636 16.6559 54.6401 16.9971 54.6401Z" fill="white"/>
<path d="M22.9285 53.0958C23.2698 53.0958 23.5465 52.8191 23.5465 52.4778C23.5465 52.1365 23.2698 51.8599 22.9285 51.8599C22.5872 51.8599 22.3105 52.1365 22.3105 52.4778C22.3105 52.8191 22.5872 53.0958 22.9285 53.0958Z" fill="white"/>
<path d="M26.883 53.0954C27.2242 53.0954 27.5007 52.8189 27.5007 52.4778C27.5007 52.1366 27.2242 51.8601 26.883 51.8601C26.5419 51.8601 26.2654 52.1366 26.2654 52.4778C26.2654 52.8189 26.5419 53.0954 26.883 53.0954Z" fill="white"/>
<path d="M30.8369 53.0954C31.178 53.0954 31.4545 52.8189 31.4545 52.4778C31.4545 52.1366 31.178 51.8601 30.8369 51.8601C30.4958 51.8601 30.2192 52.1366 30.2192 52.4778C30.2192 52.8189 30.4958 53.0954 30.8369 53.0954Z" fill="white"/>
<path d="M21.0128 54.6402C21.354 54.6402 21.6306 54.3636 21.6306 54.0224C21.6306 53.6811 21.354 53.4045 21.0128 53.4045C20.6716 53.4045 20.395 53.6811 20.395 54.0224C20.395 54.3636 20.6716 54.6402 21.0128 54.6402Z" fill="white"/>
<path d="M25.0288 54.6401C25.3699 54.6401 25.6464 54.3636 25.6464 54.0224C25.6464 53.6813 25.3699 53.4048 25.0288 53.4048C24.6877 53.4048 24.4111 53.6813 24.4111 54.0224C24.4111 54.3636 24.6877 54.6401 25.0288 54.6401Z" fill="white"/>
<path d="M29.0454 54.6401C29.3865 54.6401 29.663 54.3636 29.663 54.0224C29.663 53.6813 29.3865 53.4048 29.0454 53.4048C28.7043 53.4048 28.4277 53.6813 28.4277 54.0224C28.4277 54.3636 28.7043 54.6401 29.0454 54.6401Z" fill="white"/>
<path d="M33.0616 54.6402C33.4029 54.6402 33.6795 54.3636 33.6795 54.0223C33.6795 53.681 33.4029 53.4043 33.0616 53.4043C32.7203 53.4043 32.4436 53.681 32.4436 54.0223C32.4436 54.3636 32.7203 54.6402 33.0616 54.6402Z" fill="white"/>
<path d="M37.0777 54.6402C37.419 54.6402 37.6957 54.3636 37.6957 54.0223C37.6957 53.681 37.419 53.4043 37.0777 53.4043C36.7364 53.4043 36.4597 53.681 36.4597 54.0223C36.4597 54.3636 36.7364 54.6402 37.0777 54.6402Z" fill="white"/>
<path d="M18.974 56.5559C19.3152 56.5559 19.5918 56.2793 19.5918 55.9381C19.5918 55.5969 19.3152 55.3203 18.974 55.3203C18.6328 55.3203 18.3562 55.5969 18.3562 55.9381C18.3562 56.2793 18.6328 56.5559 18.974 56.5559Z" fill="white"/>
<path d="M22.9285 56.556C23.2698 56.556 23.5465 56.2793 23.5465 55.938C23.5465 55.5967 23.2698 55.3201 22.9285 55.3201C22.5872 55.3201 22.3105 55.5967 22.3105 55.938C22.3105 56.2793 22.5872 56.556 22.9285 56.556Z" fill="white"/>
<path d="M26.883 56.5559C27.2242 56.5559 27.5007 56.2793 27.5007 55.9382C27.5007 55.5971 27.2242 55.3206 26.883 55.3206C26.5419 55.3206 26.2654 55.5971 26.2654 55.9382C26.2654 56.2793 26.5419 56.5559 26.883 56.5559Z" fill="white"/>
<path d="M30.8369 56.5559C31.178 56.5559 31.4545 56.2793 31.4545 55.9382C31.4545 55.5971 31.178 55.3206 30.8369 55.3206C30.4958 55.3206 30.2192 55.5971 30.2192 55.9382C30.2192 56.2793 30.4958 56.5559 30.8369 56.5559Z" fill="white"/>
<path d="M34.7916 56.556C35.1328 56.556 35.4095 56.2793 35.4095 55.938C35.4095 55.5967 35.1328 55.3201 34.7916 55.3201C34.4503 55.3201 34.1736 55.5967 34.1736 55.938C34.1736 56.2793 34.4503 56.556 34.7916 56.556Z" fill="white"/>
<path d="M38.7457 56.5559C39.087 56.5559 39.3636 56.2793 39.3636 55.9381C39.3636 55.5969 39.087 55.3203 38.7457 55.3203C38.4045 55.3203 38.1279 55.5969 38.1279 55.9381C38.1279 56.2793 38.4045 56.5559 38.7457 56.5559Z" fill="white"/>
<path d="M73.2548 24.3033C73.2548 25.4198 72.3506 26.3244 71.2345 26.3244H31.6303C30.5139 26.3244 29.6094 25.4198 29.6094 24.3033C29.6094 23.1873 30.5139 22.283 31.6303 22.283H71.2345C72.3506 22.283 73.2548 23.1873 73.2548 24.3033Z" fill="#E2E5E7"/>
<path d="M68.946 21.5668L65.0385 15.9092C65.0385 15.9092 56.4175 15.9092 54.5313 16.7175C52.6447 17.5259 47.6602 18.7382 46.1789 18.7382C44.6978 18.7382 38.9041 18.7382 38.9041 18.7382C38.9041 18.7382 36.211 18.604 35.5361 19.5465C34.8625 20.4892 33.7856 21.567 33.7856 21.567H68.946V21.5668Z" fill="#E2E5E7"/>
<path d="M53.1014 38.9851C56.3256 39.2782 59.37 39.5554 61.6586 39.0528C62.8823 38.7839 64.0762 38.2695 65.1717 37.6606C65.4006 32.4289 65.5565 28.7842 65.5565 28.7842L33.2646 28.8592L34.3462 42.7206C36.5429 41.2614 39.6603 39.5575 42.9604 38.9347C46.0806 38.3461 49.65 38.6712 53.1014 38.9851Z" fill="#48E4EF"/>
<path d="M33.264 28.8594H33.2647L33.1458 27.3398L33.264 28.8594Z" fill="#0A9BB0"/>
<path d="M65.0721 39.9514C64.5476 51.9056 63.7495 69.7106 63.4712 73.8144C63.0638 79.8184 60.2387 79.9967 59.9651 80.0003H61.8215C66.9726 80.0003 66.1135 73.5297 66.1135 73.5297L68.9206 37.5759C67.8357 38.3994 66.5201 39.2664 65.0721 39.9514Z" fill="#0A9BB0"/>
<path d="M65.1717 37.6606C66.7822 36.7652 68.1779 35.6633 69.1347 34.8236L69.719 27.3398H51.4325H33.1458L33.2648 28.8595L65.514 29.7773C65.5139 29.7772 65.4006 32.4289 65.1717 37.6606Z" fill="#0A9BB0"/>
<path d="M34.2922 21.0371C33.9974 21.3554 33.7856 21.5668 33.7856 21.5668H68.9458L65.0383 15.9092L63.6308 15.9221L66.2742 20.0471L34.2922 21.0371Z" fill="#D1D5D5"/>
<path d="M67.6716 26.3244H71.2346C72.3507 26.3244 73.2549 25.4198 73.2549 24.3033C73.2549 23.1873 72.3507 22.283 71.2346 22.283H67.9573C67.9573 22.283 68.8612 22.5723 68.8612 24.3033C68.8613 26.0347 67.6716 26.3244 67.6716 26.3244Z" fill="#D1D5D5"/>
</g>
<defs>
<clipPath id="clip0_2345_3267">
<rect width="80" height="80" fill="white" transform="translate(0.5)"/>
</clipPath>
</defs>
</svg>
