<svg width="67" height="68" viewBox="0 0 67 68" fill="none" xmlns="http://www.w3.org/2000/svg">
<path d="M50.1238 67.3567C49.4981 67.3315 49.047 66.8919 49.0481 66.3031C49.0491 65.7227 49.5192 65.2527 50.0996 65.2527H50.1227C54.0679 65.2527 57.7764 63.7154 60.5692 60.9227C63.3671 58.1247 64.9044 54.413 64.897 50.472C64.896 49.8916 65.366 49.4195 65.9464 49.4185H65.9485C66.5289 49.4185 66.999 49.8885 67 50.4689C67.0074 54.9734 65.2514 59.214 62.0559 62.4095C58.8668 65.6007 54.6304 67.3567 50.1238 67.3567Z" fill="#19468F"/>
<path d="M50.1249 62.0238C49.5508 62.0459 49.0556 61.558 49.0566 60.9702C49.0577 60.3898 49.5277 59.9198 50.1081 59.9198H50.1249C52.6443 59.9198 55.0143 58.9377 56.7987 57.1523C58.5873 55.3637 59.5693 52.9884 59.5672 50.4628C59.5662 49.8823 60.0362 49.4102 60.6177 49.4092C61.1981 49.4092 61.6691 49.8792 61.6702 50.4596C61.6744 53.5478 60.4726 56.453 58.2855 58.6391C56.1037 60.823 53.2058 62.0238 50.1249 62.0238Z" fill="#19468F"/>
<path d="M1.05004 18.3066C0.469621 18.3066 -0.000390333 17.8366 -0.00144181 17.2562C-0.00880217 12.7411 1.74822 8.4942 4.94472 5.29665C8.14016 2.10015 12.4291 0.341029 16.8853 0.352596C17.4657 0.353647 17.9357 0.825761 17.9347 1.40618C17.9336 1.98765 17.4426 2.42716 16.8811 2.45555C16.8716 2.45555 16.8622 2.45555 16.8538 2.45555C12.9244 2.45555 9.22424 3.99177 6.43151 6.78344C3.63352 9.58248 2.09521 13.2995 2.10152 17.252C2.10257 17.8334 1.63151 18.3055 1.05004 18.3066Z" fill="#19468F"/>
<path d="M6.38206 18.2971C5.80164 18.2971 5.33163 17.8271 5.33058 17.2467C5.32637 14.1585 6.52821 11.2543 8.71529 9.06725C10.8982 6.88543 13.795 5.68359 16.8769 5.68359C17.4899 5.69516 17.9462 6.15045 17.9452 6.73718C17.9441 7.31759 17.4741 7.7876 16.8937 7.7876C16.8884 7.7876 16.8832 7.7876 16.8769 7.7876C14.3575 7.7876 11.9875 8.76969 10.2031 10.5551C8.41457 12.3437 7.43248 14.719 7.43459 17.2436C7.43459 17.825 6.96458 18.2971 6.38206 18.2971Z" fill="#19468F"/>
<path d="M63.631 37.4497L38.5469 62.5338C36.138 64.9533 33.1097 66.5936 29.786 67.2875V67.2665C27.356 67.7817 24.8325 67.7712 22.4025 67.2455V67.256C19.1419 66.541 16.1861 64.9207 13.7993 62.5338L5.80595 54.5405C1.22991 49.976 -0.441942 43.298 1.42023 37.1132C2.80818 32.5172 5.3433 28.2892 8.74063 24.8919L14.2094 19.4126C16.3449 17.2771 19.3101 16.2151 22.3079 16.5095L26.273 16.888L20.4993 22.6617L18.3427 24.8183C18.3112 24.8498 18.3112 24.8814 18.2796 24.9129C18.2376 24.9445 18.1745 24.976 18.1324 25.0181C17.7434 25.4492 17.7854 26.1116 18.2166 26.5007C18.2481 26.5322 21.8032 29.8034 21.8662 33.8947C21.8978 36.1143 20.8778 38.2278 18.8474 40.1741C18.4269 40.5737 18.4058 41.2361 18.8159 41.6567C19.0157 41.8775 19.2891 41.9827 19.573 41.9827C19.8358 41.9827 20.0987 41.888 20.2985 41.6882C22.781 39.3214 24.0113 36.6821 23.9692 33.8526C23.9061 30.1293 21.6339 27.1105 20.4036 25.7331L23.1385 22.9982L29.3338 16.8039L40.9443 5.20296C42.4794 3.65728 45.1512 3.65728 46.6864 5.20296C47.4645 5.97054 47.8851 6.99047 47.8851 8.07455C47.8851 9.15757 47.4645 10.1786 46.6969 10.9461H46.6864C46.6443 10.9987 46.6128 11.0618 46.5813 11.1144L29.9752 27.7214C29.5652 28.1315 29.5652 28.8045 29.9752 29.2145C30.1855 29.4143 30.4484 29.5195 30.7218 29.5195C30.9847 29.5195 31.258 29.4143 31.4578 29.2145L48.5696 12.1028C48.6117 12.0607 48.6432 11.9976 48.6747 11.945L51.4412 9.1786C53.0289 7.59087 55.6061 7.59087 57.1938 9.1786C57.9614 9.94618 58.382 10.9661 58.382 12.0502C58.382 13.1437 57.9614 14.1647 57.1938 14.9323L54.2907 17.8354L37.1894 34.9367C36.7794 35.3468 36.7794 36.0092 37.1894 36.4193C37.3892 36.6296 37.6626 36.7347 37.9255 36.7347C38.1989 36.7347 38.4722 36.6296 38.672 36.4193L55.4158 19.686C55.4158 19.686 55.4158 19.686 55.4158 19.6755H55.4263C56.9615 18.1404 59.6438 18.1404 61.1684 19.6755C61.936 20.4431 62.3671 21.4735 62.3671 22.5576C62.3671 23.6406 61.936 24.6616 61.1684 25.4292L56.3937 30.2145L44.4257 42.1824C44.0156 42.5925 44.0156 43.2549 44.4257 43.665C44.636 43.8648 44.8989 43.9699 45.1723 43.9699C45.4457 43.9699 45.7085 43.8648 45.9188 43.665L57.8773 31.6971C59.465 30.1199 62.0422 30.1199 63.6299 31.6971C64.3975 32.4752 64.8181 33.4951 64.8181 34.5792C64.8192 35.6622 64.3986 36.6821 63.631 37.4497Z" fill="#FFCBBE"/>
<path d="M63.6309 31.6972C63.2314 31.3081 62.7792 31.0137 62.2956 30.8245L38.5468 54.5721C36.1379 56.9916 33.1096 58.6319 29.7859 59.3259V59.3048C27.356 59.8201 24.8324 59.8095 22.4024 59.2838V59.2943C19.1418 58.5793 16.1861 56.959 13.7992 54.5721L5.80589 46.5788C3.44953 44.2224 1.86179 41.3098 1.13627 38.1964C-0.241164 44.0647 1.49378 50.239 5.80589 54.5406L13.7992 62.5339C16.1871 64.9218 19.1418 66.5411 22.4024 67.2561V67.2456C24.8324 67.7713 27.356 67.7819 29.7859 67.2666V67.2877C33.1096 66.5937 36.139 64.9523 38.5468 62.5339L63.6309 37.4498C64.3985 36.6823 64.8191 35.6623 64.8191 34.5782C64.8191 33.4952 64.3985 32.4753 63.6309 31.6972Z" fill="#EAAC9D"/>
</svg>
