<svg width="81" height="80" viewBox="0 0 81 80" fill="none" xmlns="http://www.w3.org/2000/svg">
<path d="M16.9285 20.7546C18.4521 22.559 19.7458 26.6784 19.4649 35.1302C18.7329 52.9444 19.6351 60.8939 12.6984 60.8939C5.88086 60.8939 7.67674 45.7863 7.67674 39.4709V35.2408C5.70212 37.2154 3.55726 37.1048 1.98267 36.0324C-0.443056 34.4493 -0.102603 31.0107 4.57862 24.6442C6.88519 21.4865 9.25985 20.1332 11.0047 19.5119C11.9494 19.1885 12.9452 19.0608 13.9326 19.1204C15.0646 19.1204 16.0774 19.6821 16.9285 20.7546ZM6.88519 27.1806C7.16606 26.7891 7.05542 26.4486 6.6639 26.1082C6.27238 25.8273 5.93192 25.8869 5.65105 26.338C5.02972 27.1806 4.68927 27.6913 4.68927 27.8019C4.4084 28.1934 4.51904 28.5339 4.91908 28.8148C5.0893 28.8744 5.19995 28.9254 5.3106 28.9254C5.59147 28.9339 5.85532 28.7807 5.98299 28.5339L6.2128 28.1424L6.88519 27.1806ZM13.8815 21.3163C13.8815 20.8056 13.6602 20.5248 13.1495 20.5248C11.3962 20.4141 9.3705 21.7078 7.115 24.4144C6.77454 24.8059 6.83412 25.1464 7.22564 25.4869C7.3448 25.5975 7.50652 25.6656 7.67674 25.6571C7.89804 25.6741 8.11933 25.5635 8.23849 25.3762C10.1025 23.1803 11.7877 21.9376 13.0899 21.9887C13.4815 22.0483 13.8219 21.7078 13.8815 21.3163Z" fill="#1B7CF5"/>
<path d="M38.6989 60.9372C28.4938 60.9372 24.8254 59.6946 24.0934 55.9156C23.3019 52.0855 27.5916 45.5998 30.3492 42.8337C33.0558 40.1271 37.3966 34.3223 37.9584 33.4201C38.4095 32.5775 39.4223 29.922 37.6179 28.8496C35.8135 27.7771 34.4006 29.3602 34.2389 30.3731C34.1793 30.8838 33.8474 31.4966 33.5665 32.1179C33.3793 32.4669 33.175 32.8073 32.9452 33.1308C30.0173 37.6418 21.8975 35.4969 24.9956 26.8154C26.5192 22.4746 29.3364 20.5085 31.8728 19.6573C33.3963 19.1467 34.9198 18.9849 36.554 19.0956C41.1161 19.0956 48.6741 21.6915 48.6741 29.8028C48.6741 37.8631 41.4565 45.4722 40.1628 46.9446C38.8095 48.4682 37.8477 49.7619 38.0179 50.213C38.052 50.4258 38.2052 50.6045 38.4095 50.6641C38.4776 50.7066 38.5542 50.7322 38.6308 50.7237C41.448 50.2726 49.3465 49.9321 49.7976 54.2729C50.2487 58.6307 48.8443 60.9372 38.6989 60.9372ZM28.4342 49.7789C28.0427 49.498 27.6426 49.5576 27.3618 49.9491C25.0467 52.9962 26.0681 55.1921 26.0681 55.3623C26.1702 55.6432 26.4511 55.8304 26.749 55.8134C26.8596 55.8134 26.9703 55.8134 27.0298 55.7538C27.4214 55.5836 27.6512 55.1921 27.4809 54.7921C27.4809 54.7325 26.8085 53.0983 28.6129 50.8428C28.8342 50.4513 28.8342 50.0002 28.4342 49.7789ZM30.9195 22.6618C30.5791 22.2703 30.2386 22.2107 29.8471 22.5512C27.3107 24.8067 26.5192 28.1346 26.5192 28.3048C26.4596 28.8155 26.6298 29.0964 27.1405 29.1475C27.183 29.1475 27.2256 29.173 27.2511 29.207C27.6426 29.207 27.9235 28.9772 27.9831 28.5857C27.9831 28.5857 28.6555 25.5387 30.8599 23.7343C31.1408 23.4534 31.2004 22.9427 30.9195 22.6618ZM34.8602 21.3681C34.8007 20.8574 34.5198 20.6872 34.0176 20.7468C33.2942 20.8149 32.5877 21.0021 31.9324 21.3085C31.4813 21.4788 31.3706 21.8192 31.5408 22.2703C31.643 22.5512 31.9238 22.7384 32.2217 22.7214C32.3324 22.7214 32.443 22.7214 32.5026 22.6618C33.1239 22.432 33.575 22.381 34.1964 22.2107C34.6985 22.1512 34.9198 21.8703 34.8602 21.3681ZM38.418 37.0375C38.5456 37.1821 38.7329 37.2587 38.9287 37.2587C39.1414 37.2673 39.3457 37.1907 39.4904 37.0375C42.2566 33.9904 41.9672 31.5136 41.9672 31.403C41.9672 31.0114 41.5757 30.7306 41.1756 30.7816C40.8011 30.7816 40.4947 31.0795 40.4862 31.454C40.4862 31.4881 40.4862 31.5306 40.4947 31.5647C40.5543 31.6243 40.6054 33.5904 38.3499 36.0161C38.0775 36.3055 38.1286 36.7566 38.418 37.0375ZM47.4315 53.4388C46.5293 52.0855 43.9333 52.2557 43.4822 52.2557C43.0907 52.3153 42.7502 52.7068 42.8013 53.0983C42.8609 53.4898 43.1928 53.8303 43.6439 53.7792C44.4865 53.7196 45.8398 53.8388 46.1207 54.2899C46.2824 54.4601 46.5037 54.5623 46.742 54.5708C46.9633 54.5708 47.1336 54.5112 47.1931 54.4601C47.6017 54.1792 47.7208 53.8388 47.4315 53.4388Z" fill="#1B7CF5"/>
<path d="M79.819 42.6604C80.2701 43.852 80.5 45.1117 80.5 46.3799C80.5 57.0956 73.1717 60.9257 67.0861 60.9257C61.1622 60.9257 57.9535 59.3511 55.698 56.7551C53.4425 54.1592 54.1744 49.7078 56.9406 48.3545C59.7068 47.0012 62.2942 48.3545 63.0262 49.2567C63.4177 49.7078 64.0391 50.0993 64.4902 50.4993L65.3328 51.0611C66.8563 51.742 67.8096 51.5122 68.6607 51.1207C69.0948 50.8738 69.4948 50.5759 69.8438 50.2185C72.1589 46.3884 69.4523 43.452 66.7967 43.0009C65.4434 42.8306 60.592 41.8689 60.592 38.7707C60.592 35.5535 63.0773 35.1109 65.6647 33.8682C68.3117 32.6851 69.5033 30.1488 68.3117 28.3954C67.1287 26.7613 65.2647 27.323 64.5327 27.9443C64.1412 28.2252 63.8007 28.787 63.4007 29.4083L62.839 30.4211C59.2302 34.7619 52.5743 30.9829 55.8512 24.3866C57.3747 21.4587 60.1919 20.1565 62.6773 19.5352C64.1923 19.1862 65.7498 19.033 67.3074 19.0841C68.882 19.1436 70.4481 19.45 71.9291 19.9863C74.3548 20.8885 77.0018 22.6929 77.904 26.3527C78.8658 30.4126 77.904 33.0086 76.7209 34.6427C76.04 35.596 75.1293 36.3535 74.0739 36.8387C77.4529 38.209 78.9764 40.6262 79.819 42.6604ZM59.8004 49.6482C57.3236 49.3673 56.3108 51.2824 56.1406 52.3548C56.081 52.8655 56.2512 53.1464 56.7619 53.1974H56.9321C57.3236 53.1974 57.5534 52.9761 57.6641 52.5761C57.6641 52.2952 58.0556 50.9419 59.6387 51.1121C60.0898 51.1717 60.4303 50.8313 60.4813 50.4398C60.5239 50.0482 60.243 49.6993 59.8515 49.6567C59.8345 49.6482 59.8175 49.6482 59.8004 49.6482ZM62.9071 21.8587C62.7368 21.4076 62.3964 21.2374 61.8942 21.4076C58.1748 22.7609 57.0428 25.1867 56.881 26.4804C56.7108 26.9315 57.0513 27.323 57.4428 27.3826C57.5024 27.3826 57.5534 27.4422 57.613 27.4422C57.9535 27.4422 58.1748 27.2124 58.345 26.8208C58.5663 25.5271 59.5281 23.944 62.4645 22.8205C62.8475 22.6503 63.0773 22.2503 62.9071 21.8587ZM69.7246 33.3575C69.3331 33.0171 68.9331 33.0767 68.6522 33.4682C68.482 33.6895 68.2011 33.9193 67.9202 34.1406C67.2308 34.6768 66.4733 35.1109 65.6647 35.4343C65.486 35.4854 65.3158 35.562 65.154 35.6556C64.7625 35.8258 64.6434 36.2173 64.8136 36.6174C64.9157 36.8982 65.1881 37.0855 65.486 37.0685C65.6562 37.0685 65.7073 37.0685 65.7669 37.0089L66.218 36.8387C68.7543 35.7662 69.7672 34.4129 69.8268 34.3619C70.1247 33.9789 70.0651 33.6384 69.7246 33.3575ZM72.4312 50.4993C71.9205 50.3291 71.6397 50.4993 71.4694 51.01C71.0183 52.7038 69.2139 53.0442 69.2139 52.9846C68.7033 53.0442 68.482 53.3251 68.5416 53.8273C68.6011 54.2784 68.882 54.5082 69.2735 54.5082C69.3331 54.5082 69.3842 54.5082 69.3842 54.4486C69.4948 54.4486 72.0312 54.1677 72.9334 51.4611C73.1121 50.9504 72.9419 50.6696 72.4312 50.4993Z" fill="#1B7CF5"/>
</svg>
