<svg width="81" height="80" viewBox="0 0 81 80" fill="none" xmlns="http://www.w3.org/2000/svg">
<path d="M18 32.5C26.2843 32.5 33 25.7843 33 17.5C33 9.21573 26.2843 2.5 18 2.5C9.71573 2.5 3 9.21573 3 17.5C3 25.7843 9.71573 32.5 18 32.5Z" fill="#F56249"/>
<path d="M63 32.5C71.2843 32.5 78 25.7843 78 17.5C78 9.21573 71.2843 2.5 63 2.5C54.7157 2.5 48 9.21573 48 17.5C48 25.7843 54.7157 32.5 63 32.5Z" fill="#F56249"/>
<path d="M23.0001 7.50006C25.7527 7.50382 28.4512 8.26494 30.8001 9.70006C29.6221 7.75432 28.0172 6.10194 26.1065 4.86791C24.1959 3.63387 22.0296 2.8505 19.7716 2.57706C17.5136 2.30361 15.223 2.54725 13.073 3.28954C10.923 4.03183 8.96998 5.25334 7.36166 6.86166C5.75334 8.46998 4.53183 10.423 3.78954 12.573C3.04725 14.723 2.80361 17.0136 3.07706 19.2716C3.3505 21.5296 4.13387 23.6959 5.36791 25.6065C6.60194 27.5172 8.25432 29.1221 10.2001 30.3001C8.81605 28.0266 8.06186 25.4259 8.01489 22.7648C7.96792 20.1036 8.62987 17.4779 9.9328 15.157C11.2357 12.8362 13.1327 10.9038 15.4291 9.55823C17.7254 8.21263 20.3385 7.50228 23.0001 7.50006Z" fill="#E6391B"/>
<path d="M68.0001 7.50006C70.7527 7.50382 73.4512 8.26494 75.8001 9.70006C74.6221 7.75432 73.0172 6.10194 71.1065 4.86791C69.1959 3.63387 67.0296 2.8505 64.7716 2.57706C62.5136 2.30361 60.223 2.54725 58.073 3.28954C55.923 4.03183 53.97 5.25334 52.3617 6.86166C50.7533 8.46998 49.5318 10.423 48.7895 12.573C48.0473 14.723 47.8036 17.0136 48.0771 19.2716C48.3505 21.5296 49.1339 23.6959 50.3679 25.6065C51.6019 27.5172 53.2543 29.1221 55.2001 30.3001C53.816 28.0266 53.0619 25.4259 53.0149 22.7648C52.9679 20.1036 53.6299 17.4779 54.9328 15.157C56.2357 12.8362 58.1327 10.9038 60.4291 9.55823C62.7254 8.21263 65.3385 7.50228 68.0001 7.50006Z" fill="#E6391B"/>
<path d="M40.5 77.5C59.83 77.5 75.5 61.83 75.5 42.5C75.5 23.17 59.83 7.5 40.5 7.5C21.17 7.5 5.5 23.17 5.5 42.5C5.5 61.83 21.17 77.5 40.5 77.5Z" fill="#3FA1FF"/>
<path d="M10.5 47.5C10.5076 40.8849 12.3898 34.4073 15.9283 28.8181C19.4669 23.2289 24.5169 18.757 30.4932 15.9207C36.4694 13.0843 43.1271 11.9997 49.6946 12.7924C56.2621 13.5852 62.4704 16.223 67.6 20.4C64.5231 16.5615 60.6715 13.4147 56.2966 11.165C51.9216 8.91525 47.1215 7.61308 42.2094 7.3434C37.2973 7.07372 32.3835 7.84261 27.7885 9.5999C23.1935 11.3572 19.0207 14.0634 15.542 17.542C12.0634 21.0207 9.35719 25.1935 7.5999 29.7885C5.84261 34.3835 5.07372 39.2973 5.3434 44.2094C5.61308 49.1215 6.91525 53.9216 9.16499 58.2966C11.4147 62.6715 14.5615 66.5231 18.4 69.6C13.2889 63.3693 10.497 55.5589 10.5 47.5Z" fill="#1B7CF5"/>
<path d="M40.5 67.5C54.3071 67.5 65.5 56.3071 65.5 42.5C65.5 28.6929 54.3071 17.5 40.5 17.5C26.6929 17.5 15.5 28.6929 15.5 42.5C15.5 56.3071 26.6929 67.5 40.5 67.5Z" fill="#FAF7F5"/>
<path d="M55.5 22.5C58.7619 26.8188 60.5182 32.0878 60.5 37.5C60.5 40.783 59.8534 44.0339 58.597 47.0671C57.3406 50.1002 55.4991 52.8562 53.1777 55.1777C50.8562 57.4991 48.1002 59.3406 45.0671 60.597C42.0339 61.8534 38.783 62.5 35.5 62.5C30.0878 62.5182 24.8188 60.7619 20.5 57.5C22.6491 60.3654 25.3888 62.7356 28.5336 64.4501C31.6785 66.1645 35.155 67.1832 38.7278 67.4371C42.3006 67.691 45.8862 67.1742 49.2419 65.9218C52.5976 64.6693 55.645 62.7104 58.1777 60.1777C60.7104 57.645 62.6693 54.5976 63.9218 51.2419C65.1742 47.8862 65.691 44.3006 65.4371 40.7278C65.1832 37.155 64.1645 33.6785 62.4501 30.5336C60.7356 27.3888 58.3654 24.6491 55.5 22.5Z" fill="#F0E6E2"/>
<path d="M50.5 51.1499C50.0513 51.1498 49.6109 51.0289 49.225 50.7999L39.225 44.7999C38.8518 44.5786 38.5426 44.2641 38.3278 43.8871C38.1131 43.5101 38.0001 43.0838 38 42.6499V33.6499C38 32.9869 38.2634 32.351 38.7322 31.8821C39.2011 31.4133 39.837 31.1499 40.5 31.1499C41.163 31.1499 41.7989 31.4133 42.2678 31.8821C42.7366 32.351 43 32.9869 43 33.6499V41.1499L51.775 46.4249C52.2869 46.6848 52.6938 47.113 52.9272 47.6376C53.1606 48.1621 53.2064 48.751 53.0568 49.3053C52.9072 49.8596 52.5714 50.3455 52.1058 50.6814C51.6402 51.0174 51.0732 51.1828 50.5 51.1499Z" fill="#E6391B"/>
</svg>
