<svg width="40" height="40" viewBox="0 0 40 40" fill="none" xmlns="http://www.w3.org/2000/svg">
<g clip-path="url(#clip0_2298_1132)">
<path d="M8.89009 16.295L9.86175 20.6684H7.51675L8.59342 16.205C8.62509 16.0917 8.67675 16.0017 8.75508 16.0017C8.77842 16.0184 8.84842 16.1067 8.89009 16.295ZM40.0001 10.0017V27.9884C40.0001 32.0167 37.1218 35.465 33.1584 36.1867L22.6834 38.0917C21.7934 38.2534 20.8984 38.335 20.0018 38.335C19.1051 38.335 18.2101 38.255 17.3201 38.0917L6.84509 36.1867C2.88008 35.465 0.00341797 32.0167 0.00341797 27.9884V10C0.00341797 7.52169 1.09342 5.19002 2.99675 3.60336C4.90175 2.01502 7.38842 1.36336 9.82842 1.80169L12.9618 2.56336C16.0368 3.12002 18.3384 5.88002 18.3384 9.10169V34.88C19.4451 35.0417 20.5651 35.0417 21.6718 34.88V9.10169C21.6718 5.87836 23.9734 3.12002 27.1434 2.54169L30.0834 1.82169C32.6301 1.35669 35.1118 2.01502 37.0118 3.60336C38.9151 5.19169 40.0051 7.52336 40.0051 10L40.0001 10.0017ZM13.2251 23.3384L11.4918 15.7034C10.9734 12.615 6.54175 12.63 5.98675 15.6367L4.20008 23.41C4.01342 24.2184 4.62842 24.99 5.45842 24.99C6.05509 24.99 6.57342 24.5817 6.71342 24.0017L6.87509 23.3334H10.4551L10.5884 23.93C10.7251 24.5484 11.2751 24.99 11.9084 24.99C12.7768 24.99 13.4184 24.185 13.2251 23.3384ZM30.7284 22.335L34.6101 16.7517C34.8634 16.3867 35.0001 15.9534 35.0001 15.51C35.0001 14.3084 34.0251 13.3334 32.8234 13.3334H28.7501C28.0134 13.3334 27.4168 13.93 27.4168 14.6667C27.4168 15.4034 28.0134 16 28.7501 16H31.6884L27.8068 21.5817C27.5534 21.9467 27.4168 22.38 27.4168 22.8234C27.4168 24.025 28.3918 25 29.5934 25H33.6668C34.4034 25 35.0001 24.4034 35.0001 23.6667C35.0001 22.93 34.4034 22.3334 33.6668 22.3334H30.7284V22.335Z" fill="white"/>
</g>
<defs>
<clipPath id="clip0_2298_1132">
<rect width="40" height="40" fill="white"/>
</clipPath>
</defs>
</svg>
