<svg width="20" height="20" viewBox="0 0 20 20" fill="none" xmlns="http://www.w3.org/2000/svg">
<path d="M11.6665 12.3445V7.6553C11.6665 5.0343 11.6665 3.7238 10.8954 3.39767C10.1243 3.07153 9.21676 3.99819 7.40177 5.85152C6.46183 6.81129 5.92555 7.02383 4.58821 7.02383C3.41865 7.02383 2.83387 7.02383 2.4138 7.31044C1.5418 7.90538 1.67361 9.06825 1.67361 9.99992C1.67361 10.9316 1.5418 12.0944 2.4138 12.6894C2.83387 12.976 3.41865 12.976 4.58821 12.976C5.92555 12.976 6.46183 13.1886 7.40177 14.1483C9.21676 16.0017 10.1243 16.9283 10.8954 16.6022C11.6665 16.276 11.6665 14.9655 11.6665 12.3445Z" stroke="#1B7CF5" stroke-width="1.5" stroke-linecap="round" stroke-linejoin="round"/>
<path d="M14.1665 7.5C14.6877 8.18307 14.9998 9.05283 14.9998 10C14.9998 10.9472 14.6877 11.8169 14.1665 12.5" stroke="#1B7CF5" stroke-width="1.5" stroke-linecap="round" stroke-linejoin="round"/>
<path d="M16.6665 5.83325C17.7088 6.97169 18.3332 8.42134 18.3332 9.99992C18.3332 11.5785 17.7088 13.0282 16.6665 14.1666" stroke="#1B7CF5" stroke-width="1.5" stroke-linecap="round" stroke-linejoin="round"/>
</svg>
