<svg width="40" height="40" viewBox="0 0 40 40" fill="none" xmlns="http://www.w3.org/2000/svg">
<rect x="0.5" y="0.5" width="39" height="39" rx="19.5" fill="white"/>
<rect x="0.5" y="0.5" width="39" height="39" rx="19.5" stroke="#D9EFFF"/>
<path d="M19.1638 14.9983C20.2268 14.9984 21.2633 15.3295 22.1295 15.9457C22.9957 16.5619 23.6484 17.4325 23.9971 18.4367L24.0596 18.6308L24.0963 18.7508H26.0379C26.6214 18.751 27.1828 18.9737 27.6077 19.3735C28.0326 19.7733 28.289 20.3202 28.3246 20.9025L28.3288 21.0417V21.875C28.3286 22.2409 28.1908 22.5933 27.9429 22.8623C27.695 23.1314 27.3551 23.2974 26.9904 23.3275L26.8713 23.3317H25.5163L25.7171 23.8183C25.856 24.1556 25.8634 24.5326 25.738 24.875C25.6126 25.2175 25.3634 25.5005 25.0396 25.6683L24.9254 25.7217C24.7933 25.7756 24.6541 25.8104 24.5121 25.825L24.3696 25.8317H22.8804C22.6259 25.8315 22.3758 25.7648 22.155 25.638C21.9343 25.5113 21.7506 25.3289 21.6221 25.1092L21.5621 24.995L21.1129 24.0425L21.1579 24.0367C19.9913 24.1917 18.8104 24.21 17.6404 24.0917L17.2263 24.0442L16.7804 24.9908C16.6627 25.2412 16.4761 25.4529 16.2425 25.6012C16.0089 25.7495 15.738 25.8283 15.4613 25.8283H13.9579C13.7185 25.8282 13.4828 25.7692 13.2716 25.6564C13.0604 25.5437 12.8803 25.3806 12.747 25.1817C12.6137 24.9828 12.5315 24.7542 12.5075 24.516C12.4836 24.2777 12.5186 24.0373 12.6096 23.8158L12.9704 22.9408C12.5709 22.7005 12.2404 22.3608 12.0111 21.9548C11.7818 21.5489 11.6616 21.0904 11.6621 20.6242C11.6623 20.4733 11.7171 20.3276 11.8164 20.2139C11.9156 20.1003 12.0526 20.0264 12.2021 20.0058L12.2871 20H13.8538L14.2679 18.6308C14.5864 17.5803 15.2342 16.66 16.1158 16.0059C16.9974 15.3518 18.066 14.9985 19.1638 14.9983ZM24.8113 23.0758C24.1679 23.3342 23.5135 23.5467 22.8479 23.7133L22.3904 23.8208L22.6921 24.4625C22.7123 24.5057 22.7467 24.5408 22.7896 24.5617L22.8338 24.5767L22.8804 24.5825H24.3696C24.3991 24.5825 24.4282 24.5762 24.455 24.5641C24.4819 24.552 24.5059 24.5344 24.5254 24.5123C24.5449 24.4903 24.5596 24.4643 24.5683 24.4362C24.5771 24.4081 24.5798 24.3784 24.5763 24.3492L24.5621 24.295L24.1638 23.3317H24.1279L24.4704 23.2083L24.8113 23.0758ZM13.5179 23.0758L13.8429 23.2025L14.1663 23.32L13.7646 24.2917C13.7516 24.3234 13.7466 24.3578 13.75 24.3919C13.7535 24.426 13.7653 24.4587 13.7844 24.4871C13.8036 24.5155 13.8294 24.5388 13.8597 24.5549C13.8899 24.5709 13.9237 24.5793 13.9579 24.5792H15.4613L15.5088 24.5733C15.5395 24.5663 15.5682 24.5523 15.5927 24.5325C15.6173 24.5128 15.637 24.4877 15.6504 24.4592L15.9496 23.8233L15.9863 23.8317C15.1433 23.6514 14.3175 23.3988 13.5179 23.0767M19.1638 16.2483C18.3653 16.2486 17.5865 16.496 16.9343 16.9566C16.2821 17.4172 15.7885 18.0684 15.5213 18.8208L15.4646 18.9933L14.5179 22.1183L14.6538 22.1675C17.462 23.1314 20.5052 23.1703 23.3371 22.2783L23.6754 22.1675L23.8104 22.1183L22.8638 18.9933C22.641 18.2587 22.2045 17.6069 21.61 17.1212C21.0155 16.6355 20.2898 16.3377 19.5254 16.2658L19.3454 16.2525L19.1638 16.2483ZM13.3496 21.665L13.4754 21.2483L13.0529 21.25L13.0738 21.2933C13.146 21.4322 13.2385 21.5561 13.3496 21.665ZM24.4746 20L25.1046 22.0817L26.8713 22.0825C26.9181 22.0825 26.9635 22.0667 27.0003 22.0376C27.037 22.0086 27.0629 21.968 27.0738 21.9225L27.0796 21.8742V21.0417C27.0795 20.7839 26.9839 20.5354 26.8112 20.3441C26.6385 20.1527 26.401 20.0322 26.1446 20.0058L26.0379 20.0008L24.4746 20Z" fill="#1B7CF5"/>
</svg>
