<svg width="40" height="40" viewBox="0 0 40 40" fill="none" xmlns="http://www.w3.org/2000/svg">
<rect x="0.5" y="0.5" width="39" height="39" rx="19.5" fill="#142C57"/>
<rect x="0.5" y="0.5" width="39" height="39" rx="19.5" stroke="#24DEEC"/>
<path d="M19.1638 14.998C20.2268 14.9981 21.2633 15.3292 22.1295 15.9454C22.9957 16.5616 23.6484 17.4322 23.9971 18.4364L24.0596 18.6305L24.0963 18.7505H26.0379C26.6214 18.7507 27.1828 18.9734 27.6077 19.3732C28.0326 19.7731 28.289 20.3199 28.3246 20.9022L28.3288 21.0414V21.8747C28.3286 22.2406 28.1908 22.593 27.9429 22.862C27.695 23.1311 27.3551 23.2971 26.9904 23.3272L26.8713 23.3314H25.5163L25.7171 23.818C25.856 24.1553 25.8634 24.5323 25.738 24.8748C25.6126 25.2172 25.3634 25.5002 25.0396 25.668L24.9254 25.7214C24.7933 25.7753 24.6541 25.8101 24.5121 25.8247L24.3696 25.8314H22.8804C22.6259 25.8312 22.3758 25.7645 22.155 25.6377C21.9343 25.511 21.7506 25.3287 21.6221 25.1089L21.5621 24.9947L21.1129 24.0422L21.1579 24.0364C19.9913 24.1914 18.8104 24.2097 17.6404 24.0914L17.2263 24.0439L16.7804 24.9905C16.6627 25.2409 16.4761 25.4526 16.2425 25.6009C16.0089 25.7492 15.738 25.828 15.4613 25.828H13.9579C13.7185 25.8279 13.4828 25.7689 13.2716 25.6561C13.0604 25.5434 12.8803 25.3803 12.747 25.1814C12.6137 24.9825 12.5315 24.7539 12.5075 24.5157C12.4836 24.2774 12.5186 24.037 12.6096 23.8155L12.9704 22.9405C12.5709 22.7002 12.2404 22.3605 12.0111 21.9546C11.7818 21.5486 11.6616 21.0901 11.6621 20.6239C11.6623 20.473 11.7171 20.3273 11.8164 20.2136C11.9156 20.1 12.0526 20.0261 12.2021 20.0055L12.2871 19.9997H13.8538L14.2679 18.6305C14.5864 17.58 15.2342 16.6597 16.1158 16.0056C16.9974 15.3515 18.066 14.9982 19.1638 14.998ZM24.8113 23.0755C24.1679 23.3339 23.5135 23.5464 22.8479 23.713L22.3904 23.8205L22.6921 24.4622C22.7123 24.5055 22.7467 24.5405 22.7896 24.5614L22.8338 24.5764L22.8804 24.5822H24.3696C24.3991 24.5822 24.4282 24.5759 24.455 24.5638C24.4819 24.5517 24.5059 24.5341 24.5254 24.512C24.5449 24.49 24.5596 24.464 24.5683 24.4359C24.5771 24.4078 24.5798 24.3781 24.5763 24.3489L24.5621 24.2947L24.1638 23.3314H24.1279L24.4704 23.208L24.8113 23.0755ZM13.5179 23.0755L13.8429 23.2022L14.1663 23.3197L13.7646 24.2914C13.7516 24.3231 13.7466 24.3575 13.75 24.3916C13.7535 24.4257 13.7653 24.4584 13.7844 24.4868C13.8036 24.5152 13.8294 24.5385 13.8597 24.5546C13.8899 24.5706 13.9237 24.579 13.9579 24.5789H15.4613L15.5088 24.573C15.5395 24.566 15.5682 24.552 15.5927 24.5322C15.6173 24.5125 15.637 24.4874 15.6504 24.4589L15.9496 23.823L15.9863 23.8314C15.1433 23.6511 14.3175 23.3985 13.5179 23.0764M19.1638 16.248C18.3653 16.2483 17.5865 16.4957 16.9343 16.9563C16.2821 17.4169 15.7885 18.0681 15.5213 18.8205L15.4646 18.993L14.5179 22.118L14.6538 22.1672C17.462 23.1312 20.5052 23.17 23.3371 22.278L23.6754 22.1672L23.8104 22.118L22.8638 18.993C22.641 18.2584 22.2045 17.6066 21.61 17.1209C21.0155 16.6352 20.2898 16.3374 19.5254 16.2655L19.3454 16.2522L19.1638 16.248ZM13.3496 21.6647L13.4754 21.248L13.0529 21.2497L13.0738 21.293C13.146 21.4319 13.2385 21.5558 13.3496 21.6647ZM24.4746 19.9997L25.1046 22.0814L26.8713 22.0822C26.9181 22.0822 26.9635 22.0664 27.0003 22.0373C27.037 22.0083 27.0629 21.9678 27.0738 21.9222L27.0796 21.8739V21.0414C27.0795 20.7836 26.9839 20.5351 26.8112 20.3438C26.6385 20.1524 26.401 20.0319 26.1446 20.0055L26.0379 20.0005L24.4746 19.9997Z" fill="#CFFDFE"/>
</svg>
