<svg width="32" height="32" viewBox="0 0 32 32" fill="none" xmlns="http://www.w3.org/2000/svg">
<rect x="0.5" y="0.5" width="31" height="31" rx="15.5" fill="#142C57"/>
<rect x="0.5" y="0.5" width="31" height="31" rx="15.5" stroke="#59BAFF"/>
<path d="M17.6665 18.3447V13.6555C17.6665 11.0345 17.6665 9.72405 16.8954 9.39791C16.1243 9.07177 15.2168 9.99844 13.4018 11.8518C12.4618 12.8115 11.9255 13.0241 10.5882 13.0241C9.41865 13.0241 8.83387 13.0241 8.4138 13.3107C7.5418 13.9056 7.67361 15.0685 7.67361 16.0002C7.67361 16.9318 7.5418 18.0947 8.4138 18.6897C8.83387 18.9762 9.41865 18.9762 10.5882 18.9762C11.9255 18.9762 12.4618 19.1888 13.4018 20.1486C15.2168 22.0019 16.1243 22.9286 16.8954 22.6024C17.6665 22.2762 17.6665 20.9657 17.6665 18.3447Z" stroke="#D9EFFF" stroke-width="1.5" stroke-linecap="round" stroke-linejoin="round"/>
<path d="M20.1665 13.5C20.6877 14.1831 20.9998 15.0528 20.9998 16C20.9998 16.9472 20.6877 17.8169 20.1665 18.5" stroke="#D9EFFF" stroke-width="1.5" stroke-linecap="round" stroke-linejoin="round"/>
<path d="M22.6665 11.8335C23.7088 12.9719 24.3332 14.4216 24.3332 16.0002C24.3332 17.5787 23.7088 19.0284 22.6665 20.1668" stroke="#D9EFFF" stroke-width="1.5" stroke-linecap="round" stroke-linejoin="round"/>
</svg>
