<svg width="32" height="32" viewBox="0 0 32 32" fill="none" xmlns="http://www.w3.org/2000/svg">
<rect x="0.5" y="0.5" width="31" height="31" rx="15.5" fill="white"/>
<rect x="0.5" y="0.5" width="31" height="31" rx="15.5" stroke="#D9EFFF"/>
<path d="M17.6665 18.3445V13.6553C17.6665 11.0343 17.6665 9.7238 16.8954 9.39767C16.1243 9.07153 15.2168 9.99819 13.4018 11.8515C12.4618 12.8113 11.9255 13.0238 10.5882 13.0238C9.41865 13.0238 8.83387 13.0238 8.4138 13.3104C7.5418 13.9054 7.67361 15.0683 7.67361 15.9999C7.67361 16.9316 7.5418 18.0944 8.4138 18.6894C8.83387 18.976 9.41865 18.976 10.5882 18.976C11.9255 18.976 12.4618 19.1886 13.4018 20.1483C15.2168 22.0017 16.1243 22.9283 16.8954 22.6022C17.6665 22.276 17.6665 20.9655 17.6665 18.3445Z" stroke="#1B7CF5" stroke-width="1.5" stroke-linecap="round" stroke-linejoin="round"/>
<path d="M20.1665 13.5C20.6877 14.1831 20.9998 15.0528 20.9998 16C20.9998 16.9472 20.6877 17.8169 20.1665 18.5" stroke="#1B7CF5" stroke-width="1.5" stroke-linecap="round" stroke-linejoin="round"/>
<path d="M22.6665 11.8333C23.7088 12.9717 24.3332 14.4213 24.3332 15.9999C24.3332 17.5785 23.7088 19.0282 22.6665 20.1666" stroke="#1B7CF5" stroke-width="1.5" stroke-linecap="round" stroke-linejoin="round"/>
</svg>
