<svg width="57" height="56" viewBox="0 0 57 56" fill="none" xmlns="http://www.w3.org/2000/svg">
<path d="M14.4547 7.66603C22.2508 9.1504 26.8973 12.2554 28.5001 14.038C30.1028 12.2554 34.7492 9.1504 42.5453 7.66603C46.495 6.91402 48.4697 6.53803 50.1515 7.97917C51.8334 9.4203 51.8334 11.7605 51.8334 16.441V33.2617C51.8334 37.5412 51.8334 39.6809 50.754 41.017C49.6746 42.3528 47.2983 42.8052 42.5453 43.7103C38.3087 44.517 35.0021 45.8022 32.6086 47.0939C30.2538 48.3646 29.0764 49 28.5001 49C27.9237 49 26.7463 48.3646 24.3915 47.0939C21.9981 45.8022 18.6915 44.517 14.4547 43.7103C9.70193 42.8052 7.32555 42.3528 6.24615 41.017C5.16675 39.6809 5.16675 37.5412 5.16675 33.2617V16.441C5.16675 11.7605 5.16675 9.4203 6.84857 7.97917C8.53041 6.53803 10.5052 6.91402 14.4547 7.66603Z" fill="#24DEEC" stroke="#0A9AB0" stroke-width="1.5" stroke-linecap="round" stroke-linejoin="round"/>
<path d="M28.5 14V46.6667" stroke="#0A9AB0" stroke-width="1.5" stroke-linecap="round"/>
<path d="M34 21.5C35.5 20.1667 40.1 17.4 46.5 17" stroke="#F9FAFB" stroke-linecap="round"/>
<path d="M34 25.5C35.5 24.1667 40.1 21.4 46.5 21" stroke="#F9FAFB" stroke-linecap="round"/>
<path d="M34 32.5C35.5 31.1667 40.1 28.4 46.5 28" stroke="#F9FAFB" stroke-linecap="round"/>
<path d="M22.5 21.5C21 20.1667 16.4 17.4 10 17" stroke="#F9FAFB" stroke-linecap="round"/>
<path d="M22.5 25.5C21 24.1667 16.4 21.4 10 21" stroke="#F9FAFB" stroke-linecap="round"/>
<path d="M22.5 32.5C21 31.1667 16.4 28.4 10 28" stroke="#F9FAFB" stroke-linecap="round"/>
</svg>
