<svg width="57" height="56" viewBox="0 0 57 56" fill="none" xmlns="http://www.w3.org/2000/svg">
<path d="M41 33.7368C41 32.8293 41 32.3757 41.1352 31.9715C41.5283 30.7965 42.5647 30.3408 43.6029 29.8633C44.77 29.3265 45.3535 29.0583 45.9317 29.011C46.5882 28.9575 47.2458 29.1003 47.8068 29.4181C48.5507 29.8395 49.0694 30.6403 49.6006 31.2916C52.0534 34.2993 53.2796 35.8035 53.7284 37.4619C54.0905 38.8002 54.0905 40.1998 53.7284 41.5381C53.0739 43.957 51.0061 45.9848 49.4755 47.8617C48.6927 48.8217 48.3011 49.3018 47.8068 49.5819C47.2458 49.8997 46.5882 50.0425 45.9317 49.989C45.3535 49.9417 44.77 49.6735 43.6029 49.1367C42.5647 48.6592 41.5283 48.2035 41.1352 47.0285C41 46.6243 41 46.1707 41 45.2632V33.7368Z" fill="#24DEEC" stroke="#0A9AB0" stroke-width="1.5"/>
<path d="M16 33.7368C16 32.5944 15.9682 31.5676 15.0534 30.7644C14.7206 30.4722 14.2794 30.2693 13.3972 29.8635C12.23 29.327 11.6465 29.0587 11.0682 29.0115C9.33337 28.8697 8.39999 30.0651 7.39954 31.292C4.94675 34.2996 3.72036 35.8034 3.2716 37.4618C2.90947 38.8002 2.90947 40.1998 3.2716 41.538C3.92612 43.9568 5.99395 45.9843 7.52455 47.8613C8.48935 49.0443 9.411 50.1237 11.0682 49.9885C11.6465 49.9413 12.23 49.6727 13.3972 49.1362C14.2794 48.7304 14.7206 48.5275 15.0534 48.2354C15.9682 47.4321 16 46.4055 16 45.2629V33.7368Z" fill="#24DEEC" stroke="#0A9AB0" stroke-width="1.5"/>
<path d="M47 29V23.8889C47 14.0091 38.7173 6 28.5 6C18.2827 6 10 14.0091 10 23.8889V29" stroke="#0A9AB0" stroke-width="2" stroke-linecap="square" stroke-linejoin="round"/>
</svg>
