<svg width="57" height="56" viewBox="0 0 57 56" fill="none" xmlns="http://www.w3.org/2000/svg">
<path d="M46.5838 33V23.3332C46.5838 14.5336 46.5838 10.1339 43.8501 7.40017C41.1163 4.6665 36.7166 4.6665 27.9171 4.6665H25.584C16.7845 4.6665 12.3848 4.6665 9.65109 7.40014C6.91742 10.1338 6.91738 14.5335 6.91731 23.333L6.91724 32.6665C6.91714 41.466 6.91712 45.8657 9.65069 48.5994C12.3844 51.3329 22.7005 50.5 31.5 50.5" fill="#24DEEC"/>
<path d="M46.5838 33V23.3332C46.5838 14.5336 46.5838 10.1339 43.8501 7.40017C41.1163 4.6665 36.7166 4.6665 27.9171 4.6665H25.584C16.7845 4.6665 12.3848 4.6665 9.65109 7.40014C6.91742 10.1338 6.91738 14.5335 6.91731 23.333L6.91724 32.6665C6.91714 41.466 6.91712 45.8657 9.65069 48.5994C12.3844 51.3329 22.7005 50.5 31.5 50.5" stroke="#0A9AB0" stroke-width="1.5" stroke-linecap="round" stroke-linejoin="round"/>
<path d="M17.4172 16.3335H36.0838M17.4172 28.0002H36.0838" stroke="#F9FAFB" stroke-width="2" stroke-linecap="round"/>
<path d="M31.4172 48.5957V51.3332H34.1552C35.1104 51.3332 35.5881 51.3332 36.0174 51.1554C36.447 50.9773 36.7846 50.6397 37.4601 49.9644L48.7152 38.7084C49.3522 38.0714 49.6707 37.7529 49.841 37.4095C50.1651 36.7557 50.1651 35.9882 49.841 35.3344C49.6707 34.9907 49.3522 34.6722 48.7152 34.0352C48.0779 33.3982 47.7594 33.0797 47.4157 32.9094C46.7619 32.5855 45.9943 32.5855 45.3405 32.9094C44.997 33.0797 44.6783 33.3982 44.0413 34.0352L32.7862 45.2912C32.1107 45.9665 31.7731 46.3041 31.5953 46.7335C31.4172 47.163 31.4172 47.6404 31.4172 48.5957Z" fill="#F9FAFB" stroke="#A6F7FB" stroke-linejoin="round"/>
</svg>
