<svg width="57" height="56" viewBox="0 0 57 56" fill="none" xmlns="http://www.w3.org/2000/svg">
<path d="M51.8333 32.6665V23.3332C51.8333 14.5336 51.8332 10.1339 49.0995 7.40017C46.366 4.6665 41.966 4.6665 33.1666 4.6665H28.4999C19.7004 4.6665 15.3006 4.6665 12.5669 7.40017C9.83325 10.1339 9.83325 14.5336 9.83325 23.3332V32.6665C9.83325 41.466 9.83325 45.8659 12.5669 48.5994C15.3006 51.3332 19.7004 51.3332 28.4999 51.3332H33.1666C41.966 51.3332 46.366 51.3332 49.0995 48.5994C51.8332 45.8659 51.8333 41.466 51.8333 32.6665Z" fill="#08C1D2" stroke="#0A9AB0" stroke-width="1.5"/>
<path d="M28 23.3333H36.0001C38.5143 23.3333 39.7712 23.3333 40.5524 22.6499C41.3334 21.9665 41.3334 20.8666 41.3334 18.6667C41.3334 16.4668 41.3334 15.3668 40.5524 14.6834C39.7712 14 38.5143 14 36.0001 14H28C25.4859 14 24.2289 14 23.4478 14.6834C22.6667 15.3668 22.6667 16.4668 22.6667 18.6667C22.6667 20.8666 22.6667 21.9665 23.4478 22.6499C24.2289 23.3333 25.4859 23.3333 28 23.3333Z" fill="#ECFFFF" stroke="#0A9AB0" stroke-width="1.5"/>
<path d="M12.1667 14H5.16675M12.1667 28H5.16675M12.1667 42H5.16675" stroke="#F9FAFB" stroke-width="1.5" stroke-linecap="round" stroke-linejoin="round"/>
</svg>
