<svg width="57" height="56" viewBox="0 0 57 56" fill="none" xmlns="http://www.w3.org/2000/svg">
<path d="M51.8334 26.9888C51.8334 39.3163 41.3852 49.3111 28.5001 49.3111C26.9851 49.3132 25.4742 49.173 23.986 48.8937C22.9149 48.6923 22.3792 48.5917 22.0053 48.6489C21.6314 48.7061 21.1015 48.9877 20.0417 49.5514C17.0437 51.1458 13.548 51.7088 10.186 51.0835C11.4638 49.5118 12.3365 47.626 12.7216 45.6044C12.9549 44.3677 12.3767 43.1665 11.5108 42.2871C7.57785 38.2933 5.16675 32.9117 5.16675 26.9888C5.16675 14.6615 15.6149 4.6665 28.5001 4.6665C41.3852 4.6665 51.8334 14.6615 51.8334 26.9888Z" fill="#08C1D2" stroke="#0A9AB0" stroke-width="1.5" stroke-linejoin="round"/>
<path d="M23.8333 22.9742C23.8333 20.5951 25.9225 18.6665 28.4999 18.6665C31.0773 18.6665 33.1666 20.5951 33.1666 22.9742C33.1666 23.8318 32.8952 24.6307 32.4272 25.302C31.0325 27.3026 28.4999 29.2106 28.4999 31.5897V32.6665" stroke="#F9FAFB" stroke-width="3" stroke-linecap="round"/>
<path d="M28.5 38.5H28.521" stroke="#F9FAFB" stroke-width="3" stroke-linecap="round" stroke-linejoin="round"/>
</svg>
