<svg width="81" height="80" viewBox="0 0 81 80" fill="none" xmlns="http://www.w3.org/2000/svg">
<rect x="0.5" width="80" height="80" rx="40" fill="white"/>
<path d="M19.5 22.5C19.5 20.567 21.067 19 23 19H27.6667C29.5997 19 31.1667 20.567 31.1667 22.5V27.1667C31.1667 29.0997 29.5997 30.6667 27.6667 30.6667H23C21.067 30.6667 19.5 29.0997 19.5 27.1667V22.5Z" fill="#24DEEC" stroke="#0A9AB0" stroke-width="1.5"/>
<path d="M19.5 52.8333C19.5 50.9003 21.067 49.3333 23 49.3333H27.6667C29.5997 49.3333 31.1667 50.9003 31.1667 52.8333V57.4999C31.1667 59.4329 29.5997 60.9999 27.6667 60.9999H23C21.067 60.9999 19.5 59.4329 19.5 57.4999V52.8333Z" fill="#24DEEC" stroke="#0A9AB0" stroke-width="1.5"/>
<path d="M31.1665 55.1666H61.4998M49.8331 24.8333H31.1665M50.5879 29.9117L30.3467 50.153" stroke="#0A9AB0" stroke-width="1.5" stroke-linecap="round" stroke-linejoin="round"/>
<path d="M49.833 22.5C49.833 20.567 51.4001 19 53.333 19H57.9997C59.9326 19 61.4997 20.567 61.4997 22.5V27.1667C61.4997 29.0997 59.9326 30.6667 57.9997 30.6667H53.333C51.4001 30.6667 49.833 29.0997 49.833 27.1667V22.5Z" fill="#24DEEC" stroke="#0A9AB0" stroke-width="1.5"/>
<path d="M54.5 60.9999L57.7394 58.7919C60.2465 57.083 61.5 56.2285 61.5 55.1666C61.5 54.1047 60.2465 53.2502 57.7394 51.5413L54.5 49.3333" stroke="#0A9AB0" stroke-width="1.5" stroke-linecap="round" stroke-linejoin="round"/>
</svg>
