<svg width="81" height="80" viewBox="0 0 81 80" fill="none" xmlns="http://www.w3.org/2000/svg">
<rect x="0.5" width="80" height="80" rx="40" fill="white"/>
<path d="M18.333 40.5675C18.333 30.4005 18.333 25.317 21.2546 22.1585C24.1762 19 28.8785 19 38.283 19H42.7163C52.1208 19 56.8232 19 59.7448 22.1585C62.6663 25.317 62.6663 30.4005 62.6663 40.5675V41.7659C62.6663 51.9329 62.6663 57.0163 59.7448 60.1749C56.8232 63.3333 52.1208 63.3333 42.7163 63.3333H38.283C28.8785 63.3333 24.1762 63.3333 21.2546 60.1749C18.333 57.0163 18.333 51.9329 18.333 41.7659V40.5675Z" fill="#24DEEC" stroke="#0A9AB0" stroke-width="1.5" stroke-linecap="round" stroke-linejoin="round"/>
<path d="M54.5 16.6667V21.3334M26.5 16.6667V21.3334" stroke="#0A9AB0" stroke-width="1.5" stroke-linecap="round" stroke-linejoin="round"/>
<path d="M40.4898 42.3333H40.5108M40.4898 51.6666H40.5108M49.8127 42.3333H49.8337M31.167 42.3333H31.1879M31.167 51.6666H31.1879" stroke="#F9FAFB" stroke-width="4" stroke-linecap="round" stroke-linejoin="round"/>
<path d="M20.667 30.6667H60.3337" stroke="#0A9AB0" stroke-width="1.5" stroke-linecap="round" stroke-linejoin="round"/>
<path d="M19.5 30.6667H61.5" stroke="#0A9AB0" stroke-width="1.5" stroke-linecap="round" stroke-linejoin="round"/>
</svg>
