<svg width="81" height="80" viewBox="0 0 81 80" fill="none" xmlns="http://www.w3.org/2000/svg">
<rect x="0.5" width="80" height="80" rx="40" fill="white"/>
<path d="M63.8337 40.0001C63.8337 27.1134 53.3869 16.6667 40.5003 16.6667C27.6137 16.6667 17.167 27.1134 17.167 40.0001C17.167 52.8866 27.6137 63.3334 40.5003 63.3334C42.4643 63.3334 45.167 63.6048 45.167 61.0001C45.167 59.5791 44.4278 58.4829 43.6937 57.3937C42.6195 55.8002 41.5557 54.2224 42.8337 51.6667C44.3893 48.5557 46.9819 48.5557 50.9572 48.5557C52.9449 48.5557 55.2783 48.5557 58.0003 48.1667C62.9027 47.4665 63.8337 44.453 63.8337 40.0001Z" fill="#24DEEC" stroke="#0A9AB0" stroke-width="1.5"/>
<path d="M28.833 47.0046L28.8533 46.999" stroke="white" stroke-width="3" stroke-linecap="round" stroke-linejoin="round"/>
<path d="M34.667 35.3333C36.6 35.3333 38.167 33.7662 38.167 31.8333C38.167 29.9003 36.6 28.3333 34.667 28.3333C32.734 28.3333 31.167 29.9003 31.167 31.8333C31.167 33.7662 32.734 35.3333 34.667 35.3333Z" fill="#F9FAFB"/>
<path d="M51 37.6667C52.933 37.6667 54.5 36.0997 54.5 34.1667C54.5 32.2338 52.933 30.6667 51 30.6667C49.067 30.6667 47.5 32.2338 47.5 34.1667C47.5 36.0997 49.067 37.6667 51 37.6667Z" fill="#F9FAFB"/>
</svg>
