<svg width="81" height="80" viewBox="0 0 81 80" fill="none" xmlns="http://www.w3.org/2000/svg">
<rect x="0.5" width="80" height="80" rx="40" fill="white"/>
<g clip-path="url(#clip0_2537_2392)">
<path d="M57.25 45.2451L45.8718 50.4461C45.8714 50.4463 45.871 50.4465 45.8706 50.4466C44.1776 51.2278 42.3556 51.6176 40.5 51.6176C38.6444 51.6176 36.8224 51.2278 35.1294 50.4466C35.129 50.4465 35.1286 50.4463 35.1282 50.4461L23.75 45.2451V51.6901C23.75 54.1532 25.1986 56.3593 27.4423 57.3958C30.4534 58.7642 34.9832 60.2501 40.5 60.2501C46.0178 60.2501 50.5478 58.7636 53.54 57.3958L57.25 45.2451ZM57.25 45.2451V51.6901C57.25 54.1531 55.8015 56.3593 53.5401 57.3958L57.25 45.2451Z" fill="#24DEEC" stroke="#0A9AB0" stroke-width="1.5"/>
<path d="M62.1 42.8694L64.4 41.8114V52.25C64.4 52.8811 63.8811 53.4 63.25 53.4C62.6189 53.4 62.1 52.8811 62.1 52.25V42.8694Z" fill="#24DEEC" stroke="#0A9AB0" stroke-width="1.2"/>
<path d="M43.7967 45.905L43.7966 45.9051C42.7478 46.3847 41.6258 46.6229 40.5 46.6229C39.3748 46.6229 38.251 46.3832 37.2033 45.905C37.2032 45.905 37.2031 45.9049 37.2029 45.9049L14.8547 35.6889C14.8547 35.6888 14.8546 35.6888 14.8545 35.6888C13.8616 35.2336 13.25 34.2804 13.25 33.1857C13.25 32.0908 13.8617 31.1376 14.8547 30.6825L37.2049 20.4698C37.2049 20.4698 37.2049 20.4698 37.205 20.4698C39.3012 19.512 41.7005 19.512 43.7967 20.4698C43.7968 20.4698 43.7968 20.4698 43.7968 20.4698L66.146 30.6845L66.146 30.6846C67.1379 31.1378 67.75 32.0919 67.75 33.1874C67.75 34.2824 67.1383 35.2351 66.146 35.6885L66.1459 35.6885L43.7967 45.905Z" fill="#24DEEC" stroke="#0A9AB0" stroke-width="1.5"/>
</g>
<defs>
<clipPath id="clip0_2537_2392">
<rect width="56" height="56" fill="white" transform="translate(12.5 12)"/>
</clipPath>
</defs>
</svg>
