<svg width="81" height="80" viewBox="0 0 81 80" fill="none" xmlns="http://www.w3.org/2000/svg">
<rect x="0.5" width="80" height="80" rx="40" fill="white"/>
<path d="M23.9767 22.3583C25.2424 20.7069 25.8752 19.8812 26.7404 19.4406C27.6055 19 28.5941 19 30.5711 19H36.2077C38.231 19 39.2425 19 39.8711 19.6834C40.4997 20.3668 40.4997 21.4668 40.4997 23.6667V33H30.5711C28.5941 33 27.6055 33 26.7404 32.5594C25.8752 32.1188 25.2424 31.2931 23.9767 29.6417L23.4753 28.9875C22.3804 27.559 21.833 26.8448 21.833 26C21.833 25.1552 22.3804 24.441 23.4753 23.0125L23.9767 22.3583Z" fill="#24DEEC" stroke="#0A9AB0" stroke-width="1.5" stroke-linecap="round" stroke-linejoin="round"/>
<path d="M57.023 34.025C55.7572 32.3736 55.1244 31.5479 54.2592 31.1073C53.3942 30.6667 52.4056 30.6667 50.4286 30.6667H40.5V44.6667H50.4286C52.4056 44.6667 53.3942 44.6667 54.2592 44.2262C55.1244 43.7857 55.7572 42.9599 57.023 41.3084L57.5245 40.6543C58.6193 39.2259 59.1667 38.5114 59.1667 37.6667C59.1667 36.8221 58.6193 36.1076 57.5245 34.6792L57.023 34.025Z" fill="#24DEEC" stroke="#0A9AB0" stroke-width="1.5" stroke-linecap="round" stroke-linejoin="round"/>
<path d="M40.5 60.9999V21.3333" stroke="#0A9AB0" stroke-width="1.5" stroke-linecap="round" stroke-linejoin="round"/>
<path d="M33.5 61H47.5" stroke="#0A9AB0" stroke-width="1.5" stroke-linecap="round" stroke-linejoin="round"/>
</svg>
