<svg width="81" height="80" viewBox="0 0 81 80" fill="none" xmlns="http://www.w3.org/2000/svg">
<rect x="0.5" width="80" height="80" rx="40" fill="white"/>
<mask id="path-2-inside-1_2537_2417" fill="white">
<path d="M53.3856 23.581C53.8513 21.0399 56.7555 18.7738 59.2412 21.2593C61.6855 23.7036 59.5345 26.5528 57.0459 27.0897C54.698 27.5962 52.948 25.969 53.3857 23.581H53.3856ZM56.9195 52.8852C54.5314 52.4475 52.9043 54.1975 53.4108 56.5454C53.9477 59.034 56.7969 61.185 59.2412 58.7407C61.7267 56.2552 59.4606 53.3508 56.9195 52.8852ZM23.9551 52.9105C21.4665 53.4474 19.3155 56.2965 21.7598 58.7408C24.2453 61.2264 27.1497 58.9602 27.6153 56.4191C28.053 54.031 26.3029 52.4039 23.9551 52.9105ZM48.4162 32.0843C49.8148 33.4828 50.8449 35.2498 51.3488 37.2269L54.0569 34.5186C54.4946 34.0809 55.0159 33.8492 55.6341 33.8175L60.4275 33.2731C60.9868 33.2444 61.4678 33.1176 61.945 32.8245L66.2978 30.1507C68.3404 28.9715 66.9712 26.9155 65.3129 27.712L60.7172 29.9799C60.479 30.0975 60.2514 30.1505 59.9857 30.1505H56.679C56.2238 30.1505 55.832 29.9883 55.5101 29.6664L53.172 27.3283L50.8339 24.9902C50.512 24.6683 50.3497 24.2765 50.3497 23.8213V20.5146C50.3497 20.2489 50.4028 20.0213 50.5204 19.7831L52.7883 15.1874C53.5846 13.5292 51.5288 12.1599 50.3495 14.2024L47.6758 18.5552C47.3826 19.0324 47.2558 19.5135 47.2272 20.0728L46.6827 24.8662C46.6511 25.4844 46.4194 26.0056 45.9817 26.4434L43.2734 29.1516C45.2506 29.6555 47.0177 30.6857 48.4162 32.0843ZM14.7028 30.1508L19.0556 32.8246C19.5328 33.1177 20.0138 33.2446 20.5732 33.2732L25.3665 33.8176C25.9847 33.8492 26.506 34.081 26.9437 34.5187L29.652 37.227C30.1559 35.2498 31.1861 33.4828 32.5846 32.0843C33.9831 30.6858 35.7501 29.6556 37.7272 29.1516L35.0191 26.4434C34.5814 26.0056 34.3496 25.4844 34.318 24.8662L33.7735 20.0728C33.7449 19.5135 33.6181 19.0324 33.325 18.5552L30.6512 14.2024C29.4719 12.1599 27.416 13.5291 28.2125 15.1874L30.4804 19.7831C30.598 20.0213 30.651 20.2489 30.651 20.5146V23.8213C30.651 24.2765 30.4888 24.6683 30.1669 24.9902L27.8288 27.3283L25.4907 29.6664C25.1688 29.9883 24.777 30.1506 24.3218 30.1506H21.0151C20.7494 30.1506 20.5218 30.0975 20.2836 29.98L15.6878 27.7121C14.0297 26.9156 12.6602 28.9716 14.7028 30.1508ZM66.2981 49.8493L61.9452 47.1755C61.468 46.8824 60.9869 46.7555 60.4276 46.7269L55.6342 46.1825C55.016 46.1509 54.4948 45.9191 54.057 45.4814L51.3489 42.7732C50.845 44.7503 49.8148 46.5172 48.4163 47.9157C47.0179 49.3143 45.2509 50.3444 43.2736 50.8484L45.9819 53.5567C46.4196 53.9944 46.6514 54.5157 46.683 55.1338L47.2274 59.9272C47.2561 60.4865 47.3829 60.9676 47.676 61.4448L50.3498 65.7976C51.529 67.8402 53.585 66.4709 52.7885 64.8127L50.5206 60.2169C50.403 59.9787 50.35 59.7511 50.35 59.4854V56.1787C50.35 55.7235 50.5122 55.3317 50.8341 55.0098L53.1722 52.6717L55.5103 50.3336C55.8322 50.0117 56.224 49.8494 56.6792 49.8494H59.9859C60.2516 49.8494 60.4792 49.9025 60.7174 50.02L65.3131 52.2879C66.9713 53.0844 68.3406 51.0286 66.2981 49.8493ZM32.5846 47.9159C31.1861 46.5173 30.156 44.7504 29.652 42.7732L26.9437 45.4814C26.5061 45.9191 25.9848 46.1508 25.3667 46.1825L20.5733 46.7269C20.014 46.7556 19.5329 46.8824 19.0557 47.1755L14.7029 49.8493C12.6603 51.0286 14.0296 53.0845 15.6878 52.288L20.2836 50.0201C20.5218 49.9025 20.7494 49.8495 21.0151 49.8495H24.3218C24.777 49.8495 25.1688 50.0117 25.4907 50.3336L27.8288 52.6717L30.1669 55.0098C30.4888 55.3317 30.6511 55.7235 30.6511 56.1787V59.4854C30.6511 59.7511 30.598 59.9787 30.4804 60.2169L28.2125 64.8127C27.416 66.4708 29.4719 67.8402 30.6512 65.7976L33.325 61.4448C33.6181 60.9676 33.745 60.4865 33.7735 59.9272L34.318 55.1338C34.3496 54.5157 34.5814 53.9944 35.0191 53.5567L37.7272 50.8484C35.7501 50.3445 33.9832 49.3144 32.5846 47.9159ZM24.0814 27.1149C26.4695 27.5526 28.0965 25.8025 27.59 23.4547C27.0532 20.966 24.204 18.8151 21.7597 21.2594C19.2741 23.745 21.5403 26.6493 24.0814 27.1149ZM36.3989 19.2475C36.4463 19.2475 36.4938 19.2432 36.5413 19.2343C39.1509 18.7399 41.8659 18.7419 44.4597 19.2327C44.8762 19.3118 45.2768 19.0387 45.3559 18.6233C45.435 18.2079 45.1609 17.8072 44.7444 17.728C41.9661 17.2019 39.0508 17.1997 36.2566 17.7297C35.8401 17.8082 35.566 18.2088 35.6451 18.6244C35.7189 18.9913 36.0352 19.2475 36.399 19.2475H36.3989ZM61.8781 44.8531C61.9256 44.8616 61.9729 44.8663 62.0204 44.8663C62.3789 44.8663 62.7005 44.6101 62.7691 44.2426C63.0327 42.8514 63.1697 41.4231 63.1697 39.9986C63.1697 38.5741 63.0327 37.1502 62.7691 35.7548C62.69 35.3394 62.2894 35.0657 61.8729 35.1448C61.4617 35.2239 61.1875 35.624 61.2666 36.0399C61.5091 37.3416 61.6356 38.6732 61.6356 39.9986C61.6356 41.324 61.5143 42.66 61.2666 43.9583C61.1875 44.3737 61.4617 44.7739 61.8781 44.8529V44.8531ZM19.1228 35.145C18.7115 35.0665 18.3056 35.3396 18.2318 35.755C17.9682 37.1473 17.8312 38.5749 17.8312 39.9989C17.8312 41.4228 17.9682 42.8468 18.2318 44.2428C18.3004 44.6103 18.6219 44.8665 18.9805 44.8665C19.0279 44.8665 19.0754 44.8618 19.1228 44.8534C19.5393 44.7743 19.8134 44.3742 19.7343 43.9588C19.4865 42.6561 19.3653 41.3238 19.3653 39.9991C19.3653 38.6743 19.4865 37.3389 19.7343 36.0399C19.8134 35.6245 19.5393 35.2243 19.1228 35.1452V35.145ZM44.4596 60.7639C41.8553 61.2579 39.1349 61.2558 36.5412 60.765C36.1247 60.6859 35.724 60.9596 35.645 61.375C35.5659 61.791 35.84 62.191 36.2565 62.2702C37.6483 62.5338 39.0769 62.6673 40.5003 62.6673C41.9237 62.6673 43.3471 62.5328 44.7443 62.2692C45.1608 62.1902 45.4349 61.789 45.3558 61.3741C45.2767 60.9587 44.8761 60.6851 44.4596 60.7641V60.7639ZM41.266 30.6221V34.1874C42.207 34.1145 43.1074 33.9078 43.9482 33.5867C43.8693 33.4163 43.7873 33.2512 43.7023 33.0919C43.0285 31.8283 42.1836 30.9436 41.266 30.6221ZM45.3251 47.0694C45.2362 47.2608 45.1438 47.4465 45.0481 47.6261C44.795 48.1007 44.5178 48.5345 44.2193 48.922C44.969 48.6092 45.6708 48.2046 46.3108 47.7224C45.9964 47.4854 45.6673 47.2672 45.3252 47.0694H45.3251ZM41.266 49.3781C42.1836 49.0567 43.0285 48.1719 43.7023 46.9083C43.7873 46.7489 43.8692 46.5839 43.9482 46.4135C43.1074 46.0924 42.207 45.8857 41.266 45.8128V49.3782V49.3781ZM45.1991 40.7657H41.266V44.2779C42.3934 44.3547 43.4781 44.5998 44.495 44.9885C44.8877 43.7395 45.1366 42.305 45.1991 40.7657ZM41.266 39.2344H45.1991C45.1366 37.6951 44.8877 36.2605 44.4949 35.0116C43.478 35.4003 42.3933 35.6454 41.2658 35.7222V39.2344H41.266ZM50.1339 40.7657H46.7312C46.6638 42.5361 46.3645 44.194 45.8893 45.6346C46.4486 45.9421 46.9783 46.2957 47.4734 46.6903C48.9743 45.1264 49.9542 43.0584 50.1339 40.7657ZM45.3251 32.9307C45.6672 32.733 45.9963 32.5148 46.3105 32.2777C45.6706 31.7955 44.9687 31.391 44.2191 31.0782C44.5176 31.4657 44.7949 31.8995 45.048 32.3741C45.1437 32.5537 45.2362 32.7393 45.325 32.9307H45.3251ZM35.9525 47.626C35.8568 47.4464 35.7644 47.2607 35.6756 47.0693C35.3335 47.267 35.0045 47.4852 34.6901 47.7223C35.3301 48.2045 36.0318 48.609 36.7815 48.9218C36.483 48.5343 36.2056 48.1005 35.9526 47.6259L35.9525 47.626ZM33.5272 46.6903C34.0224 46.2957 34.5521 45.9421 35.1113 45.6346C34.6361 44.194 34.3368 42.5361 34.2695 40.7657H30.8668C31.0465 43.0584 32.0264 45.1264 33.5272 46.6903ZM47.4733 33.3098C46.9782 33.7043 46.4485 34.058 45.8892 34.3655C46.3645 35.8061 46.6637 37.464 46.7311 39.2344H50.1338C49.954 36.9416 48.9742 34.8738 47.4733 33.3098ZM39.7347 30.6221C38.8172 30.9436 37.9721 31.8283 37.2984 33.0919C37.2134 33.2513 37.1315 33.4163 37.0525 33.5867C37.8933 33.9079 38.7936 34.1145 39.7346 34.1874L39.7347 30.6221ZM39.7347 35.7222C38.6074 35.6454 37.5226 35.4003 36.5057 35.0116C36.113 36.2606 35.864 37.6951 35.8016 39.2344H39.7347V35.7222ZM35.9525 32.3741C36.2056 31.8995 36.483 31.4657 36.7814 31.0782C36.0317 31.391 35.33 31.7955 34.69 32.2777C35.0043 32.5148 35.3333 32.733 35.6755 32.9307C35.7644 32.7393 35.8567 32.5537 35.9524 32.3741H35.9525ZM39.7347 40.7657H35.8016C35.864 42.305 36.113 43.7395 36.5057 44.9885C37.5227 44.5998 38.6074 44.3547 39.7347 44.2779V40.7657ZM39.7347 49.3781V45.8128C38.7936 45.8857 37.8934 46.0924 37.0526 46.4135C37.1315 46.5839 37.2135 46.749 37.2985 46.9083C37.9722 48.1719 38.8172 49.0566 39.7348 49.3781H39.7347ZM30.8668 39.2344H34.2695C34.3368 37.464 34.6361 35.8061 35.1113 34.3655C34.5521 34.058 34.0224 33.7043 33.5272 33.3098C32.0263 34.8738 31.0464 36.9417 30.8668 39.2344Z"/>
</mask>
<path d="M53.3856 23.581C53.8513 21.0399 56.7555 18.7738 59.2412 21.2593C61.6855 23.7036 59.5345 26.5528 57.0459 27.0897C54.698 27.5962 52.948 25.969 53.3857 23.581H53.3856ZM56.9195 52.8852C54.5314 52.4475 52.9043 54.1975 53.4108 56.5454C53.9477 59.034 56.7969 61.185 59.2412 58.7407C61.7267 56.2552 59.4606 53.3508 56.9195 52.8852ZM23.9551 52.9105C21.4665 53.4474 19.3155 56.2965 21.7598 58.7408C24.2453 61.2264 27.1497 58.9602 27.6153 56.4191C28.053 54.031 26.3029 52.4039 23.9551 52.9105ZM48.4162 32.0843C49.8148 33.4828 50.8449 35.2498 51.3488 37.2269L54.0569 34.5186C54.4946 34.0809 55.0159 33.8492 55.6341 33.8175L60.4275 33.2731C60.9868 33.2444 61.4678 33.1176 61.945 32.8245L66.2978 30.1507C68.3404 28.9715 66.9712 26.9155 65.3129 27.712L60.7172 29.9799C60.479 30.0975 60.2514 30.1505 59.9857 30.1505H56.679C56.2238 30.1505 55.832 29.9883 55.5101 29.6664L53.172 27.3283L50.8339 24.9902C50.512 24.6683 50.3497 24.2765 50.3497 23.8213V20.5146C50.3497 20.2489 50.4028 20.0213 50.5204 19.7831L52.7883 15.1874C53.5846 13.5292 51.5288 12.1599 50.3495 14.2024L47.6758 18.5552C47.3826 19.0324 47.2558 19.5135 47.2272 20.0728L46.6827 24.8662C46.6511 25.4844 46.4194 26.0056 45.9817 26.4434L43.2734 29.1516C45.2506 29.6555 47.0177 30.6857 48.4162 32.0843ZM14.7028 30.1508L19.0556 32.8246C19.5328 33.1177 20.0138 33.2446 20.5732 33.2732L25.3665 33.8176C25.9847 33.8492 26.506 34.081 26.9437 34.5187L29.652 37.227C30.1559 35.2498 31.1861 33.4828 32.5846 32.0843C33.9831 30.6858 35.7501 29.6556 37.7272 29.1516L35.0191 26.4434C34.5814 26.0056 34.3496 25.4844 34.318 24.8662L33.7735 20.0728C33.7449 19.5135 33.6181 19.0324 33.325 18.5552L30.6512 14.2024C29.4719 12.1599 27.416 13.5291 28.2125 15.1874L30.4804 19.7831C30.598 20.0213 30.651 20.2489 30.651 20.5146V23.8213C30.651 24.2765 30.4888 24.6683 30.1669 24.9902L27.8288 27.3283L25.4907 29.6664C25.1688 29.9883 24.777 30.1506 24.3218 30.1506H21.0151C20.7494 30.1506 20.5218 30.0975 20.2836 29.98L15.6878 27.7121C14.0297 26.9156 12.6602 28.9716 14.7028 30.1508ZM66.2981 49.8493L61.9452 47.1755C61.468 46.8824 60.9869 46.7555 60.4276 46.7269L55.6342 46.1825C55.016 46.1509 54.4948 45.9191 54.057 45.4814L51.3489 42.7732C50.845 44.7503 49.8148 46.5172 48.4163 47.9157C47.0179 49.3143 45.2509 50.3444 43.2736 50.8484L45.9819 53.5567C46.4196 53.9944 46.6514 54.5157 46.683 55.1338L47.2274 59.9272C47.2561 60.4865 47.3829 60.9676 47.676 61.4448L50.3498 65.7976C51.529 67.8402 53.585 66.4709 52.7885 64.8127L50.5206 60.2169C50.403 59.9787 50.35 59.7511 50.35 59.4854V56.1787C50.35 55.7235 50.5122 55.3317 50.8341 55.0098L53.1722 52.6717L55.5103 50.3336C55.8322 50.0117 56.224 49.8494 56.6792 49.8494H59.9859C60.2516 49.8494 60.4792 49.9025 60.7174 50.02L65.3131 52.2879C66.9713 53.0844 68.3406 51.0286 66.2981 49.8493ZM32.5846 47.9159C31.1861 46.5173 30.156 44.7504 29.652 42.7732L26.9437 45.4814C26.5061 45.9191 25.9848 46.1508 25.3667 46.1825L20.5733 46.7269C20.014 46.7556 19.5329 46.8824 19.0557 47.1755L14.7029 49.8493C12.6603 51.0286 14.0296 53.0845 15.6878 52.288L20.2836 50.0201C20.5218 49.9025 20.7494 49.8495 21.0151 49.8495H24.3218C24.777 49.8495 25.1688 50.0117 25.4907 50.3336L27.8288 52.6717L30.1669 55.0098C30.4888 55.3317 30.6511 55.7235 30.6511 56.1787V59.4854C30.6511 59.7511 30.598 59.9787 30.4804 60.2169L28.2125 64.8127C27.416 66.4708 29.4719 67.8402 30.6512 65.7976L33.325 61.4448C33.6181 60.9676 33.745 60.4865 33.7735 59.9272L34.318 55.1338C34.3496 54.5157 34.5814 53.9944 35.0191 53.5567L37.7272 50.8484C35.7501 50.3445 33.9832 49.3144 32.5846 47.9159ZM24.0814 27.1149C26.4695 27.5526 28.0965 25.8025 27.59 23.4547C27.0532 20.966 24.204 18.8151 21.7597 21.2594C19.2741 23.745 21.5403 26.6493 24.0814 27.1149ZM36.3989 19.2475C36.4463 19.2475 36.4938 19.2432 36.5413 19.2343C39.1509 18.7399 41.8659 18.7419 44.4597 19.2327C44.8762 19.3118 45.2768 19.0387 45.3559 18.6233C45.435 18.2079 45.1609 17.8072 44.7444 17.728C41.9661 17.2019 39.0508 17.1997 36.2566 17.7297C35.8401 17.8082 35.566 18.2088 35.6451 18.6244C35.7189 18.9913 36.0352 19.2475 36.399 19.2475H36.3989ZM61.8781 44.8531C61.9256 44.8616 61.9729 44.8663 62.0204 44.8663C62.3789 44.8663 62.7005 44.6101 62.7691 44.2426C63.0327 42.8514 63.1697 41.4231 63.1697 39.9986C63.1697 38.5741 63.0327 37.1502 62.7691 35.7548C62.69 35.3394 62.2894 35.0657 61.8729 35.1448C61.4617 35.2239 61.1875 35.624 61.2666 36.0399C61.5091 37.3416 61.6356 38.6732 61.6356 39.9986C61.6356 41.324 61.5143 42.66 61.2666 43.9583C61.1875 44.3737 61.4617 44.7739 61.8781 44.8529V44.8531ZM19.1228 35.145C18.7115 35.0665 18.3056 35.3396 18.2318 35.755C17.9682 37.1473 17.8312 38.5749 17.8312 39.9989C17.8312 41.4228 17.9682 42.8468 18.2318 44.2428C18.3004 44.6103 18.6219 44.8665 18.9805 44.8665C19.0279 44.8665 19.0754 44.8618 19.1228 44.8534C19.5393 44.7743 19.8134 44.3742 19.7343 43.9588C19.4865 42.6561 19.3653 41.3238 19.3653 39.9991C19.3653 38.6743 19.4865 37.3389 19.7343 36.0399C19.8134 35.6245 19.5393 35.2243 19.1228 35.1452V35.145ZM44.4596 60.7639C41.8553 61.2579 39.1349 61.2558 36.5412 60.765C36.1247 60.6859 35.724 60.9596 35.645 61.375C35.5659 61.791 35.84 62.191 36.2565 62.2702C37.6483 62.5338 39.0769 62.6673 40.5003 62.6673C41.9237 62.6673 43.3471 62.5328 44.7443 62.2692C45.1608 62.1902 45.4349 61.789 45.3558 61.3741C45.2767 60.9587 44.8761 60.6851 44.4596 60.7641V60.7639ZM41.266 30.6221V34.1874C42.207 34.1145 43.1074 33.9078 43.9482 33.5867C43.8693 33.4163 43.7873 33.2512 43.7023 33.0919C43.0285 31.8283 42.1836 30.9436 41.266 30.6221ZM45.3251 47.0694C45.2362 47.2608 45.1438 47.4465 45.0481 47.6261C44.795 48.1007 44.5178 48.5345 44.2193 48.922C44.969 48.6092 45.6708 48.2046 46.3108 47.7224C45.9964 47.4854 45.6673 47.2672 45.3252 47.0694H45.3251ZM41.266 49.3781C42.1836 49.0567 43.0285 48.1719 43.7023 46.9083C43.7873 46.7489 43.8692 46.5839 43.9482 46.4135C43.1074 46.0924 42.207 45.8857 41.266 45.8128V49.3782V49.3781ZM45.1991 40.7657H41.266V44.2779C42.3934 44.3547 43.4781 44.5998 44.495 44.9885C44.8877 43.7395 45.1366 42.305 45.1991 40.7657ZM41.266 39.2344H45.1991C45.1366 37.6951 44.8877 36.2605 44.4949 35.0116C43.478 35.4003 42.3933 35.6454 41.2658 35.7222V39.2344H41.266ZM50.1339 40.7657H46.7312C46.6638 42.5361 46.3645 44.194 45.8893 45.6346C46.4486 45.9421 46.9783 46.2957 47.4734 46.6903C48.9743 45.1264 49.9542 43.0584 50.1339 40.7657ZM45.3251 32.9307C45.6672 32.733 45.9963 32.5148 46.3105 32.2777C45.6706 31.7955 44.9687 31.391 44.2191 31.0782C44.5176 31.4657 44.7949 31.8995 45.048 32.3741C45.1437 32.5537 45.2362 32.7393 45.325 32.9307H45.3251ZM35.9525 47.626C35.8568 47.4464 35.7644 47.2607 35.6756 47.0693C35.3335 47.267 35.0045 47.4852 34.6901 47.7223C35.3301 48.2045 36.0318 48.609 36.7815 48.9218C36.483 48.5343 36.2056 48.1005 35.9526 47.6259L35.9525 47.626ZM33.5272 46.6903C34.0224 46.2957 34.5521 45.9421 35.1113 45.6346C34.6361 44.194 34.3368 42.5361 34.2695 40.7657H30.8668C31.0465 43.0584 32.0264 45.1264 33.5272 46.6903ZM47.4733 33.3098C46.9782 33.7043 46.4485 34.058 45.8892 34.3655C46.3645 35.8061 46.6637 37.464 46.7311 39.2344H50.1338C49.954 36.9416 48.9742 34.8738 47.4733 33.3098ZM39.7347 30.6221C38.8172 30.9436 37.9721 31.8283 37.2984 33.0919C37.2134 33.2513 37.1315 33.4163 37.0525 33.5867C37.8933 33.9079 38.7936 34.1145 39.7346 34.1874L39.7347 30.6221ZM39.7347 35.7222C38.6074 35.6454 37.5226 35.4003 36.5057 35.0116C36.113 36.2606 35.864 37.6951 35.8016 39.2344H39.7347V35.7222ZM35.9525 32.3741C36.2056 31.8995 36.483 31.4657 36.7814 31.0782C36.0317 31.391 35.33 31.7955 34.69 32.2777C35.0043 32.5148 35.3333 32.733 35.6755 32.9307C35.7644 32.7393 35.8567 32.5537 35.9524 32.3741H35.9525ZM39.7347 40.7657H35.8016C35.864 42.305 36.113 43.7395 36.5057 44.9885C37.5227 44.5998 38.6074 44.3547 39.7347 44.2779V40.7657ZM39.7347 49.3781V45.8128C38.7936 45.8857 37.8934 46.0924 37.0526 46.4135C37.1315 46.5839 37.2135 46.749 37.2985 46.9083C37.9722 48.1719 38.8172 49.0566 39.7348 49.3781H39.7347ZM30.8668 39.2344H34.2695C34.3368 37.464 34.6361 35.8061 35.1113 34.3655C34.5521 34.058 34.0224 33.7043 33.5272 33.3098C32.0263 34.8738 31.0464 36.9417 30.8668 39.2344Z" fill="#24DEEC" stroke="#0A9AB0" stroke-width="2" mask="url(#path-2-inside-1_2537_2417)"/>
</svg>
