<svg width="81" height="80" viewBox="0 0 81 80" fill="none" xmlns="http://www.w3.org/2000/svg">
<rect x="0.5" width="80" height="80" rx="40" fill="white"/>
<path d="M59.0156 41.46C58.422 44.2871 55.2633 46.3178 48.9465 50.3787C42.076 54.7957 38.6407 57.0042 35.8582 56.1533C34.9158 55.8651 34.0478 55.3585 33.319 54.6709C31.167 52.6414 31.167 48.4274 31.167 39.9998C31.167 31.5722 31.167 27.3584 33.319 25.3287C34.0478 24.6412 34.9158 24.1345 35.8582 23.8463C38.6407 22.9955 42.076 25.2039 48.9465 29.6208C55.2633 33.6819 58.422 35.7126 59.0156 38.5396C59.2174 39.5017 59.2174 40.498 59.0156 41.46Z" fill="#24DEEC" stroke="#0A9AB0" stroke-width="1.5" stroke-linejoin="round"/>
<path d="M21.833 23.6665V56.3332" stroke="#0A9AB0" stroke-width="2" stroke-linecap="round"/>
</svg>
