<svg width="81" height="80" viewBox="0 0 81 80" fill="none" xmlns="http://www.w3.org/2000/svg">
<rect x="0.5" width="80" height="80" rx="40" fill="white"/>
<path d="M54.1659 58.2221V50.4443C56.6096 50.4443 57.99 50.4443 58.4839 49.3903C58.9778 48.3365 58.4315 46.8949 57.3384 44.0123L54.5441 36.6418C53.6205 34.2055 51.7323 32.6665 49.667 32.6665C47.6017 32.6665 45.7135 34.2055 44.7899 36.6418L41.9956 44.0123C40.9025 46.8949 40.3562 48.3365 40.8501 49.3903C41.344 50.4443 42.7219 50.4443 45.1658 50.4443V58.2221C45.1658 60.3172 45.1658 61.3647 45.8249 62.0156C46.4839 62.6665 47.5446 62.6665 49.6659 62.6665C51.7872 62.6665 52.8478 62.6665 53.5069 62.0156C54.1659 61.3647 54.1659 60.3172 54.1659 58.2221Z" fill="#24DEEC" stroke="#0A9AB0" stroke-width="1.5" stroke-linejoin="round"/>
<path d="M35.5003 21.3334C35.5003 23.9107 33.411 26.0001 30.8337 26.0001C28.2563 26.0001 26.167 23.9107 26.167 21.3334C26.167 18.7561 28.2563 16.6667 30.8337 16.6667C33.411 16.6667 35.5003 18.7561 35.5003 21.3334Z" fill="#24DEEC" stroke="#0A9AB0" stroke-width="1.5" stroke-linecap="round" stroke-linejoin="round"/>
<path d="M54.667 23.1665C54.667 25.6518 52.6523 27.6665 50.167 27.6665C47.6816 27.6665 45.667 25.6518 45.667 23.1665C45.667 20.6812 47.6816 18.6665 50.167 18.6665C52.6523 18.6665 54.667 20.6812 54.667 23.1665Z" fill="#24DEEC" stroke="#0A9AB0" stroke-width="1.5" stroke-linecap="round" stroke-linejoin="round"/>
<path d="M40.1667 41.1666C40.1667 36.7669 40.1667 34.5669 38.7998 33.2001C37.433 31.8333 35.2331 31.8333 30.8333 31.8333C26.4336 31.8333 24.2337 31.8333 22.8668 33.2001C21.5 34.5669 21.5 36.7669 21.5 41.1666V45.8333C21.5 48.0331 21.5 49.1331 22.1834 49.8165C22.8668 50.4999 23.9668 50.4999 26.1667 50.4999V58.6666C26.1667 60.8665 26.1667 61.9664 26.8501 62.6498C27.5335 63.3333 28.6334 63.3333 30.8333 63.3333C33.0332 63.3333 34.1332 63.3333 34.8166 62.6498C35.5 61.9664 35.5 60.8665 35.5 58.6666V50.4999C37.6999 50.4999 38.7998 50.4999 39.4832 49.8165C40.1667 49.1331 40.1667 48.0331 40.1667 45.8333V41.1666Z" fill="#24DEEC" stroke="#0A9AB0" stroke-width="1.5" stroke-linejoin="round"/>
<path d="M38.6665 62.0741V58.7037C39.7526 58.7037 40.3661 58.7037 40.5856 58.247C40.8051 57.7903 40.5623 57.1657 40.0765 55.9165L38.8346 52.7226C38.4241 51.6669 37.5849 51 36.667 51C35.7491 51 34.9099 51.6669 34.4994 52.7226L33.2575 55.9165C32.7717 57.1657 32.5289 57.7903 32.7484 58.247C32.9679 58.7037 33.5803 58.7037 34.6665 58.7037V62.0741C34.6665 62.982 34.6665 63.4359 34.9594 63.7179C35.2523 64 35.7237 64 36.6665 64C37.6093 64 38.0807 64 38.3736 63.7179C38.6665 63.4359 38.6665 62.982 38.6665 62.0741Z" fill="#68F0F8" stroke="#0A9AB0" stroke-linejoin="round"/>
<path d="M38.667 47C38.667 48.1046 37.7716 49 36.667 49C35.5624 49 34.667 48.1046 34.667 47C34.667 45.8954 35.5624 45 36.667 45C37.7716 45 38.667 45.8954 38.667 47Z" fill="#68F0F8" stroke="#0A9AB0" stroke-linecap="round" stroke-linejoin="round"/>
<path d="M46.667 46C46.667 47.1046 45.7716 48 44.667 48C43.5624 48 42.667 47.1046 42.667 46C42.667 44.8954 43.5624 44 44.667 44C45.7716 44 46.667 44.8954 46.667 46Z" fill="#68F0F8" stroke="#0A9AB0" stroke-linecap="round" stroke-linejoin="round"/>
<path d="M48.667 53.9814C48.667 52.026 48.667 51.0482 48.0812 50.4407C47.4954 49.8333 46.5526 49.8333 44.667 49.8333C42.7814 49.8333 41.8386 49.8333 41.2528 50.4407C40.667 51.0482 40.667 52.026 40.667 53.9814V56.0555C40.667 57.0332 40.667 57.5221 40.9599 57.8258C41.2528 58.1295 41.7242 58.1295 42.667 58.1295V61.7592C42.667 62.7369 42.667 63.2258 42.9599 63.5295C43.2528 63.8333 43.7242 63.8333 44.667 63.8333C45.6098 63.8333 46.0812 63.8333 46.3741 63.5295C46.667 63.2258 46.667 62.7369 46.667 61.7592V58.1295C47.6098 58.1295 48.0812 58.1295 48.3741 57.8258C48.667 57.5221 48.667 57.0332 48.667 56.0555V53.9814Z" fill="#68F0F8" stroke="#0A9AB0" stroke-linejoin="round"/>
</svg>
