<svg width="81" height="80" viewBox="0 0 81 80" fill="none" xmlns="http://www.w3.org/2000/svg">
<rect x="0.5" width="80" height="80" rx="40" fill="white"/>
<path d="M59.7716 45.5669C61.0463 49.3828 59.1339 53.5616 55.5 54.9002" stroke="#0A9AB0" stroke-width="1.5" stroke-linecap="round"/>
<path d="M63.7405 43.7336C65.6526 49.8664 62.784 56.5823 57.333 58.7336" stroke="#0A9AB0" stroke-width="1.5" stroke-linecap="round"/>
<path d="M32.0416 25.2029L26.5416 39.2029C23.042 28.2027 16.9383 32.9788 17.5416 37.2027C18.5416 44.2027 22.725 53.4852 24.5416 55.2028C27.5 58 35.0416 59.7028 39.5416 60.7028C50.0416 61.7028 52.8749 45.3694 56.5416 37.2027C58.0416 34.2027 56.5416 28.7027 51.5416 31.2028C53.0416 27.7027 52 22.067 46.5416 25.2029C49.5 19.0669 41.5416 15.7028 39.5416 23.7029C39.0416 20.2028 34.5416 18.2028 32.0416 25.2029Z" fill="#24DEEC"/>
<path d="M39.5416 23.7029C39.0416 20.2028 34.5416 18.2028 32.0416 25.2029L26.5416 39.2029C23.042 28.2027 16.9383 32.9788 17.5416 37.2027C18.5416 44.2027 22.725 53.4852 24.5416 55.2028C27.5 58 35.0416 59.7028 39.5416 60.7028C50.0416 61.7028 52.8749 45.3694 56.5416 37.2027C58.0416 34.2027 56.5416 28.7027 51.5416 31.2028M39.5416 23.7029L36.0416 34.2028M39.5416 23.7029C41.5416 15.7028 49.5 19.0669 46.5416 25.2029M46.5416 25.2029L42.0416 36.7028M46.5416 25.2029C52 22.067 53.0416 27.7027 51.5416 31.2028M51.5416 31.2028L48.5416 38.7027" stroke="#0A9AB0" stroke-linecap="round"/>
</svg>
