<svg width="81" height="80" viewBox="0 0 81 80" fill="none" xmlns="http://www.w3.org/2000/svg">
<rect x="0.5" width="80" height="80" rx="40" fill="white"/>
<path d="M57.9131 21.3182C51.6558 17.4801 46.1946 19.0268 42.9139 21.4906C41.5685 22.5008 40.8961 23.0059 40.5003 23.0059C40.1046 23.0059 39.4321 22.5008 38.0867 21.4906C34.8061 19.0268 29.3449 17.4801 23.0877 21.3182C14.8758 26.3554 13.0177 42.9731 31.9592 56.993C35.567 59.6635 37.3709 60.9986 40.5003 60.9986C43.6298 60.9986 45.4337 59.6635 49.0415 56.993C67.983 42.9731 66.1248 26.3554 57.9131 21.3182Z" fill="#24DEEC" stroke="#0A9AB0" stroke-width="1.5" stroke-linecap="round"/>
<path d="M40.5 33V47M33.5 40H47.5" stroke="#F9FAFB" stroke-width="2" stroke-linecap="round"/>
</svg>
