<svg width="81" height="80" viewBox="0 0 81 80" fill="none" xmlns="http://www.w3.org/2000/svg">
<rect x="0.5" width="80" height="80" rx="40" fill="white"/>
<path d="M23 49.0838H16.5V28.5838H23C25.1667 28.7505 30.4267 29.5149 31.5 28.0838C34.5 24.0838 38.5 22.5838 43 25.5838L56.5 47.0838C54 49.5837 48 56.5837 44.5 56.0837C42.5 56.0837 35 51.5789 31.5 49.3265L23 49.0838Z" fill="#24DEEC"/>
<path d="M23 28.5838V49.0838M23 28.5838H16.5V49.0838H23M23 28.5838C25.1667 28.7505 30.4267 29.5149 31.5 28.0838C34.5 24.0838 38.5 22.5838 43 25.5838L56.5 47.0838C54 49.5837 48 56.5837 44.5 56.0837C42.5 56.0837 35 51.5789 31.5 49.3265L23 49.0838" stroke="#0A9AB0" stroke-linecap="round"/>
<path d="M65.4548 29.1103V49.1103H61.4548C59.6214 49.4436 55.4548 49.8103 53.4548 48.6103C51.4548 47.4103 45.2881 39.1103 42.4548 35.1103C35.955 41.1103 29.5481 36.9841 33.9548 31.1103C35.4551 29.1105 39.4551 24.1103 41.455 24.1103C42.9549 24.1101 47.0549 23.5103 49.4549 25.1103C50.7883 26.4436 53.6551 29.1104 54.4551 29.1104L61.4548 29.1103H65.4548Z" fill="#24DEEC"/>
<path d="M61.4548 49.1103H65.4548V29.1103H61.4548M61.4548 49.1103V29.1103M61.4548 49.1103C59.6214 49.4436 55.4548 49.8103 53.4548 48.6103C51.4548 47.4103 45.2881 39.1103 42.4548 35.1103C35.955 41.1103 29.5481 36.9841 33.9548 31.1103C35.4551 29.1105 39.4551 24.1103 41.455 24.1103C42.9549 24.1101 47.0549 23.5103 49.4549 25.1103C50.7883 26.4436 53.6551 29.1104 54.4551 29.1104C55.2551 29.1104 59.4549 29.1103 61.4548 29.1103" stroke="#0A9AB0" stroke-linecap="round"/>
</svg>
