<svg width="81" height="80" viewBox="0 0 81 80" fill="none" xmlns="http://www.w3.org/2000/svg">
<rect x="0.5" width="80" height="80" rx="40" fill="white"/>
<path d="M55.5 24.4998C46.7352 23.7187 23.333 23.287 20.2337 26.0207C17.5 28.7544 17.5 33.1542 17.5 41.9537C17.5 50.7531 17.5 55.1531 20.2337 57.8866C22.9674 60.6203 27.3671 60.6203 36.1667 60.6203H45.5C54.2995 60.6203 58.6994 60.6203 61.4329 57.8866C64.1667 55.1531 64.1667 50.7531 64.1667 41.9537C64.1667 39.2241 64.0817 30.4642 64 28.4998" fill="#24DEEC"/>
<path d="M55.5 24.4998C46.7352 23.7187 23.333 23.287 20.2337 26.0207C17.5 28.7544 17.5 33.1542 17.5 41.9537C17.5 50.7531 17.5 55.1531 20.2337 57.8866C22.9673 60.6203 27.3671 60.6203 36.1667 60.6203H45.5C54.2995 60.6203 58.6994 60.6203 61.4329 57.8866C64.1667 55.1531 64.1667 50.7531 64.1667 41.9537C64.1667 39.2241 64.0817 30.4642 64 28.4998" stroke="#0A9AB0" stroke-width="1.5" stroke-linecap="round" stroke-linejoin="round"/>
<path d="M59 19L59.5527 20.4936C60.2774 22.4522 60.6399 23.4315 61.3542 24.1458C62.0686 24.8602 63.0477 25.2226 65.0064 25.9473L66.5 26.5L65.0064 27.0527C63.0477 27.7774 62.0686 28.1398 61.3542 28.8542C60.6399 29.5685 60.2774 30.5478 59.5527 32.5064L59 34L58.4473 32.5064C57.7226 30.5478 57.3601 29.5685 56.6458 28.8542C55.9314 28.1398 54.9523 27.7774 52.9936 27.0527L51.5 26.5L52.9936 25.9473C54.9523 25.2226 55.9314 24.8602 56.6458 24.1458C57.3601 23.4315 57.7226 22.4522 58.4473 20.4936L59 19Z" fill="#F9FAFB" stroke="#0A9AB0" stroke-width="1.5" stroke-linejoin="round"/>
<path d="M28.5 38.8267C35 37.8267 50.3 37.6267 55.5 38.8267" stroke="#0A9AB0" stroke-linecap="round"/>
<path d="M28.5 41.8267C35 40.8267 50.3 40.6267 55.5 41.8267" stroke="#0A9AB0" stroke-linecap="round"/>
<path d="M47.5 49.9999C49.5 49.5 53 49.5 55.5 49.9999" stroke="#0A9AB0" stroke-linecap="round"/>
</svg>
