<svg width="81" height="80" viewBox="0 0 81 80" fill="none" xmlns="http://www.w3.org/2000/svg">
<rect x="0.5" width="80" height="80" rx="40" fill="white"/>
<path d="M63.8337 38.9888C63.8337 51.3163 53.3855 61.3111 40.5003 61.3111C38.9853 61.3132 37.4745 61.173 35.9863 60.8937C34.9151 60.6923 34.3795 60.5917 34.0056 60.6489C33.6316 60.7061 33.1017 60.9877 32.042 61.5514C29.044 63.1458 25.5482 63.7088 22.1862 63.0835C23.4641 61.5118 24.3367 59.626 24.7218 57.6044C24.9551 56.3677 24.377 55.1665 23.5111 54.2871C19.5781 50.2933 17.167 44.9117 17.167 38.9888C17.167 26.6615 27.6151 16.6665 40.5003 16.6665C53.3855 16.6665 63.8337 26.6615 63.8337 38.9888Z" fill="#24DEEC" stroke="#0A9AB0" stroke-width="1.5" stroke-linejoin="round"/>
<path d="M40.4898 40H40.5108M49.8127 40H49.8337M31.167 40H31.1879" stroke="#F9FAFB" stroke-width="3" stroke-linecap="round" stroke-linejoin="round"/>
</svg>
