<svg width="81" height="80" viewBox="0 0 81 80" fill="none" xmlns="http://www.w3.org/2000/svg">
<rect x="0.5" width="80" height="80" rx="40" fill="white"/>
<path d="M30.3562 23.1681L29.9419 24.4667C29.6025 25.5307 29.4327 26.0628 29.5632 26.4829C29.6689 26.8229 29.9007 27.1159 30.2166 27.3087C30.607 27.547 31.1977 27.547 32.3789 27.547H33.0074C37.0052 27.547 39.0042 27.547 39.9483 28.6956C40.0563 28.8268 40.1522 28.9664 40.2353 29.1128C40.9616 30.3938 40.1359 32.1195 38.4843 35.5709C36.9688 38.7382 36.211 40.3218 34.8039 41.254C34.6677 41.3441 34.5277 41.4292 34.3843 41.509C32.9031 42.3332 31.0677 42.3332 27.397 42.3332H26.6008C22.1537 42.3332 19.9301 42.3332 18.5485 41.034C17.167 39.7348 17.167 37.6436 17.167 33.4615V31.9915C17.167 29.7937 17.167 28.6948 17.5689 27.689C17.9707 26.6831 18.7402 25.8561 20.2792 24.2021L26.6436 17.3619C26.8032 17.1903 26.8831 17.1045 26.9534 17.0451C27.6103 16.4903 28.624 16.5527 29.1983 17.1834C29.2598 17.2509 29.327 17.3458 29.4615 17.5355C29.6718 17.8321 29.777 17.9805 29.8687 18.1275C30.6892 19.4432 30.9374 21.0062 30.5616 22.49C30.5196 22.6558 30.4651 22.8266 30.3562 23.1681Z" fill="#24DEEC" stroke="#0A9AB0" stroke-width="1.5" stroke-linecap="round" stroke-linejoin="round"/>
<path d="M50.6442 56.8316L51.0584 55.5331C51.3979 54.4688 51.5677 53.9368 51.4371 53.5168C51.3316 53.1769 51.0997 52.8838 50.7837 52.6911C50.3934 52.4526 49.8028 52.4526 48.6214 52.4526H47.9931C43.9951 52.4526 41.9962 52.4526 41.0521 51.3041C40.9441 51.1728 40.8482 51.0332 40.7651 50.8869C40.0387 49.6057 40.8645 47.8802 42.516 44.4287C44.0315 41.2615 44.7894 39.6778 46.1964 38.7457C46.3327 38.6556 46.4727 38.5704 46.6159 38.4906C48.0974 37.6665 49.9328 37.6665 53.6033 37.6665H54.3995C58.8468 37.6665 61.0702 37.6665 62.4518 38.9657C63.8334 40.2649 63.8334 42.356 63.8334 46.5383V48.0081C63.8334 50.2061 63.8334 51.3048 63.4316 52.3107C63.0295 53.3164 62.2602 54.1436 60.7212 55.7977L54.3568 62.6378C54.1972 62.8093 54.1174 62.8952 54.0469 62.9547C53.3901 63.5093 52.3762 63.447 51.802 62.8163C51.7406 62.7487 51.6732 62.6539 51.5388 62.4642C51.3286 62.1674 51.2233 62.0193 51.1316 61.8723C50.3112 60.5565 50.063 58.9934 50.4389 57.5096C50.4809 57.344 50.5352 57.1729 50.6442 56.8316Z" fill="#24DEEC" stroke="#0A9AB0" stroke-width="1.5" stroke-linecap="round" stroke-linejoin="round"/>
</svg>
