<svg width="81" height="80" viewBox="0 0 81 80" fill="none" xmlns="http://www.w3.org/2000/svg">
<rect x="0.5" width="80" height="80" rx="40" fill="white"/>
<path d="M36.1667 23.3227C35.9719 22.3198 35.6125 21.3318 35.0782 20.3973C33.8008 18.1631 31.7614 16.6502 29.4829 16C29.835 18.8615 28.5027 21.7903 25.8743 23.3227C23.2459 24.8551 20.068 24.5559 17.79 22.8172C17.2084 25.1349 17.4861 27.6749 18.7635 29.9092C20.9653 33.7602 25.4311 35.4684 29.4829 34.3088" fill="#24DEEC"/>
<path d="M36.1667 23.3227C35.9719 22.3198 35.6125 21.3318 35.0782 20.3973C33.8008 18.1631 31.7614 16.6502 29.4829 16C29.835 18.8615 28.5027 21.7903 25.8743 23.3227C23.2459 24.8551 20.068 24.5559 17.79 22.8172C17.2084 25.1349 17.4861 27.6749 18.7635 29.9092C20.9653 33.7602 25.4311 35.4684 29.4829 34.3088L36.1667 23.3227Z" stroke="#0A9AB0" stroke-linejoin="round"/>
<path d="M23.771 55.3484C35.2708 62.3484 49.4714 61.4484 58.271 55.8484C67.0707 50.2484 66.2715 38.3484 54.2713 35.8484C54.2713 19.8484 30.2715 15.8484 28.271 33.8484C18.271 33.8484 12.2713 48.3484 23.771 55.3484Z" fill="#24DEEC" stroke="#0A9AB0" stroke-linecap="round"/>
<path d="M40.8282 52.6606L40.8385 52.6788M50.1562 48L50.1667 48.0182M31.5 48L31.5105 48.0182M50.1562 57.3212L50.1667 57.3394M31.5 57.3212L31.5105 57.3394M40.8282 61.9818L40.8385 62" stroke="#CFFDFE" stroke-width="3" stroke-linecap="round" stroke-linejoin="round"/>
</svg>
