<svg width="81" height="80" viewBox="0 0 81 80" fill="none" xmlns="http://www.w3.org/2000/svg">
<rect x="0.5" width="80" height="80" rx="40" fill="white"/>
<path d="M31.1667 49.3332H48.1141C58.5852 49.3332 60.1777 42.755 62.109 33.161C62.6662 30.3938 62.9448 29.0101 62.2749 28.0883C61.605 27.1665 60.321 27.1665 57.7529 27.1665H26.5" fill="#24DEEC"/>
<path d="M31.1667 49.3332H48.1141C58.5852 49.3332 60.1777 42.755 62.109 33.161C62.6662 30.3938 62.9448 29.0101 62.2749 28.0883C61.605 27.1665 60.321 27.1665 57.7529 27.1665H26.5" stroke="#0A9AB0" stroke-width="1.5" stroke-linecap="round"/>
<path d="M31.1663 49.3332L25.05 20.2013C24.5307 18.1239 22.6641 16.6665 20.5227 16.6665H18.333" stroke="#0A9AB0" stroke-width="1.5" stroke-linecap="round"/>
<path d="M33.22 49.3335H32.26C29.0788 49.3335 26.5 52.0199 26.5 55.3334C26.5 55.8857 26.9298 56.3335 27.46 56.3335H53.3333" stroke="#0A9AB0" stroke-width="1.5" stroke-linecap="round" stroke-linejoin="round"/>
<path d="M37 63.3335C38.933 63.3335 40.5 61.7665 40.5 59.8335C40.5 57.9005 38.933 56.3335 37 56.3335C35.067 56.3335 33.5 57.9005 33.5 59.8335C33.5 61.7665 35.067 63.3335 37 63.3335Z" stroke="#0A9AB0" stroke-width="1.5"/>
<path d="M53.333 63.3335C55.266 63.3335 56.833 61.7665 56.833 59.8335C56.833 57.9005 55.266 56.3335 53.333 56.3335C51.4 56.3335 49.833 57.9005 49.833 59.8335C49.833 61.7665 51.4 63.3335 53.333 63.3335Z" stroke="#0A9AB0" stroke-width="1.5"/>
</svg>
