<svg width="81" height="80" viewBox="0 0 81 80" fill="none" xmlns="http://www.w3.org/2000/svg">
<rect x="0.5" width="80" height="80" rx="40" fill="white"/>
<path d="M20.6614 49.3693L21.8792 47H59.0545L60.339 49.3693C63.7058 55.5797 64.5444 58.6846 63.2646 61.0091C61.985 63.3333 58.5921 63.3333 51.8063 63.3333H29.1944C22.4086 63.3333 19.0157 63.3333 17.736 61.0091C16.4563 58.6846 17.2947 55.5797 20.6614 49.3693Z" fill="#24DEEC" stroke="#0A9AB0" stroke-width="1.5" stroke-linecap="round" stroke-linejoin="round"/>
<path d="M22 22.4999C18.5172 26.7567 21.9999 46.9998 21.9999 46.9998H59.4999V20.9998C59.4999 17.9999 26.5 16.9998 22 22.4999Z" fill="#24DEEC" stroke="#0A9AB0" stroke-width="1.5" stroke-linecap="round"/>
<path d="M55.8333 16C60.2331 16 62.4329 16 63.7998 17.3668C65.1667 18.7337 65.1667 20.9336 65.1667 25.3333V30C65.1667 34.3998 65.1667 36.5996 63.7998 37.9665C62.4329 39.3333 60.2331 39.3333 55.8333 39.3333C51.4336 39.3333 49.2337 39.3333 47.8669 37.9665C46.5 36.5996 46.5 34.3998 46.5 30V25.3333C46.5 20.9336 46.5 18.7337 47.8669 17.3668C49.2337 16 51.4336 16 55.8333 16Z" fill="#24DEEC" stroke="#0A9AB0" stroke-width="1.5" stroke-linecap="round"/>
<path d="M55.833 32.333H55.854" stroke="#F9FAFB" stroke-width="2" stroke-linecap="round" stroke-linejoin="round"/>
</svg>
