<svg width="81" height="80" viewBox="0 0 81 80" fill="none" xmlns="http://www.w3.org/2000/svg">
<rect x="0.5" width="80" height="80" rx="40" fill="white"/>
<path d="M17.167 58.6667H54.5003" stroke="#0A9AB0" stroke-width="1.5" stroke-linecap="round" stroke-linejoin="round"/>
<path d="M21.4246 40.3875C20.7829 39.9208 20.1996 39.3375 19.4996 37.2958C19.3098 36.7895 18.5922 34.251 17.9829 31.9291C17.469 29.9705 17.0111 28.1829 17.2246 27.7291C17.3996 27.2625 17.6329 26.9125 18.3913 26.4458C18.8579 26.1586 21.2496 25.5708 21.7163 25.4541C22.1829 25.3375 22.8246 25.2791 23.3496 25.4541C24.3413 25.6291 26.3829 28.6041 26.9079 28.9541C27.1412 29.1875 27.8996 29.8663 28.7746 29.9458C29.4163 30.0041 30.0579 29.8291 30.7579 29.5375C31.3996 29.2701 44.058 23.1208 45.2247 22.5958C54.733 18.6291 61.6397 25.1508 62.6897 26.5508C63.7747 27.9041 64.008 28.3125 63.7163 29.4791C63.3393 30.7041 62.3163 30.9375 61.733 31.1125C61.1497 31.2875 53.0997 33.4458 49.9497 34.3208C49.2616 34.5448 48.9256 34.9947 48.8413 35.0791C48.433 35.6625 46.578 39.6291 46.053 40.5041C45.6913 41.4375 44.6997 42.6041 43.4163 43.0708C42.0747 43.5375 39.7413 44.0625 39.2163 44.2375C38.6913 44.4125 37.4663 44.7625 37.058 44.6458C36.533 44.5292 36.0313 44.0042 36.2647 43.1875C36.498 42.3708 36.9413 40.0958 36.9997 39.7458C37.058 39.3958 37.6413 37.9375 36.9997 37.8791C36.883 37.7041 35.6579 38.2291 33.8496 38.6375C32.5061 39.0157 31.0991 39.39 30.1163 39.6291C26.3246 40.7375 24.2711 41.0292 23.8163 41.0292C22.9413 41.0292 22.2996 40.9125 21.4246 40.3875Z" fill="#24DEEC" stroke="#0A9AB0" stroke-width="1.5"/>
</svg>
