<svg width="81" height="80" viewBox="0 0 81 80" fill="none" xmlns="http://www.w3.org/2000/svg">
<rect x="0.5" width="80" height="80" rx="40" fill="white"/>
<path d="M17.167 44.6668C17.167 38.1127 17.167 34.8356 18.7399 32.4815C19.4209 31.4624 20.2959 30.5874 21.315 29.9064C23.6691 28.3335 26.9462 28.3335 33.5003 28.3335H47.5003C54.0544 28.3335 57.3316 28.3335 59.6857 29.9064C60.7047 30.5874 61.5797 31.4624 62.2608 32.4815C63.8337 34.8356 63.8337 38.1127 63.8337 44.6668C63.8337 51.2209 63.8337 54.4981 62.2608 56.8522C61.5797 57.8712 60.7047 58.7462 59.6857 59.4273C57.3316 61.0002 54.0544 61.0002 47.5003 61.0002H33.5003C26.9462 61.0002 23.6691 61.0002 21.315 59.4273C20.2959 58.7462 19.4209 57.8712 18.7399 56.8522C17.167 54.4981 17.167 51.2209 17.167 44.6668Z" fill="#24DEEC" stroke="#0A9AB0" stroke-width="1.5" stroke-linecap="round" stroke-linejoin="round"/>
<path d="M50 28C50 23.7574 50 21.636 48.6087 20.318C47.2174 19 44.9783 19 40.5 19C36.0217 19 33.7825 19 32.3913 20.318C31 21.636 31 23.7574 31 28" stroke="#0A9AB0" stroke-width="2" stroke-linecap="round" stroke-linejoin="round"/>
<path d="M26.5 37.6665L28.0213 38.1378C36.0319 40.6205 44.9681 40.6205 52.9787 38.1378L54.5 37.6665M40.5 39.9998V44.6665" stroke="#F9FAFB" stroke-width="1.5" stroke-linecap="round" stroke-linejoin="round"/>
</svg>
