<svg width="60" height="60" viewBox="0 0 60 60" fill="none" xmlns="http://www.w3.org/2000/svg">
<rect width="60" height="60" rx="30" fill="url(#paint0_linear_2345_4369)"/>
<path d="M33.333 34.6892V25.3108C33.333 20.0688 33.333 17.4478 31.7908 16.7956C30.2487 16.1433 28.4335 17.9966 24.8035 21.7033C22.9237 23.6228 21.8511 24.0479 19.1764 24.0479C16.8373 24.0479 15.6677 24.0479 14.8276 24.6211C13.0836 25.811 13.3472 28.1367 13.3472 30.0001C13.3472 31.8634 13.0836 34.1891 14.8276 35.3791C15.6677 35.9522 16.8373 35.9522 19.1764 35.9522C21.8511 35.9522 22.9237 36.3774 24.8035 38.2969C28.4335 42.0036 30.2487 43.8569 31.7908 43.2046C33.333 42.5522 33.333 39.9312 33.333 34.6892Z" fill="white"/>
<path d="M38.333 25C39.3753 26.3661 39.9997 28.1057 39.9997 30C39.9997 31.8943 39.3753 33.6338 38.333 35" stroke="white" stroke-width="2" stroke-linecap="round" stroke-linejoin="round"/>
<path d="M43.333 21.6667C45.4177 23.9436 46.6663 26.8429 46.6663 30.0001C46.6663 33.1572 45.4177 36.0566 43.333 38.3334" stroke="white" stroke-width="2" stroke-linecap="round" stroke-linejoin="round"/>
<defs>
<linearGradient id="paint0_linear_2345_4369" x1="2.74286" y1="5.36772e-07" x2="56.1196" y2="3.0523" gradientUnits="userSpaceOnUse">
<stop stop-color="#48E4EF"/>
<stop offset="1" stop-color="#1B7CF5"/>
</linearGradient>
</defs>
</svg>
