<svg width="32" height="32" viewBox="0 0 32 32" fill="none" xmlns="http://www.w3.org/2000/svg">
<path d="M18.9763 28.6929C24.7129 28.3117 29.2825 23.6772 29.6586 17.8592C29.7321 16.7206 29.7321 15.5415 29.6586 14.4029C29.2825 8.58489 24.7129 3.95049 18.9763 3.56915C17.0191 3.43905 14.9758 3.43933 13.0226 3.56915C7.28592 3.95049 2.71634 8.58489 2.34034 14.4029C2.26676 15.5415 2.26676 16.7206 2.34034 17.8592C2.47729 19.9782 3.41443 21.9402 4.51771 23.5968C5.15831 24.7567 4.73554 26.2042 4.0683 27.4687C3.5872 28.3804 3.34665 28.8363 3.53979 29.1655C3.73294 29.4948 4.16437 29.5054 5.02723 29.5264C6.73361 29.5679 7.88426 29.0841 8.79763 28.4106C9.31564 28.0286 9.57467 27.8376 9.75319 27.8156C9.93169 27.7937 10.283 27.9384 10.9855 28.2278C11.6169 28.4878 12.35 28.6482 13.0226 28.6929C14.9758 28.8228 17.0191 28.8231 18.9763 28.6929Z" fill="#1751B6"/>
<path d="M16.8346 23.5V15.1667C16.8346 14.381 16.8346 13.9882 16.5905 13.744C16.3465 13.5 15.9536 13.5 15.168 13.5" stroke="white" stroke-width="1.5" stroke-linecap="round" stroke-linejoin="round"/>
<path d="M16.418 8.5H16.433" stroke="white" stroke-width="2" stroke-linecap="round" stroke-linejoin="round"/>
</svg>
