<svg width="40" height="40" viewBox="0 0 40 40" fill="none" xmlns="http://www.w3.org/2000/svg">
<rect width="40" height="40" rx="20" fill="white"/>
<path d="M18.9936 12.9999C17.2925 12.9999 16.0801 13.5153 15.2088 14.3827C14.3594 15.2297 13.8911 16.358 13.5541 17.4721L13.0056 19.2871H11.1616C11.0053 19.2871 10.8554 19.3492 10.7449 19.4597C10.6344 19.5703 10.5723 19.7201 10.5723 19.8764C10.5723 20.9316 11.1718 21.8274 12.0431 22.3121L11.5811 23.4373C11.4847 23.672 11.4475 23.9267 11.4728 24.1792C11.4981 24.4316 11.5851 24.6739 11.7262 24.8848C11.8672 25.0957 12.058 25.2686 12.2817 25.3883C12.5054 25.508 12.7551 25.5709 13.0088 25.5713H14.7326C15.3313 25.5713 15.8758 25.2248 16.1304 24.6834L16.6851 23.5017C18.233 23.7162 19.8036 23.7186 21.3523 23.5096L21.9031 24.6826C22.0279 24.948 22.2256 25.1723 22.4731 25.3297C22.7205 25.487 23.0076 25.5708 23.3008 25.5713H25.0074C25.2613 25.5714 25.5113 25.509 25.7353 25.3894C25.9593 25.2698 26.1504 25.0969 26.2916 24.8859C26.4328 24.6748 26.5197 24.4322 26.5447 24.1795C26.5698 23.9269 26.5321 23.6719 26.4351 23.4373L26.0202 22.4284H27.8564C28.6516 22.4284 29.4278 21.8132 29.4278 20.9466V20.0713C29.4278 18.7316 28.265 17.7165 26.9277 17.7165H24.6098L24.5368 17.4729C24.1966 16.3478 23.7008 15.2211 22.8247 14.3772C21.9298 13.5137 20.6954 12.9999 18.9936 12.9999ZM25.68 21.2499L24.9673 18.8943H26.9277C27.7016 18.8943 28.2493 19.4663 28.2493 20.0705V20.9458C28.2493 21.0526 28.1157 21.2491 27.8564 21.2491L25.68 21.2499ZM22.5568 23.3029C23.332 23.141 24.0951 22.926 24.8408 22.6594L25.3453 23.8851C25.3682 23.9408 25.377 24.0013 25.3711 24.0612C25.3652 24.1211 25.3447 24.1786 25.3113 24.2288C25.2779 24.2789 25.2328 24.32 25.1798 24.3486C25.1268 24.3772 25.0676 24.3924 25.0074 24.3927H23.3008C23.2315 24.3922 23.1637 24.3722 23.1052 24.335C23.0467 24.2977 22.9999 24.2448 22.9701 24.1821L22.5568 23.3029ZM13.3443 22.6924C14.0477 22.9391 14.7601 23.1387 15.4814 23.2911L15.0634 24.1821C15.0337 24.2446 14.987 24.2975 14.9286 24.3348C14.8703 24.372 14.8026 24.3921 14.7334 24.3927H13.008C12.9479 24.3923 12.8888 24.3772 12.8359 24.3486C12.783 24.3201 12.7379 24.279 12.7046 24.229C12.6712 24.179 12.6506 24.1216 12.6446 24.0617C12.6386 24.0019 12.6474 23.9416 12.6701 23.8859L13.1675 22.6759C13.2256 22.6833 13.2843 22.6888 13.3435 22.6924M12.6489 20.4649L12.436 21.1697C12.1866 20.9908 11.991 20.7471 11.8703 20.4649H12.6489Z" fill="#3FA1FF"/>
</svg>
