<svg width="40" height="40" viewBox="0 0 40 40" fill="none" xmlns="http://www.w3.org/2000/svg">
<rect width="40" height="40" rx="20" fill="#142C57"/>
<path d="M21.666 22.3443V17.6551C21.666 15.0341 21.666 13.7236 20.8949 13.3974C20.1239 13.0713 19.2163 13.9979 17.4013 15.8513C16.4613 16.811 15.9251 17.0236 14.5877 17.0236C13.4182 17.0236 12.8334 17.0236 12.4133 17.3102C11.5413 17.9051 11.6731 19.068 11.6731 19.9997C11.6731 20.9313 11.5413 22.0942 12.4133 22.6892C12.8334 22.9758 13.4182 22.9758 14.5877 22.9758C15.9251 22.9758 16.4613 23.1883 17.4013 24.1481C19.2163 26.0014 20.1239 26.9281 20.8949 26.6019C21.666 26.2758 21.666 24.9653 21.666 22.3443Z" fill="#ECFFFF" stroke="#ECFFFF" stroke-width="1.5" stroke-linecap="round" stroke-linejoin="round"/>
<path d="M24.166 17.5C24.6872 18.1831 24.9993 19.0528 24.9993 20C24.9993 20.9472 24.6872 21.8169 24.166 22.5" stroke="#ECFFFF" stroke-width="1.5" stroke-linecap="round" stroke-linejoin="round"/>
<path d="M26.666 15.833C27.7083 16.9714 28.3327 18.4211 28.3327 19.9997C28.3327 21.5783 27.7083 23.0279 26.666 24.1663" stroke="#ECFFFF" stroke-width="1.5" stroke-linecap="round" stroke-linejoin="round"/>
</svg>
