<svg width="40" height="40" viewBox="0 0 40 40" fill="none" xmlns="http://www.w3.org/2000/svg">
<rect width="40" height="40" rx="20" fill="#142C57"/>
<path d="M18.9936 13C17.2925 13 16.0801 13.5154 15.2088 14.3829C14.3594 15.2299 13.8911 16.3581 13.5541 17.4723L13.0056 19.2873H11.1616C11.0053 19.2873 10.8554 19.3494 10.7449 19.4599C10.6344 19.5704 10.5723 19.7203 10.5723 19.8766C10.5723 20.9318 11.1718 21.8275 12.0431 22.3123L11.5811 23.4374C11.4847 23.6721 11.4475 23.9269 11.4728 24.1793C11.4981 24.4317 11.5851 24.6741 11.7262 24.8849C11.8672 25.0958 12.058 25.2687 12.2817 25.3884C12.5054 25.5082 12.7551 25.571 13.0088 25.5714H14.7326C15.3313 25.5714 15.8758 25.2249 16.1304 24.6836L16.6851 23.5019C18.233 23.7164 19.8036 23.7187 21.3523 23.5097L21.9031 24.6828C22.0279 24.9481 22.2256 25.1725 22.4731 25.3298C22.7205 25.4871 23.0076 25.5709 23.3008 25.5714H25.0074C25.2613 25.5716 25.5113 25.5091 25.7353 25.3895C25.9593 25.27 26.1504 25.097 26.2916 24.886C26.4328 24.675 26.5197 24.4324 26.5447 24.1797C26.5698 23.927 26.5321 23.6721 26.4351 23.4374L26.0202 22.4286H27.8564C28.6516 22.4286 29.4278 21.8134 29.4278 20.9467V20.0714C29.4278 18.7318 28.265 17.7166 26.9277 17.7166H24.6098L24.5368 17.4731C24.1966 16.3479 23.7008 15.2212 22.8247 14.3774C21.9298 13.5139 20.6954 13 18.9936 13ZM25.68 21.25L24.9673 18.8944H26.9277C27.7016 18.8944 28.2493 19.4664 28.2493 20.0706V20.9459C28.2493 21.0528 28.1157 21.2492 27.8564 21.2492L25.68 21.25ZM22.5568 23.3031C23.332 23.1411 24.0951 22.9261 24.8408 22.6596L25.3453 23.8853C25.3682 23.941 25.377 24.0014 25.3711 24.0613C25.3652 24.1212 25.3447 24.1788 25.3113 24.2289C25.2779 24.279 25.2328 24.3202 25.1798 24.3488C25.1268 24.3774 25.0676 24.3925 25.0074 24.3929H23.3008C23.2315 24.3924 23.1637 24.3723 23.1052 24.3351C23.0467 24.2979 22.9999 24.2449 22.9701 24.1823L22.5568 23.3031ZM13.3443 22.6926C14.0477 22.9393 14.7601 23.1389 15.4814 23.2913L15.0634 24.1823C15.0337 24.2448 14.987 24.2977 14.9286 24.3349C14.8703 24.3721 14.8026 24.3922 14.7334 24.3929H13.008C12.9479 24.3924 12.8888 24.3773 12.8359 24.3488C12.783 24.3202 12.7379 24.2791 12.7046 24.2291C12.6712 24.1791 12.6506 24.1217 12.6446 24.0619C12.6386 24.0021 12.6474 23.9417 12.6701 23.8861L13.1675 22.6761C13.2256 22.6834 13.2843 22.6889 13.3435 22.6926M12.6489 20.4651L12.436 21.1699C12.1866 20.991 11.991 20.7472 11.8703 20.4651H12.6489Z" fill="#EEF8FF"/>
</svg>
